<?xml version="1.0" encoding="utf-8"?>
<svg xmlns="http://www.w3.org/2000/svg" xmlns:xlink="http://www.w3.org/1999/xlink" width="600" height="400" viewBox="0 0 2400 1600">
<defs>
  <clipPath id="clip550">
    <rect x="0" y="0" width="2400" height="1600"/>
  </clipPath>
</defs>
<path clip-path="url(#clip550)" d="
M0 1600 L2400 1600 L2400 0 L0 0  Z
  " fill="#ffffff" fill-rule="evenodd" fill-opacity="1"/>
<defs>
  <clipPath id="clip551">
    <rect x="480" y="0" width="1681" height="1600"/>
  </clipPath>
</defs>
<path clip-path="url(#clip550)" d="
M412.524 1341.1 L2352.76 1341.1 L2352.76 47.2441 L412.524 47.2441  Z
  " fill="#ffffff" fill-rule="evenodd" fill-opacity="1"/>
<defs>
  <clipPath id="clip552">
    <rect x="412" y="47" width="1941" height="1295"/>
  </clipPath>
</defs>
<polyline clip-path="url(#clip550)" style="stroke:#000000; stroke-linecap:butt; stroke-linejoin:round; stroke-width:4; stroke-opacity:1; fill:none" points="
  412.524,1341.1 2352.76,1341.1 
  "/>
<polyline clip-path="url(#clip550)" style="stroke:#000000; stroke-linecap:butt; stroke-linejoin:round; stroke-width:4; stroke-opacity:1; fill:none" points="
  458.72,1341.1 458.72,1322.2 
  "/>
<polyline clip-path="url(#clip550)" style="stroke:#000000; stroke-linecap:butt; stroke-linejoin:round; stroke-width:4; stroke-opacity:1; fill:none" points="
  920.68,1341.1 920.68,1322.2 
  "/>
<polyline clip-path="url(#clip550)" style="stroke:#000000; stroke-linecap:butt; stroke-linejoin:round; stroke-width:4; stroke-opacity:1; fill:none" points="
  1382.64,1341.1 1382.64,1322.2 
  "/>
<polyline clip-path="url(#clip550)" style="stroke:#000000; stroke-linecap:butt; stroke-linejoin:round; stroke-width:4; stroke-opacity:1; fill:none" points="
  1844.6,1341.1 1844.6,1322.2 
  "/>
<polyline clip-path="url(#clip550)" style="stroke:#000000; stroke-linecap:butt; stroke-linejoin:round; stroke-width:4; stroke-opacity:1; fill:none" points="
  2306.56,1341.1 2306.56,1322.2 
  "/>
<path clip-path="url(#clip550)" d="M391.091 1419.64 L457.861 1419.64 L457.861 1428.49 L391.091 1428.49 L391.091 1419.64 Z" fill="#000000" fill-rule="evenodd" fill-opacity="1" /><path clip-path="url(#clip550)" d="M489.632 1448.65 L526.35 1448.65 L526.35 1457.5 L476.975 1457.5 L476.975 1448.65 Q482.965 1442.45 493.277 1432.03 Q503.642 1421.56 506.298 1418.54 Q511.35 1412.86 513.329 1408.96 Q515.361 1405 515.361 1401.2 Q515.361 1395 510.986 1391.09 Q506.663 1387.19 499.684 1387.19 Q494.736 1387.19 489.215 1388.91 Q483.746 1390.63 477.496 1394.11 L477.496 1383.49 Q483.85 1380.94 489.371 1379.64 Q494.892 1378.33 499.475 1378.33 Q511.559 1378.33 518.746 1384.38 Q525.934 1390.42 525.934 1400.52 Q525.934 1405.31 524.111 1409.64 Q522.34 1413.91 517.6 1419.74 Q516.298 1421.25 509.319 1428.49 Q502.34 1435.68 489.632 1448.65 Z" fill="#000000" fill-rule="evenodd" fill-opacity="1" /><path clip-path="url(#clip550)" d="M852.634 1419.64 L919.404 1419.64 L919.404 1428.49 L852.634 1428.49 L852.634 1419.64 Z" fill="#000000" fill-rule="evenodd" fill-opacity="1" /><path clip-path="url(#clip550)" d="M943.935 1448.65 L961.123 1448.65 L961.123 1389.32 L942.425 1393.07 L942.425 1383.49 L961.019 1379.74 L971.539 1379.74 L971.539 1448.65 L988.727 1448.65 L988.727 1457.5 L943.935 1457.5 L943.935 1448.65 Z" fill="#000000" fill-rule="evenodd" fill-opacity="1" /><path clip-path="url(#clip550)" d="M1382.64 1386.67 Q1374.52 1386.67 1370.4 1394.69 Q1366.34 1402.66 1366.34 1418.7 Q1366.34 1434.69 1370.4 1442.71 Q1374.52 1450.68 1382.64 1450.68 Q1390.82 1450.68 1394.88 1442.71 Q1398.99 1434.69 1398.99 1418.7 Q1398.99 1402.66 1394.88 1394.69 Q1390.82 1386.67 1382.64 1386.67 M1382.64 1378.33 Q1395.71 1378.33 1402.59 1388.7 Q1409.51 1399.01 1409.51 1418.7 Q1409.51 1438.33 1402.59 1448.7 Q1395.71 1459.01 1382.64 1459.01 Q1369.57 1459.01 1362.64 1448.7 Q1355.77 1438.33 1355.77 1418.7 Q1355.77 1399.01 1362.64 1388.7 Q1369.57 1378.33 1382.64 1378.33 Z" fill="#000000" fill-rule="evenodd" fill-opacity="1" /><path clip-path="url(#clip550)" d="M1822.96 1448.65 L1840.15 1448.65 L1840.15 1389.32 L1821.45 1393.07 L1821.45 1383.49 L1840.04 1379.74 L1850.56 1379.74 L1850.56 1448.65 L1867.75 1448.65 L1867.75 1457.5 L1822.96 1457.5 L1822.96 1448.65 Z" fill="#000000" fill-rule="evenodd" fill-opacity="1" /><path clip-path="url(#clip550)" d="M2294.53 1448.65 L2331.25 1448.65 L2331.25 1457.5 L2281.87 1457.5 L2281.87 1448.65 Q2287.86 1442.45 2298.17 1432.03 Q2308.54 1421.56 2311.2 1418.54 Q2316.25 1412.86 2318.23 1408.96 Q2320.26 1405 2320.26 1401.2 Q2320.26 1395 2315.88 1391.09 Q2311.56 1387.19 2304.58 1387.19 Q2299.63 1387.19 2294.11 1388.91 Q2288.64 1390.63 2282.39 1394.11 L2282.39 1383.49 Q2288.75 1380.94 2294.27 1379.64 Q2299.79 1378.33 2304.37 1378.33 Q2316.46 1378.33 2323.64 1384.38 Q2330.83 1390.42 2330.83 1400.52 Q2330.83 1405.31 2329.01 1409.64 Q2327.24 1413.91 2322.5 1419.74 Q2321.2 1421.25 2314.22 1428.49 Q2307.24 1435.68 2294.53 1448.65 Z" fill="#000000" fill-rule="evenodd" fill-opacity="1" /><path clip-path="url(#clip550)" d="M1328.07 1532.61 L1304.63 1564.14 L1329.28 1597.42 L1316.73 1597.42 L1297.86 1571.96 L1278.99 1597.42 L1266.44 1597.42 L1291.61 1563.51 L1268.58 1532.61 L1281.14 1532.61 L1298.32 1555.7 L1315.51 1532.61 L1328.07 1532.61 Z" fill="#000000" fill-rule="evenodd" fill-opacity="1" /><path clip-path="url(#clip550)" d="M1363.25 1511.02 L1373.09 1511.02 L1343 1608.42 L1333.16 1608.42 L1363.25 1511.02 Z" fill="#000000" fill-rule="evenodd" fill-opacity="1" /><path clip-path="url(#clip550)" d="M1425.7 1556.91 Q1429.46 1558.18 1432.99 1562.35 Q1436.58 1566.52 1440.16 1573.81 L1452.03 1597.42 L1439.47 1597.42 L1428.42 1575.26 Q1424.13 1566.58 1420.08 1563.74 Q1416.09 1560.9 1409.14 1560.9 L1396.41 1560.9 L1396.41 1597.42 L1384.72 1597.42 L1384.72 1511.02 L1411.11 1511.02 Q1425.93 1511.02 1433.22 1517.21 Q1440.51 1523.4 1440.51 1535.9 Q1440.51 1544.06 1436.69 1549.45 Q1432.93 1554.83 1425.7 1556.91 M1396.41 1520.63 L1396.41 1551.3 L1411.11 1551.3 Q1419.56 1551.3 1423.84 1547.42 Q1428.18 1543.48 1428.18 1535.9 Q1428.18 1528.32 1423.84 1524.5 Q1419.56 1520.63 1411.11 1520.63 L1396.41 1520.63 Z" fill="#000000" fill-rule="evenodd" fill-opacity="1" /><path clip-path="url(#clip550)" d="M1488.43 1558.24 Q1485.53 1553.26 1479.69 1553.26 Q1473.84 1553.26 1470.95 1558.24 Q1468 1563.22 1468 1573.17 Q1468 1583.18 1470.95 1588.16 Q1473.84 1593.14 1479.69 1593.14 Q1485.53 1593.14 1488.43 1588.16 Q1491.38 1583.18 1491.38 1573.17 Q1491.38 1563.22 1488.43 1558.24 M1479.69 1548.11 Q1489.01 1548.11 1493.92 1554.54 Q1498.84 1560.96 1498.84 1573.17 Q1498.84 1585.44 1493.92 1591.86 Q1489.01 1598.29 1479.69 1598.29 Q1470.31 1598.29 1465.39 1591.86 Q1460.48 1585.44 1460.48 1573.17 Q1460.48 1560.96 1465.39 1554.54 Q1470.31 1548.11 1479.69 1548.11 Z" fill="#000000" fill-rule="evenodd" fill-opacity="1" /><polyline clip-path="url(#clip550)" style="stroke:#000000; stroke-linecap:butt; stroke-linejoin:round; stroke-width:4; stroke-opacity:1; fill:none" points="
  412.524,1341.1 412.524,47.2441 
  "/>
<polyline clip-path="url(#clip550)" style="stroke:#000000; stroke-linecap:butt; stroke-linejoin:round; stroke-width:4; stroke-opacity:1; fill:none" points="
  412.524,1341.1 431.422,1341.1 
  "/>
<polyline clip-path="url(#clip550)" style="stroke:#000000; stroke-linecap:butt; stroke-linejoin:round; stroke-width:4; stroke-opacity:1; fill:none" points="
  412.524,1082.33 431.422,1082.33 
  "/>
<polyline clip-path="url(#clip550)" style="stroke:#000000; stroke-linecap:butt; stroke-linejoin:round; stroke-width:4; stroke-opacity:1; fill:none" points="
  412.524,823.558 431.422,823.558 
  "/>
<polyline clip-path="url(#clip550)" style="stroke:#000000; stroke-linecap:butt; stroke-linejoin:round; stroke-width:4; stroke-opacity:1; fill:none" points="
  412.524,564.786 431.422,564.786 
  "/>
<polyline clip-path="url(#clip550)" style="stroke:#000000; stroke-linecap:butt; stroke-linejoin:round; stroke-width:4; stroke-opacity:1; fill:none" points="
  412.524,306.015 431.422,306.015 
  "/>
<polyline clip-path="url(#clip550)" style="stroke:#000000; stroke-linecap:butt; stroke-linejoin:round; stroke-width:4; stroke-opacity:1; fill:none" points="
  412.524,47.2441 431.422,47.2441 
  "/>
<path clip-path="url(#clip550)" d="M180.015 1309.15 Q171.89 1309.15 167.775 1317.17 Q163.713 1325.14 163.713 1341.18 Q163.713 1357.17 167.775 1365.19 Q171.89 1373.16 180.015 1373.16 Q188.192 1373.16 192.255 1365.19 Q196.369 1357.17 196.369 1341.18 Q196.369 1325.14 192.255 1317.17 Q188.192 1309.15 180.015 1309.15 M180.015 1300.81 Q193.088 1300.81 199.963 1311.18 Q206.89 1321.49 206.89 1341.18 Q206.89 1360.81 199.963 1371.18 Q193.088 1381.49 180.015 1381.49 Q166.942 1381.49 160.015 1371.18 Q153.14 1360.81 153.14 1341.18 Q153.14 1321.49 160.015 1311.18 Q166.942 1300.81 180.015 1300.81 Z" fill="#000000" fill-rule="evenodd" fill-opacity="1" /><path clip-path="url(#clip550)" d="M225.379 1366.75 L236.369 1366.75 L236.369 1379.98 L225.379 1379.98 L225.379 1366.75 Z" fill="#000000" fill-rule="evenodd" fill-opacity="1" /><path clip-path="url(#clip550)" d="M281.785 1309.15 Q273.66 1309.15 269.546 1317.17 Q265.483 1325.14 265.483 1341.18 Q265.483 1357.17 269.546 1365.19 Q273.66 1373.16 281.785 1373.16 Q289.962 1373.16 294.025 1365.19 Q298.139 1357.17 298.139 1341.18 Q298.139 1325.14 294.025 1317.17 Q289.962 1309.15 281.785 1309.15 M281.785 1300.81 Q294.858 1300.81 301.733 1311.18 Q308.66 1321.49 308.66 1341.18 Q308.66 1360.81 301.733 1371.18 Q294.858 1381.49 281.785 1381.49 Q268.712 1381.49 261.785 1371.18 Q254.91 1360.81 254.91 1341.18 Q254.91 1321.49 261.785 1311.18 Q268.712 1300.81 281.785 1300.81 Z" fill="#000000" fill-rule="evenodd" fill-opacity="1" /><path clip-path="url(#clip550)" d="M349.65 1309.15 Q341.525 1309.15 337.41 1317.17 Q333.348 1325.14 333.348 1341.18 Q333.348 1357.17 337.41 1365.19 Q341.525 1373.16 349.65 1373.16 Q357.827 1373.16 361.889 1365.19 Q366.004 1357.17 366.004 1341.18 Q366.004 1325.14 361.889 1317.17 Q357.827 1309.15 349.65 1309.15 M349.65 1300.81 Q362.722 1300.81 369.597 1311.18 Q376.524 1321.49 376.524 1341.18 Q376.524 1360.81 369.597 1371.18 Q362.722 1381.49 349.65 1381.49 Q336.577 1381.49 329.65 1371.18 Q322.775 1360.81 322.775 1341.18 Q322.775 1321.49 329.65 1311.18 Q336.577 1300.81 349.65 1300.81 Z" fill="#000000" fill-rule="evenodd" fill-opacity="1" /><path clip-path="url(#clip550)" d="M182.255 1050.38 Q174.13 1050.38 170.015 1058.4 Q165.953 1066.37 165.953 1082.41 Q165.953 1098.4 170.015 1106.42 Q174.13 1114.39 182.255 1114.39 Q190.432 1114.39 194.494 1106.42 Q198.609 1098.4 198.609 1082.41 Q198.609 1066.37 194.494 1058.4 Q190.432 1050.38 182.255 1050.38 M182.255 1042.04 Q195.327 1042.04 202.202 1052.41 Q209.129 1062.72 209.129 1082.41 Q209.129 1102.04 202.202 1112.41 Q195.327 1122.72 182.255 1122.72 Q169.182 1122.72 162.255 1112.41 Q155.38 1102.04 155.38 1082.41 Q155.38 1062.72 162.255 1052.41 Q169.182 1042.04 182.255 1042.04 Z" fill="#000000" fill-rule="evenodd" fill-opacity="1" /><path clip-path="url(#clip550)" d="M227.619 1107.98 L238.608 1107.98 L238.608 1121.21 L227.619 1121.21 L227.619 1107.98 Z" fill="#000000" fill-rule="evenodd" fill-opacity="1" /><path clip-path="url(#clip550)" d="M284.025 1050.38 Q275.9 1050.38 271.785 1058.4 Q267.723 1066.37 267.723 1082.41 Q267.723 1098.4 271.785 1106.42 Q275.9 1114.39 284.025 1114.39 Q292.202 1114.39 296.264 1106.42 Q300.379 1098.4 300.379 1082.41 Q300.379 1066.37 296.264 1058.4 Q292.202 1050.38 284.025 1050.38 M284.025 1042.04 Q297.098 1042.04 303.973 1052.41 Q310.9 1062.72 310.9 1082.41 Q310.9 1102.04 303.973 1112.41 Q297.098 1122.72 284.025 1122.72 Q270.952 1122.72 264.025 1112.41 Q257.15 1102.04 257.15 1082.41 Q257.15 1062.72 264.025 1052.41 Q270.952 1042.04 284.025 1042.04 Z" fill="#000000" fill-rule="evenodd" fill-opacity="1" /><path clip-path="url(#clip550)" d="M329.493 1043.45 L370.795 1043.45 L370.795 1052.3 L339.129 1052.3 L339.129 1071.37 Q341.42 1070.58 343.712 1070.22 Q346.004 1069.8 348.295 1069.8 Q361.316 1069.8 368.92 1076.94 Q376.524 1084.07 376.524 1096.26 Q376.524 1108.81 368.712 1115.79 Q360.899 1122.72 346.681 1122.72 Q341.785 1122.72 336.681 1121.89 Q331.629 1121.05 326.212 1119.39 L326.212 1108.81 Q330.9 1111.36 335.9 1112.61 Q340.9 1113.86 346.472 1113.86 Q355.483 1113.86 360.743 1109.13 Q366.004 1104.39 366.004 1096.26 Q366.004 1088.14 360.743 1083.4 Q355.483 1078.66 346.472 1078.66 Q342.254 1078.66 338.035 1079.59 Q333.868 1080.53 329.493 1082.51 L329.493 1043.45 Z" fill="#000000" fill-rule="evenodd" fill-opacity="1" /><path clip-path="url(#clip550)" d="M180.015 791.605 Q171.89 791.605 167.775 799.625 Q163.713 807.594 163.713 823.636 Q163.713 839.625 167.775 847.646 Q171.89 855.615 180.015 855.615 Q188.192 855.615 192.255 847.646 Q196.369 839.625 196.369 823.636 Q196.369 807.594 192.255 799.625 Q188.192 791.605 180.015 791.605 M180.015 783.271 Q193.088 783.271 199.963 793.636 Q206.89 803.948 206.89 823.636 Q206.89 843.271 199.963 853.636 Q193.088 863.948 180.015 863.948 Q166.942 863.948 160.015 853.636 Q153.14 843.271 153.14 823.636 Q153.14 803.948 160.015 793.636 Q166.942 783.271 180.015 783.271 Z" fill="#000000" fill-rule="evenodd" fill-opacity="1" /><path clip-path="url(#clip550)" d="M225.379 849.208 L236.369 849.208 L236.369 862.438 L225.379 862.438 L225.379 849.208 Z" fill="#000000" fill-rule="evenodd" fill-opacity="1" /><path clip-path="url(#clip550)" d="M261.108 853.583 L278.296 853.583 L278.296 794.261 L259.598 798.011 L259.598 788.428 L278.192 784.678 L288.712 784.678 L288.712 853.583 L305.9 853.583 L305.9 862.438 L261.108 862.438 L261.108 853.583 Z" fill="#000000" fill-rule="evenodd" fill-opacity="1" /><path clip-path="url(#clip550)" d="M349.65 791.605 Q341.525 791.605 337.41 799.625 Q333.348 807.594 333.348 823.636 Q333.348 839.625 337.41 847.646 Q341.525 855.615 349.65 855.615 Q357.827 855.615 361.889 847.646 Q366.004 839.625 366.004 823.636 Q366.004 807.594 361.889 799.625 Q357.827 791.605 349.65 791.605 M349.65 783.271 Q362.722 783.271 369.597 793.636 Q376.524 803.948 376.524 823.636 Q376.524 843.271 369.597 853.636 Q362.722 863.948 349.65 863.948 Q336.577 863.948 329.65 853.636 Q322.775 843.271 322.775 823.636 Q322.775 803.948 329.65 793.636 Q336.577 783.271 349.65 783.271 Z" fill="#000000" fill-rule="evenodd" fill-opacity="1" /><path clip-path="url(#clip550)" d="M182.255 532.833 Q174.13 532.833 170.015 540.854 Q165.953 548.823 165.953 564.865 Q165.953 580.854 170.015 588.875 Q174.13 596.844 182.255 596.844 Q190.432 596.844 194.494 588.875 Q198.609 580.854 198.609 564.865 Q198.609 548.823 194.494 540.854 Q190.432 532.833 182.255 532.833 M182.255 524.5 Q195.327 524.5 202.202 534.865 Q209.129 545.177 209.129 564.865 Q209.129 584.5 202.202 594.864 Q195.327 605.177 182.255 605.177 Q169.182 605.177 162.255 594.864 Q155.38 584.5 155.38 564.865 Q155.38 545.177 162.255 534.865 Q169.182 524.5 182.255 524.5 Z" fill="#000000" fill-rule="evenodd" fill-opacity="1" /><path clip-path="url(#clip550)" d="M227.619 590.437 L238.608 590.437 L238.608 603.666 L227.619 603.666 L227.619 590.437 Z" fill="#000000" fill-rule="evenodd" fill-opacity="1" /><path clip-path="url(#clip550)" d="M263.348 594.812 L280.535 594.812 L280.535 535.49 L261.837 539.24 L261.837 529.656 L280.431 525.906 L290.952 525.906 L290.952 594.812 L308.139 594.812 L308.139 603.666 L263.348 603.666 L263.348 594.812 Z" fill="#000000" fill-rule="evenodd" fill-opacity="1" /><path clip-path="url(#clip550)" d="M329.493 525.906 L370.795 525.906 L370.795 534.761 L339.129 534.761 L339.129 553.823 Q341.42 553.042 343.712 552.677 Q346.004 552.26 348.295 552.26 Q361.316 552.26 368.92 559.396 Q376.524 566.531 376.524 578.719 Q376.524 591.271 368.712 598.25 Q360.899 605.177 346.681 605.177 Q341.785 605.177 336.681 604.343 Q331.629 603.51 326.212 601.843 L326.212 591.271 Q330.9 593.823 335.9 595.073 Q340.9 596.323 346.472 596.323 Q355.483 596.323 360.743 591.583 Q366.004 586.844 366.004 578.719 Q366.004 570.594 360.743 565.854 Q355.483 561.115 346.472 561.115 Q342.254 561.115 338.035 562.052 Q333.868 562.99 329.493 564.969 L329.493 525.906 Z" fill="#000000" fill-rule="evenodd" fill-opacity="1" /><path clip-path="url(#clip550)" d="M180.015 274.062 Q171.89 274.062 167.775 282.083 Q163.713 290.052 163.713 306.093 Q163.713 322.083 167.775 330.104 Q171.89 338.072 180.015 338.072 Q188.192 338.072 192.255 330.104 Q196.369 322.083 196.369 306.093 Q196.369 290.052 192.255 282.083 Q188.192 274.062 180.015 274.062 M180.015 265.729 Q193.088 265.729 199.963 276.094 Q206.89 286.406 206.89 306.093 Q206.89 325.729 199.963 336.093 Q193.088 346.406 180.015 346.406 Q166.942 346.406 160.015 336.093 Q153.14 325.729 153.14 306.093 Q153.14 286.406 160.015 276.094 Q166.942 265.729 180.015 265.729 Z" fill="#000000" fill-rule="evenodd" fill-opacity="1" /><path clip-path="url(#clip550)" d="M225.379 331.666 L236.369 331.666 L236.369 344.895 L225.379 344.895 L225.379 331.666 Z" fill="#000000" fill-rule="evenodd" fill-opacity="1" /><path clip-path="url(#clip550)" d="M268.348 336.041 L305.066 336.041 L305.066 344.895 L255.692 344.895 L255.692 336.041 Q261.681 329.843 271.994 319.427 Q282.358 308.958 285.014 305.937 Q290.067 300.26 292.046 296.354 Q294.077 292.396 294.077 288.593 Q294.077 282.396 289.702 278.489 Q285.379 274.583 278.4 274.583 Q273.452 274.583 267.931 276.302 Q262.462 278.021 256.213 281.51 L256.213 270.885 Q262.567 268.333 268.087 267.031 Q273.608 265.729 278.192 265.729 Q290.275 265.729 297.462 271.771 Q304.65 277.812 304.65 287.916 Q304.65 292.708 302.827 297.031 Q301.056 301.302 296.316 307.135 Q295.014 308.645 288.035 315.885 Q281.056 323.072 268.348 336.041 Z" fill="#000000" fill-rule="evenodd" fill-opacity="1" /><path clip-path="url(#clip550)" d="M349.65 274.062 Q341.525 274.062 337.41 282.083 Q333.348 290.052 333.348 306.093 Q333.348 322.083 337.41 330.104 Q341.525 338.072 349.65 338.072 Q357.827 338.072 361.889 330.104 Q366.004 322.083 366.004 306.093 Q366.004 290.052 361.889 282.083 Q357.827 274.062 349.65 274.062 M349.65 265.729 Q362.722 265.729 369.597 276.094 Q376.524 286.406 376.524 306.093 Q376.524 325.729 369.597 336.093 Q362.722 346.406 349.65 346.406 Q336.577 346.406 329.65 336.093 Q322.775 325.729 322.775 306.093 Q322.775 286.406 329.65 276.094 Q336.577 265.729 349.65 265.729 Z" fill="#000000" fill-rule="evenodd" fill-opacity="1" /><path clip-path="url(#clip550)" d="M182.255 15.2911 Q174.13 15.2911 170.015 23.3119 Q165.953 31.2806 165.953 47.3222 Q165.953 63.3117 170.015 71.3325 Q174.13 79.3012 182.255 79.3012 Q190.432 79.3012 194.494 71.3325 Q198.609 63.3117 198.609 47.3222 Q198.609 31.2806 194.494 23.3119 Q190.432 15.2911 182.255 15.2911 M182.255 6.95785 Q195.327 6.95785 202.202 17.3224 Q209.129 27.6348 209.129 47.3222 Q209.129 66.9575 202.202 77.3221 Q195.327 87.6345 182.255 87.6345 Q169.182 87.6345 162.255 77.3221 Q155.38 66.9575 155.38 47.3222 Q155.38 27.6348 162.255 17.3224 Q169.182 6.95785 182.255 6.95785 Z" fill="#000000" fill-rule="evenodd" fill-opacity="1" /><path clip-path="url(#clip550)" d="M227.619 72.895 L238.608 72.895 L238.608 86.1241 L227.619 86.1241 L227.619 72.895 Z" fill="#000000" fill-rule="evenodd" fill-opacity="1" /><path clip-path="url(#clip550)" d="M270.587 77.27 L307.306 77.27 L307.306 86.1241 L257.931 86.1241 L257.931 77.27 Q263.921 71.0721 274.233 60.6555 Q284.598 50.1868 287.254 47.166 Q292.306 41.4889 294.285 37.5827 Q296.316 33.6244 296.316 29.8223 Q296.316 23.6244 291.941 19.7182 Q287.619 15.812 280.639 15.812 Q275.692 15.812 270.171 17.5307 Q264.702 19.2495 258.452 22.739 L258.452 12.1141 Q264.806 9.562 270.327 8.25993 Q275.848 6.95785 280.431 6.95785 Q292.514 6.95785 299.702 12.9995 Q306.889 19.0411 306.889 29.1452 Q306.889 33.9369 305.066 38.2598 Q303.296 42.5306 298.556 48.3639 Q297.254 49.8743 290.275 57.1138 Q283.296 64.3013 270.587 77.27 Z" fill="#000000" fill-rule="evenodd" fill-opacity="1" /><path clip-path="url(#clip550)" d="M329.493 8.36409 L370.795 8.36409 L370.795 17.2182 L339.129 17.2182 L339.129 36.2806 Q341.42 35.4994 343.712 35.1348 Q346.004 34.7181 348.295 34.7181 Q361.316 34.7181 368.92 41.8535 Q376.524 48.9889 376.524 61.1763 Q376.524 73.7283 368.712 80.7075 Q360.899 87.6345 346.681 87.6345 Q341.785 87.6345 336.681 86.8012 Q331.629 85.9678 326.212 84.3012 L326.212 73.7283 Q330.9 76.2804 335.9 77.5304 Q340.9 78.7804 346.472 78.7804 Q355.483 78.7804 360.743 74.0408 Q366.004 69.3013 366.004 61.1763 Q366.004 53.0514 360.743 48.3118 Q355.483 43.5722 346.472 43.5722 Q342.254 43.5722 338.035 44.5097 Q333.868 45.4472 329.493 47.4264 L329.493 8.36409 Z" fill="#000000" fill-rule="evenodd" fill-opacity="1" /><path clip-path="url(#clip550)" d="M52.1 754.907 L91.2202 754.907 L91.2202 765.555 L52.4472 765.555 Q43.2459 765.555 38.6741 769.143 Q34.1024 772.731 34.1024 779.906 Q34.1024 788.529 39.6001 793.506 Q45.0977 798.483 54.5884 798.483 L91.2202 798.483 L91.2202 809.189 L1.17434 809.189 L1.17434 798.483 L36.4751 798.483 Q30.6302 794.663 27.7367 789.513 Q24.8432 784.305 24.8432 777.534 Q24.8432 766.365 31.7876 760.636 Q38.6741 754.907 52.1 754.907 Z" fill="#000000" fill-rule="evenodd" fill-opacity="1" /><path clip-path="url(#clip550)" d="M4.82016 714.745 L4.82016 704.907 L102.215 734.999 L102.215 744.837 L4.82016 714.745 Z" fill="#000000" fill-rule="evenodd" fill-opacity="1" /><path clip-path="url(#clip550)" d="M50.7111 652.303 Q51.9843 648.541 56.1509 645.011 Q60.3175 641.423 67.6092 637.835 L91.2202 625.972 L91.2202 638.53 L69.0559 649.583 Q60.3754 653.865 57.5398 657.916 Q54.7041 661.909 54.7041 668.854 L54.7041 681.585 L91.2202 681.585 L91.2202 693.275 L4.82016 693.275 L4.82016 666.886 Q4.82016 652.071 11.0123 644.78 Q17.2044 637.488 29.7043 637.488 Q37.864 637.488 43.2459 641.308 Q48.6278 645.069 50.7111 652.303 M14.4266 681.585 L45.0977 681.585 L45.0977 666.886 Q45.0977 658.437 41.2204 654.155 Q37.2853 649.815 29.7043 649.815 Q22.1233 649.815 18.3039 654.155 Q14.4266 658.437 14.4266 666.886 L14.4266 681.585 Z" fill="#000000" fill-rule="evenodd" fill-opacity="1" /><path clip-path="url(#clip550)" d="M52.0421 589.572 Q47.0653 592.465 47.0653 598.31 Q47.0653 604.155 52.0421 607.049 Q57.019 610 66.9726 610 Q76.9841 610 81.9609 607.049 Q86.9378 604.155 86.9378 598.31 Q86.9378 592.465 81.9609 589.572 Q76.9841 586.62 66.9726 586.62 Q57.019 586.62 52.0421 589.572 M41.9149 598.31 Q41.9149 588.993 48.3384 584.074 Q54.762 579.155 66.9726 579.155 Q79.2411 579.155 85.6646 584.074 Q92.0882 588.993 92.0882 598.31 Q92.0882 607.685 85.6646 612.604 Q79.2411 617.523 66.9726 617.523 Q54.762 617.523 48.3384 612.604 Q41.9149 607.685 41.9149 598.31 Z" fill="#000000" fill-rule="evenodd" fill-opacity="1" /><polyline clip-path="url(#clip552)" style="stroke:#009af9; stroke-linecap:butt; stroke-linejoin:round; stroke-width:12; stroke-opacity:1; fill:none" points="
  2.16352,1339.45 4.86504,1339.45 7.56656,1339.45 10.2681,1339.45 12.9696,1339.45 15.6711,1339.45 18.3726,1339.45 21.0742,1339.45 23.7757,1339.45 26.4772,1339.45 
  29.1787,1339.45 31.8802,1339.45 34.5818,1339.45 37.2833,1339.45 39.9848,1339.45 42.6863,1339.45 45.3878,1339.45 48.0894,1339.45 50.7909,1339.45 53.4924,1339.45 
  56.1939,1339.45 58.8954,1339.45 61.597,1339.45 64.2985,1339.45 67,1339.45 69.7015,1339.44 72.403,1339.44 75.1046,1339.44 77.8061,1339.44 80.5076,1339.44 
  83.2091,1339.44 85.9106,1339.44 88.6122,1339.44 91.3137,1339.44 94.0152,1339.44 96.7167,1339.44 99.4182,1339.44 102.12,1339.44 104.821,1339.44 107.523,1339.44 
  110.224,1339.43 112.926,1339.43 115.627,1339.43 118.329,1339.43 121.03,1339.43 123.732,1339.43 126.433,1339.43 129.135,1339.43 131.836,1339.43 134.538,1339.43 
  137.24,1339.43 139.941,1339.42 142.643,1339.42 145.344,1339.42 148.046,1339.42 150.747,1339.42 153.449,1339.42 156.15,1339.42 158.852,1339.42 161.553,1339.41 
  164.255,1339.41 166.956,1339.41 169.658,1339.41 172.359,1339.41 175.061,1339.41 177.762,1339.41 180.464,1339.4 183.165,1339.4 185.867,1339.4 188.568,1339.4 
  191.27,1339.4 193.971,1339.4 196.673,1339.4 199.374,1339.39 202.076,1339.39 204.778,1339.39 207.479,1339.39 210.181,1339.39 212.882,1339.38 215.584,1339.38 
  218.285,1339.38 220.987,1339.38 223.688,1339.38 226.39,1339.37 229.091,1339.37 231.793,1339.37 234.494,1339.37 237.196,1339.37 239.897,1339.36 242.599,1339.36 
  245.3,1339.36 248.002,1339.36 250.703,1339.35 253.405,1339.35 256.106,1339.35 258.808,1339.35 261.509,1339.34 264.211,1339.34 266.912,1339.34 269.614,1339.34 
  272.315,1339.33 275.017,1339.33 277.719,1339.33 280.42,1339.32 283.122,1339.32 285.823,1339.32 288.525,1339.31 291.226,1339.31 293.928,1339.31 296.629,1339.3 
  299.331,1339.3 302.032,1339.3 304.734,1339.29 307.435,1339.29 310.137,1339.29 312.838,1339.28 315.54,1339.28 318.241,1339.27 320.943,1339.27 323.644,1339.27 
  326.346,1339.26 329.047,1339.26 331.749,1339.25 334.45,1339.25 337.152,1339.24 339.853,1339.24 342.555,1339.23 345.257,1339.23 347.958,1339.22 350.66,1339.22 
  353.361,1339.21 356.063,1339.21 358.764,1339.2 361.466,1339.19 364.167,1339.19 366.869,1339.18 369.57,1339.17 372.272,1339.17 374.973,1339.16 377.675,1339.15 
  380.376,1339.15 383.078,1339.14 385.779,1339.13 388.481,1339.12 391.182,1339.12 393.884,1339.11 396.585,1339.1 399.287,1339.09 401.988,1339.08 404.69,1339.07 
  407.391,1339.06 410.093,1339.05 412.795,1339.04 415.496,1339.03 418.198,1339.01 420.899,1339 423.601,1338.99 426.302,1338.97 429.004,1338.96 431.705,1338.94 
  434.407,1338.93 437.108,1338.91 439.81,1338.89 442.511,1338.87 445.213,1338.85 447.914,1338.83 450.616,1338.79 453.317,1338.8 456.019,1338.68 458.72,1338.79 
  461.422,1334.58 464.123,1325.22 466.825,1314.23 469.526,1303.3 472.228,1292.43 474.929,1281.64 477.631,1270.94 480.333,1260.33 483.034,1249.8 485.736,1239.34 
  488.437,1228.97 491.139,1218.68 493.84,1208.46 496.542,1198.33 499.243,1188.26 501.945,1178.28 504.646,1168.37 507.348,1158.53 510.049,1148.76 512.751,1139.07 
  515.452,1129.46 518.154,1119.91 520.855,1110.44 523.557,1101.04 526.258,1091.71 528.96,1082.45 531.661,1073.26 534.363,1064.15 537.064,1055.1 539.766,1046.12 
  542.467,1037.22 545.169,1028.38 547.871,1019.61 550.572,1010.91 553.274,1002.28 555.975,993.725 558.677,985.233 561.378,976.811 564.08,968.456 566.781,960.17 
  569.483,951.952 572.184,943.802 574.886,935.719 577.587,927.704 580.289,919.757 582.99,911.876 585.692,904.063 588.393,896.317 591.095,888.638 593.796,881.026 
  596.498,873.481 599.199,866.002 601.901,858.589 604.602,851.243 607.304,843.963 610.005,836.749 612.707,829.601 615.409,822.518 618.11,815.502 620.812,808.551 
  623.513,801.666 626.215,794.846 628.916,788.092 631.618,781.402 634.319,774.778 637.021,768.219 639.722,761.725 642.424,755.296 645.125,748.931 647.827,742.632 
  650.528,736.397 653.23,730.226 655.931,724.12 658.633,718.078 661.334,712.1 664.036,706.187 666.737,700.337 669.439,694.552 672.14,688.83 674.842,683.173 
  677.543,677.579 680.245,672.049 682.947,666.582 685.648,661.18 688.35,655.84 691.051,650.564 693.753,645.351 696.454,640.202 699.156,635.116 701.857,630.093 
  704.559,625.133 707.26,620.236 709.962,615.402 712.663,610.631 715.365,605.922 718.066,601.277 720.768,596.694 723.469,592.174 726.171,587.716 728.872,583.321 
  731.574,578.988 734.275,574.718 736.977,570.51 739.678,566.364 742.38,562.281 745.081,558.26 747.783,554.301 750.485,550.404 753.186,546.569 755.888,542.796 
  758.589,539.086 761.291,535.437 763.992,531.849 766.694,528.324 769.395,524.861 772.097,521.459 774.798,518.119 777.5,514.84 780.201,511.623 782.903,508.468 
  785.604,505.374 788.306,502.342 791.007,499.371 793.709,496.462 796.41,493.613 799.112,490.827 801.813,488.101 804.515,485.437 807.216,482.834 809.918,480.292 
  812.619,477.812 815.321,475.392 818.023,473.034 820.724,470.737 823.426,468.501 826.127,466.326 828.829,464.211 831.53,462.158 834.232,460.166 836.933,458.235 
  839.635,456.364 842.336,454.555 845.038,452.806 847.739,451.118 850.441,449.491 853.142,447.925 855.844,446.42 858.545,444.975 861.247,443.591 863.948,442.268 
  866.65,441.005 869.351,439.804 872.053,438.662 874.754,437.582 877.456,436.562 880.157,435.603 882.859,434.704 885.56,433.866 888.262,433.089 890.964,432.372 
  893.665,431.716 896.367,431.121 899.068,430.586 901.77,430.111 904.471,429.697 907.173,429.344 909.874,429.051 912.576,428.819 915.277,428.647 917.979,428.536 
  920.68,428.485 923.382,428.495 926.083,428.566 928.785,428.697 931.486,428.888 934.188,429.14 936.889,429.453 939.591,429.826 942.292,430.26 944.994,430.754 
  947.695,431.309 950.397,431.924 953.098,432.6 955.8,433.337 958.502,434.134 961.203,434.992 963.905,435.91 966.606,436.889 969.308,437.929 972.009,439.029 
  974.711,440.19 977.412,441.412 980.114,442.694 982.815,444.037 985.517,445.441 988.218,446.905 990.92,448.43 993.621,450.016 996.323,451.663 999.024,453.371 
  1001.73,455.139 1004.43,456.969 1007.13,458.859 1009.83,460.81 1012.53,462.822 1015.23,464.895 1017.93,467.029 1020.64,469.224 1023.34,471.48 1026.04,473.797 
  1028.74,476.175 1031.44,478.614 1034.14,481.115 1036.85,483.676 1039.55,486.299 1042.25,488.983 1044.95,491.728 1047.65,494.535 1050.35,497.402 1053.05,500.332 
  1055.76,503.322 1058.46,506.374 1061.16,509.488 1063.86,512.663 1066.56,515.9 1069.26,519.198 1071.97,522.558 1074.67,525.979 1077.37,529.462 1080.07,533.007 
  1082.77,536.614 1085.47,540.283 1088.17,544.014 1090.88,547.806 1093.58,551.661 1096.28,555.577 1098.98,559.556 1101.68,563.596 1104.38,567.699 1107.09,571.865 
  1109.79,576.092 1112.49,580.382 1115.19,584.734 1117.89,589.149 1120.59,593.626 1123.29,598.166 1126,602.768 1128.7,607.433 1131.4,612.161 1134.1,616.951 
  1136.8,621.804 1139.5,626.721 1142.2,631.7 1144.91,636.742 1147.61,641.848 1150.31,647.016 1153.01,652.248 1155.71,657.543 1158.41,662.902 1161.12,668.324 
  1163.82,673.809 1166.52,679.358 1169.22,684.971 1171.92,690.647 1174.62,696.387 1177.32,702.191 1180.03,708.059 1182.73,713.991 1185.43,719.987 1188.13,726.047 
  1190.83,732.172 1193.53,738.361 1196.24,744.614 1198.94,750.932 1201.64,757.314 1204.34,763.761 1207.04,770.272 1209.74,776.849 1212.44,783.49 1215.15,790.197 
  1217.85,796.968 1220.55,803.805 1223.25,810.707 1225.95,817.674 1228.65,824.707 1231.36,831.806 1234.06,838.97 1236.76,846.199 1239.46,853.495 1242.16,860.856 
  1244.86,868.284 1247.56,875.778 1250.27,883.337 1252.97,890.964 1255.67,898.656 1258.37,906.416 1261.07,914.242 1263.77,922.134 1266.47,930.094 1269.18,938.12 
  1271.88,946.214 1274.58,954.375 1277.28,962.603 1279.98,970.898 1282.68,979.262 1285.39,987.692 1288.09,996.191 1290.79,1004.76 1293.49,1013.39 1296.19,1022.09 
  1298.89,1030.87 1301.59,1039.7 1304.3,1048.61 1307,1057.59 1309.7,1066.63 1312.4,1075.75 1315.1,1084.93 1317.8,1094.18 1320.51,1103.51 1323.21,1112.9 
  1325.91,1122.36 1328.61,1131.89 1331.31,1141.49 1334.01,1151.16 1336.71,1160.9 1339.42,1170.71 1342.12,1180.59 1344.82,1190.54 1347.52,1200.57 1350.22,1210.66 
  1352.92,1220.82 1355.62,1231.06 1358.33,1241.37 1361.03,1251.75 1363.73,1262.2 1366.43,1272.72 1369.13,1283.32 1371.83,1293.99 1374.54,1304.72 1377.24,1315.46 
  1379.94,1325.97 1382.64,1334.36 1385.34,1325.97 1388.04,1315.46 1390.74,1304.72 1393.45,1293.99 1396.15,1283.32 1398.85,1272.72 1401.55,1262.2 1404.25,1251.75 
  1406.95,1241.37 1409.66,1231.06 1412.36,1220.82 1415.06,1210.66 1417.76,1200.57 1420.46,1190.54 1423.16,1180.59 1425.86,1170.71 1428.57,1160.9 1431.27,1151.16 
  1433.97,1141.49 1436.67,1131.89 1439.37,1122.36 1442.07,1112.9 1444.78,1103.51 1447.48,1094.18 1450.18,1084.93 1452.88,1075.75 1455.58,1066.63 1458.28,1057.59 
  1460.98,1048.61 1463.69,1039.7 1466.39,1030.87 1469.09,1022.09 1471.79,1013.39 1474.49,1004.76 1477.19,996.191 1479.89,987.692 1482.6,979.262 1485.3,970.898 
  1488,962.603 1490.7,954.375 1493.4,946.214 1496.1,938.12 1498.81,930.094 1501.51,922.134 1504.21,914.242 1506.91,906.416 1509.61,898.656 1512.31,890.964 
  1515.01,883.337 1517.72,875.778 1520.42,868.284 1523.12,860.856 1525.82,853.495 1528.52,846.199 1531.22,838.97 1533.93,831.806 1536.63,824.707 1539.33,817.674 
  1542.03,810.707 1544.73,803.805 1547.43,796.968 1550.13,790.197 1552.84,783.49 1555.54,776.849 1558.24,770.272 1560.94,763.761 1563.64,757.314 1566.34,750.932 
  1569.05,744.614 1571.75,738.361 1574.45,732.172 1577.15,726.047 1579.85,719.987 1582.55,713.991 1585.25,708.059 1587.96,702.191 1590.66,696.387 1593.36,690.647 
  1596.06,684.971 1598.76,679.358 1601.46,673.809 1604.16,668.324 1606.87,662.902 1609.57,657.543 1612.27,652.248 1614.97,647.016 1617.67,641.848 1620.37,636.742 
  1623.08,631.7 1625.78,626.721 1628.48,621.804 1631.18,616.951 1633.88,612.161 1636.58,607.433 1639.28,602.768 1641.99,598.166 1644.69,593.626 1647.39,589.149 
  1650.09,584.734 1652.79,580.382 1655.49,576.092 1658.2,571.865 1660.9,567.699 1663.6,563.596 1666.3,559.556 1669,555.577 1671.7,551.661 1674.4,547.806 
  1677.11,544.014 1679.81,540.283 1682.51,536.614 1685.21,533.007 1687.91,529.462 1690.61,525.979 1693.31,522.558 1696.02,519.198 1698.72,515.9 1701.42,512.663 
  1704.12,509.488 1706.82,506.374 1709.52,503.322 1712.23,500.332 1714.93,497.402 1717.63,494.535 1720.33,491.728 1723.03,488.983 1725.73,486.299 1728.43,483.676 
  1731.14,481.115 1733.84,478.614 1736.54,476.175 1739.24,473.797 1741.94,471.48 1744.64,469.224 1747.35,467.029 1750.05,464.895 1752.75,462.822 1755.45,460.81 
  1758.15,458.859 1760.85,456.969 1763.55,455.139 1766.26,453.371 1768.96,451.663 1771.66,450.016 1774.36,448.43 1777.06,446.905 1779.76,445.441 1782.47,444.037 
  1785.17,442.694 1787.87,441.412 1790.57,440.19 1793.27,439.029 1795.97,437.929 1798.67,436.889 1801.38,435.91 1804.08,434.992 1806.78,434.134 1809.48,433.337 
  1812.18,432.6 1814.88,431.924 1817.58,431.309 1820.29,430.754 1822.99,430.26 1825.69,429.826 1828.39,429.453 1831.09,429.14 1833.79,428.888 1836.5,428.697 
  1839.2,428.566 1841.9,428.495 1844.6,428.485 1847.3,428.536 1850,428.647 1852.7,428.819 1855.41,429.051 1858.11,429.344 1860.81,429.697 1863.51,430.111 
  1866.21,430.586 1868.91,431.121 1871.62,431.716 1874.32,432.372 1877.02,433.089 1879.72,433.866 1882.42,434.704 1885.12,435.603 1887.82,436.562 1890.53,437.582 
  1893.23,438.662 1895.93,439.804 1898.63,441.005 1901.33,442.268 1904.03,443.591 1906.73,444.975 1909.44,446.42 1912.14,447.925 1914.84,449.491 1917.54,451.118 
  1920.24,452.806 1922.94,454.555 1925.65,456.364 1928.35,458.235 1931.05,460.166 1933.75,462.158 1936.45,464.211 1939.15,466.326 1941.85,468.501 1944.56,470.737 
  1947.26,473.034 1949.96,475.392 1952.66,477.812 1955.36,480.292 1958.06,482.834 1960.77,485.437 1963.47,488.101 1966.17,490.827 1968.87,493.613 1971.57,496.462 
  1974.27,499.371 1976.97,502.342 1979.68,505.374 1982.38,508.468 1985.08,511.623 1987.78,514.84 1990.48,518.119 1993.18,521.459 1995.89,524.861 1998.59,528.324 
  2001.29,531.849 2003.99,535.437 2006.69,539.086 2009.39,542.796 2012.09,546.569 2014.8,550.404 2017.5,554.301 2020.2,558.26 2022.9,562.281 2025.6,566.364 
  2028.3,570.51 2031,574.718 2033.71,578.988 2036.41,583.321 2039.11,587.716 2041.81,592.174 2044.51,596.694 2047.21,601.277 2049.92,605.922 2052.62,610.631 
  2055.32,615.402 2058.02,620.236 2060.72,625.133 2063.42,630.093 2066.12,635.116 2068.83,640.202 2071.53,645.351 2074.23,650.564 2076.93,655.84 2079.63,661.18 
  2082.33,666.582 2085.04,672.049 2087.74,677.579 2090.44,683.173 2093.14,688.83 2095.84,694.552 2098.54,700.337 2101.24,706.187 2103.95,712.1 2106.65,718.078 
  2109.35,724.12 2112.05,730.226 2114.75,736.397 2117.45,742.632 2120.16,748.931 2122.86,755.296 2125.56,761.725 2128.26,768.219 2130.96,774.778 2133.66,781.402 
  2136.36,788.092 2139.07,794.846 2141.77,801.666 2144.47,808.551 2147.17,815.502 2149.87,822.518 2152.57,829.601 2155.27,836.749 2157.98,843.963 2160.68,851.243 
  2163.38,858.589 2166.08,866.002 2168.78,873.481 2171.48,881.026 2174.19,888.638 2176.89,896.317 2179.59,904.063 2182.29,911.876 2184.99,919.757 2187.69,927.704 
  2190.39,935.719 2193.1,943.802 2195.8,951.952 2198.5,960.17 2201.2,968.456 2203.9,976.811 2206.6,985.233 2209.31,993.725 2212.01,1002.28 2214.71,1010.91 
  2217.41,1019.61 2220.11,1028.38 2222.81,1037.22 2225.51,1046.12 2228.22,1055.1 2230.92,1064.15 2233.62,1073.26 2236.32,1082.45 2239.02,1091.71 2241.72,1101.04 
  2244.42,1110.44 2247.13,1119.91 2249.83,1129.46 2252.53,1139.07 2255.23,1148.76 2257.93,1158.53 2260.63,1168.37 2263.34,1178.28 2266.04,1188.26 2268.74,1198.33 
  2271.44,1208.46 2274.14,1218.68 2276.84,1228.97 2279.54,1239.34 2282.25,1249.8 2284.95,1260.33 2287.65,1270.94 2290.35,1281.64 2293.05,1292.43 2295.75,1303.3 
  2298.46,1314.23 2301.16,1325.22 2303.86,1334.58 2306.56,1338.79 2309.26,1338.68 2311.96,1338.8 2314.66,1338.79 2317.37,1338.83 2320.07,1338.85 2322.77,1338.87 
  2325.47,1338.89 2328.17,1338.91 2330.87,1338.93 2333.58,1338.94 2336.28,1338.96 2338.98,1338.97 2341.68,1338.99 2344.38,1339 2347.08,1339.01 2349.78,1339.03 
  2352.49,1339.04 2355.19,1339.05 2357.89,1339.06 2360.59,1339.07 2363.29,1339.08 2365.99,1339.09 2368.69,1339.1 2371.4,1339.11 2374.1,1339.12 2376.8,1339.12 
  2379.5,1339.13 2382.2,1339.14 2384.9,1339.15 2387.61,1339.15 2390.31,1339.16 2393.01,1339.17 2395.71,1339.17 2398.41,1339.18 2401.11,1339.19 2403.81,1339.19 
  2406.52,1339.2 2409.22,1339.21 2411.92,1339.21 2414.62,1339.22 2417.32,1339.22 2420.02,1339.23 2422.73,1339.23 2425.43,1339.24 2428.13,1339.24 2430.83,1339.25 
  2433.53,1339.25 2436.23,1339.26 2438.93,1339.26 2441.64,1339.27 2444.34,1339.27 2447.04,1339.27 2449.74,1339.28 2452.44,1339.28 2455.14,1339.29 2457.85,1339.29 
  2460.55,1339.29 2463.25,1339.3 2465.95,1339.3 2468.65,1339.3 2471.35,1339.31 2474.05,1339.31 2476.76,1339.31 2479.46,1339.32 2482.16,1339.32 2484.86,1339.32 
  2487.56,1339.33 2490.26,1339.33 2492.96,1339.33 2495.67,1339.34 2498.37,1339.34 2501.07,1339.34 2503.77,1339.34 2506.47,1339.35 2509.17,1339.35 2511.88,1339.35 
  2514.58,1339.35 2517.28,1339.36 2519.98,1339.36 2522.68,1339.36 2525.38,1339.36 2528.08,1339.37 2530.79,1339.37 2533.49,1339.37 2536.19,1339.37 2538.89,1339.37 
  2541.59,1339.38 2544.29,1339.38 2547,1339.38 2549.7,1339.38 2552.4,1339.38 2555.1,1339.39 2557.8,1339.39 2560.5,1339.39 2563.2,1339.39 2565.91,1339.39 
  2568.61,1339.4 2571.31,1339.4 2574.01,1339.4 2576.71,1339.4 2579.41,1339.4 2582.11,1339.4 2584.82,1339.4 2587.52,1339.41 2590.22,1339.41 2592.92,1339.41 
  2595.62,1339.41 2598.32,1339.41 2601.03,1339.41 2603.73,1339.41 2606.43,1339.42 2609.13,1339.42 2611.83,1339.42 2614.53,1339.42 2617.23,1339.42 2619.94,1339.42 
  2622.64,1339.42 2625.34,1339.42 2628.04,1339.43 2630.74,1339.43 2633.44,1339.43 2636.15,1339.43 2638.85,1339.43 2641.55,1339.43 2644.25,1339.43 2646.95,1339.43 
  2649.65,1339.43 2652.35,1339.43 2655.06,1339.43 2657.76,1339.44 2660.46,1339.44 2663.16,1339.44 2665.86,1339.44 2668.56,1339.44 2671.27,1339.44 2673.97,1339.44 
  2676.67,1339.44 2679.37,1339.44 2682.07,1339.44 2684.77,1339.44 2687.47,1339.44 2690.18,1339.44 2692.88,1339.44 2695.58,1339.44 2698.28,1339.45 2700.98,1339.45 
  2703.68,1339.45 2706.38,1339.45 2709.09,1339.45 2711.79,1339.45 2714.49,1339.45 2717.19,1339.45 2719.89,1339.45 2722.59,1339.45 2725.3,1339.45 2728,1339.45 
  2730.7,1339.45 2733.4,1339.45 2736.1,1339.45 2738.8,1339.45 2741.5,1339.45 2744.21,1339.45 2746.91,1339.45 2749.61,1339.45 2752.31,1339.45 2755.01,1339.45 
  2757.71,1339.45 2760.42,1339.45 2763.12,1339.45 2765.82,1339.45 
  "/>
<circle clip-path="url(#clip552)" cx="434.407" cy="1338.93" r="28" fill="#009af9" fill-rule="evenodd" fill-opacity="0.6" stroke="#808080" stroke-opacity="0.6" stroke-width="0"/>
<circle clip-path="url(#clip552)" cx="542.467" cy="1037.22" r="28" fill="#009af9" fill-rule="evenodd" fill-opacity="0.6" stroke="#808080" stroke-opacity="0.6" stroke-width="0"/>
<circle clip-path="url(#clip552)" cx="650.528" cy="736.397" r="28" fill="#009af9" fill-rule="evenodd" fill-opacity="0.6" stroke="#808080" stroke-opacity="0.6" stroke-width="0"/>
<circle clip-path="url(#clip552)" cx="758.589" cy="539.086" r="28" fill="#009af9" fill-rule="evenodd" fill-opacity="0.6" stroke="#808080" stroke-opacity="0.6" stroke-width="0"/>
<circle clip-path="url(#clip552)" cx="866.65" cy="441.005" r="28" fill="#009af9" fill-rule="evenodd" fill-opacity="0.6" stroke="#808080" stroke-opacity="0.6" stroke-width="0"/>
<circle clip-path="url(#clip552)" cx="974.711" cy="440.19" r="28" fill="#009af9" fill-rule="evenodd" fill-opacity="0.6" stroke="#808080" stroke-opacity="0.6" stroke-width="0"/>
<circle clip-path="url(#clip552)" cx="1082.77" cy="536.614" r="28" fill="#009af9" fill-rule="evenodd" fill-opacity="0.6" stroke="#808080" stroke-opacity="0.6" stroke-width="0"/>
<circle clip-path="url(#clip552)" cx="1190.83" cy="732.172" r="28" fill="#009af9" fill-rule="evenodd" fill-opacity="0.6" stroke="#808080" stroke-opacity="0.6" stroke-width="0"/>
<circle clip-path="url(#clip552)" cx="1298.89" cy="1030.87" r="28" fill="#009af9" fill-rule="evenodd" fill-opacity="0.6" stroke="#808080" stroke-opacity="0.6" stroke-width="0"/>
<circle clip-path="url(#clip552)" cx="1406.95" cy="1241.37" r="28" fill="#009af9" fill-rule="evenodd" fill-opacity="0.6" stroke="#808080" stroke-opacity="0.6" stroke-width="0"/>
<circle clip-path="url(#clip552)" cx="1515.01" cy="883.337" r="28" fill="#009af9" fill-rule="evenodd" fill-opacity="0.6" stroke="#808080" stroke-opacity="0.6" stroke-width="0"/>
<circle clip-path="url(#clip552)" cx="1623.08" cy="631.7" r="28" fill="#009af9" fill-rule="evenodd" fill-opacity="0.6" stroke="#808080" stroke-opacity="0.6" stroke-width="0"/>
<circle clip-path="url(#clip552)" cx="1731.14" cy="481.115" r="28" fill="#009af9" fill-rule="evenodd" fill-opacity="0.6" stroke="#808080" stroke-opacity="0.6" stroke-width="0"/>
<circle clip-path="url(#clip552)" cx="1839.2" cy="428.566" r="28" fill="#009af9" fill-rule="evenodd" fill-opacity="0.6" stroke="#808080" stroke-opacity="0.6" stroke-width="0"/>
<circle clip-path="url(#clip552)" cx="1947.26" cy="473.034" r="28" fill="#009af9" fill-rule="evenodd" fill-opacity="0.6" stroke="#808080" stroke-opacity="0.6" stroke-width="0"/>
<circle clip-path="url(#clip552)" cx="2055.32" cy="615.402" r="28" fill="#009af9" fill-rule="evenodd" fill-opacity="0.6" stroke="#808080" stroke-opacity="0.6" stroke-width="0"/>
<circle clip-path="url(#clip552)" cx="2163.38" cy="858.589" r="28" fill="#009af9" fill-rule="evenodd" fill-opacity="0.6" stroke="#808080" stroke-opacity="0.6" stroke-width="0"/>
<circle clip-path="url(#clip552)" cx="2271.44" cy="1208.46" r="28" fill="#009af9" fill-rule="evenodd" fill-opacity="0.6" stroke="#808080" stroke-opacity="0.6" stroke-width="0"/>
<polyline clip-path="url(#clip552)" style="stroke:#009af9; stroke-linecap:butt; stroke-linejoin:round; stroke-width:12; stroke-opacity:1; fill:none" points="
  2.16352,1338.38 4.86504,1338.38 7.56656,1338.38 10.2681,1338.38 12.9696,1338.38 15.6711,1338.38 18.3726,1338.38 21.0742,1338.38 23.7757,1338.38 26.4772,1338.38 
  29.1787,1338.38 31.8802,1338.38 34.5818,1338.38 37.2833,1338.38 39.9848,1338.38 42.6863,1338.38 45.3878,1338.38 48.0894,1338.38 50.7909,1338.38 53.4924,1338.38 
  56.1939,1338.38 58.8954,1338.38 61.597,1338.38 64.2985,1338.38 67,1338.38 69.7015,1338.38 72.403,1338.38 75.1046,1338.38 77.8061,1338.38 80.5076,1338.38 
  83.2091,1338.38 85.9106,1338.38 88.6122,1338.38 91.3137,1338.38 94.0152,1338.38 96.7167,1338.38 99.4182,1338.38 102.12,1338.38 104.821,1338.38 107.523,1338.38 
  110.224,1338.38 112.926,1338.38 115.627,1338.38 118.329,1338.38 121.03,1338.38 123.732,1338.38 126.433,1338.38 129.135,1338.38 131.836,1338.38 134.538,1338.38 
  137.24,1338.38 139.941,1338.38 142.643,1338.38 145.344,1338.38 148.046,1338.38 150.747,1338.38 153.449,1338.38 156.15,1338.38 158.852,1338.38 161.553,1338.38 
  164.255,1338.38 166.956,1338.38 169.658,1338.38 172.359,1338.38 175.061,1338.38 177.762,1338.38 180.464,1338.38 183.165,1338.38 185.867,1338.38 188.568,1338.38 
  191.27,1338.38 193.971,1338.38 196.673,1338.38 199.374,1338.38 202.076,1338.38 204.778,1338.38 207.479,1338.38 210.181,1338.38 212.882,1338.38 215.584,1338.38 
  218.285,1338.38 220.987,1338.38 223.688,1338.37 226.39,1338.38 229.091,1338.37 231.793,1338.38 234.494,1338.37 237.196,1338.38 239.897,1338.37 242.599,1338.38 
  245.3,1338.37 248.002,1338.38 250.703,1338.37 253.405,1338.38 256.106,1338.37 258.808,1338.38 261.509,1338.37 264.211,1338.38 266.912,1338.37 269.614,1338.38 
  272.315,1338.37 275.017,1338.38 277.719,1338.37 280.42,1338.38 283.122,1338.37 285.823,1338.38 288.525,1338.37 291.226,1338.38 293.928,1338.37 296.629,1338.38 
  299.331,1338.37 302.032,1338.38 304.734,1338.37 307.435,1338.38 310.137,1338.37 312.838,1338.38 315.54,1338.37 318.241,1338.38 320.943,1338.37 323.644,1338.38 
  326.346,1338.37 329.047,1338.38 331.749,1338.37 334.45,1338.38 337.152,1338.37 339.853,1338.38 342.555,1338.37 345.257,1338.38 347.958,1338.37 350.66,1338.38 
  353.361,1338.37 356.063,1338.38 358.764,1338.37 361.466,1338.38 364.167,1338.37 366.869,1338.38 369.57,1338.37 372.272,1338.38 374.973,1338.37 377.675,1338.38 
  380.376,1338.37 383.078,1338.38 385.779,1338.37 388.481,1338.38 391.182,1338.37 393.884,1338.38 396.585,1338.37 399.287,1338.38 401.988,1338.37 404.69,1338.38 
  407.391,1338.37 410.093,1338.38 412.795,1338.37 415.496,1338.38 418.198,1338.37 420.899,1338.38 423.601,1338.37 426.302,1338.38 429.004,1338.37 431.705,1338.38 
  434.407,1338.37 437.108,1338.38 439.81,1338.37 442.511,1338.38 445.213,1338.37 447.914,1338.38 450.616,1338.37 453.317,1338.38 456.019,1338.37 458.72,1338.37 
  461.422,1338.17 464.123,1328.43 466.825,1317.83 469.526,1307.31 472.228,1296.66 474.929,1286.19 477.631,1275.64 480.333,1265.28 483.034,1254.85 485.736,1244.62 
  488.437,1234.31 491.139,1224.2 493.84,1214.03 496.542,1204.05 499.243,1194 501.945,1184.15 504.646,1174.23 507.348,1164.5 510.049,1154.72 512.751,1145.12 
  515.452,1135.47 518.154,1126 520.855,1116.48 523.557,1107.14 526.258,1097.75 528.96,1088.54 531.661,1079.28 534.363,1070.2 537.064,1061.08 539.766,1052.12 
  542.467,1043.13 545.169,1034.3 547.871,1025.44 550.572,1016.75 553.274,1008.02 555.975,999.452 558.677,990.858 561.378,982.419 564.08,973.957 566.781,965.647 
  569.483,957.317 572.184,949.137 574.886,940.939 577.587,932.888 580.289,924.823 582.99,916.901 585.692,908.968 588.393,901.176 591.095,893.374 593.796,885.712 
  596.498,878.042 599.199,870.51 601.901,862.972 604.602,855.57 607.304,848.164 610.005,840.891 612.707,833.617 615.409,826.475 618.11,819.333 620.812,812.32 
  623.513,805.309 626.215,798.427 628.916,791.548 631.618,784.796 634.319,778.049 637.021,771.427 639.722,764.812 642.424,758.319 645.125,751.837 647.827,745.474 
  650.528,739.123 653.23,732.892 655.931,726.672 658.633,720.571 661.334,714.484 664.036,708.513 666.737,702.557 669.439,696.717 672.14,690.894 674.842,685.184 
  677.543,679.492 680.245,673.913 682.947,668.354 685.648,662.905 688.35,657.478 691.051,652.16 693.753,646.865 696.454,641.678 699.156,636.515 701.857,631.459 
  704.559,626.428 707.26,621.503 709.962,616.604 712.663,611.81 715.365,607.044 718.066,602.382 720.768,597.748 723.469,593.216 726.171,588.715 728.872,584.315 
  731.574,579.946 734.275,575.678 736.977,571.442 739.678,567.305 742.38,563.201 745.081,559.196 747.783,555.225 750.485,551.352 753.186,547.514 755.888,543.773 
  758.589,540.068 761.291,536.459 763.992,532.887 766.694,529.409 769.395,525.97 772.097,522.626 774.798,519.32 777.5,516.107 780.201,512.935 782.903,509.855 
  785.604,506.816 788.306,503.868 791.007,500.962 793.709,498.148 796.41,495.376 799.112,492.694 801.813,490.055 804.515,487.506 807.216,485.001 809.918,482.586 
  812.619,480.214 815.321,477.932 818.023,475.694 820.724,473.545 823.426,471.441 826.127,469.426 828.829,467.456 831.53,465.574 834.232,463.738 836.933,461.989 
  839.635,460.287 842.336,458.673 845.038,457.105 847.739,455.624 850.441,454.19 853.142,452.843 855.844,451.544 858.545,450.33 861.247,449.165 863.948,448.086 
  866.65,447.055 869.351,446.109 872.053,445.213 874.754,444.401 877.456,443.639 880.157,442.962 882.859,442.334 885.56,441.79 888.262,441.297 890.964,440.887 
  893.665,440.528 896.367,440.253 899.068,440.027 901.77,439.886 904.471,439.795 907.173,439.787 909.874,439.83 912.576,439.956 915.277,440.133 917.979,440.393 
  920.68,440.704 923.382,441.097 926.083,441.542 928.785,442.069 931.486,442.646 934.188,443.307 936.889,444.018 939.591,444.811 942.292,445.655 944.994,446.581 
  947.695,447.558 950.397,448.617 953.098,449.726 955.8,450.917 958.502,452.158 961.203,453.481 963.905,454.855 966.606,456.309 969.308,457.814 972.009,459.4 
  974.711,461.035 977.412,462.752 980.114,464.517 982.815,466.364 985.517,468.26 988.218,470.237 990.92,472.262 993.621,474.367 996.323,476.521 999.024,478.755 
  1001.73,481.037 1004.43,483.399 1007.13,485.808 1009.83,488.297 1012.53,490.832 1015.23,493.448 1017.93,496.108 1020.64,498.849 1023.34,501.634 1026.04,504.499 
  1028.74,507.408 1031.44,510.396 1034.14,513.428 1036.85,516.538 1039.55,519.691 1042.25,522.922 1044.95,526.195 1047.65,529.546 1050.35,532.937 1053.05,536.406 
  1055.76,539.914 1058.46,543.501 1061.16,547.124 1063.86,550.826 1066.56,554.564 1069.26,558.379 1071.97,562.228 1074.67,566.155 1077.37,570.115 1080.07,574.152 
  1082.77,578.22 1085.47,582.364 1088.17,586.538 1090.88,590.788 1093.58,595.066 1096.28,599.419 1098.98,603.798 1101.68,608.252 1104.38,612.73 1107.09,617.281 
  1109.79,621.855 1112.49,626.502 1115.19,631.169 1117.89,635.907 1120.59,640.664 1123.29,645.492 1126,650.335 1128.7,655.248 1131.4,660.175 1134.1,665.17 
  1136.8,670.176 1139.5,675.25 1142.2,680.331 1144.91,685.479 1147.61,690.632 1150.31,695.849 1153.01,701.069 1155.71,706.352 1158.41,711.634 1161.12,716.978 
  1163.82,722.317 1166.52,727.717 1169.22,733.108 1171.92,738.558 1174.62,743.996 1177.32,749.491 1180.03,754.97 1182.73,760.504 1185.43,766.017 1188.13,771.584 
  1190.83,777.126 1193.53,782.719 1196.24,788.283 1198.94,793.895 1201.64,799.474 1204.34,805.098 1207.04,810.684 1209.74,816.313 1212.44,821.898 1215.15,827.524 
  1217.85,833.1 1220.55,838.714 1223.25,844.273 1225.95,849.866 1228.65,855.399 1231.36,860.963 1234.06,866.46 1236.76,871.985 1239.46,877.437 1242.16,882.912 
  1244.86,888.308 1247.56,893.725 1250.27,899.055 1252.97,904.401 1255.67,909.654 1258.37,914.919 1261.07,920.084 1263.77,925.257 1266.47,930.322 1269.18,935.39 
  1271.88,940.343 1274.58,945.294 1277.28,950.123 1279.98,954.944 1282.68,959.636 1285.39,964.316 1288.09,968.859 1290.79,973.384 1293.49,977.763 1296.19,982.121 
  1298.89,986.324 1301.59,990.5 1304.3,994.515 1307,998.497 1309.7,1002.31 1312.4,1006.08 1315.1,1009.68 1317.8,1013.23 1320.51,1016.6 1323.21,1019.93 
  1325.91,1023.05 1328.61,1026.13 1331.31,1029.01 1334.01,1031.82 1336.71,1034.44 1339.42,1036.99 1342.12,1039.32 1344.82,1041.6 1347.52,1043.65 1350.22,1045.63 
  1352.92,1047.39 1355.62,1049.08 1358.33,1050.54 1361.03,1051.92 1363.73,1053.07 1366.43,1054.15 1369.13,1054.98 1371.83,1055.74 1374.54,1056.26 1377.24,1056.7 
  1379.94,1056.9 1382.64,1057.02 1385.34,1056.9 1388.04,1056.7 1390.74,1056.26 1393.45,1055.74 1396.15,1054.98 1398.85,1054.15 1401.55,1053.07 1404.25,1051.92 
  1406.95,1050.54 1409.66,1049.08 1412.36,1047.39 1415.06,1045.63 1417.76,1043.65 1420.46,1041.6 1423.16,1039.32 1425.86,1036.99 1428.57,1034.44 1431.27,1031.82 
  1433.97,1029.01 1436.67,1026.13 1439.37,1023.05 1442.07,1019.93 1444.78,1016.6 1447.48,1013.23 1450.18,1009.68 1452.88,1006.08 1455.58,1002.31 1458.28,998.497 
  1460.98,994.515 1463.69,990.5 1466.39,986.324 1469.09,982.121 1471.79,977.763 1474.49,973.384 1477.19,968.859 1479.89,964.316 1482.6,959.636 1485.3,954.944 
  1488,950.123 1490.7,945.294 1493.4,940.343 1496.1,935.39 1498.81,930.322 1501.51,925.257 1504.21,920.084 1506.91,914.919 1509.61,909.654 1512.31,904.401 
  1515.01,899.055 1517.72,893.725 1520.42,888.308 1523.12,882.912 1525.82,877.437 1528.52,871.985 1531.22,866.46 1533.93,860.963 1536.63,855.399 1539.33,849.866 
  1542.03,844.273 1544.73,838.714 1547.43,833.1 1550.13,827.524 1552.84,821.898 1555.54,816.313 1558.24,810.684 1560.94,805.098 1563.64,799.474 1566.34,793.895 
  1569.05,788.283 1571.75,782.719 1574.45,777.126 1577.15,771.584 1579.85,766.017 1582.55,760.504 1585.25,754.97 1587.96,749.491 1590.66,743.996 1593.36,738.558 
  1596.06,733.108 1598.76,727.717 1601.46,722.317 1604.16,716.978 1606.87,711.634 1609.57,706.352 1612.27,701.069 1614.97,695.849 1617.67,690.632 1620.37,685.479 
  1623.08,680.331 1625.78,675.25 1628.48,670.176 1631.18,665.17 1633.88,660.175 1636.58,655.248 1639.28,650.335 1641.99,645.492 1644.69,640.664 1647.39,635.907 
  1650.09,631.169 1652.79,626.502 1655.49,621.855 1658.2,617.281 1660.9,612.73 1663.6,608.252 1666.3,603.798 1669,599.419 1671.7,595.066 1674.4,590.788 
  1677.11,586.538 1679.81,582.364 1682.51,578.22 1685.21,574.152 1687.91,570.115 1690.61,566.155 1693.31,562.228 1696.02,558.379 1698.72,554.564 1701.42,550.826 
  1704.12,547.124 1706.82,543.501 1709.52,539.914 1712.23,536.406 1714.93,532.937 1717.63,529.546 1720.33,526.195 1723.03,522.922 1725.73,519.691 1728.43,516.538 
  1731.14,513.428 1733.84,510.396 1736.54,507.408 1739.24,504.499 1741.94,501.634 1744.64,498.849 1747.35,496.108 1750.05,493.448 1752.75,490.832 1755.45,488.297 
  1758.15,485.808 1760.85,483.399 1763.55,481.037 1766.26,478.755 1768.96,476.521 1771.66,474.367 1774.36,472.262 1777.06,470.237 1779.76,468.26 1782.47,466.364 
  1785.17,464.517 1787.87,462.752 1790.57,461.035 1793.27,459.4 1795.97,457.814 1798.67,456.309 1801.38,454.855 1804.08,453.481 1806.78,452.158 1809.48,450.917 
  1812.18,449.726 1814.88,448.617 1817.58,447.558 1820.29,446.581 1822.99,445.655 1825.69,444.811 1828.39,444.018 1831.09,443.307 1833.79,442.646 1836.5,442.069 
  1839.2,441.542 1841.9,441.097 1844.6,440.704 1847.3,440.393 1850,440.133 1852.7,439.956 1855.41,439.83 1858.11,439.787 1860.81,439.795 1863.51,439.886 
  1866.21,440.027 1868.91,440.253 1871.62,440.528 1874.32,440.887 1877.02,441.297 1879.72,441.79 1882.42,442.334 1885.12,442.962 1887.82,443.639 1890.53,444.401 
  1893.23,445.213 1895.93,446.109 1898.63,447.055 1901.33,448.086 1904.03,449.165 1906.73,450.33 1909.44,451.544 1912.14,452.843 1914.84,454.19 1917.54,455.624 
  1920.24,457.105 1922.94,458.673 1925.65,460.287 1928.35,461.989 1931.05,463.738 1933.75,465.574 1936.45,467.456 1939.15,469.426 1941.85,471.441 1944.56,473.545 
  1947.26,475.694 1949.96,477.932 1952.66,480.214 1955.36,482.586 1958.06,485.001 1960.77,487.506 1963.47,490.055 1966.17,492.694 1968.87,495.376 1971.57,498.148 
  1974.27,500.962 1976.97,503.868 1979.68,506.816 1982.38,509.855 1985.08,512.935 1987.78,516.107 1990.48,519.32 1993.18,522.626 1995.89,525.97 1998.59,529.409 
  2001.29,532.887 2003.99,536.459 2006.69,540.068 2009.39,543.773 2012.09,547.514 2014.8,551.352 2017.5,555.225 2020.2,559.196 2022.9,563.201 2025.6,567.305 
  2028.3,571.442 2031,575.678 2033.71,579.946 2036.41,584.315 2039.11,588.715 2041.81,593.216 2044.51,597.748 2047.21,602.382 2049.92,607.044 2052.62,611.81 
  2055.32,616.604 2058.02,621.503 2060.72,626.428 2063.42,631.459 2066.12,636.515 2068.83,641.678 2071.53,646.865 2074.23,652.16 2076.93,657.478 2079.63,662.905 
  2082.33,668.354 2085.04,673.913 2087.74,679.492 2090.44,685.184 2093.14,690.894 2095.84,696.717 2098.54,702.557 2101.24,708.513 2103.95,714.484 2106.65,720.571 
  2109.35,726.672 2112.05,732.892 2114.75,739.123 2117.45,745.474 2120.16,751.837 2122.86,758.319 2125.56,764.812 2128.26,771.427 2130.96,778.049 2133.66,784.796 
  2136.36,791.548 2139.07,798.427 2141.77,805.309 2144.47,812.32 2147.17,819.333 2149.87,826.475 2152.57,833.617 2155.27,840.891 2157.98,848.164 2160.68,855.57 
  2163.38,862.972 2166.08,870.51 2168.78,878.042 2171.48,885.712 2174.19,893.374 2176.89,901.176 2179.59,908.968 2182.29,916.901 2184.99,924.823 2187.69,932.888 
  2190.39,940.939 2193.1,949.137 2195.8,957.317 2198.5,965.647 2201.2,973.957 2203.9,982.419 2206.6,990.858 2209.31,999.452 2212.01,1008.02 2214.71,1016.75 
  2217.41,1025.44 2220.11,1034.3 2222.81,1043.13 2225.51,1052.12 2228.22,1061.08 2230.92,1070.2 2233.62,1079.28 2236.32,1088.54 2239.02,1097.75 2241.72,1107.14 
  2244.42,1116.48 2247.13,1126 2249.83,1135.47 2252.53,1145.12 2255.23,1154.72 2257.93,1164.5 2260.63,1174.23 2263.34,1184.15 2266.04,1194 2268.74,1204.05 
  2271.44,1214.03 2274.14,1224.2 2276.84,1234.31 2279.54,1244.62 2282.25,1254.85 2284.95,1265.28 2287.65,1275.64 2290.35,1286.19 2293.05,1296.66 2295.75,1307.31 
  2298.46,1317.83 2301.16,1328.43 2303.86,1338.17 2306.56,1338.37 2309.26,1338.37 2311.96,1338.38 2314.66,1338.37 2317.37,1338.38 2320.07,1338.37 2322.77,1338.38 
  2325.47,1338.37 2328.17,1338.38 2330.87,1338.37 2333.58,1338.38 2336.28,1338.37 2338.98,1338.38 2341.68,1338.37 2344.38,1338.38 2347.08,1338.37 2349.78,1338.38 
  2352.49,1338.37 2355.19,1338.38 2357.89,1338.37 2360.59,1338.38 2363.29,1338.37 2365.99,1338.38 2368.69,1338.37 2371.4,1338.38 2374.1,1338.37 2376.8,1338.38 
  2379.5,1338.37 2382.2,1338.38 2384.9,1338.37 2387.61,1338.38 2390.31,1338.37 2393.01,1338.38 2395.71,1338.37 2398.41,1338.38 2401.11,1338.37 2403.81,1338.38 
  2406.52,1338.37 2409.22,1338.38 2411.92,1338.37 2414.62,1338.38 2417.32,1338.37 2420.02,1338.38 2422.73,1338.37 2425.43,1338.38 2428.13,1338.37 2430.83,1338.38 
  2433.53,1338.37 2436.23,1338.38 2438.93,1338.37 2441.64,1338.38 2444.34,1338.37 2447.04,1338.38 2449.74,1338.37 2452.44,1338.38 2455.14,1338.37 2457.85,1338.38 
  2460.55,1338.37 2463.25,1338.38 2465.95,1338.37 2468.65,1338.38 2471.35,1338.37 2474.05,1338.38 2476.76,1338.37 2479.46,1338.38 2482.16,1338.37 2484.86,1338.38 
  2487.56,1338.37 2490.26,1338.38 2492.96,1338.37 2495.67,1338.38 2498.37,1338.37 2501.07,1338.38 2503.77,1338.37 2506.47,1338.38 2509.17,1338.37 2511.88,1338.38 
  2514.58,1338.37 2517.28,1338.38 2519.98,1338.37 2522.68,1338.38 2525.38,1338.37 2528.08,1338.38 2530.79,1338.37 2533.49,1338.38 2536.19,1338.37 2538.89,1338.38 
  2541.59,1338.37 2544.29,1338.38 2547,1338.38 2549.7,1338.38 2552.4,1338.38 2555.1,1338.38 2557.8,1338.38 2560.5,1338.38 2563.2,1338.38 2565.91,1338.38 
  2568.61,1338.38 2571.31,1338.38 2574.01,1338.38 2576.71,1338.38 2579.41,1338.38 2582.11,1338.38 2584.82,1338.38 2587.52,1338.38 2590.22,1338.38 2592.92,1338.38 
  2595.62,1338.38 2598.32,1338.38 2601.03,1338.38 2603.73,1338.38 2606.43,1338.38 2609.13,1338.38 2611.83,1338.38 2614.53,1338.38 2617.23,1338.38 2619.94,1338.38 
  2622.64,1338.38 2625.34,1338.38 2628.04,1338.38 2630.74,1338.38 2633.44,1338.38 2636.15,1338.38 2638.85,1338.38 2641.55,1338.38 2644.25,1338.38 2646.95,1338.38 
  2649.65,1338.38 2652.35,1338.38 2655.06,1338.38 2657.76,1338.38 2660.46,1338.38 2663.16,1338.38 2665.86,1338.38 2668.56,1338.38 2671.27,1338.38 2673.97,1338.38 
  2676.67,1338.38 2679.37,1338.38 2682.07,1338.38 2684.77,1338.38 2687.47,1338.38 2690.18,1338.38 2692.88,1338.38 2695.58,1338.38 2698.28,1338.38 2700.98,1338.38 
  2703.68,1338.38 2706.38,1338.38 2709.09,1338.38 2711.79,1338.38 2714.49,1338.38 2717.19,1338.38 2719.89,1338.38 2722.59,1338.38 2725.3,1338.38 2728,1338.38 
  2730.7,1338.38 2733.4,1338.38 2736.1,1338.38 2738.8,1338.38 2741.5,1338.38 2744.21,1338.38 2746.91,1338.38 2749.61,1338.38 2752.31,1338.38 2755.01,1338.38 
  2757.71,1338.38 2760.42,1338.38 2763.12,1338.38 2765.82,1338.38 
  "/>
<path clip-path="url(#clip552)" d="M434.407 1306.37 L426.887 1328 L403.975 1328.48 L422.247 1342.34 L415.591 1364.26 L434.407 1351.17 L453.223 1364.26 L446.567 1342.34 L464.839 1328.48 L441.927 1328 L434.407 1306.37 Z" fill="#009af9" fill-rule="evenodd" fill-opacity="0.6" stroke="#808080" stroke-opacity="0.6" stroke-width="0"/>
<path clip-path="url(#clip552)" d="M542.467 1011.13 L534.947 1032.76 L512.035 1033.24 L530.307 1047.1 L523.651 1069.02 L542.467 1055.93 L561.283 1069.02 L554.627 1047.1 L572.899 1033.24 L549.987 1032.76 L542.467 1011.13 Z" fill="#009af9" fill-rule="evenodd" fill-opacity="0.6" stroke="#808080" stroke-opacity="0.6" stroke-width="0"/>
<path clip-path="url(#clip552)" d="M650.528 707.123 L643.008 728.755 L620.096 729.235 L638.368 743.091 L631.712 765.011 L650.528 751.923 L669.344 765.011 L662.688 743.091 L680.96 729.235 L658.048 728.755 L650.528 707.123 Z" fill="#009af9" fill-rule="evenodd" fill-opacity="0.6" stroke="#808080" stroke-opacity="0.6" stroke-width="0"/>
<path clip-path="url(#clip552)" d="M758.589 508.068 L751.069 529.7 L728.157 530.18 L746.429 544.036 L739.773 565.956 L758.589 552.868 L777.405 565.956 L770.749 544.036 L789.021 530.18 L766.109 529.7 L758.589 508.068 Z" fill="#009af9" fill-rule="evenodd" fill-opacity="0.6" stroke="#808080" stroke-opacity="0.6" stroke-width="0"/>
<path clip-path="url(#clip552)" d="M866.65 415.055 L859.13 436.687 L836.218 437.167 L854.49 451.023 L847.834 472.943 L866.65 459.855 L885.466 472.943 L878.81 451.023 L897.082 437.167 L874.17 436.687 L866.65 415.055 Z" fill="#009af9" fill-rule="evenodd" fill-opacity="0.6" stroke="#808080" stroke-opacity="0.6" stroke-width="0"/>
<path clip-path="url(#clip552)" d="M974.711 429.035 L967.191 450.667 L944.279 451.147 L962.551 465.003 L955.895 486.923 L974.711 473.835 L993.527 486.923 L986.871 465.003 L1005.14 451.147 L982.231 450.667 L974.711 429.035 Z" fill="#009af9" fill-rule="evenodd" fill-opacity="0.6" stroke="#808080" stroke-opacity="0.6" stroke-width="0"/>
<path clip-path="url(#clip552)" d="M1082.77 546.22 L1075.25 567.852 L1052.34 568.332 L1070.61 582.188 L1063.96 604.108 L1082.77 591.02 L1101.59 604.108 L1094.93 582.188 L1113.2 568.332 L1090.29 567.852 L1082.77 546.22 Z" fill="#009af9" fill-rule="evenodd" fill-opacity="0.6" stroke="#808080" stroke-opacity="0.6" stroke-width="0"/>
<path clip-path="url(#clip552)" d="M1190.83 745.126 L1183.31 766.758 L1160.4 767.238 L1178.67 781.094 L1172.02 803.014 L1190.83 789.926 L1209.65 803.014 L1202.99 781.094 L1221.26 767.238 L1198.35 766.758 L1190.83 745.126 Z" fill="#009af9" fill-rule="evenodd" fill-opacity="0.6" stroke="#808080" stroke-opacity="0.6" stroke-width="0"/>
<path clip-path="url(#clip552)" d="M1298.89 954.324 L1291.37 975.956 L1268.46 976.436 L1286.73 990.292 L1280.08 1012.21 L1298.89 999.124 L1317.71 1012.21 L1311.05 990.292 L1329.33 976.436 L1306.41 975.956 L1298.89 954.324 Z" fill="#009af9" fill-rule="evenodd" fill-opacity="0.6" stroke="#808080" stroke-opacity="0.6" stroke-width="0"/>
<path clip-path="url(#clip552)" d="M1406.95 1018.54 L1399.43 1040.17 L1376.52 1040.65 L1394.79 1054.51 L1388.14 1076.43 L1406.95 1063.34 L1425.77 1076.43 L1419.11 1054.51 L1437.39 1040.65 L1414.47 1040.17 L1406.95 1018.54 Z" fill="#009af9" fill-rule="evenodd" fill-opacity="0.6" stroke="#808080" stroke-opacity="0.6" stroke-width="0"/>
<path clip-path="url(#clip552)" d="M1515.01 867.055 L1507.49 888.687 L1484.58 889.167 L1502.85 903.023 L1496.2 924.943 L1515.01 911.855 L1533.83 924.943 L1527.17 903.023 L1545.45 889.167 L1522.53 888.687 L1515.01 867.055 Z" fill="#009af9" fill-rule="evenodd" fill-opacity="0.6" stroke="#808080" stroke-opacity="0.6" stroke-width="0"/>
<path clip-path="url(#clip552)" d="M1623.08 648.331 L1615.56 669.963 L1592.64 670.443 L1610.92 684.299 L1604.26 706.219 L1623.08 693.131 L1641.89 706.219 L1635.24 684.299 L1653.51 670.443 L1630.6 669.963 L1623.08 648.331 Z" fill="#009af9" fill-rule="evenodd" fill-opacity="0.6" stroke="#808080" stroke-opacity="0.6" stroke-width="0"/>
<path clip-path="url(#clip552)" d="M1731.14 481.428 L1723.62 503.06 L1700.7 503.54 L1718.98 517.396 L1712.32 539.316 L1731.14 526.228 L1749.95 539.316 L1743.3 517.396 L1761.57 503.54 L1738.66 503.06 L1731.14 481.428 Z" fill="#009af9" fill-rule="evenodd" fill-opacity="0.6" stroke="#808080" stroke-opacity="0.6" stroke-width="0"/>
<path clip-path="url(#clip552)" d="M1839.2 409.542 L1831.68 431.174 L1808.76 431.654 L1827.04 445.51 L1820.38 467.43 L1839.2 454.342 L1858.01 467.43 L1851.36 445.51 L1869.63 431.654 L1846.72 431.174 L1839.2 409.542 Z" fill="#009af9" fill-rule="evenodd" fill-opacity="0.6" stroke="#808080" stroke-opacity="0.6" stroke-width="0"/>
<path clip-path="url(#clip552)" d="M1947.26 443.694 L1939.74 465.326 L1916.83 465.806 L1935.1 479.662 L1928.44 501.582 L1947.26 488.494 L1966.07 501.582 L1959.42 479.662 L1977.69 465.806 L1954.78 465.326 L1947.26 443.694 Z" fill="#009af9" fill-rule="evenodd" fill-opacity="0.6" stroke="#808080" stroke-opacity="0.6" stroke-width="0"/>
<path clip-path="url(#clip552)" d="M2055.32 584.604 L2047.8 606.236 L2024.89 606.716 L2043.16 620.572 L2036.5 642.492 L2055.32 629.404 L2074.13 642.492 L2067.48 620.572 L2085.75 606.716 L2062.84 606.236 L2055.32 584.604 Z" fill="#009af9" fill-rule="evenodd" fill-opacity="0.6" stroke="#808080" stroke-opacity="0.6" stroke-width="0"/>
<path clip-path="url(#clip552)" d="M2163.38 830.972 L2155.86 852.604 L2132.95 853.084 L2151.22 866.94 L2144.56 888.86 L2163.38 875.772 L2182.2 888.86 L2175.54 866.94 L2193.81 853.084 L2170.9 852.604 L2163.38 830.972 Z" fill="#009af9" fill-rule="evenodd" fill-opacity="0.6" stroke="#808080" stroke-opacity="0.6" stroke-width="0"/>
<path clip-path="url(#clip552)" d="M2271.44 1182.03 L2263.92 1203.66 L2241.01 1204.14 L2259.28 1218 L2252.62 1239.92 L2271.44 1226.83 L2290.26 1239.92 L2283.6 1218 L2301.87 1204.14 L2278.96 1203.66 L2271.44 1182.03 Z" fill="#009af9" fill-rule="evenodd" fill-opacity="0.6" stroke="#808080" stroke-opacity="0.6" stroke-width="0"/>
<polyline clip-path="url(#clip552)" style="stroke:#009af9; stroke-linecap:butt; stroke-linejoin:round; stroke-width:12; stroke-opacity:1; fill:none" points="
  2.16352,1338.38 4.86504,1338.38 7.56656,1338.38 10.2681,1338.38 12.9696,1338.38 15.6711,1338.38 18.3726,1338.38 21.0742,1338.38 23.7757,1338.38 26.4772,1338.38 
  29.1787,1338.38 31.8802,1338.38 34.5818,1338.38 37.2833,1338.38 39.9848,1338.38 42.6863,1338.38 45.3878,1338.38 48.0894,1338.38 50.7909,1338.38 53.4924,1338.38 
  56.1939,1338.38 58.8954,1338.38 61.597,1338.38 64.2985,1338.38 67,1338.38 69.7015,1338.38 72.403,1338.38 75.1046,1338.38 77.8061,1338.38 80.5076,1338.38 
  83.2091,1338.38 85.9106,1338.38 88.6122,1338.38 91.3137,1338.38 94.0152,1338.38 96.7167,1338.38 99.4182,1338.38 102.12,1338.38 104.821,1338.38 107.523,1338.38 
  110.224,1338.38 112.926,1338.38 115.627,1338.38 118.329,1338.38 121.03,1338.38 123.732,1338.38 126.433,1338.38 129.135,1338.38 131.836,1338.38 134.538,1338.38 
  137.24,1338.38 139.941,1338.38 142.643,1338.38 145.344,1338.38 148.046,1338.38 150.747,1338.38 153.449,1338.38 156.15,1338.38 158.852,1338.38 161.553,1338.38 
  164.255,1338.38 166.956,1338.38 169.658,1338.38 172.359,1338.38 175.061,1338.38 177.762,1338.38 180.464,1338.38 183.165,1338.38 185.867,1338.38 188.568,1338.38 
  191.27,1338.38 193.971,1338.38 196.673,1338.38 199.374,1338.38 202.076,1338.38 204.778,1338.38 207.479,1338.38 210.181,1338.38 212.882,1338.38 215.584,1338.38 
  218.285,1338.38 220.987,1338.38 223.688,1338.38 226.39,1338.38 229.091,1338.38 231.793,1338.38 234.494,1338.38 237.196,1338.38 239.897,1338.38 242.599,1338.38 
  245.3,1338.38 248.002,1338.38 250.703,1338.38 253.405,1338.38 256.106,1338.38 258.808,1338.38 261.509,1338.38 264.211,1338.38 266.912,1338.38 269.614,1338.38 
  272.315,1338.38 275.017,1338.38 277.719,1338.38 280.42,1338.38 283.122,1338.38 285.823,1338.38 288.525,1338.38 291.226,1338.38 293.928,1338.38 296.629,1338.38 
  299.331,1338.38 302.032,1338.38 304.734,1338.38 307.435,1338.38 310.137,1338.38 312.838,1338.38 315.54,1338.38 318.241,1338.38 320.943,1338.38 323.644,1338.38 
  326.346,1338.38 329.047,1338.38 331.749,1338.38 334.45,1338.38 337.152,1338.38 339.853,1338.38 342.555,1338.38 345.257,1338.38 347.958,1338.38 350.66,1338.38 
  353.361,1338.38 356.063,1338.38 358.764,1338.38 361.466,1338.38 364.167,1338.38 366.869,1338.38 369.57,1338.38 372.272,1338.37 374.973,1338.38 377.675,1338.37 
  380.376,1338.38 383.078,1338.37 385.779,1338.38 388.481,1338.37 391.182,1338.38 393.884,1338.37 396.585,1338.38 399.287,1338.37 401.988,1338.38 404.69,1338.37 
  407.391,1338.38 410.093,1338.37 412.795,1338.38 415.496,1338.37 418.198,1338.38 420.899,1338.37 423.601,1338.38 426.302,1338.37 429.004,1338.38 431.705,1338.37 
  434.407,1338.38 437.108,1338.37 439.81,1338.38 442.511,1338.37 445.213,1338.38 447.914,1338.37 450.616,1338.38 453.317,1338.37 456.019,1338.38 458.72,1338.37 
  461.422,1338.38 464.123,1338.29 466.825,1333 469.526,1325.04 472.228,1316.84 474.929,1308.44 477.631,1300.18 480.333,1291.81 483.034,1283.62 485.736,1275.34 
  488.437,1267.25 491.139,1259.08 493.84,1251.1 496.542,1243.05 499.243,1235.18 501.945,1227.25 504.646,1219.49 507.348,1211.69 510.049,1204.05 512.751,1196.37 
  515.452,1188.85 518.154,1181.3 520.855,1173.9 523.557,1166.47 526.258,1159.18 528.96,1151.88 531.661,1144.71 534.363,1137.53 537.064,1130.48 539.766,1123.43 
  542.467,1116.49 545.169,1109.56 547.871,1102.74 550.572,1095.92 553.274,1089.22 555.975,1082.52 558.677,1075.94 561.378,1069.36 564.08,1062.88 566.781,1056.42 
  569.483,1050.05 572.184,1043.71 574.886,1037.45 577.587,1031.22 580.289,1025.08 582.99,1018.95 585.692,1012.92 588.393,1006.91 591.095,1000.98 593.796,995.081 
  596.498,989.258 599.199,983.467 601.901,977.75 604.602,972.066 607.304,966.452 610.005,960.875 612.707,955.364 615.409,949.893 618.11,944.483 620.812,939.115 
  623.513,933.807 626.215,928.542 628.916,923.333 631.618,918.169 634.319,913.059 637.021,907.996 639.722,902.984 642.424,898.02 645.125,893.105 647.827,888.24 
  650.528,883.42 653.23,878.652 655.931,873.927 658.633,869.255 661.334,864.625 664.036,860.048 666.737,855.51 669.439,851.028 672.14,846.582 674.842,842.193 
  677.543,837.839 680.245,833.542 682.947,829.278 685.648,825.073 688.35,820.899 691.051,816.783 693.753,812.698 696.454,808.672 699.156,804.674 701.857,800.737 
  704.559,796.827 707.26,792.977 709.962,789.152 712.663,785.389 715.365,781.65 718.066,777.973 720.768,774.318 723.469,770.726 726.171,767.155 728.872,763.647 
  731.574,760.158 734.275,756.733 736.977,753.327 739.678,749.984 742.38,746.659 745.081,743.398 747.783,740.153 750.485,736.972 753.186,733.806 755.888,730.705 
  758.589,727.618 761.291,724.596 763.992,721.587 766.694,718.642 769.395,715.71 772.097,712.843 774.798,709.987 777.5,707.195 780.201,704.414 782.903,701.699 
  785.604,698.992 788.306,696.35 791.007,693.717 793.709,691.149 796.41,688.589 799.112,686.093 801.813,683.605 804.515,681.181 807.216,678.763 809.918,676.411 
  812.619,674.063 815.321,671.78 818.023,669.501 820.724,667.288 823.426,665.077 826.127,662.932 828.829,660.789 831.53,658.711 834.232,656.634 836.933,654.622 
  839.635,652.611 842.336,650.665 845.038,648.718 847.739,646.836 850.441,644.954 853.142,643.135 855.844,641.316 858.545,639.56 861.247,637.802 863.948,636.108 
  866.65,634.411 869.351,632.778 872.053,631.141 874.754,629.568 877.456,627.99 880.157,626.475 882.859,624.956 885.56,623.499 888.262,622.037 890.964,620.637 
  893.665,619.231 896.367,617.888 899.068,616.537 901.77,615.248 904.471,613.952 907.173,612.718 909.874,611.475 912.576,610.293 915.277,609.103 917.979,607.973 
  920.68,606.834 923.382,605.756 926.083,604.668 928.785,603.64 931.486,602.601 934.188,601.622 936.889,600.631 939.591,599.701 942.292,598.758 944.994,597.874 
  947.695,596.978 950.397,596.141 953.098,595.29 955.8,594.498 958.502,593.692 961.203,592.944 963.905,592.181 966.606,591.477 969.308,590.756 972.009,590.094 
  974.711,589.415 977.412,588.794 980.114,588.156 982.815,587.575 985.517,586.977 988.218,586.435 990.92,585.875 993.621,585.372 996.323,584.85 999.024,584.383 
  1001.73,583.898 1004.43,583.468 1007.13,583.017 1009.83,582.623 1012.53,582.207 1015.23,581.846 1017.93,581.464 1020.64,581.137 1023.34,580.787 1026.04,580.492 
  1028.74,580.174 1031.44,579.91 1034.14,579.623 1036.85,579.389 1039.55,579.131 1042.25,578.926 1044.95,578.697 1047.65,578.52 1050.35,578.319 1053.05,578.17 
  1055.76,577.995 1058.46,577.871 1061.16,577.722 1063.86,577.624 1066.56,577.5 1069.26,577.426 1071.97,577.325 1074.67,577.275 1077.37,577.196 1080.07,577.168 
  1082.77,577.112 1085.47,577.105 1088.17,577.07 1090.88,577.083 1093.58,577.067 1096.28,577.101 1098.98,577.104 1101.68,577.155 1104.38,577.176 1107.09,577.245 
  1109.79,577.283 1112.49,577.369 1115.19,577.423 1117.89,577.525 1120.59,577.594 1123.29,577.711 1126,577.794 1128.7,577.924 1131.4,578.021 1134.1,578.164 
  1136.8,578.274 1139.5,578.429 1142.2,578.55 1144.91,578.717 1147.61,578.848 1150.31,579.025 1153.01,579.167 1155.71,579.353 1158.41,579.504 1161.12,579.699 
  1163.82,579.857 1166.52,580.06 1169.22,580.226 1171.92,580.436 1174.62,580.609 1177.32,580.825 1180.03,581.003 1182.73,581.225 1185.43,581.408 1188.13,581.634 
  1190.83,581.822 1193.53,582.052 1196.24,582.243 1198.94,582.476 1201.64,582.669 1204.34,582.905 1207.04,583.1 1209.74,583.337 1212.44,583.534 1215.15,583.772 
  1217.85,583.97 1220.55,584.208 1223.25,584.405 1225.95,584.643 1228.65,584.839 1231.36,585.076 1234.06,585.271 1236.76,585.506 1239.46,585.699 1242.16,585.932 
  1244.86,586.122 1247.56,586.352 1250.27,586.539 1252.97,586.765 1255.67,586.948 1258.37,587.171 1261.07,587.349 1263.77,587.567 1266.47,587.741 1269.18,587.953 
  1271.88,588.122 1274.58,588.329 1277.28,588.491 1279.98,588.692 1282.68,588.848 1285.39,589.042 1288.09,589.192 1290.79,589.379 1293.49,589.521 1296.19,589.701 
  1298.89,589.835 1301.59,590.007 1304.3,590.133 1307,590.297 1309.7,590.415 1312.4,590.57 1315.1,590.68 1317.8,590.826 1320.51,590.926 1323.21,591.063 
  1325.91,591.154 1328.61,591.282 1331.31,591.364 1334.01,591.482 1336.71,591.553 1339.42,591.661 1342.12,591.723 1344.82,591.821 1347.52,591.872 1350.22,591.96 
  1352.92,592.001 1355.62,592.078 1358.33,592.109 1361.03,592.175 1363.73,592.195 1366.43,592.251 1369.13,592.26 1371.83,592.305 1374.54,592.304 1377.24,592.338 
  1379.94,592.325 1382.64,592.349 1385.34,592.325 1388.04,592.338 1390.74,592.304 1393.45,592.305 1396.15,592.26 1398.85,592.251 1401.55,592.195 1404.25,592.175 
  1406.95,592.109 1409.66,592.078 1412.36,592.001 1415.06,591.96 1417.76,591.872 1420.46,591.821 1423.16,591.723 1425.86,591.661 1428.57,591.553 1431.27,591.482 
  1433.97,591.364 1436.67,591.282 1439.37,591.154 1442.07,591.063 1444.78,590.926 1447.48,590.826 1450.18,590.68 1452.88,590.57 1455.58,590.415 1458.28,590.297 
  1460.98,590.133 1463.69,590.007 1466.39,589.835 1469.09,589.701 1471.79,589.521 1474.49,589.379 1477.19,589.192 1479.89,589.042 1482.6,588.848 1485.3,588.692 
  1488,588.491 1490.7,588.329 1493.4,588.122 1496.1,587.953 1498.81,587.741 1501.51,587.567 1504.21,587.349 1506.91,587.171 1509.61,586.948 1512.31,586.765 
  1515.01,586.539 1517.72,586.352 1520.42,586.122 1523.12,585.932 1525.82,585.699 1528.52,585.506 1531.22,585.271 1533.93,585.076 1536.63,584.839 1539.33,584.643 
  1542.03,584.405 1544.73,584.208 1547.43,583.97 1550.13,583.772 1552.84,583.534 1555.54,583.337 1558.24,583.1 1560.94,582.905 1563.64,582.669 1566.34,582.476 
  1569.05,582.243 1571.75,582.052 1574.45,581.822 1577.15,581.634 1579.85,581.408 1582.55,581.225 1585.25,581.003 1587.96,580.825 1590.66,580.609 1593.36,580.436 
  1596.06,580.226 1598.76,580.06 1601.46,579.857 1604.16,579.699 1606.87,579.504 1609.57,579.353 1612.27,579.167 1614.97,579.025 1617.67,578.848 1620.37,578.717 
  1623.08,578.55 1625.78,578.429 1628.48,578.274 1631.18,578.164 1633.88,578.021 1636.58,577.924 1639.28,577.794 1641.99,577.711 1644.69,577.594 1647.39,577.525 
  1650.09,577.423 1652.79,577.369 1655.49,577.283 1658.2,577.245 1660.9,577.176 1663.6,577.155 1666.3,577.104 1669,577.101 1671.7,577.067 1674.4,577.083 
  1677.11,577.07 1679.81,577.105 1682.51,577.112 1685.21,577.168 1687.91,577.196 1690.61,577.275 1693.31,577.325 1696.02,577.426 1698.72,577.5 1701.42,577.624 
  1704.12,577.722 1706.82,577.871 1709.52,577.995 1712.23,578.17 1714.93,578.319 1717.63,578.52 1720.33,578.697 1723.03,578.926 1725.73,579.131 1728.43,579.389 
  1731.14,579.623 1733.84,579.91 1736.54,580.174 1739.24,580.492 1741.94,580.787 1744.64,581.137 1747.35,581.464 1750.05,581.846 1752.75,582.207 1755.45,582.623 
  1758.15,583.017 1760.85,583.468 1763.55,583.898 1766.26,584.383 1768.96,584.85 1771.66,585.372 1774.36,585.875 1777.06,586.435 1779.76,586.977 1782.47,587.575 
  1785.17,588.156 1787.87,588.794 1790.57,589.415 1793.27,590.094 1795.97,590.756 1798.67,591.477 1801.38,592.181 1804.08,592.944 1806.78,593.692 1809.48,594.498 
  1812.18,595.29 1814.88,596.141 1817.58,596.978 1820.29,597.874 1822.99,598.758 1825.69,599.701 1828.39,600.631 1831.09,601.622 1833.79,602.601 1836.5,603.64 
  1839.2,604.668 1841.9,605.756 1844.6,606.834 1847.3,607.973 1850,609.103 1852.7,610.293 1855.41,611.475 1858.11,612.718 1860.81,613.952 1863.51,615.248 
  1866.21,616.537 1868.91,617.888 1871.62,619.231 1874.32,620.637 1877.02,622.037 1879.72,623.499 1882.42,624.956 1885.12,626.475 1887.82,627.99 1890.53,629.568 
  1893.23,631.141 1895.93,632.778 1898.63,634.411 1901.33,636.108 1904.03,637.802 1906.73,639.56 1909.44,641.316 1912.14,643.135 1914.84,644.954 1917.54,646.836 
  1920.24,648.718 1922.94,650.665 1925.65,652.611 1928.35,654.622 1931.05,656.634 1933.75,658.711 1936.45,660.789 1939.15,662.932 1941.85,665.077 1944.56,667.288 
  1947.26,669.501 1949.96,671.78 1952.66,674.063 1955.36,676.411 1958.06,678.763 1960.77,681.181 1963.47,683.605 1966.17,686.093 1968.87,688.589 1971.57,691.149 
  1974.27,693.717 1976.97,696.35 1979.68,698.992 1982.38,701.699 1985.08,704.414 1987.78,707.195 1990.48,709.987 1993.18,712.843 1995.89,715.71 1998.59,718.642 
  2001.29,721.587 2003.99,724.596 2006.69,727.618 2009.39,730.705 2012.09,733.806 2014.8,736.972 2017.5,740.153 2020.2,743.398 2022.9,746.659 2025.6,749.984 
  2028.3,753.327 2031,756.733 2033.71,760.158 2036.41,763.647 2039.11,767.155 2041.81,770.726 2044.51,774.318 2047.21,777.973 2049.92,781.65 2052.62,785.389 
  2055.32,789.152 2058.02,792.977 2060.72,796.827 2063.42,800.737 2066.12,804.674 2068.83,808.672 2071.53,812.698 2074.23,816.783 2076.93,820.899 2079.63,825.073 
  2082.33,829.278 2085.04,833.542 2087.74,837.839 2090.44,842.193 2093.14,846.582 2095.84,851.028 2098.54,855.51 2101.24,860.048 2103.95,864.625 2106.65,869.255 
  2109.35,873.927 2112.05,878.652 2114.75,883.42 2117.45,888.24 2120.16,893.105 2122.86,898.02 2125.56,902.984 2128.26,907.996 2130.96,913.059 2133.66,918.169 
  2136.36,923.333 2139.07,928.542 2141.77,933.807 2144.47,939.115 2147.17,944.483 2149.87,949.893 2152.57,955.364 2155.27,960.875 2157.98,966.452 2160.68,972.066 
  2163.38,977.75 2166.08,983.467 2168.78,989.258 2171.48,995.081 2174.19,1000.98 2176.89,1006.91 2179.59,1012.92 2182.29,1018.95 2184.99,1025.08 2187.69,1031.22 
  2190.39,1037.45 2193.1,1043.71 2195.8,1050.05 2198.5,1056.42 2201.2,1062.88 2203.9,1069.36 2206.6,1075.94 2209.31,1082.52 2212.01,1089.22 2214.71,1095.92 
  2217.41,1102.74 2220.11,1109.56 2222.81,1116.49 2225.51,1123.43 2228.22,1130.48 2230.92,1137.53 2233.62,1144.71 2236.32,1151.88 2239.02,1159.18 2241.72,1166.47 
  2244.42,1173.9 2247.13,1181.3 2249.83,1188.85 2252.53,1196.37 2255.23,1204.05 2257.93,1211.69 2260.63,1219.49 2263.34,1227.25 2266.04,1235.18 2268.74,1243.05 
  2271.44,1251.1 2274.14,1259.08 2276.84,1267.25 2279.54,1275.34 2282.25,1283.62 2284.95,1291.81 2287.65,1300.18 2290.35,1308.44 2293.05,1316.84 2295.75,1325.04 
  2298.46,1333 2301.16,1338.29 2303.86,1338.38 2306.56,1338.37 2309.26,1338.38 2311.96,1338.37 2314.66,1338.38 2317.37,1338.37 2320.07,1338.38 2322.77,1338.37 
  2325.47,1338.38 2328.17,1338.37 2330.87,1338.38 2333.58,1338.37 2336.28,1338.38 2338.98,1338.37 2341.68,1338.38 2344.38,1338.37 2347.08,1338.38 2349.78,1338.37 
  2352.49,1338.38 2355.19,1338.37 2357.89,1338.38 2360.59,1338.37 2363.29,1338.38 2365.99,1338.37 2368.69,1338.38 2371.4,1338.37 2374.1,1338.38 2376.8,1338.37 
  2379.5,1338.38 2382.2,1338.37 2384.9,1338.38 2387.61,1338.37 2390.31,1338.38 2393.01,1338.37 2395.71,1338.38 2398.41,1338.38 2401.11,1338.38 2403.81,1338.38 
  2406.52,1338.38 2409.22,1338.38 2411.92,1338.38 2414.62,1338.38 2417.32,1338.38 2420.02,1338.38 2422.73,1338.38 2425.43,1338.38 2428.13,1338.38 2430.83,1338.38 
  2433.53,1338.38 2436.23,1338.38 2438.93,1338.38 2441.64,1338.38 2444.34,1338.38 2447.04,1338.38 2449.74,1338.38 2452.44,1338.38 2455.14,1338.38 2457.85,1338.38 
  2460.55,1338.38 2463.25,1338.38 2465.95,1338.38 2468.65,1338.38 2471.35,1338.38 2474.05,1338.38 2476.76,1338.38 2479.46,1338.38 2482.16,1338.38 2484.86,1338.38 
  2487.56,1338.38 2490.26,1338.38 2492.96,1338.38 2495.67,1338.38 2498.37,1338.38 2501.07,1338.38 2503.77,1338.38 2506.47,1338.38 2509.17,1338.38 2511.88,1338.38 
  2514.58,1338.38 2517.28,1338.38 2519.98,1338.38 2522.68,1338.38 2525.38,1338.38 2528.08,1338.38 2530.79,1338.38 2533.49,1338.38 2536.19,1338.38 2538.89,1338.38 
  2541.59,1338.38 2544.29,1338.38 2547,1338.38 2549.7,1338.38 2552.4,1338.38 2555.1,1338.38 2557.8,1338.38 2560.5,1338.38 2563.2,1338.38 2565.91,1338.38 
  2568.61,1338.38 2571.31,1338.38 2574.01,1338.38 2576.71,1338.38 2579.41,1338.38 2582.11,1338.38 2584.82,1338.38 2587.52,1338.38 2590.22,1338.38 2592.92,1338.38 
  2595.62,1338.38 2598.32,1338.38 2601.03,1338.38 2603.73,1338.38 2606.43,1338.38 2609.13,1338.38 2611.83,1338.38 2614.53,1338.38 2617.23,1338.38 2619.94,1338.38 
  2622.64,1338.38 2625.34,1338.38 2628.04,1338.38 2630.74,1338.38 2633.44,1338.38 2636.15,1338.38 2638.85,1338.38 2641.55,1338.38 2644.25,1338.38 2646.95,1338.38 
  2649.65,1338.38 2652.35,1338.38 2655.06,1338.38 2657.76,1338.38 2660.46,1338.38 2663.16,1338.38 2665.86,1338.38 2668.56,1338.38 2671.27,1338.38 2673.97,1338.38 
  2676.67,1338.38 2679.37,1338.38 2682.07,1338.38 2684.77,1338.38 2687.47,1338.38 2690.18,1338.38 2692.88,1338.38 2695.58,1338.38 2698.28,1338.38 2700.98,1338.38 
  2703.68,1338.38 2706.38,1338.38 2709.09,1338.38 2711.79,1338.38 2714.49,1338.38 2717.19,1338.38 2719.89,1338.38 2722.59,1338.38 2725.3,1338.38 2728,1338.38 
  2730.7,1338.38 2733.4,1338.38 2736.1,1338.38 2738.8,1338.38 2741.5,1338.38 2744.21,1338.38 2746.91,1338.38 2749.61,1338.38 2752.31,1338.38 2755.01,1338.38 
  2757.71,1338.38 2760.42,1338.38 2763.12,1338.38 2765.82,1338.38 
  "/>
<path clip-path="url(#clip552)" d="M434.407 1306.38 L402.407 1370.38 L466.407 1370.38 L434.407 1306.38 Z" fill="#009af9" fill-rule="evenodd" fill-opacity="0.6" stroke="#808080" stroke-opacity="0.6" stroke-width="0"/>
<path clip-path="url(#clip552)" d="M542.467 1084.49 L510.467 1148.49 L574.467 1148.49 L542.467 1084.49 Z" fill="#009af9" fill-rule="evenodd" fill-opacity="0.6" stroke="#808080" stroke-opacity="0.6" stroke-width="0"/>
<path clip-path="url(#clip552)" d="M650.528 851.42 L618.528 915.42 L682.528 915.42 L650.528 851.42 Z" fill="#009af9" fill-rule="evenodd" fill-opacity="0.6" stroke="#808080" stroke-opacity="0.6" stroke-width="0"/>
<path clip-path="url(#clip552)" d="M758.589 695.618 L726.589 759.618 L790.589 759.618 L758.589 695.618 Z" fill="#009af9" fill-rule="evenodd" fill-opacity="0.6" stroke="#808080" stroke-opacity="0.6" stroke-width="0"/>
<path clip-path="url(#clip552)" d="M866.65 602.411 L834.65 666.411 L898.65 666.411 L866.65 602.411 Z" fill="#009af9" fill-rule="evenodd" fill-opacity="0.6" stroke="#808080" stroke-opacity="0.6" stroke-width="0"/>
<path clip-path="url(#clip552)" d="M974.711 557.415 L942.711 621.415 L1006.71 621.415 L974.711 557.415 Z" fill="#009af9" fill-rule="evenodd" fill-opacity="0.6" stroke="#808080" stroke-opacity="0.6" stroke-width="0"/>
<path clip-path="url(#clip552)" d="M1082.77 545.112 L1050.77 609.112 L1114.77 609.112 L1082.77 545.112 Z" fill="#009af9" fill-rule="evenodd" fill-opacity="0.6" stroke="#808080" stroke-opacity="0.6" stroke-width="0"/>
<path clip-path="url(#clip552)" d="M1190.83 549.822 L1158.83 613.822 L1222.83 613.822 L1190.83 549.822 Z" fill="#009af9" fill-rule="evenodd" fill-opacity="0.6" stroke="#808080" stroke-opacity="0.6" stroke-width="0"/>
<path clip-path="url(#clip552)" d="M1298.89 557.835 L1266.89 621.835 L1330.89 621.835 L1298.89 557.835 Z" fill="#009af9" fill-rule="evenodd" fill-opacity="0.6" stroke="#808080" stroke-opacity="0.6" stroke-width="0"/>
<path clip-path="url(#clip552)" d="M1406.95 560.109 L1374.95 624.109 L1438.95 624.109 L1406.95 560.109 Z" fill="#009af9" fill-rule="evenodd" fill-opacity="0.6" stroke="#808080" stroke-opacity="0.6" stroke-width="0"/>
<path clip-path="url(#clip552)" d="M1515.01 554.539 L1483.01 618.539 L1547.01 618.539 L1515.01 554.539 Z" fill="#009af9" fill-rule="evenodd" fill-opacity="0.6" stroke="#808080" stroke-opacity="0.6" stroke-width="0"/>
<path clip-path="url(#clip552)" d="M1623.08 546.55 L1591.08 610.55 L1655.08 610.55 L1623.08 546.55 Z" fill="#009af9" fill-rule="evenodd" fill-opacity="0.6" stroke="#808080" stroke-opacity="0.6" stroke-width="0"/>
<path clip-path="url(#clip552)" d="M1731.14 547.623 L1699.14 611.623 L1763.14 611.623 L1731.14 547.623 Z" fill="#009af9" fill-rule="evenodd" fill-opacity="0.6" stroke="#808080" stroke-opacity="0.6" stroke-width="0"/>
<path clip-path="url(#clip552)" d="M1839.2 572.668 L1807.2 636.668 L1871.2 636.668 L1839.2 572.668 Z" fill="#009af9" fill-rule="evenodd" fill-opacity="0.6" stroke="#808080" stroke-opacity="0.6" stroke-width="0"/>
<path clip-path="url(#clip552)" d="M1947.26 637.501 L1915.26 701.501 L1979.26 701.501 L1947.26 637.501 Z" fill="#009af9" fill-rule="evenodd" fill-opacity="0.6" stroke="#808080" stroke-opacity="0.6" stroke-width="0"/>
<path clip-path="url(#clip552)" d="M2055.32 757.152 L2023.32 821.152 L2087.32 821.152 L2055.32 757.152 Z" fill="#009af9" fill-rule="evenodd" fill-opacity="0.6" stroke="#808080" stroke-opacity="0.6" stroke-width="0"/>
<path clip-path="url(#clip552)" d="M2163.38 945.75 L2131.38 1009.75 L2195.38 1009.75 L2163.38 945.75 Z" fill="#009af9" fill-rule="evenodd" fill-opacity="0.6" stroke="#808080" stroke-opacity="0.6" stroke-width="0"/>
<path clip-path="url(#clip552)" d="M2271.44 1219.1 L2239.44 1283.1 L2303.44 1283.1 L2271.44 1219.1 Z" fill="#009af9" fill-rule="evenodd" fill-opacity="0.6" stroke="#808080" stroke-opacity="0.6" stroke-width="0"/>
<path clip-path="url(#clip550)" d="
M477.199 453.253 L1128.74 453.253 L1128.74 90.3726 L477.199 90.3726  Z
  " fill="#ffffff" fill-rule="evenodd" fill-opacity="1"/>
<polyline clip-path="url(#clip550)" style="stroke:#000000; stroke-linecap:butt; stroke-linejoin:round; stroke-width:4; stroke-opacity:1; fill:none" points="
  477.199,453.253 1128.74,453.253 1128.74,90.3726 477.199,90.3726 477.199,453.253 
  "/>
<polyline clip-path="url(#clip550)" style="stroke:#009af9; stroke-linecap:butt; stroke-linejoin:round; stroke-width:7; stroke-opacity:1; fill:none" points="
  498.757,181.093 628.106,181.093 
  "/>
<circle clip-path="url(#clip550)" cx="563.431" cy="181.093" r="40" fill="#009af9" fill-rule="evenodd" fill-opacity="0.6" stroke="#808080" stroke-opacity="0.6" stroke-width="0"/>
<path clip-path="url(#clip550)" d="M662.627 153.081 L662.627 165.962 L677.98 165.962 L677.98 171.755 L662.627 171.755 L662.627 196.385 Q662.627 201.935 664.126 203.514 Q665.665 205.094 670.323 205.094 L677.98 205.094 L677.98 211.333 L670.323 211.333 Q661.695 211.333 658.414 208.132 Q655.133 204.892 655.133 196.385 L655.133 171.755 L649.664 171.755 L649.664 165.962 L655.133 165.962 L655.133 153.081 L662.627 153.081 Z" fill="#000000" fill-rule="evenodd" fill-opacity="1" /><path clip-path="url(#clip550)" d="M715.126 173.659 L767.059 173.659 L767.059 180.465 L715.126 180.465 L715.126 173.659 M715.126 190.187 L767.059 190.187 L767.059 197.073 L715.126 197.073 L715.126 190.187 Z" fill="#000000" fill-rule="evenodd" fill-opacity="1" /><path clip-path="url(#clip550)" d="M828.592 156.24 Q822.273 156.24 819.073 162.479 Q815.913 168.677 815.913 181.153 Q815.913 193.59 819.073 199.828 Q822.273 206.026 828.592 206.026 Q834.952 206.026 838.112 199.828 Q841.312 193.59 841.312 181.153 Q841.312 168.677 838.112 162.479 Q834.952 156.24 828.592 156.24 M828.592 149.759 Q838.76 149.759 844.107 157.82 Q849.495 165.841 849.495 181.153 Q849.495 196.425 844.107 204.487 Q838.76 212.507 828.592 212.507 Q818.424 212.507 813.037 204.487 Q807.69 196.425 807.69 181.153 Q807.69 165.841 813.037 157.82 Q818.424 149.759 828.592 149.759 Z" fill="#000000" fill-rule="evenodd" fill-opacity="1" /><path clip-path="url(#clip550)" d="M863.876 201.043 L872.423 201.043 L872.423 211.333 L863.876 211.333 L863.876 201.043 Z" fill="#000000" fill-rule="evenodd" fill-opacity="1" /><path clip-path="url(#clip550)" d="M907.747 156.24 Q901.427 156.24 898.227 162.479 Q895.068 168.677 895.068 181.153 Q895.068 193.59 898.227 199.828 Q901.427 206.026 907.747 206.026 Q914.107 206.026 917.267 199.828 Q920.467 193.59 920.467 181.153 Q920.467 168.677 917.267 162.479 Q914.107 156.24 907.747 156.24 M907.747 149.759 Q917.915 149.759 923.262 157.82 Q928.65 165.841 928.65 181.153 Q928.65 196.425 923.262 204.487 Q917.915 212.507 907.747 212.507 Q897.579 212.507 892.191 204.487 Q886.844 196.425 886.844 181.153 Q886.844 165.841 892.191 157.82 Q897.579 149.759 907.747 149.759 Z" fill="#000000" fill-rule="evenodd" fill-opacity="1" /><path clip-path="url(#clip550)" d="M944.448 204.446 L957.816 204.446 L957.816 158.306 L943.273 161.223 L943.273 153.769 L957.735 150.853 L965.918 150.853 L965.918 204.446 L979.286 204.446 L979.286 211.333 L944.448 211.333 L944.448 204.446 Z" fill="#000000" fill-rule="evenodd" fill-opacity="1" /><path clip-path="url(#clip550)" d="M1018.3 157.982 L997.636 190.268 L1018.3 190.268 L1018.3 157.982 M1016.15 150.853 L1026.44 150.853 L1026.44 190.268 L1035.07 190.268 L1035.07 197.073 L1026.44 197.073 L1026.44 211.333 L1018.3 211.333 L1018.3 197.073 L990.993 197.073 L990.993 189.174 L1016.15 150.853 Z" fill="#000000" fill-rule="evenodd" fill-opacity="1" /><path clip-path="url(#clip550)" d="M1069.78 203.069 Q1071.24 205.013 1075.62 205.013 L1079.22 205.013 L1079.22 211.333 L1074.73 211.333 Q1067.43 211.333 1064.11 207.444 Q1060.79 203.474 1060.79 194.886 L1060.79 173.416 L1043.78 173.416 L1043.78 165.962 L1085.62 165.962 L1085.62 173.416 L1068.41 173.416 L1068.41 195.332 Q1068.41 201.205 1069.78 203.069 Z" fill="#000000" fill-rule="evenodd" fill-opacity="1" /><polyline clip-path="url(#clip550)" style="stroke:#009af9; stroke-linecap:butt; stroke-linejoin:round; stroke-width:7; stroke-opacity:1; fill:none" points="
  498.757,271.813 628.106,271.813 
  "/>
<path clip-path="url(#clip550)" d="M563.431 227.013 L552.903 257.297 L520.826 257.969 L546.407 277.368 L537.089 308.056 L563.431 289.733 L589.774 308.056 L580.455 277.368 L606.036 257.969 L573.959 257.297 L563.431 227.013 Z" fill="#009af9" fill-rule="evenodd" fill-opacity="0.6" stroke="#808080" stroke-opacity="0.6" stroke-width="0"/>
<path clip-path="url(#clip550)" d="M662.627 243.801 L662.627 256.682 L677.98 256.682 L677.98 262.475 L662.627 262.475 L662.627 287.105 Q662.627 292.655 664.126 294.234 Q665.665 295.814 670.323 295.814 L677.98 295.814 L677.98 302.053 L670.323 302.053 Q661.695 302.053 658.414 298.852 Q655.133 295.612 655.133 287.105 L655.133 262.475 L649.664 262.475 L649.664 256.682 L655.133 256.682 L655.133 243.801 L662.627 243.801 Z" fill="#000000" fill-rule="evenodd" fill-opacity="1" /><path clip-path="url(#clip550)" d="M715.126 264.379 L767.059 264.379 L767.059 271.185 L715.126 271.185 L715.126 264.379 M715.126 280.907 L767.059 280.907 L767.059 287.793 L715.126 287.793 L715.126 280.907 Z" fill="#000000" fill-rule="evenodd" fill-opacity="1" /><path clip-path="url(#clip550)" d="M812.51 295.166 L825.878 295.166 L825.878 249.026 L811.335 251.943 L811.335 244.489 L825.797 241.573 L833.98 241.573 L833.98 295.166 L847.348 295.166 L847.348 302.053 L812.51 302.053 L812.51 295.166 Z" fill="#000000" fill-rule="evenodd" fill-opacity="1" /><path clip-path="url(#clip550)" d="M886.358 248.702 L865.699 280.988 L886.358 280.988 L886.358 248.702 M884.211 241.573 L894.5 241.573 L894.5 280.988 L903.129 280.988 L903.129 287.793 L894.5 287.793 L894.5 302.053 L886.358 302.053 L886.358 287.793 L859.055 287.793 L859.055 279.894 L884.211 241.573 Z" fill="#000000" fill-rule="evenodd" fill-opacity="1" /><path clip-path="url(#clip550)" d="M916.659 291.763 L925.206 291.763 L925.206 302.053 L916.659 302.053 L916.659 291.763 Z" fill="#000000" fill-rule="evenodd" fill-opacity="1" /><path clip-path="url(#clip550)" d="M960.53 246.96 Q954.211 246.96 951.011 253.199 Q947.851 259.397 947.851 271.873 Q947.851 284.31 951.011 290.548 Q954.211 296.746 960.53 296.746 Q966.89 296.746 970.05 290.548 Q973.25 284.31 973.25 271.873 Q973.25 259.397 970.05 253.199 Q966.89 246.96 960.53 246.96 M960.53 240.479 Q970.698 240.479 976.045 248.54 Q981.433 256.561 981.433 271.873 Q981.433 287.145 976.045 295.207 Q970.698 303.227 960.53 303.227 Q950.362 303.227 944.975 295.207 Q939.628 287.145 939.628 271.873 Q939.628 256.561 944.975 248.54 Q950.362 240.479 960.53 240.479 Z" fill="#000000" fill-rule="evenodd" fill-opacity="1" /><path clip-path="url(#clip550)" d="M1017 293.789 Q1018.46 295.733 1022.83 295.733 L1026.44 295.733 L1026.44 302.053 L1021.94 302.053 Q1014.65 302.053 1011.33 298.164 Q1008.01 294.194 1008.01 285.606 L1008.01 264.136 L990.993 264.136 L990.993 256.682 L1032.84 256.682 L1032.84 264.136 L1015.62 264.136 L1015.62 286.052 Q1015.62 291.925 1017 293.789 Z" fill="#000000" fill-rule="evenodd" fill-opacity="1" /><polyline clip-path="url(#clip550)" style="stroke:#009af9; stroke-linecap:butt; stroke-linejoin:round; stroke-width:7; stroke-opacity:1; fill:none" points="
  498.757,362.533 628.106,362.533 
  "/>
<path clip-path="url(#clip550)" d="M563.431 317.733 L518.631 407.333 L608.231 407.333 L563.431 317.733 Z" fill="#009af9" fill-rule="evenodd" fill-opacity="0.6" stroke="#808080" stroke-opacity="0.6" stroke-width="0"/>
<path clip-path="url(#clip550)" d="M662.627 334.521 L662.627 347.402 L677.98 347.402 L677.98 353.195 L662.627 353.195 L662.627 377.825 Q662.627 383.375 664.126 384.954 Q665.665 386.534 670.323 386.534 L677.98 386.534 L677.98 392.773 L670.323 392.773 Q661.695 392.773 658.414 389.572 Q655.133 386.332 655.133 377.825 L655.133 353.195 L649.664 353.195 L649.664 347.402 L655.133 347.402 L655.133 334.521 L662.627 334.521 Z" fill="#000000" fill-rule="evenodd" fill-opacity="1" /><path clip-path="url(#clip550)" d="M715.126 355.099 L767.059 355.099 L767.059 361.905 L715.126 361.905 L715.126 355.099 M715.126 371.627 L767.059 371.627 L767.059 378.513 L715.126 378.513 L715.126 371.627 Z" fill="#000000" fill-rule="evenodd" fill-opacity="1" /><path clip-path="url(#clip550)" d="M812.51 385.886 L825.878 385.886 L825.878 339.746 L811.335 342.663 L811.335 335.209 L825.797 332.293 L833.98 332.293 L833.98 385.886 L847.348 385.886 L847.348 392.773 L812.51 392.773 L812.51 385.886 Z" fill="#000000" fill-rule="evenodd" fill-opacity="1" /><path clip-path="url(#clip550)" d="M886.358 339.422 L865.699 371.708 L886.358 371.708 L886.358 339.422 M884.211 332.293 L894.5 332.293 L894.5 371.708 L903.129 371.708 L903.129 378.513 L894.5 378.513 L894.5 392.773 L886.358 392.773 L886.358 378.513 L859.055 378.513 L859.055 370.614 L884.211 332.293 Z" fill="#000000" fill-rule="evenodd" fill-opacity="1" /><path clip-path="url(#clip550)" d="M934.159 337.68 Q927.839 337.68 924.639 343.919 Q921.479 350.117 921.479 362.593 Q921.479 375.03 924.639 381.268 Q927.839 387.466 934.159 387.466 Q940.519 387.466 943.678 381.268 Q946.879 375.03 946.879 362.593 Q946.879 350.117 943.678 343.919 Q940.519 337.68 934.159 337.68 M934.159 331.199 Q944.327 331.199 949.674 339.26 Q955.061 347.281 955.061 362.593 Q955.061 377.865 949.674 385.927 Q944.327 393.947 934.159 393.947 Q923.991 393.947 918.603 385.927 Q913.256 377.865 913.256 362.593 Q913.256 347.281 918.603 339.26 Q923.991 331.199 934.159 331.199 Z" fill="#000000" fill-rule="evenodd" fill-opacity="1" /><path clip-path="url(#clip550)" d="M969.442 382.483 L977.99 382.483 L977.99 392.773 L969.442 392.773 L969.442 382.483 Z" fill="#000000" fill-rule="evenodd" fill-opacity="1" /><path clip-path="url(#clip550)" d="M1013.31 337.68 Q1006.99 337.68 1003.79 343.919 Q1000.63 350.117 1000.63 362.593 Q1000.63 375.03 1003.79 381.268 Q1006.99 387.466 1013.31 387.466 Q1019.67 387.466 1022.83 381.268 Q1026.03 375.03 1026.03 362.593 Q1026.03 350.117 1022.83 343.919 Q1019.67 337.68 1013.31 337.68 M1013.31 331.199 Q1023.48 331.199 1028.83 339.26 Q1034.22 347.281 1034.22 362.593 Q1034.22 377.865 1028.83 385.927 Q1023.48 393.947 1013.31 393.947 Q1003.15 393.947 997.758 385.927 Q992.411 377.865 992.411 362.593 Q992.411 347.281 997.758 339.26 Q1003.15 331.199 1013.31 331.199 Z" fill="#000000" fill-rule="evenodd" fill-opacity="1" /><path clip-path="url(#clip550)" d="M1069.78 384.509 Q1071.24 386.453 1075.62 386.453 L1079.22 386.453 L1079.22 392.773 L1074.73 392.773 Q1067.43 392.773 1064.11 388.884 Q1060.79 384.914 1060.79 376.326 L1060.79 354.856 L1043.78 354.856 L1043.78 347.402 L1085.62 347.402 L1085.62 354.856 L1068.41 354.856 L1068.41 376.772 Q1068.41 382.645 1069.78 384.509 Z" fill="#000000" fill-rule="evenodd" fill-opacity="1" /><path clip-path="url(#clip550)" d="M2246.04 94.6765 Q2236.74 110.649 2232.22 126.274 Q2227.71 141.898 2227.71 157.94 Q2227.71 173.982 2232.22 189.745 Q2236.81 205.44 2246.04 221.342 L2234.93 221.342 Q2224.52 205.023 2219.31 189.259 Q2214.17 173.495 2214.17 157.94 Q2214.17 142.454 2219.31 126.76 Q2224.45 111.065 2234.93 94.6765 L2246.04 94.6765 Z" fill="#000000" fill-rule="evenodd" fill-opacity="1" /><path clip-path="url(#clip550)" d="M2306.18 163.496 Q2290.7 163.496 2284.72 167.037 Q2278.75 170.579 2278.75 179.12 Q2278.75 185.926 2283.2 189.954 Q2287.71 193.912 2295.42 193.912 Q2306.04 193.912 2312.43 186.412 Q2318.89 178.843 2318.89 166.343 L2318.89 163.496 L2306.18 163.496 M2331.67 158.218 L2331.67 202.593 L2318.89 202.593 L2318.89 190.787 Q2314.51 197.87 2307.99 201.273 Q2301.46 204.606 2292.01 204.606 Q2280.07 204.606 2272.99 197.94 Q2265.97 191.204 2265.97 179.954 Q2265.97 166.829 2274.72 160.162 Q2283.54 153.496 2300.97 153.496 L2318.89 153.496 L2318.89 152.246 Q2318.89 143.426 2313.06 138.635 Q2307.29 133.773 2296.81 133.773 Q2290.14 133.773 2283.82 135.371 Q2277.5 136.968 2271.67 140.162 L2271.67 128.357 Q2278.68 125.649 2285.28 124.329 Q2291.88 122.94 2298.13 122.94 Q2315 122.94 2323.33 131.69 Q2331.67 140.44 2331.67 158.218 Z" fill="#000000" fill-rule="evenodd" fill-opacity="1" /><path clip-path="url(#clip550)" d="M2355.97 94.6765 L2367.08 94.6765 Q2377.5 111.065 2382.64 126.76 Q2387.85 142.454 2387.85 157.94 Q2387.85 173.495 2382.64 189.259 Q2377.5 205.023 2367.08 221.342 L2355.97 221.342 Q2365.21 205.44 2369.72 189.745 Q2374.31 173.982 2374.31 157.94 Q2374.31 141.898 2369.72 126.274 Q2365.21 110.649 2355.97 94.6765 Z" fill="#000000" fill-rule="evenodd" fill-opacity="1" /></svg>
