<?xml version="1.0" encoding="utf-8"?>
<svg xmlns="http://www.w3.org/2000/svg" xmlns:xlink="http://www.w3.org/1999/xlink" width="600" height="400" viewBox="0 0 2400 1600">
<defs>
  <clipPath id="clip590">
    <rect x="0" y="0" width="2400" height="1600"/>
  </clipPath>
</defs>
<path clip-path="url(#clip590)" d="
M0 1600 L2400 1600 L2400 0 L0 0  Z
  " fill="#ffffff" fill-rule="evenodd" fill-opacity="1"/>
<defs>
  <clipPath id="clip591">
    <rect x="480" y="0" width="1681" height="1600"/>
  </clipPath>
</defs>
<path clip-path="url(#clip590)" d="
M310.376 1341.1 L2352.76 1341.1 L2352.76 47.2441 L310.376 47.2441  Z
  " fill="#ffffff" fill-rule="evenodd" fill-opacity="1"/>
<defs>
  <clipPath id="clip592">
    <rect x="310" y="47" width="2043" height="1295"/>
  </clipPath>
</defs>
<polyline clip-path="url(#clip590)" style="stroke:#000000; stroke-linecap:butt; stroke-linejoin:round; stroke-width:4; stroke-opacity:1; fill:none" points="
  310.376,1341.1 2352.76,1341.1 
  "/>
<polyline clip-path="url(#clip590)" style="stroke:#000000; stroke-linecap:butt; stroke-linejoin:round; stroke-width:4; stroke-opacity:1; fill:none" points="
  359.004,1341.1 359.004,1322.2 
  "/>
<polyline clip-path="url(#clip590)" style="stroke:#000000; stroke-linecap:butt; stroke-linejoin:round; stroke-width:4; stroke-opacity:1; fill:none" points="
  845.285,1341.1 845.285,1322.2 
  "/>
<polyline clip-path="url(#clip590)" style="stroke:#000000; stroke-linecap:butt; stroke-linejoin:round; stroke-width:4; stroke-opacity:1; fill:none" points="
  1331.57,1341.1 1331.57,1322.2 
  "/>
<polyline clip-path="url(#clip590)" style="stroke:#000000; stroke-linecap:butt; stroke-linejoin:round; stroke-width:4; stroke-opacity:1; fill:none" points="
  1817.85,1341.1 1817.85,1322.2 
  "/>
<polyline clip-path="url(#clip590)" style="stroke:#000000; stroke-linecap:butt; stroke-linejoin:round; stroke-width:4; stroke-opacity:1; fill:none" points="
  2304.13,1341.1 2304.13,1322.2 
  "/>
<path clip-path="url(#clip590)" d="M291.375 1419.64 L358.145 1419.64 L358.145 1428.49 L291.375 1428.49 L291.375 1419.64 Z" fill="#000000" fill-rule="evenodd" fill-opacity="1" /><path clip-path="url(#clip590)" d="M389.916 1448.65 L426.634 1448.65 L426.634 1457.5 L377.26 1457.5 L377.26 1448.65 Q383.249 1442.45 393.562 1432.03 Q403.926 1421.56 406.582 1418.54 Q411.634 1412.86 413.614 1408.96 Q415.645 1405 415.645 1401.2 Q415.645 1395 411.27 1391.09 Q406.947 1387.19 399.968 1387.19 Q395.02 1387.19 389.499 1388.91 Q384.03 1390.63 377.78 1394.11 L377.78 1383.49 Q384.135 1380.94 389.655 1379.64 Q395.176 1378.33 399.759 1378.33 Q411.843 1378.33 419.03 1384.38 Q426.218 1390.42 426.218 1400.52 Q426.218 1405.31 424.395 1409.64 Q422.624 1413.91 417.884 1419.74 Q416.582 1421.25 409.603 1428.49 Q402.624 1435.68 389.916 1448.65 Z" fill="#000000" fill-rule="evenodd" fill-opacity="1" /><path clip-path="url(#clip590)" d="M777.239 1419.64 L844.009 1419.64 L844.009 1428.49 L777.239 1428.49 L777.239 1419.64 Z" fill="#000000" fill-rule="evenodd" fill-opacity="1" /><path clip-path="url(#clip590)" d="M868.54 1448.65 L885.728 1448.65 L885.728 1389.32 L867.03 1393.07 L867.03 1383.49 L885.624 1379.74 L896.144 1379.74 L896.144 1448.65 L913.332 1448.65 L913.332 1457.5 L868.54 1457.5 L868.54 1448.65 Z" fill="#000000" fill-rule="evenodd" fill-opacity="1" /><path clip-path="url(#clip590)" d="M1331.57 1386.67 Q1323.44 1386.67 1319.33 1394.69 Q1315.26 1402.66 1315.26 1418.7 Q1315.26 1434.69 1319.33 1442.71 Q1323.44 1450.68 1331.57 1450.68 Q1339.74 1450.68 1343.81 1442.71 Q1347.92 1434.69 1347.92 1418.7 Q1347.92 1402.66 1343.81 1394.69 Q1339.74 1386.67 1331.57 1386.67 M1331.57 1378.33 Q1344.64 1378.33 1351.51 1388.7 Q1358.44 1399.01 1358.44 1418.7 Q1358.44 1438.33 1351.51 1448.7 Q1344.64 1459.01 1331.57 1459.01 Q1318.49 1459.01 1311.57 1448.7 Q1304.69 1438.33 1304.69 1418.7 Q1304.69 1399.01 1311.57 1388.7 Q1318.49 1378.33 1331.57 1378.33 Z" fill="#000000" fill-rule="evenodd" fill-opacity="1" /><path clip-path="url(#clip590)" d="M1796.21 1448.65 L1813.39 1448.65 L1813.39 1389.32 L1794.7 1393.07 L1794.7 1383.49 L1813.29 1379.74 L1823.81 1379.74 L1823.81 1448.65 L1841 1448.65 L1841 1457.5 L1796.21 1457.5 L1796.21 1448.65 Z" fill="#000000" fill-rule="evenodd" fill-opacity="1" /><path clip-path="url(#clip590)" d="M2292.1 1448.65 L2328.82 1448.65 L2328.82 1457.5 L2279.44 1457.5 L2279.44 1448.65 Q2285.43 1442.45 2295.74 1432.03 Q2306.11 1421.56 2308.76 1418.54 Q2313.82 1412.86 2315.79 1408.96 Q2317.83 1405 2317.83 1401.2 Q2317.83 1395 2313.45 1391.09 Q2309.13 1387.19 2302.15 1387.19 Q2297.2 1387.19 2291.68 1388.91 Q2286.21 1390.63 2279.96 1394.11 L2279.96 1383.49 Q2286.32 1380.94 2291.84 1379.64 Q2297.36 1378.33 2301.94 1378.33 Q2314.02 1378.33 2321.21 1384.38 Q2328.4 1390.42 2328.4 1400.52 Q2328.4 1405.31 2326.58 1409.64 Q2324.8 1413.91 2320.07 1419.74 Q2318.76 1421.25 2311.78 1428.49 Q2304.8 1435.68 2292.1 1448.65 Z" fill="#000000" fill-rule="evenodd" fill-opacity="1" /><path clip-path="url(#clip590)" d="M1276.99 1532.61 L1253.56 1564.14 L1278.21 1597.42 L1265.65 1597.42 L1246.79 1571.96 L1227.92 1597.42 L1215.36 1597.42 L1240.54 1563.51 L1217.5 1532.61 L1230.06 1532.61 L1247.25 1555.7 L1264.44 1532.61 L1276.99 1532.61 Z" fill="#000000" fill-rule="evenodd" fill-opacity="1" /><path clip-path="url(#clip590)" d="M1312.18 1511.02 L1322.02 1511.02 L1291.93 1608.42 L1282.09 1608.42 L1312.18 1511.02 Z" fill="#000000" fill-rule="evenodd" fill-opacity="1" /><path clip-path="url(#clip590)" d="M1374.62 1556.91 Q1378.38 1558.18 1381.91 1562.35 Q1385.5 1566.52 1389.09 1573.81 L1400.95 1597.42 L1388.39 1597.42 L1377.34 1575.26 Q1373.06 1566.58 1369.01 1563.74 Q1365.02 1560.9 1358.07 1560.9 L1345.34 1560.9 L1345.34 1597.42 L1333.65 1597.42 L1333.65 1511.02 L1360.04 1511.02 Q1374.85 1511.02 1382.14 1517.21 Q1389.44 1523.4 1389.44 1535.9 Q1389.44 1544.06 1385.62 1549.45 Q1381.86 1554.83 1374.62 1556.91 M1345.34 1520.63 L1345.34 1551.3 L1360.04 1551.3 Q1368.49 1551.3 1372.77 1547.42 Q1377.11 1543.48 1377.11 1535.9 Q1377.11 1528.32 1372.77 1524.5 Q1368.49 1520.63 1360.04 1520.63 L1345.34 1520.63 Z" fill="#000000" fill-rule="evenodd" fill-opacity="1" /><path clip-path="url(#clip590)" d="M1437.35 1558.24 Q1434.46 1553.26 1428.61 1553.26 Q1422.77 1553.26 1419.88 1558.24 Q1416.92 1563.22 1416.92 1573.17 Q1416.92 1583.18 1419.88 1588.16 Q1422.77 1593.14 1428.61 1593.14 Q1434.46 1593.14 1437.35 1588.16 Q1440.3 1583.18 1440.3 1573.17 Q1440.3 1563.22 1437.35 1558.24 M1428.61 1548.11 Q1437.93 1548.11 1442.85 1554.54 Q1447.77 1560.96 1447.77 1573.17 Q1447.77 1585.44 1442.85 1591.86 Q1437.93 1598.29 1428.61 1598.29 Q1419.24 1598.29 1414.32 1591.86 Q1409.4 1585.44 1409.4 1573.17 Q1409.4 1560.96 1414.32 1554.54 Q1419.24 1548.11 1428.61 1548.11 Z" fill="#000000" fill-rule="evenodd" fill-opacity="1" /><polyline clip-path="url(#clip590)" style="stroke:#000000; stroke-linecap:butt; stroke-linejoin:round; stroke-width:4; stroke-opacity:1; fill:none" points="
  310.376,1341.1 310.376,47.2441 
  "/>
<polyline clip-path="url(#clip590)" style="stroke:#000000; stroke-linecap:butt; stroke-linejoin:round; stroke-width:4; stroke-opacity:1; fill:none" points="
  310.376,1341.1 329.274,1341.1 
  "/>
<polyline clip-path="url(#clip590)" style="stroke:#000000; stroke-linecap:butt; stroke-linejoin:round; stroke-width:4; stroke-opacity:1; fill:none" points="
  310.376,1082.33 329.274,1082.33 
  "/>
<polyline clip-path="url(#clip590)" style="stroke:#000000; stroke-linecap:butt; stroke-linejoin:round; stroke-width:4; stroke-opacity:1; fill:none" points="
  310.376,823.558 329.274,823.558 
  "/>
<polyline clip-path="url(#clip590)" style="stroke:#000000; stroke-linecap:butt; stroke-linejoin:round; stroke-width:4; stroke-opacity:1; fill:none" points="
  310.376,564.786 329.274,564.786 
  "/>
<polyline clip-path="url(#clip590)" style="stroke:#000000; stroke-linecap:butt; stroke-linejoin:round; stroke-width:4; stroke-opacity:1; fill:none" points="
  310.376,306.015 329.274,306.015 
  "/>
<polyline clip-path="url(#clip590)" style="stroke:#000000; stroke-linecap:butt; stroke-linejoin:round; stroke-width:4; stroke-opacity:1; fill:none" points="
  310.376,47.2441 329.274,47.2441 
  "/>
<path clip-path="url(#clip590)" d="M77.867 1309.15 Q69.742 1309.15 65.6275 1317.17 Q61.565 1325.14 61.565 1341.18 Q61.565 1357.17 65.6275 1365.19 Q69.742 1373.16 77.867 1373.16 Q86.044 1373.16 90.1065 1365.19 Q94.2211 1357.17 94.2211 1341.18 Q94.2211 1325.14 90.1065 1317.17 Q86.044 1309.15 77.867 1309.15 M77.867 1300.81 Q90.9398 1300.81 97.8148 1311.18 Q104.742 1321.49 104.742 1341.18 Q104.742 1360.81 97.8148 1371.18 Q90.9398 1381.49 77.867 1381.49 Q64.7941 1381.49 57.8671 1371.18 Q50.9921 1360.81 50.9921 1341.18 Q50.9921 1321.49 57.8671 1311.18 Q64.7941 1300.81 77.867 1300.81 Z" fill="#000000" fill-rule="evenodd" fill-opacity="1" /><path clip-path="url(#clip590)" d="M123.231 1366.75 L134.221 1366.75 L134.221 1379.98 L123.231 1379.98 L123.231 1366.75 Z" fill="#000000" fill-rule="evenodd" fill-opacity="1" /><path clip-path="url(#clip590)" d="M179.637 1309.15 Q171.512 1309.15 167.398 1317.17 Q163.335 1325.14 163.335 1341.18 Q163.335 1357.17 167.398 1365.19 Q171.512 1373.16 179.637 1373.16 Q187.814 1373.16 191.877 1365.19 Q195.991 1357.17 195.991 1341.18 Q195.991 1325.14 191.877 1317.17 Q187.814 1309.15 179.637 1309.15 M179.637 1300.81 Q192.71 1300.81 199.585 1311.18 Q206.512 1321.49 206.512 1341.18 Q206.512 1360.81 199.585 1371.18 Q192.71 1381.49 179.637 1381.49 Q166.564 1381.49 159.637 1371.18 Q152.762 1360.81 152.762 1341.18 Q152.762 1321.49 159.637 1311.18 Q166.564 1300.81 179.637 1300.81 Z" fill="#000000" fill-rule="evenodd" fill-opacity="1" /><path clip-path="url(#clip590)" d="M247.501 1309.15 Q239.377 1309.15 235.262 1317.17 Q231.199 1325.14 231.199 1341.18 Q231.199 1357.17 235.262 1365.19 Q239.377 1373.16 247.501 1373.16 Q255.679 1373.16 259.741 1365.19 Q263.856 1357.17 263.856 1341.18 Q263.856 1325.14 259.741 1317.17 Q255.679 1309.15 247.501 1309.15 M247.501 1300.81 Q260.574 1300.81 267.449 1311.18 Q274.376 1321.49 274.376 1341.18 Q274.376 1360.81 267.449 1371.18 Q260.574 1381.49 247.501 1381.49 Q234.429 1381.49 227.502 1371.18 Q220.627 1360.81 220.627 1341.18 Q220.627 1321.49 227.502 1311.18 Q234.429 1300.81 247.501 1300.81 Z" fill="#000000" fill-rule="evenodd" fill-opacity="1" /><path clip-path="url(#clip590)" d="M80.1066 1050.38 Q71.9816 1050.38 67.867 1058.4 Q63.8046 1066.37 63.8046 1082.41 Q63.8046 1098.4 67.867 1106.42 Q71.9816 1114.39 80.1066 1114.39 Q88.2836 1114.39 92.3461 1106.42 Q96.4606 1098.4 96.4606 1082.41 Q96.4606 1066.37 92.3461 1058.4 Q88.2836 1050.38 80.1066 1050.38 M80.1066 1042.04 Q93.1794 1042.04 100.054 1052.41 Q106.981 1062.72 106.981 1082.41 Q106.981 1102.04 100.054 1112.41 Q93.1794 1122.72 80.1066 1122.72 Q67.0337 1122.72 60.1067 1112.41 Q53.2317 1102.04 53.2317 1082.41 Q53.2317 1062.72 60.1067 1052.41 Q67.0337 1042.04 80.1066 1042.04 Z" fill="#000000" fill-rule="evenodd" fill-opacity="1" /><path clip-path="url(#clip590)" d="M125.471 1107.98 L136.46 1107.98 L136.46 1121.21 L125.471 1121.21 L125.471 1107.98 Z" fill="#000000" fill-rule="evenodd" fill-opacity="1" /><path clip-path="url(#clip590)" d="M181.877 1050.38 Q173.752 1050.38 169.637 1058.4 Q165.575 1066.37 165.575 1082.41 Q165.575 1098.4 169.637 1106.42 Q173.752 1114.39 181.877 1114.39 Q190.054 1114.39 194.116 1106.42 Q198.231 1098.4 198.231 1082.41 Q198.231 1066.37 194.116 1058.4 Q190.054 1050.38 181.877 1050.38 M181.877 1042.04 Q194.95 1042.04 201.825 1052.41 Q208.752 1062.72 208.752 1082.41 Q208.752 1102.04 201.825 1112.41 Q194.95 1122.72 181.877 1122.72 Q168.804 1122.72 161.877 1112.41 Q155.002 1102.04 155.002 1082.41 Q155.002 1062.72 161.877 1052.41 Q168.804 1042.04 181.877 1042.04 Z" fill="#000000" fill-rule="evenodd" fill-opacity="1" /><path clip-path="url(#clip590)" d="M227.345 1043.45 L268.647 1043.45 L268.647 1052.3 L236.981 1052.3 L236.981 1071.37 Q239.272 1070.58 241.564 1070.22 Q243.856 1069.8 246.147 1069.8 Q259.168 1069.8 266.772 1076.94 Q274.376 1084.07 274.376 1096.26 Q274.376 1108.81 266.564 1115.79 Q258.751 1122.72 244.533 1122.72 Q239.637 1122.72 234.533 1121.89 Q229.481 1121.05 224.064 1119.39 L224.064 1108.81 Q228.752 1111.36 233.752 1112.61 Q238.752 1113.86 244.324 1113.86 Q253.335 1113.86 258.595 1109.13 Q263.856 1104.39 263.856 1096.26 Q263.856 1088.14 258.595 1083.4 Q253.335 1078.66 244.324 1078.66 Q240.106 1078.66 235.887 1079.59 Q231.72 1080.53 227.345 1082.51 L227.345 1043.45 Z" fill="#000000" fill-rule="evenodd" fill-opacity="1" /><path clip-path="url(#clip590)" d="M77.867 791.605 Q69.742 791.605 65.6275 799.625 Q61.565 807.594 61.565 823.636 Q61.565 839.625 65.6275 847.646 Q69.742 855.615 77.867 855.615 Q86.044 855.615 90.1065 847.646 Q94.2211 839.625 94.2211 823.636 Q94.2211 807.594 90.1065 799.625 Q86.044 791.605 77.867 791.605 M77.867 783.271 Q90.9398 783.271 97.8148 793.636 Q104.742 803.948 104.742 823.636 Q104.742 843.271 97.8148 853.636 Q90.9398 863.948 77.867 863.948 Q64.7941 863.948 57.8671 853.636 Q50.9921 843.271 50.9921 823.636 Q50.9921 803.948 57.8671 793.636 Q64.7941 783.271 77.867 783.271 Z" fill="#000000" fill-rule="evenodd" fill-opacity="1" /><path clip-path="url(#clip590)" d="M123.231 849.208 L134.221 849.208 L134.221 862.438 L123.231 862.438 L123.231 849.208 Z" fill="#000000" fill-rule="evenodd" fill-opacity="1" /><path clip-path="url(#clip590)" d="M158.96 853.583 L176.148 853.583 L176.148 794.261 L157.45 798.011 L157.45 788.428 L176.044 784.678 L186.564 784.678 L186.564 853.583 L203.752 853.583 L203.752 862.438 L158.96 862.438 L158.96 853.583 Z" fill="#000000" fill-rule="evenodd" fill-opacity="1" /><path clip-path="url(#clip590)" d="M247.501 791.605 Q239.377 791.605 235.262 799.625 Q231.199 807.594 231.199 823.636 Q231.199 839.625 235.262 847.646 Q239.377 855.615 247.501 855.615 Q255.679 855.615 259.741 847.646 Q263.856 839.625 263.856 823.636 Q263.856 807.594 259.741 799.625 Q255.679 791.605 247.501 791.605 M247.501 783.271 Q260.574 783.271 267.449 793.636 Q274.376 803.948 274.376 823.636 Q274.376 843.271 267.449 853.636 Q260.574 863.948 247.501 863.948 Q234.429 863.948 227.502 853.636 Q220.627 843.271 220.627 823.636 Q220.627 803.948 227.502 793.636 Q234.429 783.271 247.501 783.271 Z" fill="#000000" fill-rule="evenodd" fill-opacity="1" /><path clip-path="url(#clip590)" d="M80.1066 532.833 Q71.9816 532.833 67.867 540.854 Q63.8046 548.823 63.8046 564.865 Q63.8046 580.854 67.867 588.875 Q71.9816 596.844 80.1066 596.844 Q88.2836 596.844 92.3461 588.875 Q96.4606 580.854 96.4606 564.865 Q96.4606 548.823 92.3461 540.854 Q88.2836 532.833 80.1066 532.833 M80.1066 524.5 Q93.1794 524.5 100.054 534.865 Q106.981 545.177 106.981 564.865 Q106.981 584.5 100.054 594.864 Q93.1794 605.177 80.1066 605.177 Q67.0337 605.177 60.1067 594.864 Q53.2317 584.5 53.2317 564.865 Q53.2317 545.177 60.1067 534.865 Q67.0337 524.5 80.1066 524.5 Z" fill="#000000" fill-rule="evenodd" fill-opacity="1" /><path clip-path="url(#clip590)" d="M125.471 590.437 L136.46 590.437 L136.46 603.666 L125.471 603.666 L125.471 590.437 Z" fill="#000000" fill-rule="evenodd" fill-opacity="1" /><path clip-path="url(#clip590)" d="M161.2 594.812 L178.387 594.812 L178.387 535.49 L159.689 539.24 L159.689 529.656 L178.283 525.906 L188.804 525.906 L188.804 594.812 L205.991 594.812 L205.991 603.666 L161.2 603.666 L161.2 594.812 Z" fill="#000000" fill-rule="evenodd" fill-opacity="1" /><path clip-path="url(#clip590)" d="M227.345 525.906 L268.647 525.906 L268.647 534.761 L236.981 534.761 L236.981 553.823 Q239.272 553.042 241.564 552.677 Q243.856 552.26 246.147 552.26 Q259.168 552.26 266.772 559.396 Q274.376 566.531 274.376 578.719 Q274.376 591.271 266.564 598.25 Q258.751 605.177 244.533 605.177 Q239.637 605.177 234.533 604.343 Q229.481 603.51 224.064 601.843 L224.064 591.271 Q228.752 593.823 233.752 595.073 Q238.752 596.323 244.324 596.323 Q253.335 596.323 258.595 591.583 Q263.856 586.844 263.856 578.719 Q263.856 570.594 258.595 565.854 Q253.335 561.115 244.324 561.115 Q240.106 561.115 235.887 562.052 Q231.72 562.99 227.345 564.969 L227.345 525.906 Z" fill="#000000" fill-rule="evenodd" fill-opacity="1" /><path clip-path="url(#clip590)" d="M77.867 274.062 Q69.742 274.062 65.6275 282.083 Q61.565 290.052 61.565 306.093 Q61.565 322.083 65.6275 330.104 Q69.742 338.072 77.867 338.072 Q86.044 338.072 90.1065 330.104 Q94.2211 322.083 94.2211 306.093 Q94.2211 290.052 90.1065 282.083 Q86.044 274.062 77.867 274.062 M77.867 265.729 Q90.9398 265.729 97.8148 276.094 Q104.742 286.406 104.742 306.093 Q104.742 325.729 97.8148 336.093 Q90.9398 346.406 77.867 346.406 Q64.7941 346.406 57.8671 336.093 Q50.9921 325.729 50.9921 306.093 Q50.9921 286.406 57.8671 276.094 Q64.7941 265.729 77.867 265.729 Z" fill="#000000" fill-rule="evenodd" fill-opacity="1" /><path clip-path="url(#clip590)" d="M123.231 331.666 L134.221 331.666 L134.221 344.895 L123.231 344.895 L123.231 331.666 Z" fill="#000000" fill-rule="evenodd" fill-opacity="1" /><path clip-path="url(#clip590)" d="M166.2 336.041 L202.918 336.041 L202.918 344.895 L153.544 344.895 L153.544 336.041 Q159.533 329.843 169.846 319.427 Q180.21 308.958 182.866 305.937 Q187.918 300.26 189.898 296.354 Q191.929 292.396 191.929 288.593 Q191.929 282.396 187.554 278.489 Q183.231 274.583 176.252 274.583 Q171.304 274.583 165.783 276.302 Q160.314 278.021 154.064 281.51 L154.064 270.885 Q160.419 268.333 165.939 267.031 Q171.46 265.729 176.044 265.729 Q188.127 265.729 195.314 271.771 Q202.502 277.812 202.502 287.916 Q202.502 292.708 200.679 297.031 Q198.908 301.302 194.168 307.135 Q192.866 308.645 185.887 315.885 Q178.908 323.072 166.2 336.041 Z" fill="#000000" fill-rule="evenodd" fill-opacity="1" /><path clip-path="url(#clip590)" d="M247.501 274.062 Q239.377 274.062 235.262 282.083 Q231.199 290.052 231.199 306.093 Q231.199 322.083 235.262 330.104 Q239.377 338.072 247.501 338.072 Q255.679 338.072 259.741 330.104 Q263.856 322.083 263.856 306.093 Q263.856 290.052 259.741 282.083 Q255.679 274.062 247.501 274.062 M247.501 265.729 Q260.574 265.729 267.449 276.094 Q274.376 286.406 274.376 306.093 Q274.376 325.729 267.449 336.093 Q260.574 346.406 247.501 346.406 Q234.429 346.406 227.502 336.093 Q220.627 325.729 220.627 306.093 Q220.627 286.406 227.502 276.094 Q234.429 265.729 247.501 265.729 Z" fill="#000000" fill-rule="evenodd" fill-opacity="1" /><path clip-path="url(#clip590)" d="M80.1066 15.2911 Q71.9816 15.2911 67.867 23.3119 Q63.8046 31.2806 63.8046 47.3222 Q63.8046 63.3117 67.867 71.3325 Q71.9816 79.3012 80.1066 79.3012 Q88.2836 79.3012 92.3461 71.3325 Q96.4606 63.3117 96.4606 47.3222 Q96.4606 31.2806 92.3461 23.3119 Q88.2836 15.2911 80.1066 15.2911 M80.1066 6.95785 Q93.1794 6.95785 100.054 17.3224 Q106.981 27.6348 106.981 47.3222 Q106.981 66.9575 100.054 77.3221 Q93.1794 87.6345 80.1066 87.6345 Q67.0337 87.6345 60.1067 77.3221 Q53.2317 66.9575 53.2317 47.3222 Q53.2317 27.6348 60.1067 17.3224 Q67.0337 6.95785 80.1066 6.95785 Z" fill="#000000" fill-rule="evenodd" fill-opacity="1" /><path clip-path="url(#clip590)" d="M125.471 72.895 L136.46 72.895 L136.46 86.1241 L125.471 86.1241 L125.471 72.895 Z" fill="#000000" fill-rule="evenodd" fill-opacity="1" /><path clip-path="url(#clip590)" d="M168.439 77.27 L205.158 77.27 L205.158 86.1241 L155.783 86.1241 L155.783 77.27 Q161.773 71.0721 172.085 60.6555 Q182.45 50.1868 185.106 47.166 Q190.158 41.4889 192.137 37.5827 Q194.168 33.6244 194.168 29.8223 Q194.168 23.6244 189.793 19.7182 Q185.471 15.812 178.491 15.812 Q173.544 15.812 168.023 17.5307 Q162.554 19.2495 156.304 22.739 L156.304 12.1141 Q162.658 9.562 168.179 8.25993 Q173.7 6.95785 178.283 6.95785 Q190.366 6.95785 197.554 12.9995 Q204.741 19.0411 204.741 29.1452 Q204.741 33.9369 202.918 38.2598 Q201.148 42.5306 196.408 48.3639 Q195.106 49.8743 188.127 57.1138 Q181.148 64.3013 168.439 77.27 Z" fill="#000000" fill-rule="evenodd" fill-opacity="1" /><path clip-path="url(#clip590)" d="M227.345 8.36409 L268.647 8.36409 L268.647 17.2182 L236.981 17.2182 L236.981 36.2806 Q239.272 35.4994 241.564 35.1348 Q243.856 34.7181 246.147 34.7181 Q259.168 34.7181 266.772 41.8535 Q274.376 48.9889 274.376 61.1763 Q274.376 73.7283 266.564 80.7075 Q258.751 87.6345 244.533 87.6345 Q239.637 87.6345 234.533 86.8012 Q229.481 85.9678 224.064 84.3012 L224.064 73.7283 Q228.752 76.2804 233.752 77.5304 Q238.752 78.7804 244.324 78.7804 Q253.335 78.7804 258.595 74.0408 Q263.856 69.3013 263.856 61.1763 Q263.856 53.0514 258.595 48.3118 Q253.335 43.5722 244.324 43.5722 Q240.106 43.5722 235.887 44.5097 Q231.72 45.4472 227.345 47.4264 L227.345 8.36409 Z" fill="#000000" fill-rule="evenodd" fill-opacity="1" /><polyline clip-path="url(#clip592)" style="stroke:#e26f46; stroke-linecap:butt; stroke-linejoin:round; stroke-width:12; stroke-opacity:1; fill:none" points="
  -121.589,1339.44 -118.745,1339.44 -115.901,1339.44 -113.058,1339.44 -110.214,1339.44 -107.37,1339.44 -104.526,1339.44 -101.683,1339.44 -98.8389,1339.44 -95.9952,1339.44 
  -93.1514,1339.44 -90.3077,1339.44 -87.464,1339.44 -84.6202,1339.44 -81.7765,1339.44 -78.9327,1339.44 -76.089,1339.44 -73.2452,1339.44 -70.4015,1339.44 -67.5577,1339.44 
  -64.714,1339.43 -61.8702,1339.43 -59.0265,1339.43 -56.1827,1339.43 -53.339,1339.43 -50.4952,1339.43 -47.6515,1339.43 -44.8077,1339.43 -41.964,1339.43 -39.1202,1339.43 
  -36.2765,1339.43 -33.4327,1339.43 -30.589,1339.43 -27.7452,1339.43 -24.9015,1339.43 -22.0578,1339.43 -19.214,1339.43 -16.3703,1339.43 -13.5265,1339.42 -10.6828,1339.42 
  -7.83902,1339.42 -4.99527,1339.42 -2.15152,1339.42 0.692227,1339.42 3.53597,1339.42 6.37972,1339.42 9.22347,1339.42 12.0672,1339.42 14.911,1339.42 17.7547,1339.41 
  20.5985,1339.41 23.4422,1339.41 26.286,1339.41 29.1297,1339.41 31.9735,1339.41 34.8172,1339.41 37.6609,1339.41 40.5047,1339.41 43.3484,1339.4 46.1922,1339.4 
  49.0359,1339.4 51.8797,1339.4 54.7234,1339.4 57.5672,1339.4 60.4109,1339.4 63.2547,1339.39 66.0984,1339.39 68.9422,1339.39 71.7859,1339.39 74.6297,1339.39 
  77.4734,1339.39 80.3172,1339.39 83.1609,1339.38 86.0047,1339.38 88.8484,1339.38 91.6922,1339.38 94.5359,1339.38 97.3796,1339.38 100.223,1339.37 103.067,1339.37 
  105.911,1339.37 108.755,1339.37 111.598,1339.37 114.442,1339.36 117.286,1339.36 120.13,1339.36 122.973,1339.36 125.817,1339.36 128.661,1339.35 131.505,1339.35 
  134.348,1339.35 137.192,1339.35 140.036,1339.34 142.88,1339.34 145.723,1339.34 148.567,1339.34 151.411,1339.33 154.255,1339.33 157.098,1339.33 159.942,1339.32 
  162.786,1339.32 165.63,1339.32 168.473,1339.32 171.317,1339.31 174.161,1339.31 177.005,1339.31 179.848,1339.3 182.692,1339.3 185.536,1339.3 188.38,1339.29 
  191.223,1339.29 194.067,1339.29 196.911,1339.28 199.755,1339.28 202.598,1339.28 205.442,1339.27 208.286,1339.27 211.13,1339.26 213.973,1339.26 216.817,1339.26 
  219.661,1339.25 222.505,1339.25 225.348,1339.24 228.192,1339.24 231.036,1339.23 233.88,1339.23 236.723,1339.22 239.567,1339.22 242.411,1339.21 245.255,1339.21 
  248.098,1339.2 250.942,1339.2 253.786,1339.19 256.63,1339.18 259.473,1339.18 262.317,1339.17 265.161,1339.17 268.005,1339.16 270.848,1339.15 273.692,1339.15 
  276.536,1339.14 279.379,1339.13 282.223,1339.12 285.067,1339.11 287.911,1339.11 290.754,1339.1 293.598,1339.09 296.442,1339.08 299.286,1339.07 302.129,1339.06 
  304.973,1339.05 307.817,1339.04 310.661,1339.03 313.504,1339.02 316.348,1339.01 319.192,1338.99 322.036,1338.98 324.879,1338.97 327.723,1338.95 330.567,1338.94 
  333.411,1338.92 336.254,1338.9 339.098,1338.88 341.942,1338.86 344.786,1338.84 347.629,1338.82 350.473,1338.79 353.317,1338.79 356.161,1338.67 359.004,1338.79 
  361.848,1334.56 364.692,1325.2 367.536,1314.21 370.379,1303.28 373.223,1292.41 376.067,1281.63 378.911,1270.93 381.754,1260.31 384.598,1249.78 387.442,1239.33 
  390.286,1228.96 393.129,1218.67 395.973,1208.46 398.817,1198.32 401.661,1188.26 404.504,1178.27 407.348,1168.36 410.192,1158.52 413.036,1148.76 415.879,1139.07 
  418.723,1129.45 421.567,1119.91 424.411,1110.43 427.254,1101.03 430.098,1091.7 432.942,1082.45 435.786,1073.26 438.629,1064.14 441.473,1055.09 444.317,1046.12 
  447.161,1037.21 450.004,1028.38 452.848,1019.61 455.692,1010.91 458.536,1002.28 461.379,993.722 464.223,985.231 467.067,976.808 469.911,968.454 472.754,960.168 
  475.598,951.95 478.442,943.799 481.286,935.717 484.129,927.702 486.973,919.755 489.817,911.875 492.661,904.062 495.504,896.316 498.348,888.637 501.192,881.025 
  504.036,873.479 506.879,866 509.723,858.588 512.567,851.241 515.411,843.961 518.254,836.747 521.098,829.599 523.942,822.517 526.786,815.501 529.629,808.55 
  532.473,801.665 535.317,794.845 538.161,788.091 541.004,781.401 543.848,774.777 546.692,768.218 549.536,761.724 552.379,755.295 555.223,748.931 558.067,742.631 
  560.911,736.396 563.754,730.225 566.598,724.119 569.442,718.077 572.286,712.099 575.129,706.186 577.973,700.337 580.817,694.551 583.66,688.83 586.504,683.172 
  589.348,677.579 592.192,672.048 595.035,666.582 597.879,661.179 600.723,655.84 603.567,650.564 606.41,645.351 609.254,640.202 612.098,635.115 614.942,630.092 
  617.785,625.132 620.629,620.235 623.473,615.401 626.317,610.63 629.16,605.922 632.004,601.276 634.848,596.693 637.692,592.173 640.535,587.716 643.379,583.32 
  646.223,578.988 649.067,574.718 651.91,570.51 654.754,566.364 657.598,562.281 660.442,558.26 663.285,554.301 666.129,550.404 668.973,546.569 671.817,542.796 
  674.66,539.085 677.504,535.436 680.348,531.849 683.192,528.324 686.035,524.86 688.879,521.458 691.723,518.118 694.567,514.84 697.41,511.623 700.254,508.468 
  703.098,505.374 705.942,502.341 708.785,499.37 711.629,496.461 714.473,493.613 717.317,490.826 720.16,488.101 723.004,485.437 725.848,482.834 728.692,480.292 
  731.535,477.811 734.379,475.392 737.223,473.033 740.067,470.736 742.91,468.5 745.754,466.325 748.598,464.211 751.442,462.158 754.285,460.165 757.129,458.234 
  759.973,456.364 762.817,454.554 765.66,452.805 768.504,451.118 771.348,449.491 774.192,447.924 777.035,446.419 779.879,444.974 782.723,443.59 785.567,442.267 
  788.41,441.004 791.254,439.803 794.098,438.661 796.942,437.581 799.785,436.561 802.629,435.602 805.473,434.703 808.317,433.865 811.16,433.088 814.004,432.371 
  816.848,431.715 819.692,431.119 822.535,430.584 825.379,430.11 828.223,429.696 831.067,429.342 833.91,429.05 836.754,428.817 839.598,428.646 842.442,428.534 
  845.285,428.484 848.129,428.494 850.973,428.564 853.817,428.695 856.66,428.886 859.504,429.138 862.348,429.451 865.192,429.824 868.035,430.258 870.879,430.752 
  873.723,431.307 876.567,431.922 879.41,432.598 882.254,433.334 885.098,434.131 887.941,434.989 890.785,435.907 893.629,436.886 896.473,437.926 899.316,439.026 
  902.16,440.187 905.004,441.409 907.848,442.691 910.691,444.034 913.535,445.437 916.379,446.902 919.223,448.427 922.066,450.013 924.91,451.659 927.754,453.367 
  930.598,455.135 933.441,456.965 936.285,458.855 939.129,460.806 941.973,462.817 944.816,464.89 947.66,467.024 950.504,469.219 953.348,471.475 956.191,473.792 
  959.035,476.17 961.879,478.609 964.723,481.109 967.566,483.67 970.41,486.293 973.254,488.977 976.098,491.722 978.941,494.528 981.785,497.396 984.629,500.325 
  987.473,503.315 990.316,506.367 993.16,509.48 996.004,512.655 998.848,515.891 1001.69,519.189 1004.54,522.549 1007.38,525.97 1010.22,529.453 1013.07,532.998 
  1015.91,536.605 1018.75,540.273 1021.6,544.003 1024.44,547.795 1027.29,551.65 1030.13,555.566 1032.97,559.544 1035.82,563.584 1038.66,567.687 1041.5,571.852 
  1044.35,576.079 1047.19,580.368 1050.04,584.72 1052.88,589.134 1055.72,593.611 1058.57,598.15 1061.41,602.752 1064.25,607.417 1067.1,612.144 1069.94,616.934 
  1072.79,621.787 1075.63,626.702 1078.47,631.681 1081.32,636.723 1084.16,641.828 1087,646.996 1089.85,652.227 1092.69,657.521 1095.54,662.879 1098.38,668.3 
  1101.22,673.785 1104.07,679.333 1106.91,684.945 1109.75,690.62 1112.6,696.36 1115.44,702.163 1118.29,708.03 1121.13,713.961 1123.97,719.956 1126.82,726.015 
  1129.66,732.138 1132.5,738.326 1135.35,744.578 1138.19,750.894 1141.04,757.275 1143.88,763.721 1146.72,770.231 1149.57,776.806 1152.41,783.446 1155.25,790.151 
  1158.1,796.921 1160.94,803.756 1163.79,810.656 1166.63,817.622 1169.47,824.653 1172.32,831.749 1175.16,838.911 1178,846.139 1180.85,853.432 1183.69,860.791 
  1186.53,868.216 1189.38,875.707 1192.22,883.265 1195.07,890.888 1197.91,898.578 1200.75,906.334 1203.6,914.156 1206.44,922.046 1209.28,930.002 1212.13,938.024 
  1214.97,946.114 1217.82,954.271 1220.66,962.494 1223.5,970.785 1226.35,979.144 1229.19,987.569 1232.03,996.062 1234.88,1004.62 1237.72,1013.25 1240.57,1021.95 
  1243.41,1030.71 1246.25,1039.54 1249.1,1048.44 1251.94,1057.41 1254.78,1066.45 1257.63,1075.55 1260.47,1084.73 1263.32,1093.97 1266.16,1103.28 1269,1112.66 
  1271.85,1122.11 1274.69,1131.63 1277.53,1141.21 1280.38,1150.87 1283.22,1160.59 1286.07,1170.39 1288.91,1180.25 1291.75,1190.19 1294.6,1200.19 1297.44,1210.26 
  1300.28,1220.41 1303.13,1230.63 1305.97,1240.93 1308.82,1251.3 1311.66,1261.75 1314.5,1272.28 1317.35,1282.9 1320.19,1293.61 1323.03,1304.41 1325.88,1315.24 
  1328.72,1325.9 1331.57,1334.44 1334.41,1326.13 1337.25,1315.68 1340.1,1305.02 1342.94,1294.35 1345.78,1283.73 1348.63,1273.16 1351.47,1262.65 1354.32,1252.19 
  1357.16,1241.81 1360,1231.48 1362.85,1221.23 1365.69,1211.05 1368.53,1200.94 1371.38,1190.9 1374.22,1180.93 1377.07,1171.03 1379.91,1161.2 1382.75,1151.44 
  1385.6,1141.76 1388.44,1132.15 1391.28,1122.6 1394.13,1113.13 1396.97,1103.73 1399.82,1094.39 1402.66,1085.13 1405.5,1075.94 1408.35,1066.82 1411.19,1057.76 
  1414.03,1048.78 1416.88,1039.86 1419.72,1031.02 1422.57,1022.24 1425.41,1013.53 1428.25,1004.89 1431.1,996.317 1433.94,987.813 1436.78,979.377 1439.63,971.009 
  1442.47,962.709 1445.32,954.477 1448.16,946.312 1451,938.214 1453.85,930.184 1456.69,922.221 1459.53,914.325 1462.38,906.496 1465.22,898.734 1468.07,891.038 
  1470.91,883.409 1473.75,875.846 1476.6,868.35 1479.44,860.92 1482.28,853.556 1485.13,846.258 1487.97,839.027 1490.82,831.861 1493.66,824.76 1496.5,817.726 
  1499.35,810.757 1502.19,803.853 1505.03,797.014 1507.88,790.241 1510.72,783.533 1513.57,776.891 1516.41,770.313 1519.25,763.8 1522.1,757.351 1524.94,750.968 
  1527.78,744.649 1530.63,738.395 1533.47,732.205 1536.32,726.079 1539.16,720.018 1542,714.021 1544.85,708.088 1547.69,702.219 1550.53,696.414 1553.38,690.673 
  1556.22,684.996 1559.07,679.383 1561.91,673.833 1564.75,668.347 1567.6,662.924 1570.44,657.565 1573.28,652.269 1576.13,647.037 1578.97,641.868 1581.82,636.762 
  1584.66,631.719 1587.5,626.739 1590.35,621.822 1593.19,616.968 1596.03,612.177 1598.88,607.449 1601.72,602.783 1604.57,598.181 1607.41,593.641 1610.25,589.163 
  1613.1,584.748 1615.94,580.395 1618.78,576.105 1621.63,571.877 1624.47,567.712 1627.32,563.609 1630.16,559.567 1633,555.588 1635.85,551.672 1638.69,547.817 
  1641.53,544.024 1644.38,540.293 1647.22,536.624 1650.07,533.017 1652.91,529.472 1655.75,525.988 1658.6,522.567 1661.44,519.206 1664.28,515.908 1667.13,512.671 
  1669.97,509.496 1672.82,506.382 1675.66,503.33 1678.5,500.339 1681.35,497.41 1684.19,494.541 1687.03,491.735 1689.88,488.989 1692.72,486.305 1695.57,483.682 
  1698.41,481.121 1701.25,478.62 1704.1,476.181 1706.94,473.803 1709.78,471.485 1712.63,469.229 1715.47,467.034 1718.32,464.9 1721.16,462.827 1724,460.815 
  1726.85,458.864 1729.69,456.973 1732.53,455.144 1735.38,453.375 1738.22,451.667 1741.07,450.021 1743.91,448.434 1746.75,446.909 1749.6,445.444 1752.44,444.041 
  1755.28,442.698 1758.13,441.415 1760.97,440.193 1763.82,439.032 1766.66,437.932 1769.5,436.892 1772.35,435.913 1775.19,434.995 1778.03,434.137 1780.88,433.34 
  1783.72,432.603 1786.57,431.927 1789.41,431.311 1792.25,430.756 1795.1,430.262 1797.94,429.828 1800.78,429.455 1803.63,429.142 1806.47,428.89 1809.32,428.699 
  1812.16,428.568 1815,428.497 1817.85,428.487 1820.69,428.538 1823.53,428.649 1826.38,428.82 1829.22,429.053 1832.07,429.345 1834.91,429.699 1837.75,430.112 
  1840.6,430.587 1843.44,431.122 1846.28,431.717 1849.13,432.373 1851.97,433.09 1854.82,433.867 1857.66,434.705 1860.5,435.604 1863.35,436.563 1866.19,437.583 
  1869.03,438.663 1871.88,439.804 1874.72,441.006 1877.57,442.268 1880.41,443.591 1883.25,444.975 1886.1,446.42 1888.94,447.925 1891.78,449.491 1894.63,451.118 
  1897.47,452.806 1900.32,454.555 1903.16,456.364 1906,458.234 1908.85,460.166 1911.69,462.158 1914.53,464.211 1917.38,466.325 1920.22,468.5 1923.07,470.736 
  1925.91,473.033 1928.75,475.391 1931.6,477.811 1934.44,480.291 1937.28,482.833 1940.13,485.436 1942.97,488.1 1945.82,490.825 1948.66,493.612 1951.5,496.46 
  1954.35,499.369 1957.19,502.34 1960.03,505.372 1962.88,508.466 1965.72,511.621 1968.57,514.838 1971.41,518.116 1974.25,521.456 1977.1,524.858 1979.94,528.321 
  1982.78,531.847 1985.63,535.434 1988.47,539.083 1991.32,542.793 1994.16,546.566 1997,550.401 1999.85,554.297 2002.69,558.256 2005.53,562.277 2008.38,566.361 
  2011.22,570.506 2014.07,574.714 2016.91,578.984 2019.75,583.316 2022.6,587.711 2025.44,592.169 2028.28,596.689 2031.13,601.272 2033.97,605.917 2036.82,610.625 
  2039.66,615.396 2042.5,620.23 2045.35,625.127 2048.19,630.086 2051.03,635.109 2053.88,640.195 2056.72,645.344 2059.57,650.557 2062.41,655.833 2065.25,661.172 
  2068.1,666.575 2070.94,672.041 2073.78,677.571 2076.63,683.164 2079.47,688.821 2082.32,694.543 2085.16,700.328 2088,706.177 2090.85,712.09 2093.69,718.067 
  2096.53,724.109 2099.38,730.215 2102.22,736.385 2105.07,742.62 2107.91,748.919 2110.75,755.283 2113.6,761.712 2116.44,768.205 2119.28,774.764 2122.13,781.388 
  2124.97,788.076 2127.82,794.83 2130.66,801.65 2133.5,808.534 2136.35,815.484 2139.19,822.5 2142.03,829.582 2144.88,836.729 2147.72,843.943 2150.57,851.222 
  2153.41,858.568 2156.25,865.979 2159.1,873.458 2161.94,881.002 2164.78,888.614 2167.63,896.292 2170.47,904.037 2173.32,911.849 2176.16,919.728 2179,927.674 
  2181.85,935.688 2184.69,943.769 2187.53,951.918 2190.38,960.135 2193.22,968.42 2196.07,976.773 2198.91,985.194 2201.75,993.684 2204.6,1002.24 2207.44,1010.87 
  2210.28,1019.57 2213.13,1028.33 2215.97,1037.16 2218.82,1046.07 2221.66,1055.04 2224.5,1064.09 2227.35,1073.2 2230.19,1082.39 2233.03,1091.64 2235.88,1100.97 
  2238.72,1110.36 2241.57,1119.83 2244.41,1129.37 2247.25,1138.99 2250.1,1148.67 2252.94,1158.43 2255.78,1168.26 2258.63,1178.17 2261.47,1188.15 2264.32,1198.21 
  2267.16,1208.34 2270,1218.54 2272.85,1228.83 2275.69,1239.19 2278.53,1249.63 2281.38,1260.15 2284.22,1270.75 2287.07,1281.44 2289.91,1292.21 2292.75,1303.06 
  2295.6,1313.98 2298.44,1324.96 2301.28,1334.47 2304.13,1338.82 2306.97,1338.72 2309.82,1338.83 2312.66,1338.83 2315.5,1338.86 2318.35,1338.88 2321.19,1338.91 
  2324.03,1338.93 2326.88,1338.95 2329.72,1338.96 2332.57,1338.98 2335.41,1339 2338.25,1339.01 2341.1,1339.03 2343.94,1339.04 2346.78,1339.05 2349.63,1339.07 
  2352.47,1339.08 2355.32,1339.09 2358.16,1339.1 2361,1339.11 2363.85,1339.12 2366.69,1339.13 2369.53,1339.14 2372.38,1339.15 2375.22,1339.16 2378.07,1339.16 
  2380.91,1339.17 2383.75,1339.18 2386.6,1339.19 2389.44,1339.2 2392.28,1339.2 2395.13,1339.21 2397.97,1339.22 2400.82,1339.22 2403.66,1339.23 2406.5,1339.24 
  2409.35,1339.24 2412.19,1339.25 2415.03,1339.25 2417.88,1339.26 2420.72,1339.26 2423.57,1339.27 2426.41,1339.28 2429.25,1339.28 2432.1,1339.29 2434.94,1339.29 
  2437.78,1339.29 2440.63,1339.3 2443.47,1339.3 2446.32,1339.31 2449.16,1339.31 2452,1339.32 2454.85,1339.32 2457.69,1339.32 2460.53,1339.33 2463.38,1339.33 
  2466.22,1339.34 2469.07,1339.34 2471.91,1339.34 2474.75,1339.35 2477.6,1339.35 2480.44,1339.35 2483.28,1339.36 2486.13,1339.36 2488.97,1339.36 2491.82,1339.37 
  2494.66,1339.37 2497.5,1339.37 2500.35,1339.38 2503.19,1339.38 2506.03,1339.38 2508.88,1339.38 2511.72,1339.39 2514.57,1339.39 2517.41,1339.39 2520.25,1339.39 
  2523.1,1339.4 2525.94,1339.4 2528.78,1339.4 2531.63,1339.4 2534.47,1339.41 2537.32,1339.41 2540.16,1339.41 2543,1339.41 2545.85,1339.42 2548.69,1339.42 
  2551.53,1339.42 2554.38,1339.42 2557.22,1339.42 2560.07,1339.43 2562.91,1339.43 2565.75,1339.43 2568.6,1339.43 2571.44,1339.43 2574.28,1339.44 2577.13,1339.44 
  2579.97,1339.44 2582.82,1339.44 2585.66,1339.44 2588.5,1339.44 2591.35,1339.45 2594.19,1339.45 2597.03,1339.45 2599.88,1339.45 2602.72,1339.45 2605.57,1339.45 
  2608.41,1339.45 2611.25,1339.46 2614.1,1339.46 2616.94,1339.46 2619.78,1339.46 2622.63,1339.46 2625.47,1339.46 2628.32,1339.46 2631.16,1339.46 2634,1339.47 
  2636.85,1339.47 2639.69,1339.47 2642.53,1339.47 2645.38,1339.47 2648.22,1339.47 2651.07,1339.47 2653.91,1339.47 2656.75,1339.47 2659.6,1339.48 2662.44,1339.48 
  2665.28,1339.48 2668.13,1339.48 2670.97,1339.48 2673.82,1339.48 2676.66,1339.48 2679.5,1339.48 2682.35,1339.48 2685.19,1339.48 2688.03,1339.48 2690.88,1339.48 
  2693.72,1339.49 2696.56,1339.49 2699.41,1339.49 2702.25,1339.49 2705.1,1339.49 2707.94,1339.49 2710.78,1339.49 2713.63,1339.49 2716.47,1339.49 2719.31,1339.49 
  2722.16,1339.49 2725,1339.49 2727.85,1339.49 2730.69,1339.49 2733.53,1339.49 2736.38,1339.49 2739.22,1339.49 2742.06,1339.49 2744.91,1339.49 2747.75,1339.49 
  2750.6,1339.49 2753.44,1339.49 2756.28,1339.5 2759.13,1339.5 2761.97,1339.5 2764.81,1339.5 2767.66,1339.5 2770.5,1339.49 2773.35,1339.5 2776.19,1339.49 
  2779.03,1339.5 2781.88,1339.49 2784.72,1339.5 2787.56,1339.49 
  "/>
<circle clip-path="url(#clip592)" cx="333.411" cy="1338.92" r="28" fill="#e26f46" fill-rule="evenodd" fill-opacity="0.6" stroke="#808080" stroke-opacity="0.6" stroke-width="0"/>
<circle clip-path="url(#clip592)" cx="447.161" cy="1037.21" r="28" fill="#e26f46" fill-rule="evenodd" fill-opacity="0.6" stroke="#808080" stroke-opacity="0.6" stroke-width="0"/>
<circle clip-path="url(#clip592)" cx="560.911" cy="736.396" r="28" fill="#e26f46" fill-rule="evenodd" fill-opacity="0.6" stroke="#808080" stroke-opacity="0.6" stroke-width="0"/>
<circle clip-path="url(#clip592)" cx="674.66" cy="539.085" r="28" fill="#e26f46" fill-rule="evenodd" fill-opacity="0.6" stroke="#808080" stroke-opacity="0.6" stroke-width="0"/>
<circle clip-path="url(#clip592)" cx="788.41" cy="441.004" r="28" fill="#e26f46" fill-rule="evenodd" fill-opacity="0.6" stroke="#808080" stroke-opacity="0.6" stroke-width="0"/>
<circle clip-path="url(#clip592)" cx="902.16" cy="440.187" r="28" fill="#e26f46" fill-rule="evenodd" fill-opacity="0.6" stroke="#808080" stroke-opacity="0.6" stroke-width="0"/>
<circle clip-path="url(#clip592)" cx="1015.91" cy="536.605" r="28" fill="#e26f46" fill-rule="evenodd" fill-opacity="0.6" stroke="#808080" stroke-opacity="0.6" stroke-width="0"/>
<circle clip-path="url(#clip592)" cx="1129.66" cy="732.138" r="28" fill="#e26f46" fill-rule="evenodd" fill-opacity="0.6" stroke="#808080" stroke-opacity="0.6" stroke-width="0"/>
<circle clip-path="url(#clip592)" cx="1243.41" cy="1030.71" r="28" fill="#e26f46" fill-rule="evenodd" fill-opacity="0.6" stroke="#808080" stroke-opacity="0.6" stroke-width="0"/>
<circle clip-path="url(#clip592)" cx="1357.16" cy="1241.81" r="28" fill="#e26f46" fill-rule="evenodd" fill-opacity="0.6" stroke="#808080" stroke-opacity="0.6" stroke-width="0"/>
<circle clip-path="url(#clip592)" cx="1470.91" cy="883.409" r="28" fill="#e26f46" fill-rule="evenodd" fill-opacity="0.6" stroke="#808080" stroke-opacity="0.6" stroke-width="0"/>
<circle clip-path="url(#clip592)" cx="1584.66" cy="631.719" r="28" fill="#e26f46" fill-rule="evenodd" fill-opacity="0.6" stroke="#808080" stroke-opacity="0.6" stroke-width="0"/>
<circle clip-path="url(#clip592)" cx="1698.41" cy="481.121" r="28" fill="#e26f46" fill-rule="evenodd" fill-opacity="0.6" stroke="#808080" stroke-opacity="0.6" stroke-width="0"/>
<circle clip-path="url(#clip592)" cx="1812.16" cy="428.568" r="28" fill="#e26f46" fill-rule="evenodd" fill-opacity="0.6" stroke="#808080" stroke-opacity="0.6" stroke-width="0"/>
<circle clip-path="url(#clip592)" cx="1925.91" cy="473.033" r="28" fill="#e26f46" fill-rule="evenodd" fill-opacity="0.6" stroke="#808080" stroke-opacity="0.6" stroke-width="0"/>
<circle clip-path="url(#clip592)" cx="2039.66" cy="615.396" r="28" fill="#e26f46" fill-rule="evenodd" fill-opacity="0.6" stroke="#808080" stroke-opacity="0.6" stroke-width="0"/>
<circle clip-path="url(#clip592)" cx="2153.41" cy="858.568" r="28" fill="#e26f46" fill-rule="evenodd" fill-opacity="0.6" stroke="#808080" stroke-opacity="0.6" stroke-width="0"/>
<circle clip-path="url(#clip592)" cx="2267.16" cy="1208.34" r="28" fill="#e26f46" fill-rule="evenodd" fill-opacity="0.6" stroke="#808080" stroke-opacity="0.6" stroke-width="0"/>
<polyline clip-path="url(#clip592)" style="stroke:#e26f46; stroke-linecap:butt; stroke-linejoin:round; stroke-width:12; stroke-opacity:1; fill:none" points="
  -121.589,1338.38 -118.745,1338.38 -115.901,1338.38 -113.058,1338.38 -110.214,1338.38 -107.37,1338.38 -104.526,1338.38 -101.683,1338.38 -98.8389,1338.38 -95.9952,1338.38 
  -93.1514,1338.38 -90.3077,1338.38 -87.464,1338.38 -84.6202,1338.38 -81.7765,1338.38 -78.9327,1338.38 -76.089,1338.38 -73.2452,1338.38 -70.4015,1338.38 -67.5577,1338.38 
  -64.714,1338.38 -61.8702,1338.38 -59.0265,1338.38 -56.1827,1338.38 -53.339,1338.38 -50.4952,1338.38 -47.6515,1338.38 -44.8077,1338.38 -41.964,1338.38 -39.1202,1338.38 
  -36.2765,1338.38 -33.4327,1338.38 -30.589,1338.38 -27.7452,1338.38 -24.9015,1338.38 -22.0578,1338.38 -19.214,1338.38 -16.3703,1338.38 -13.5265,1338.38 -10.6828,1338.38 
  -7.83902,1338.38 -4.99527,1338.38 -2.15152,1338.38 0.692227,1338.38 3.53597,1338.38 6.37972,1338.38 9.22347,1338.38 12.0672,1338.38 14.911,1338.38 17.7547,1338.38 
  20.5985,1338.38 23.4422,1338.38 26.286,1338.38 29.1297,1338.38 31.9735,1338.38 34.8172,1338.38 37.6609,1338.38 40.5047,1338.38 43.3484,1338.38 46.1922,1338.38 
  49.0359,1338.38 51.8797,1338.38 54.7234,1338.38 57.5672,1338.38 60.4109,1338.38 63.2547,1338.38 66.0984,1338.38 68.9422,1338.38 71.7859,1338.38 74.6297,1338.38 
  77.4734,1338.38 80.3172,1338.38 83.1609,1338.38 86.0047,1338.38 88.8484,1338.38 91.6922,1338.38 94.5359,1338.38 97.3796,1338.38 100.223,1338.38 103.067,1338.38 
  105.911,1338.38 108.755,1338.38 111.598,1338.38 114.442,1338.38 117.286,1338.38 120.13,1338.38 122.973,1338.38 125.817,1338.38 128.661,1338.38 131.505,1338.38 
  134.348,1338.38 137.192,1338.38 140.036,1338.38 142.88,1338.38 145.723,1338.38 148.567,1338.38 151.411,1338.38 154.255,1338.38 157.098,1338.37 159.942,1338.38 
  162.786,1338.37 165.63,1338.38 168.473,1338.37 171.317,1338.38 174.161,1338.37 177.005,1338.38 179.848,1338.37 182.692,1338.38 185.536,1338.37 188.38,1338.38 
  191.223,1338.37 194.067,1338.38 196.911,1338.37 199.755,1338.38 202.598,1338.37 205.442,1338.38 208.286,1338.37 211.13,1338.38 213.973,1338.37 216.817,1338.38 
  219.661,1338.37 222.505,1338.38 225.348,1338.37 228.192,1338.38 231.036,1338.37 233.88,1338.38 236.723,1338.37 239.567,1338.38 242.411,1338.37 245.255,1338.38 
  248.098,1338.37 250.942,1338.38 253.786,1338.37 256.63,1338.38 259.473,1338.37 262.317,1338.38 265.161,1338.37 268.005,1338.38 270.848,1338.37 273.692,1338.38 
  276.536,1338.37 279.379,1338.38 282.223,1338.37 285.067,1338.38 287.911,1338.37 290.754,1338.38 293.598,1338.37 296.442,1338.38 299.286,1338.37 302.129,1338.38 
  304.973,1338.37 307.817,1338.38 310.661,1338.37 313.504,1338.38 316.348,1338.37 319.192,1338.38 322.036,1338.37 324.879,1338.38 327.723,1338.37 330.567,1338.38 
  333.411,1338.37 336.254,1338.38 339.098,1338.37 341.942,1338.38 344.786,1338.37 347.629,1338.38 350.473,1338.37 353.317,1338.38 356.161,1338.37 359.004,1338.37 
  361.848,1338.17 364.692,1328.51 367.536,1317.98 370.379,1307.51 373.223,1296.92 376.067,1286.5 378.911,1276 381.754,1265.69 384.598,1255.31 387.442,1245.11 
  390.286,1234.86 393.129,1224.79 395.973,1214.66 398.817,1204.71 401.661,1194.71 404.504,1184.89 407.348,1175.02 410.192,1165.33 413.036,1155.59 415.879,1146.03 
  418.723,1136.42 421.567,1126.98 424.411,1117.51 427.254,1108.2 430.098,1098.86 432.942,1089.68 435.786,1080.47 438.629,1071.42 441.473,1062.34 444.317,1053.42 
  447.161,1044.47 450.004,1035.68 452.848,1026.87 455.692,1018.21 458.536,1009.53 461.379,1001 464.223,992.445 467.067,984.046 469.911,975.626 472.754,967.357 
  475.598,959.07 478.442,950.93 481.286,942.775 484.129,934.766 486.973,926.742 489.817,918.862 492.661,910.97 495.504,903.22 498.348,895.46 501.192,887.84 
  504.036,880.212 506.879,872.72 509.723,865.224 512.567,857.862 515.411,850.496 518.254,843.264 521.098,836.03 523.942,828.926 526.786,821.823 529.629,814.848 
  532.473,807.876 535.317,801.03 538.161,794.188 541.004,787.472 543.848,780.76 546.692,774.172 549.536,767.591 552.379,761.131 555.223,754.679 558.067,748.348 
  560.911,742.026 563.754,735.822 566.598,729.63 569.442,723.555 572.286,717.492 575.129,711.543 577.973,705.61 580.817,699.789 583.66,693.984 586.504,688.29 
  589.348,682.613 592.192,677.047 595.035,671.498 597.879,666.058 600.723,660.637 603.567,655.324 606.41,650.031 609.254,644.843 612.098,639.677 614.942,634.616 
  617.785,629.577 620.629,624.641 623.473,619.729 626.317,614.918 629.16,610.132 632.004,605.447 634.848,600.786 637.692,596.226 640.535,591.691 643.379,587.254 
  646.223,582.845 649.067,578.533 651.91,574.248 654.754,570.059 657.598,565.899 660.442,561.833 663.285,557.797 666.129,553.855 668.973,549.942 671.817,546.122 
  674.66,542.333 677.504,538.635 680.348,534.968 683.192,531.392 686.035,527.848 688.879,524.393 691.723,520.971 694.567,517.637 697.41,514.335 700.254,511.122 
  703.098,507.942 705.942,504.848 708.785,501.789 711.629,498.814 714.473,495.875 717.317,493.02 720.16,490.199 723.004,487.463 725.848,484.761 728.692,482.143 
  731.535,479.559 734.379,477.059 737.223,474.593 740.067,472.209 742.91,469.861 745.754,467.593 748.598,465.362 751.442,463.21 754.285,461.094 757.129,459.058 
  759.973,457.058 762.817,455.136 765.66,453.251 768.504,451.444 771.348,449.672 774.192,447.979 777.035,446.321 779.879,444.74 782.723,443.195 785.567,441.727 
  788.41,440.294 791.254,438.938 794.098,437.617 796.942,436.371 799.785,435.161 802.629,434.025 805.473,432.926 808.317,431.9 811.16,430.91 814.004,429.993 
  816.848,429.112 819.692,428.304 822.535,427.531 825.379,426.83 828.223,426.164 831.067,425.571 833.91,425.012 836.754,424.525 839.598,424.072 842.442,423.69 
  845.285,423.342 848.129,423.066 850.973,422.823 853.817,422.65 856.66,422.511 859.504,422.442 862.348,422.406 865.192,422.44 868.035,422.506 870.879,422.642 
  873.723,422.81 876.567,423.047 879.41,423.316 882.254,423.655 885.098,424.024 887.941,424.462 890.785,424.931 893.629,425.469 896.473,426.037 899.316,426.674 
  902.16,427.34 905.004,428.075 907.848,428.838 910.691,429.671 913.535,430.532 916.379,431.461 919.223,432.419 922.066,433.445 924.91,434.498 927.754,435.62 
  930.598,436.769 933.441,437.986 936.285,439.23 939.129,440.542 941.973,441.88 944.816,443.287 947.66,444.719 950.504,446.221 953.348,447.747 956.191,449.342 
  959.035,450.961 961.879,452.65 964.723,454.363 967.566,456.146 970.41,457.951 973.254,459.827 976.098,461.726 978.941,463.695 981.785,465.686 984.629,467.749 
  987.473,469.833 990.316,471.99 993.16,474.167 996.004,476.418 998.848,478.688 1001.69,481.033 1004.54,483.397 1007.38,485.836 1010.22,488.294 1013.07,490.828 
  1015.91,493.381 1018.75,496.011 1021.6,498.659 1024.44,501.385 1027.29,504.129 1030.13,506.953 1032.97,509.795 1035.82,512.717 1038.66,515.657 1041.5,518.679 
  1044.35,521.718 1047.19,524.841 1050.04,527.981 1052.88,531.207 1055.72,534.45 1058.57,537.78 1061.41,541.127 1064.25,544.564 1067.1,548.018 1069.94,551.563 
  1072.79,555.125 1075.63,558.781 1078.47,562.455 1081.32,566.225 1084.16,570.012 1087,573.898 1089.85,577.802 1092.69,581.808 1095.54,585.832 1098.38,589.96 
  1101.22,594.108 1104.07,598.362 1106.91,602.637 1109.75,607.022 1112.6,611.428 1115.44,615.948 1118.29,620.489 1121.13,625.148 1123.97,629.83 1126.82,634.633 
  1129.66,639.46 1132.5,644.412 1135.35,649.39 1138.19,654.497 1141.04,659.632 1143.88,664.899 1146.72,670.196 1149.57,675.631 1152.41,681.098 1155.25,686.705 
  1158.1,692.349 1160.94,698.137 1163.79,703.965 1166.63,709.942 1169.47,715.96 1172.32,722.134 1175.16,728.353 1178,734.732 1180.85,741.159 1183.69,747.752 
  1186.53,754.398 1189.38,761.215 1192.22,768.089 1195.07,775.139 1197.91,782.252 1200.75,789.547 1203.6,796.91 1206.44,804.459 1209.28,812.084 1212.13,819.901 
  1214.97,827.8 1217.82,835.897 1220.66,844.083 1223.5,852.473 1226.35,860.96 1229.19,869.656 1232.03,878.459 1234.88,887.476 1237.72,896.61 1240.57,905.964 
  1243.41,915.446 1246.25,925.153 1249.1,934.999 1251.94,945.076 1254.78,955.304 1257.63,965.77 1260.47,976.401 1263.32,987.275 1266.16,998.329 1269,1009.63 
  1271.85,1021.13 1274.69,1032.88 1277.53,1044.85 1280.38,1057.08 1283.22,1069.54 1286.07,1082.27 1288.91,1095.25 1291.75,1108.51 1294.6,1122.04 1297.44,1135.86 
  1300.28,1149.97 1303.13,1164.37 1305.97,1179.07 1308.82,1194.07 1311.66,1209.37 1314.5,1224.92 1317.35,1240.73 1320.19,1256.69 1323.03,1272.71 1325.88,1288.58 
  1328.72,1303.93 1331.57,1318.33 1334.41,1330.52 1337.25,1338.37 1340.1,1338.57 1342.94,1338.59 1345.78,1338.64 1348.63,1338.64 1351.47,1338.66 1354.32,1338.65 
  1357.16,1338.66 1360,1338.63 1362.85,1338.65 1365.69,1338.6 1368.53,1338.63 1371.38,1338.56 1374.22,1338.61 1377.07,1338.51 1379.91,1338.58 1382.75,1338.47 
  1385.6,1338.53 1388.44,1338.38 1391.28,1331.68 1394.13,1321.03 1396.97,1310.1 1399.82,1298.31 1402.66,1286.52 1405.5,1274.44 1408.35,1262.3 1411.19,1250.12 
  1414.03,1237.87 1416.88,1225.68 1419.72,1213.44 1422.57,1201.32 1425.41,1189.18 1428.25,1177.18 1431.1,1165.18 1433.94,1153.34 1436.78,1141.52 1439.63,1129.86 
  1442.47,1118.24 1445.32,1106.78 1448.16,1095.37 1451,1084.12 1453.85,1072.93 1456.69,1061.9 1459.53,1050.93 1462.38,1040.12 1465.22,1029.38 1468.07,1018.79 
  1470.91,1008.27 1473.75,997.907 1476.6,987.616 1479.44,977.473 1482.28,967.405 1485.13,957.483 1487.97,947.637 1490.82,937.933 1493.66,928.306 1496.5,918.818 
  1499.35,909.408 1502.19,900.134 1505.03,890.937 1507.88,881.874 1510.72,872.889 1513.57,864.034 1516.41,855.257 1519.25,846.608 1522.1,838.037 1524.94,829.591 
  1527.78,821.223 1530.63,812.978 1533.47,804.81 1536.32,796.763 1539.16,788.793 1542,780.942 1544.85,773.168 1547.69,765.51 1550.53,757.929 1553.38,750.462 
  1556.22,743.071 1559.07,735.794 1561.91,728.592 1564.75,721.501 1567.6,714.486 1570.44,707.58 1573.28,700.75 1576.13,694.027 1578.97,687.379 1581.82,680.837 
  1584.66,674.37 1587.5,668.008 1590.35,661.72 1593.19,655.535 1596.03,649.424 1598.88,643.415 1601.72,637.48 1604.57,631.646 1607.41,625.885 1610.25,620.223 
  1613.1,614.635 1615.94,609.144 1618.78,603.727 1621.63,598.406 1624.47,593.159 1627.32,588.007 1630.16,582.927 1633,577.942 1635.85,573.029 1638.69,568.21 
  1641.53,563.462 1644.38,558.808 1647.22,554.224 1650.07,549.733 1652.91,545.312 1655.75,540.983 1658.6,536.724 1661.44,532.556 1664.28,528.457 1667.13,524.448 
  1669.97,520.51 1672.82,516.659 1675.66,512.878 1678.5,509.185 1681.35,505.562 1684.19,502.025 1687.03,498.557 1689.88,495.176 1692.72,491.863 1695.57,488.636 
  1698.41,485.477 1701.25,482.403 1704.1,479.397 1706.94,476.475 1709.78,473.621 1712.63,470.85 1715.47,468.147 1718.32,465.527 1721.16,462.974 1724,460.503 
  1726.85,458.099 1729.69,455.776 1732.53,453.521 1735.38,451.346 1738.22,449.237 1741.07,447.209 1743.91,445.247 1746.75,443.364 1749.6,441.548 1752.44,439.81 
  1755.28,438.138 1758.13,436.545 1760.97,435.017 1763.82,433.568 1766.66,432.183 1769.5,430.876 1772.35,429.633 1775.19,428.469 1778.03,427.368 1780.88,426.344 
  1783.72,425.384 1786.57,424.501 1789.41,423.681 1792.25,422.938 1795.1,422.257 1797.94,421.653 1800.78,421.111 1803.63,420.646 1806.47,420.242 1809.32,419.915 
  1812.16,419.649 1815,419.459 1817.85,419.33 1820.69,419.276 1823.53,419.283 1826.38,419.366 1829.22,419.509 1832.07,419.727 1834.91,420.005 1837.75,420.359 
  1840.6,420.771 1843.44,421.259 1846.28,421.806 1849.13,422.428 1851.97,423.108 1854.82,423.864 1857.66,424.677 1860.5,425.566 1863.35,426.512 1866.19,427.534 
  1869.03,428.612 1871.88,429.766 1874.72,430.976 1877.57,432.262 1880.41,433.603 1883.25,435.021 1886.1,436.493 1888.94,438.041 1891.78,439.644 1894.63,441.324 
  1897.47,443.057 1900.32,444.867 1903.16,446.73 1906,448.67 1908.85,450.662 1911.69,452.732 1914.53,454.854 1917.38,457.054 1920.22,459.305 1923.07,461.634 
  1925.91,464.013 1928.75,466.471 1931.6,468.979 1934.44,471.566 1937.28,474.202 1940.13,476.918 1942.97,479.682 1945.82,482.526 1948.66,485.418 1951.5,488.391 
  1954.35,491.41 1957.19,494.511 1960.03,497.657 1962.88,500.886 1965.72,504.16 1968.57,507.517 1971.41,510.918 1974.25,514.402 1977.1,517.93 1979.94,521.542 
  1982.78,525.197 1985.63,528.937 1988.47,532.718 1991.32,536.585 1994.16,540.493 1997,544.488 1999.85,548.522 2002.69,552.644 2005.53,556.805 2008.38,561.054 
  2011.22,565.342 2014.07,569.718 2016.91,574.132 2019.75,578.636 2022.6,583.176 2025.44,587.807 2028.28,592.473 2031.13,597.232 2033.97,602.024 2036.82,606.91 
  2039.66,611.828 2042.5,616.842 2045.35,621.886 2048.19,627.027 2051.03,632.198 2053.88,637.466 2056.72,642.763 2059.57,648.159 2062.41,653.582 2065.25,659.106 
  2068.1,664.655 2070.94,670.307 2073.78,675.982 2076.63,681.762 2079.47,687.563 2082.32,693.471 2085.16,699.399 2088,705.434 2090.85,711.489 2093.69,717.653 
  2096.53,723.833 2099.38,730.125 2102.22,736.433 2105.07,742.853 2107.91,749.287 2110.75,755.836 2113.6,762.397 2116.44,769.075 2119.28,775.762 2122.13,782.569 
  2124.97,789.383 2127.82,796.318 2130.66,803.259 2133.5,810.324 2136.35,817.392 2139.19,824.586 2142.03,831.781 2144.88,839.105 2147.72,846.427 2150.57,853.881 
  2153.41,861.33 2156.25,868.913 2159.1,876.49 2161.94,884.203 2164.78,891.907 2167.63,899.751 2170.47,907.582 2173.32,915.556 2176.16,923.515 2179,931.62 
  2181.85,939.706 2184.69,947.942 2187.53,956.156 2190.38,964.522 2193.22,972.864 2196.07,981.361 2198.91,989.831 2201.75,998.46 2204.6,1007.06 2207.44,1015.82 
  2210.28,1024.54 2213.13,1033.43 2215.97,1042.29 2218.82,1051.31 2221.66,1060.29 2224.5,1069.45 2227.35,1078.56 2230.19,1087.84 2233.03,1097.08 2235.88,1106.5 
  2238.72,1115.86 2241.57,1125.42 2244.41,1134.91 2247.25,1144.59 2250.1,1154.21 2252.94,1164.03 2255.78,1173.78 2258.63,1183.72 2261.47,1193.6 2264.32,1203.68 
  2267.16,1213.68 2270,1223.89 2272.85,1234.02 2275.69,1244.36 2278.53,1254.61 2281.38,1265.08 2284.22,1275.45 2287.07,1286.05 2289.91,1296.53 2292.75,1307.22 
  2295.6,1317.76 2298.44,1328.41 2301.28,1338.17 2304.13,1338.37 2306.97,1338.37 2309.82,1338.38 2312.66,1338.37 2315.5,1338.38 2318.35,1338.37 2321.19,1338.38 
  2324.03,1338.37 2326.88,1338.38 2329.72,1338.37 2332.57,1338.38 2335.41,1338.37 2338.25,1338.38 2341.1,1338.37 2343.94,1338.38 2346.78,1338.37 2349.63,1338.38 
  2352.47,1338.37 2355.32,1338.38 2358.16,1338.37 2361,1338.38 2363.85,1338.37 2366.69,1338.38 2369.53,1338.37 2372.38,1338.38 2375.22,1338.37 2378.07,1338.38 
  2380.91,1338.37 2383.75,1338.38 2386.6,1338.37 2389.44,1338.38 2392.28,1338.37 2395.13,1338.38 2397.97,1338.37 2400.82,1338.38 2403.66,1338.37 2406.5,1338.38 
  2409.35,1338.37 2412.19,1338.38 2415.03,1338.37 2417.88,1338.38 2420.72,1338.37 2423.57,1338.38 2426.41,1338.37 2429.25,1338.38 2432.1,1338.37 2434.94,1338.38 
  2437.78,1338.37 2440.63,1338.38 2443.47,1338.37 2446.32,1338.38 2449.16,1338.37 2452,1338.38 2454.85,1338.37 2457.69,1338.38 2460.53,1338.37 2463.38,1338.38 
  2466.22,1338.37 2469.07,1338.38 2471.91,1338.37 2474.75,1338.38 2477.6,1338.37 2480.44,1338.38 2483.28,1338.37 2486.13,1338.38 2488.97,1338.37 2491.82,1338.38 
  2494.66,1338.37 2497.5,1338.38 2500.35,1338.37 2503.19,1338.38 2506.03,1338.37 2508.88,1338.38 2511.72,1338.37 2514.57,1338.38 2517.41,1338.37 2520.25,1338.38 
  2523.1,1338.37 2525.94,1338.38 2528.78,1338.37 2531.63,1338.38 2534.47,1338.37 2537.32,1338.38 2540.16,1338.37 2543,1338.38 2545.85,1338.37 2548.69,1338.38 
  2551.53,1338.37 2554.38,1338.38 2557.22,1338.37 2560.07,1338.37 2562.91,1338.37 2565.75,1338.37 2568.6,1338.37 2571.44,1338.37 2574.28,1338.37 2577.13,1338.37 
  2579.97,1338.37 2582.82,1338.37 2585.66,1338.37 2588.5,1338.37 2591.35,1338.38 2594.19,1338.37 2597.03,1338.38 2599.88,1338.37 2602.72,1338.38 2605.57,1338.37 
  2608.41,1338.38 2611.25,1338.37 2614.1,1338.38 2616.94,1338.37 2619.78,1338.38 2622.63,1338.37 2625.47,1338.38 2628.32,1338.37 2631.16,1338.38 2634,1338.37 
  2636.85,1338.38 2639.69,1338.37 2642.53,1338.38 2645.38,1338.37 2648.22,1338.38 2651.07,1338.37 2653.91,1338.38 2656.75,1338.37 2659.6,1338.38 2662.44,1338.37 
  2665.28,1338.38 2668.13,1338.37 2670.97,1338.38 2673.82,1338.37 2676.66,1338.38 2679.5,1338.37 2682.35,1338.38 2685.19,1338.37 2688.03,1338.38 2690.88,1338.37 
  2693.72,1338.38 2696.56,1338.37 2699.41,1338.38 2702.25,1338.37 2705.1,1338.38 2707.94,1338.37 2710.78,1338.38 2713.63,1338.37 2716.47,1338.37 2719.31,1338.37 
  2722.16,1338.37 2725,1338.37 2727.85,1338.37 2730.69,1338.38 2733.53,1338.37 2736.38,1338.38 2739.22,1338.37 2742.06,1338.38 2744.91,1338.37 2747.75,1338.38 
  2750.6,1338.37 2753.44,1338.38 2756.28,1338.37 2759.13,1338.38 2761.97,1338.37 2764.81,1338.38 2767.66,1338.37 2770.5,1338.38 2773.35,1338.37 2776.19,1338.38 
  2779.03,1338.37 2781.88,1338.38 2784.72,1338.37 2787.56,1338.38 
  "/>
<path clip-path="url(#clip592)" d="M333.411 1306.37 L325.891 1328 L302.979 1328.48 L321.251 1342.34 L314.595 1364.26 L333.411 1351.17 L352.227 1364.26 L345.571 1342.34 L363.843 1328.48 L340.931 1328 L333.411 1306.37 Z" fill="#e26f46" fill-rule="evenodd" fill-opacity="0.6" stroke="#808080" stroke-opacity="0.6" stroke-width="0"/>
<path clip-path="url(#clip592)" d="M447.161 1012.47 L439.641 1034.1 L416.729 1034.58 L435.001 1048.44 L428.345 1070.36 L447.161 1057.27 L465.977 1070.36 L459.321 1048.44 L477.593 1034.58 L454.681 1034.1 L447.161 1012.47 Z" fill="#e26f46" fill-rule="evenodd" fill-opacity="0.6" stroke="#808080" stroke-opacity="0.6" stroke-width="0"/>
<path clip-path="url(#clip592)" d="M560.911 710.026 L553.391 731.658 L530.479 732.138 L548.751 745.994 L542.095 767.914 L560.911 754.826 L579.727 767.914 L573.071 745.994 L591.343 732.138 L568.431 731.658 L560.911 710.026 Z" fill="#e26f46" fill-rule="evenodd" fill-opacity="0.6" stroke="#808080" stroke-opacity="0.6" stroke-width="0"/>
<path clip-path="url(#clip592)" d="M674.66 510.333 L667.14 531.965 L644.228 532.445 L662.5 546.301 L655.844 568.221 L674.66 555.133 L693.476 568.221 L686.82 546.301 L705.092 532.445 L682.18 531.965 L674.66 510.333 Z" fill="#e26f46" fill-rule="evenodd" fill-opacity="0.6" stroke="#808080" stroke-opacity="0.6" stroke-width="0"/>
<path clip-path="url(#clip592)" d="M788.41 408.294 L780.89 429.926 L757.978 430.406 L776.25 444.262 L769.594 466.182 L788.41 453.094 L807.226 466.182 L800.57 444.262 L818.842 430.406 L795.93 429.926 L788.41 408.294 Z" fill="#e26f46" fill-rule="evenodd" fill-opacity="0.6" stroke="#808080" stroke-opacity="0.6" stroke-width="0"/>
<path clip-path="url(#clip592)" d="M902.16 395.34 L894.64 416.972 L871.728 417.452 L890 431.308 L883.344 453.228 L902.16 440.14 L920.976 453.228 L914.32 431.308 L932.592 417.452 L909.68 416.972 L902.16 395.34 Z" fill="#e26f46" fill-rule="evenodd" fill-opacity="0.6" stroke="#808080" stroke-opacity="0.6" stroke-width="0"/>
<path clip-path="url(#clip592)" d="M1015.91 461.381 L1008.39 483.013 L985.478 483.493 L1003.75 497.349 L997.094 519.269 L1015.91 506.181 L1034.73 519.269 L1028.07 497.349 L1046.34 483.493 L1023.43 483.013 L1015.91 461.381 Z" fill="#e26f46" fill-rule="evenodd" fill-opacity="0.6" stroke="#808080" stroke-opacity="0.6" stroke-width="0"/>
<path clip-path="url(#clip592)" d="M1129.66 607.46 L1122.14 629.092 L1099.23 629.572 L1117.5 643.428 L1110.84 665.348 L1129.66 652.26 L1148.48 665.348 L1141.82 643.428 L1160.09 629.572 L1137.18 629.092 L1129.66 607.46 Z" fill="#e26f46" fill-rule="evenodd" fill-opacity="0.6" stroke="#808080" stroke-opacity="0.6" stroke-width="0"/>
<path clip-path="url(#clip592)" d="M1243.41 883.446 L1235.89 905.078 L1212.98 905.558 L1231.25 919.414 L1224.59 941.334 L1243.41 928.246 L1262.23 941.334 L1255.57 919.414 L1273.84 905.558 L1250.93 905.078 L1243.41 883.446 Z" fill="#e26f46" fill-rule="evenodd" fill-opacity="0.6" stroke="#808080" stroke-opacity="0.6" stroke-width="0"/>
<path clip-path="url(#clip592)" d="M1357.16 1306.66 L1349.64 1328.29 L1326.73 1328.77 L1345 1342.63 L1338.34 1364.55 L1357.16 1351.46 L1375.98 1364.55 L1369.32 1342.63 L1387.59 1328.77 L1364.68 1328.29 L1357.16 1306.66 Z" fill="#e26f46" fill-rule="evenodd" fill-opacity="0.6" stroke="#808080" stroke-opacity="0.6" stroke-width="0"/>
<path clip-path="url(#clip592)" d="M1470.91 976.272 L1463.39 997.904 L1440.48 998.384 L1458.75 1012.24 L1452.09 1034.16 L1470.91 1021.07 L1489.73 1034.16 L1483.07 1012.24 L1501.34 998.384 L1478.43 997.904 L1470.91 976.272 Z" fill="#e26f46" fill-rule="evenodd" fill-opacity="0.6" stroke="#808080" stroke-opacity="0.6" stroke-width="0"/>
<path clip-path="url(#clip592)" d="M1584.66 642.37 L1577.14 664.002 L1554.23 664.482 L1572.5 678.338 L1565.84 700.258 L1584.66 687.17 L1603.48 700.258 L1596.82 678.338 L1615.09 664.482 L1592.18 664.002 L1584.66 642.37 Z" fill="#e26f46" fill-rule="evenodd" fill-opacity="0.6" stroke="#808080" stroke-opacity="0.6" stroke-width="0"/>
<path clip-path="url(#clip592)" d="M1698.41 453.477 L1690.89 475.109 L1667.98 475.589 L1686.25 489.445 L1679.59 511.365 L1698.41 498.277 L1717.23 511.365 L1710.57 489.445 L1728.84 475.589 L1705.93 475.109 L1698.41 453.477 Z" fill="#e26f46" fill-rule="evenodd" fill-opacity="0.6" stroke="#808080" stroke-opacity="0.6" stroke-width="0"/>
<path clip-path="url(#clip592)" d="M1812.16 387.649 L1804.64 409.281 L1781.73 409.761 L1800 423.617 L1793.34 445.537 L1812.16 432.449 L1830.98 445.537 L1824.32 423.617 L1842.59 409.761 L1819.68 409.281 L1812.16 387.649 Z" fill="#e26f46" fill-rule="evenodd" fill-opacity="0.6" stroke="#808080" stroke-opacity="0.6" stroke-width="0"/>
<path clip-path="url(#clip592)" d="M1925.91 432.013 L1918.39 453.645 L1895.48 454.125 L1913.75 467.981 L1907.09 489.901 L1925.91 476.813 L1944.73 489.901 L1938.07 467.981 L1956.34 454.125 L1933.43 453.645 L1925.91 432.013 Z" fill="#e26f46" fill-rule="evenodd" fill-opacity="0.6" stroke="#808080" stroke-opacity="0.6" stroke-width="0"/>
<path clip-path="url(#clip592)" d="M2039.66 579.828 L2032.14 601.46 L2009.23 601.94 L2027.5 615.796 L2020.84 637.716 L2039.66 624.628 L2058.48 637.716 L2051.82 615.796 L2070.09 601.94 L2047.18 601.46 L2039.66 579.828 Z" fill="#e26f46" fill-rule="evenodd" fill-opacity="0.6" stroke="#808080" stroke-opacity="0.6" stroke-width="0"/>
<path clip-path="url(#clip592)" d="M2153.41 829.33 L2145.89 850.962 L2122.98 851.442 L2141.25 865.298 L2134.59 887.218 L2153.41 874.13 L2172.23 887.218 L2165.57 865.298 L2183.84 851.442 L2160.93 850.962 L2153.41 829.33 Z" fill="#e26f46" fill-rule="evenodd" fill-opacity="0.6" stroke="#808080" stroke-opacity="0.6" stroke-width="0"/>
<path clip-path="url(#clip592)" d="M2267.16 1181.68 L2259.64 1203.31 L2236.73 1203.79 L2255 1217.65 L2248.34 1239.57 L2267.16 1226.48 L2285.98 1239.57 L2279.32 1217.65 L2297.59 1203.79 L2274.68 1203.31 L2267.16 1181.68 Z" fill="#e26f46" fill-rule="evenodd" fill-opacity="0.6" stroke="#808080" stroke-opacity="0.6" stroke-width="0"/>
<polyline clip-path="url(#clip592)" style="stroke:#e26f46; stroke-linecap:butt; stroke-linejoin:round; stroke-width:12; stroke-opacity:1; fill:none" points="
  -121.589,1338.37 -118.745,1338.37 -115.901,1338.37 -113.058,1338.37 -110.214,1338.37 -107.37,1338.37 -104.526,1338.37 -101.683,1338.37 -98.8389,1338.37 -95.9952,1338.37 
  -93.1514,1338.37 -90.3077,1338.37 -87.464,1338.37 -84.6202,1338.37 -81.7765,1338.37 -78.9327,1338.37 -76.089,1338.37 -73.2452,1338.37 -70.4015,1338.37 -67.5577,1338.37 
  -64.714,1338.37 -61.8702,1338.37 -59.0265,1338.37 -56.1827,1338.38 -53.339,1338.37 -50.4952,1338.38 -47.6515,1338.37 -44.8077,1338.38 -41.964,1338.37 -39.1202,1338.38 
  -36.2765,1338.37 -33.4327,1338.38 -30.589,1338.37 -27.7452,1338.38 -24.9015,1338.37 -22.0578,1338.38 -19.214,1338.37 -16.3703,1338.38 -13.5265,1338.37 -10.6828,1338.38 
  -7.83902,1338.37 -4.99527,1338.38 -2.15152,1338.37 0.692227,1338.38 3.53597,1338.37 6.37972,1338.38 9.22347,1338.37 12.0672,1338.38 14.911,1338.37 17.7547,1338.38 
  20.5985,1338.37 23.4422,1338.38 26.286,1338.37 29.1297,1338.38 31.9735,1338.37 34.8172,1338.38 37.6609,1338.37 40.5047,1338.38 43.3484,1338.37 46.1922,1338.38 
  49.0359,1338.37 51.8797,1338.38 54.7234,1338.37 57.5672,1338.38 60.4109,1338.37 63.2547,1338.38 66.0984,1338.37 68.9422,1338.38 71.7859,1338.37 74.6297,1338.38 
  77.4734,1338.37 80.3172,1338.38 83.1609,1338.37 86.0047,1338.38 88.8484,1338.37 91.6922,1338.38 94.5359,1338.37 97.3796,1338.38 100.223,1338.37 103.067,1338.38 
  105.911,1338.37 108.755,1338.38 111.598,1338.37 114.442,1338.38 117.286,1338.37 120.13,1338.38 122.973,1338.37 125.817,1338.38 128.661,1338.37 131.505,1338.38 
  134.348,1338.37 137.192,1338.38 140.036,1338.37 142.88,1338.38 145.723,1338.37 148.567,1338.38 151.411,1338.37 154.255,1338.38 157.098,1338.37 159.942,1338.38 
  162.786,1338.37 165.63,1338.38 168.473,1338.37 171.317,1338.38 174.161,1338.37 177.005,1338.38 179.848,1338.37 182.692,1338.38 185.536,1338.37 188.38,1338.38 
  191.223,1338.37 194.067,1338.38 196.911,1338.37 199.755,1338.38 202.598,1338.37 205.442,1338.38 208.286,1338.37 211.13,1338.38 213.973,1338.37 216.817,1338.38 
  219.661,1338.37 222.505,1338.38 225.348,1338.37 228.192,1338.38 231.036,1338.37 233.88,1338.38 236.723,1338.37 239.567,1338.38 242.411,1338.37 245.255,1338.38 
  248.098,1338.37 250.942,1338.38 253.786,1338.37 256.63,1338.38 259.473,1338.37 262.317,1338.38 265.161,1338.37 268.005,1338.38 270.848,1338.37 273.692,1338.38 
  276.536,1338.37 279.379,1338.38 282.223,1338.37 285.067,1338.38 287.911,1338.37 290.754,1338.38 293.598,1338.37 296.442,1338.38 299.286,1338.37 302.129,1338.38 
  304.973,1338.37 307.817,1338.38 310.661,1338.37 313.504,1338.38 316.348,1338.37 319.192,1338.38 322.036,1338.37 324.879,1338.38 327.723,1338.37 330.567,1338.38 
  333.411,1338.37 336.254,1338.38 339.098,1338.37 341.942,1338.38 344.786,1338.37 347.629,1338.38 350.473,1338.37 353.317,1338.38 356.161,1338.37 359.004,1338.37 
  361.848,1338.1 364.692,1326.42 367.536,1314.24 370.379,1302.11 373.223,1289.95 376.067,1277.91 378.911,1265.88 381.754,1253.97 384.598,1242.06 387.442,1230.29 
  390.286,1218.52 393.129,1206.88 395.973,1195.25 398.817,1183.74 401.661,1172.24 404.504,1160.87 407.348,1149.51 410.192,1138.27 413.036,1127.04 415.879,1115.93 
  418.723,1104.84 421.567,1093.87 424.411,1082.91 427.254,1072.07 430.098,1061.25 432.942,1050.55 435.786,1039.85 438.629,1029.28 441.473,1018.73 444.317,1008.29 
  447.161,997.865 450.004,987.56 452.848,977.269 455.692,967.098 458.536,956.94 461.379,946.902 464.223,936.878 467.067,926.972 469.911,917.081 472.754,907.309 
  475.598,897.551 478.442,887.912 481.286,878.287 484.129,868.781 486.973,859.29 489.817,849.917 492.661,840.559 495.504,831.319 498.348,822.094 501.192,812.988 
  504.036,803.897 506.879,794.924 509.723,785.966 512.567,777.127 515.411,768.303 518.254,759.598 521.098,750.907 523.942,742.336 526.786,733.779 529.629,725.342 
  532.473,716.919 535.317,708.616 538.161,700.327 541.004,692.158 543.848,684.004 546.692,675.969 549.536,667.95 552.379,660.049 555.223,652.165 558.067,644.399 
  560.911,636.649 563.754,629.018 566.598,621.403 569.442,613.907 572.286,606.428 575.129,599.067 577.973,591.723 580.817,584.498 583.66,577.289 586.504,570.2 
  589.348,563.127 592.192,556.173 595.035,549.237 597.879,542.419 600.723,535.618 603.567,528.937 606.41,522.273 609.254,515.728 612.098,509.2 614.942,502.792 
  617.785,496.402 620.629,490.13 623.473,483.877 626.317,477.743 629.16,471.626 632.004,465.63 634.848,459.651 637.692,453.792 640.535,447.951 643.379,442.23 
  646.223,436.527 649.067,430.944 651.91,425.379 654.754,419.935 657.598,414.509 660.442,409.203 663.285,403.915 666.129,398.748 668.973,393.6 671.817,388.572 
  674.66,383.563 677.504,378.675 680.348,373.805 683.192,369.056 686.035,364.327 688.879,359.718 691.723,355.128 694.567,350.66 697.41,346.211 700.254,341.883 
  703.098,337.574 705.942,333.387 708.785,329.219 711.629,325.173 714.473,321.147 717.317,317.242 720.16,313.357 723.004,309.595 725.848,305.851 728.692,302.231 
  731.535,298.629 734.379,295.151 737.223,291.692 740.067,288.356 742.91,285.04 745.754,281.847 748.598,278.674 751.442,275.625 754.285,272.595 757.129,269.689 
  759.973,266.803 762.817,264.04 765.66,261.298 768.504,258.68 771.348,256.083 774.192,253.609 777.035,251.156 779.879,248.827 782.723,246.519 785.567,244.336 
  788.41,242.173 791.254,240.135 794.098,238.118 796.942,236.226 799.785,234.354 802.629,232.609 805.473,230.884 808.317,229.284 811.16,227.706 814.004,226.254 
  816.848,224.823 819.692,223.518 822.535,222.234 825.379,221.077 828.223,219.941 831.067,218.932 833.91,217.945 836.754,217.084 839.598,216.245 842.442,215.533 
  845.285,214.843 848.129,214.28 850.973,213.739 853.817,213.327 856.66,212.935 859.504,212.673 862.348,212.432 865.192,212.319 868.035,212.229 870.879,212.267 
  873.723,212.328 876.567,212.518 879.41,212.73 882.254,213.071 885.098,213.435 887.941,213.928 890.785,214.445 893.629,215.091 896.473,215.76 899.316,216.559 
  902.16,217.381 905.004,218.333 907.848,219.309 910.691,220.416 913.535,221.545 916.379,222.806 919.223,224.091 922.066,225.507 924.91,226.946 927.754,228.517 
  930.598,230.112 933.441,231.839 936.285,233.59 939.129,235.474 941.973,237.381 944.816,239.422 947.66,241.486 950.504,243.684 953.348,245.906 956.191,248.262 
  959.035,250.642 961.879,253.157 964.723,255.696 967.566,258.369 970.41,261.067 973.254,263.901 976.098,266.758 978.941,269.752 981.785,272.77 984.629,275.925 
  987.473,279.104 990.316,282.419 993.16,285.76 996.004,289.238 998.848,292.741 1001.69,296.382 1004.54,300.047 1007.38,303.851 1010.22,307.68 1013.07,311.648 
  1015.91,315.642 1018.75,319.774 1021.6,323.932 1024.44,328.231 1027.29,332.554 1030.13,337.018 1032.97,341.508 1035.82,346.139 1038.66,350.796 1041.5,355.595 
  1044.35,360.42 1047.19,365.387 1050.04,370.38 1052.88,375.516 1055.72,380.679 1058.57,385.985 1061.41,391.318 1064.25,396.795 1067.1,402.299 1069.94,407.947 
  1072.79,413.623 1075.63,419.444 1078.47,425.293 1081.32,431.288 1084.16,437.31 1087,443.48 1089.85,449.677 1092.69,456.022 1095.54,462.395 1098.38,468.916 
  1101.22,475.466 1104.07,482.165 1106.91,488.893 1109.75,495.77 1112.6,502.677 1115.44,509.735 1118.29,516.822 1121.13,524.06 1123.97,531.329 1126.82,538.75 
  1129.66,546.201 1132.5,553.806 1135.35,561.441 1138.19,569.231 1141.04,577.051 1143.88,585.027 1146.72,593.035 1149.57,601.199 1152.41,609.395 1155.25,617.749 
  1158.1,626.134 1160.94,634.68 1163.79,643.257 1166.63,651.995 1169.47,660.766 1172.32,669.699 1175.16,678.666 1178,687.796 1180.85,696.96 1183.69,706.289 
  1186.53,715.652 1189.38,725.182 1192.22,734.748 1195.07,744.481 1197.91,754.251 1200.75,764.19 1203.6,774.167 1206.44,784.316 1209.28,794.502 1212.13,804.862 
  1214.97,815.261 1217.82,825.837 1220.66,836.452 1223.5,847.245 1226.35,858.08 1229.19,869.096 1232.03,880.154 1234.88,891.396 1237.72,902.682 1240.57,914.155 
  1243.41,925.673 1246.25,937.382 1249.1,949.138 1251.94,961.087 1254.78,973.086 1257.63,985.283 1260.47,997.532 1263.32,1009.98 1266.16,1022.49 1269,1035.2 
  1271.85,1047.97 1274.69,1060.96 1277.53,1074 1280.38,1087.27 1283.22,1100.6 1286.07,1114.16 1288.91,1127.78 1291.75,1141.64 1294.6,1155.58 1297.44,1169.76 
  1300.28,1184.01 1303.13,1198.51 1305.97,1213.07 1308.82,1227.88 1311.66,1242.72 1314.5,1257.76 1317.35,1272.73 1320.19,1287.72 1323.03,1302.33 1325.88,1316.4 
  1328.72,1329 1331.57,1338.32 1334.41,1338.6 1337.25,1338.63 1340.1,1338.72 1342.94,1338.73 1345.78,1338.78 1348.63,1338.77 1351.47,1338.8 1354.32,1338.79 
  1357.16,1338.81 1360,1338.79 1362.85,1338.81 1365.69,1338.79 1368.53,1338.81 1371.38,1338.79 1374.22,1338.8 1377.07,1338.78 1379.91,1338.79 1382.75,1338.77 
  1385.6,1338.78 1388.44,1338.76 1391.28,1338.78 1394.13,1338.75 1396.97,1338.77 1399.82,1338.74 1402.66,1338.76 1405.5,1338.73 1408.35,1338.75 1411.19,1338.72 
  1414.03,1338.74 1416.88,1338.71 1419.72,1338.73 1422.57,1338.7 1425.41,1338.72 1428.25,1338.69 1431.1,1338.71 1433.94,1338.68 1436.78,1338.69 1439.63,1338.67 
  1442.47,1338.68 1445.32,1338.66 1448.16,1338.67 1451,1338.64 1453.85,1338.66 1456.69,1338.63 1459.53,1338.64 1462.38,1338.62 1465.22,1338.63 1468.07,1338.6 
  1470.91,1338.61 1473.75,1338.59 1476.6,1338.6 1479.44,1338.58 1482.28,1338.58 1485.13,1338.56 1487.97,1338.56 1490.82,1338.55 1493.66,1338.54 1496.5,1338.53 
  1499.35,1338.51 1502.19,1338.52 1505.03,1338.49 1507.88,1338.5 1510.72,1338.46 1513.57,1338.49 1516.41,1338.44 1519.25,1338.46 1522.1,1338.41 1524.94,1338.43 
  1527.78,1338.28 1530.63,1331.49 1533.47,1321.67 1536.32,1311.81 1539.16,1301.03 1542,1290.55 1544.85,1279.5 1547.69,1268.72 1550.53,1257.58 1553.38,1246.66 
  1556.22,1235.49 1559.07,1224.49 1561.91,1213.34 1564.75,1202.32 1567.6,1191.21 1570.44,1180.2 1573.28,1169.14 1576.13,1158.17 1578.97,1147.18 1581.82,1136.28 
  1584.66,1125.37 1587.5,1114.54 1590.35,1103.73 1593.19,1093 1596.03,1082.3 1598.88,1071.67 1601.72,1061.09 1604.57,1050.58 1607.41,1040.12 1610.25,1029.75 
  1613.1,1019.42 1615.94,1009.19 1618.78,999.008 1621.63,988.921 1624.47,978.886 1627.32,968.952 1630.16,959.072 1633,949.296 1635.85,939.576 1638.69,929.964 
  1641.53,920.409 1644.38,910.965 1647.22,901.579 1650.07,892.307 1652.91,883.093 1655.75,873.997 1658.6,864.958 1661.44,856.04 1664.28,847.18 1667.13,838.442 
  1669.97,829.763 1672.82,821.209 1675.66,812.713 1678.5,804.345 1681.35,796.033 1684.19,787.852 1687.03,779.728 1689.88,771.735 1692.72,763.799 1695.57,755.997 
  1698.41,748.251 1701.25,740.641 1704.1,733.085 1706.94,725.668 1709.78,718.305 1712.63,711.08 1715.47,703.91 1718.32,696.881 1721.16,689.905 1724,683.071 
  1726.85,676.29 1729.69,669.652 1732.53,663.066 1735.38,656.624 1738.22,650.235 1741.07,643.991 1743.91,637.798 1746.75,631.751 1749.6,625.756 1752.44,619.907 
  1755.28,614.109 1758.13,608.459 1760.97,602.859 1763.82,597.408 1766.66,592.006 1769.5,586.754 1772.35,581.551 1775.19,576.498 1778.03,571.494 1780.88,566.641 
  1783.72,561.836 1786.57,557.182 1789.41,552.577 1792.25,548.123 1795.1,543.717 1797.94,539.463 1800.78,535.257 1803.63,531.203 1806.47,527.196 1809.32,523.343 
  1812.16,519.536 1815,515.882 1817.85,512.276 1820.69,508.822 1823.53,505.416 1826.38,502.163 1829.22,498.956 1832.07,495.903 1834.91,492.897 1837.75,490.045 
  1840.6,487.238 1843.44,484.586 1846.28,481.979 1849.13,479.528 1851.97,477.121 1854.82,474.87 1857.66,472.663 1860.5,470.612 1863.35,468.605 1866.19,466.754 
  1869.03,464.948 1871.88,463.297 1874.72,461.69 1877.57,460.239 1880.41,458.832 1883.25,457.581 1886.1,456.374 1888.94,455.323 1891.78,454.315 1894.63,453.464 
  1897.47,452.656 1900.32,452.004 1903.16,451.395 1906,450.943 1908.85,450.534 1911.69,450.281 1914.53,450.071 1917.38,450.018 1920.22,450.007 1923.07,450.153 
  1925.91,450.341 1928.75,450.686 1931.6,451.074 1934.44,451.617 1937.28,452.203 1940.13,452.946 1942.97,453.731 1945.82,454.673 1948.66,455.656 1951.5,456.796 
  1954.35,457.977 1957.19,459.316 1960.03,460.696 1962.88,462.233 1965.72,463.811 1968.57,465.546 1971.41,467.322 1974.25,469.255 1977.1,471.229 1979.94,473.36 
  1982.78,475.532 1985.63,477.86 1988.47,480.23 1991.32,482.756 1994.16,485.322 1997,488.046 1999.85,490.81 2002.69,493.731 2005.53,496.692 2008.38,499.81 
  2011.22,502.968 2014.07,506.283 2016.91,509.638 2019.75,513.15 2022.6,516.701 2025.44,520.41 2028.28,524.158 2031.13,528.063 2033.97,532.007 2036.82,536.109 
  2039.66,540.249 2042.5,544.547 2045.35,548.883 2048.19,553.377 2051.03,557.909 2053.88,562.599 2056.72,567.327 2059.57,572.212 2062.41,577.136 2065.25,582.217 
  2068.1,587.335 2070.94,592.612 2073.78,597.926 2076.63,603.398 2079.47,608.907 2082.32,614.574 2085.16,620.278 2088,626.14 2090.85,632.038 2093.69,638.095 
  2096.53,644.188 2099.38,650.44 2102.22,656.727 2105.07,663.173 2107.91,669.655 2110.75,676.296 2113.6,682.972 2116.44,689.806 2119.28,696.676 2122.13,703.705 
  2124.97,710.769 2127.82,717.992 2130.66,725.249 2133.5,732.666 2136.35,740.117 2139.19,747.727 2142.03,755.372 2144.88,763.175 2147.72,771.013 2150.57,779.01 
  2153.41,787.041 2156.25,795.232 2159.1,803.456 2161.94,811.839 2164.78,820.256 2167.63,828.833 2170.47,837.443 2173.32,846.212 2176.16,855.014 2179,863.977 
  2181.85,872.972 2184.69,882.126 2187.53,891.314 2190.38,900.661 2193.22,910.041 2196.07,919.581 2198.91,929.153 2201.75,938.885 2204.6,948.65 2207.44,958.574 
  2210.28,968.531 2213.13,978.647 2215.97,988.796 2218.82,999.105 2221.66,1009.45 2224.5,1019.95 2227.35,1030.48 2230.19,1041.17 2233.03,1051.9 2235.88,1062.78 
  2238.72,1073.7 2241.57,1084.77 2244.41,1095.88 2247.25,1107.15 2250.1,1118.45 2252.94,1129.91 2255.78,1141.4 2258.63,1153.06 2261.47,1164.74 2264.32,1176.59 
  2267.16,1188.46 2270,1200.5 2272.85,1212.56 2275.69,1224.79 2278.53,1237.05 2281.38,1249.47 2284.22,1261.91 2287.07,1274.52 2289.91,1287.15 2292.75,1299.94 
  2295.6,1312.72 2298.44,1325.6 2301.28,1338.07 2304.13,1338.37 2306.97,1338.37 2309.82,1338.38 2312.66,1338.37 2315.5,1338.38 2318.35,1338.37 2321.19,1338.38 
  2324.03,1338.37 2326.88,1338.38 2329.72,1338.37 2332.57,1338.38 2335.41,1338.37 2338.25,1338.38 2341.1,1338.37 2343.94,1338.38 2346.78,1338.37 2349.63,1338.38 
  2352.47,1338.37 2355.32,1338.38 2358.16,1338.37 2361,1338.38 2363.85,1338.37 2366.69,1338.38 2369.53,1338.37 2372.38,1338.38 2375.22,1338.37 2378.07,1338.38 
  2380.91,1338.37 2383.75,1338.38 2386.6,1338.37 2389.44,1338.38 2392.28,1338.37 2395.13,1338.38 2397.97,1338.37 2400.82,1338.38 2403.66,1338.37 2406.5,1338.38 
  2409.35,1338.37 2412.19,1338.38 2415.03,1338.37 2417.88,1338.38 2420.72,1338.37 2423.57,1338.38 2426.41,1338.37 2429.25,1338.38 2432.1,1338.37 2434.94,1338.38 
  2437.78,1338.37 2440.63,1338.38 2443.47,1338.37 2446.32,1338.38 2449.16,1338.37 2452,1338.38 2454.85,1338.37 2457.69,1338.38 2460.53,1338.37 2463.38,1338.38 
  2466.22,1338.37 2469.07,1338.38 2471.91,1338.37 2474.75,1338.38 2477.6,1338.37 2480.44,1338.38 2483.28,1338.37 2486.13,1338.38 2488.97,1338.37 2491.82,1338.38 
  2494.66,1338.37 2497.5,1338.38 2500.35,1338.37 2503.19,1338.38 2506.03,1338.37 2508.88,1338.38 2511.72,1338.37 2514.57,1338.38 2517.41,1338.37 2520.25,1338.38 
  2523.1,1338.37 2525.94,1338.38 2528.78,1338.37 2531.63,1338.38 2534.47,1338.37 2537.32,1338.38 2540.16,1338.37 2543,1338.38 2545.85,1338.37 2548.69,1338.38 
  2551.53,1338.37 2554.38,1338.38 2557.22,1338.37 2560.07,1338.38 2562.91,1338.37 2565.75,1338.38 2568.6,1338.37 2571.44,1338.38 2574.28,1338.37 2577.13,1338.37 
  2579.97,1338.37 2582.82,1338.37 2585.66,1338.37 2588.5,1338.37 2591.35,1338.37 2594.19,1338.37 2597.03,1338.37 2599.88,1338.37 2602.72,1338.37 2605.57,1338.37 
  2608.41,1338.37 2611.25,1338.37 2614.1,1338.37 2616.94,1338.37 2619.78,1338.37 2622.63,1338.37 2625.47,1338.37 2628.32,1338.37 2631.16,1338.37 2634,1338.37 
  2636.85,1338.37 2639.69,1338.37 2642.53,1338.37 2645.38,1338.37 2648.22,1338.37 2651.07,1338.37 2653.91,1338.37 2656.75,1338.37 2659.6,1338.37 2662.44,1338.37 
  2665.28,1338.37 2668.13,1338.37 2670.97,1338.37 2673.82,1338.37 2676.66,1338.37 2679.5,1338.37 2682.35,1338.37 2685.19,1338.37 2688.03,1338.37 2690.88,1338.37 
  2693.72,1338.37 2696.56,1338.37 2699.41,1338.37 2702.25,1338.37 2705.1,1338.37 2707.94,1338.37 2710.78,1338.37 2713.63,1338.37 2716.47,1338.37 2719.31,1338.37 
  2722.16,1338.37 2725,1338.37 2727.85,1338.37 2730.69,1338.37 2733.53,1338.37 2736.38,1338.37 2739.22,1338.37 2742.06,1338.37 2744.91,1338.37 2747.75,1338.37 
  2750.6,1338.37 2753.44,1338.37 2756.28,1338.37 2759.13,1338.37 2761.97,1338.37 2764.81,1338.37 2767.66,1338.37 2770.5,1338.37 2773.35,1338.37 2776.19,1338.37 
  2779.03,1338.37 2781.88,1338.37 2784.72,1338.37 2787.56,1338.37 
  "/>
<path clip-path="url(#clip592)" d="M333.411 1306.37 L301.411 1370.37 L365.411 1370.37 L333.411 1306.37 Z" fill="#e26f46" fill-rule="evenodd" fill-opacity="0.6" stroke="#808080" stroke-opacity="0.6" stroke-width="0"/>
<path clip-path="url(#clip592)" d="M447.161 965.865 L415.161 1029.86 L479.161 1029.86 L447.161 965.865 Z" fill="#e26f46" fill-rule="evenodd" fill-opacity="0.6" stroke="#808080" stroke-opacity="0.6" stroke-width="0"/>
<path clip-path="url(#clip592)" d="M560.911 604.649 L528.911 668.649 L592.911 668.649 L560.911 604.649 Z" fill="#e26f46" fill-rule="evenodd" fill-opacity="0.6" stroke="#808080" stroke-opacity="0.6" stroke-width="0"/>
<path clip-path="url(#clip592)" d="M674.66 351.563 L642.66 415.563 L706.66 415.563 L674.66 351.563 Z" fill="#e26f46" fill-rule="evenodd" fill-opacity="0.6" stroke="#808080" stroke-opacity="0.6" stroke-width="0"/>
<path clip-path="url(#clip592)" d="M788.41 210.173 L756.41 274.173 L820.41 274.173 L788.41 210.173 Z" fill="#e26f46" fill-rule="evenodd" fill-opacity="0.6" stroke="#808080" stroke-opacity="0.6" stroke-width="0"/>
<path clip-path="url(#clip592)" d="M902.16 185.381 L870.16 249.381 L934.16 249.381 L902.16 185.381 Z" fill="#e26f46" fill-rule="evenodd" fill-opacity="0.6" stroke="#808080" stroke-opacity="0.6" stroke-width="0"/>
<path clip-path="url(#clip592)" d="M1015.91 283.642 L983.91 347.642 L1047.91 347.642 L1015.91 283.642 Z" fill="#e26f46" fill-rule="evenodd" fill-opacity="0.6" stroke="#808080" stroke-opacity="0.6" stroke-width="0"/>
<path clip-path="url(#clip592)" d="M1129.66 514.201 L1097.66 578.201 L1161.66 578.201 L1129.66 514.201 Z" fill="#e26f46" fill-rule="evenodd" fill-opacity="0.6" stroke="#808080" stroke-opacity="0.6" stroke-width="0"/>
<path clip-path="url(#clip592)" d="M1243.41 893.673 L1211.41 957.673 L1275.41 957.673 L1243.41 893.673 Z" fill="#e26f46" fill-rule="evenodd" fill-opacity="0.6" stroke="#808080" stroke-opacity="0.6" stroke-width="0"/>
<path clip-path="url(#clip592)" d="M1357.16 1306.81 L1325.16 1370.81 L1389.16 1370.81 L1357.16 1306.81 Z" fill="#e26f46" fill-rule="evenodd" fill-opacity="0.6" stroke="#808080" stroke-opacity="0.6" stroke-width="0"/>
<path clip-path="url(#clip592)" d="M1470.91 1306.61 L1438.91 1370.61 L1502.91 1370.61 L1470.91 1306.61 Z" fill="#e26f46" fill-rule="evenodd" fill-opacity="0.6" stroke="#808080" stroke-opacity="0.6" stroke-width="0"/>
<path clip-path="url(#clip592)" d="M1584.66 1093.37 L1552.66 1157.37 L1616.66 1157.37 L1584.66 1093.37 Z" fill="#e26f46" fill-rule="evenodd" fill-opacity="0.6" stroke="#808080" stroke-opacity="0.6" stroke-width="0"/>
<path clip-path="url(#clip592)" d="M1698.41 716.251 L1666.41 780.251 L1730.41 780.251 L1698.41 716.251 Z" fill="#e26f46" fill-rule="evenodd" fill-opacity="0.6" stroke="#808080" stroke-opacity="0.6" stroke-width="0"/>
<path clip-path="url(#clip592)" d="M1812.16 487.536 L1780.16 551.536 L1844.16 551.536 L1812.16 487.536 Z" fill="#e26f46" fill-rule="evenodd" fill-opacity="0.6" stroke="#808080" stroke-opacity="0.6" stroke-width="0"/>
<path clip-path="url(#clip592)" d="M1925.91 418.341 L1893.91 482.341 L1957.91 482.341 L1925.91 418.341 Z" fill="#e26f46" fill-rule="evenodd" fill-opacity="0.6" stroke="#808080" stroke-opacity="0.6" stroke-width="0"/>
<path clip-path="url(#clip592)" d="M2039.66 508.249 L2007.66 572.249 L2071.66 572.249 L2039.66 508.249 Z" fill="#e26f46" fill-rule="evenodd" fill-opacity="0.6" stroke="#808080" stroke-opacity="0.6" stroke-width="0"/>
<path clip-path="url(#clip592)" d="M2153.41 755.041 L2121.41 819.041 L2185.41 819.041 L2153.41 755.041 Z" fill="#e26f46" fill-rule="evenodd" fill-opacity="0.6" stroke="#808080" stroke-opacity="0.6" stroke-width="0"/>
<path clip-path="url(#clip592)" d="M2267.16 1156.46 L2235.16 1220.46 L2299.16 1220.46 L2267.16 1156.46 Z" fill="#e26f46" fill-rule="evenodd" fill-opacity="0.6" stroke="#808080" stroke-opacity="0.6" stroke-width="0"/>
<path clip-path="url(#clip590)" d="M2238.75 94.6765 Q2229.44 110.649 2224.93 126.274 Q2220.41 141.898 2220.41 157.94 Q2220.41 173.982 2224.93 189.745 Q2229.51 205.44 2238.75 221.342 L2227.64 221.342 Q2217.22 205.023 2212.01 189.259 Q2206.87 173.495 2206.87 157.94 Q2206.87 142.454 2212.01 126.76 Q2217.15 111.065 2227.64 94.6765 L2238.75 94.6765 Z" fill="#000000" fill-rule="evenodd" fill-opacity="1" /><path clip-path="url(#clip590)" d="M2319.37 163.773 Q2319.37 149.676 2313.54 141.69 Q2307.77 133.635 2297.64 133.635 Q2287.5 133.635 2281.66 141.69 Q2275.9 149.676 2275.9 163.773 Q2275.9 177.87 2281.66 185.926 Q2287.5 193.912 2297.64 193.912 Q2307.77 193.912 2313.54 185.926 Q2319.37 177.87 2319.37 163.773 M2275.9 136.621 Q2279.93 129.676 2286.04 126.343 Q2292.22 122.94 2300.76 122.94 Q2314.93 122.94 2323.75 134.19 Q2332.63 145.44 2332.63 163.773 Q2332.63 182.107 2323.75 193.356 Q2314.93 204.606 2300.76 204.606 Q2292.22 204.606 2286.04 201.273 Q2279.93 197.87 2275.9 190.926 L2275.9 202.593 L2263.05 202.593 L2263.05 94.5376 L2275.9 94.5376 L2275.9 136.621 Z" fill="#000000" fill-rule="evenodd" fill-opacity="1" /><path clip-path="url(#clip590)" d="M2351.8 94.6765 L2362.91 94.6765 Q2373.33 111.065 2378.47 126.76 Q2383.68 142.454 2383.68 157.94 Q2383.68 173.495 2378.47 189.259 Q2373.33 205.023 2362.91 221.342 L2351.8 221.342 Q2361.04 205.44 2365.55 189.745 Q2370.13 173.982 2370.13 157.94 Q2370.13 141.898 2365.55 126.274 Q2361.04 110.649 2351.8 94.6765 Z" fill="#000000" fill-rule="evenodd" fill-opacity="1" /></svg>
