<?xml version="1.0" encoding="utf-8"?>
<svg xmlns="http://www.w3.org/2000/svg" xmlns:xlink="http://www.w3.org/1999/xlink" width="600" height="400" viewBox="0 0 2400 1600">
<defs>
  <clipPath id="clip630">
    <rect x="0" y="0" width="2400" height="1600"/>
  </clipPath>
</defs>
<path clip-path="url(#clip630)" d="
M0 1600 L2400 1600 L2400 0 L0 0  Z
  " fill="#ffffff" fill-rule="evenodd" fill-opacity="1"/>
<defs>
  <clipPath id="clip631">
    <rect x="480" y="0" width="1681" height="1600"/>
  </clipPath>
</defs>
<path clip-path="url(#clip630)" d="
M310.376 1341.1 L2352.76 1341.1 L2352.76 47.2441 L310.376 47.2441  Z
  " fill="#ffffff" fill-rule="evenodd" fill-opacity="1"/>
<defs>
  <clipPath id="clip632">
    <rect x="310" y="47" width="2043" height="1295"/>
  </clipPath>
</defs>
<polyline clip-path="url(#clip630)" style="stroke:#000000; stroke-linecap:butt; stroke-linejoin:round; stroke-width:4; stroke-opacity:1; fill:none" points="
  310.376,1341.1 2352.76,1341.1 
  "/>
<polyline clip-path="url(#clip630)" style="stroke:#000000; stroke-linecap:butt; stroke-linejoin:round; stroke-width:4; stroke-opacity:1; fill:none" points="
  359.004,1341.1 359.004,1322.2 
  "/>
<polyline clip-path="url(#clip630)" style="stroke:#000000; stroke-linecap:butt; stroke-linejoin:round; stroke-width:4; stroke-opacity:1; fill:none" points="
  845.285,1341.1 845.285,1322.2 
  "/>
<polyline clip-path="url(#clip630)" style="stroke:#000000; stroke-linecap:butt; stroke-linejoin:round; stroke-width:4; stroke-opacity:1; fill:none" points="
  1331.57,1341.1 1331.57,1322.2 
  "/>
<polyline clip-path="url(#clip630)" style="stroke:#000000; stroke-linecap:butt; stroke-linejoin:round; stroke-width:4; stroke-opacity:1; fill:none" points="
  1817.85,1341.1 1817.85,1322.2 
  "/>
<polyline clip-path="url(#clip630)" style="stroke:#000000; stroke-linecap:butt; stroke-linejoin:round; stroke-width:4; stroke-opacity:1; fill:none" points="
  2304.13,1341.1 2304.13,1322.2 
  "/>
<path clip-path="url(#clip630)" d="M291.375 1419.64 L358.145 1419.64 L358.145 1428.49 L291.375 1428.49 L291.375 1419.64 Z" fill="#000000" fill-rule="evenodd" fill-opacity="1" /><path clip-path="url(#clip630)" d="M389.916 1448.65 L426.634 1448.65 L426.634 1457.5 L377.26 1457.5 L377.26 1448.65 Q383.249 1442.45 393.562 1432.03 Q403.926 1421.56 406.582 1418.54 Q411.634 1412.86 413.614 1408.96 Q415.645 1405 415.645 1401.2 Q415.645 1395 411.27 1391.09 Q406.947 1387.19 399.968 1387.19 Q395.02 1387.19 389.499 1388.91 Q384.03 1390.63 377.78 1394.11 L377.78 1383.49 Q384.135 1380.94 389.655 1379.64 Q395.176 1378.33 399.759 1378.33 Q411.843 1378.33 419.03 1384.38 Q426.218 1390.42 426.218 1400.52 Q426.218 1405.31 424.395 1409.64 Q422.624 1413.91 417.884 1419.74 Q416.582 1421.25 409.603 1428.49 Q402.624 1435.68 389.916 1448.65 Z" fill="#000000" fill-rule="evenodd" fill-opacity="1" /><path clip-path="url(#clip630)" d="M777.239 1419.64 L844.009 1419.64 L844.009 1428.49 L777.239 1428.49 L777.239 1419.64 Z" fill="#000000" fill-rule="evenodd" fill-opacity="1" /><path clip-path="url(#clip630)" d="M868.54 1448.65 L885.728 1448.65 L885.728 1389.32 L867.03 1393.07 L867.03 1383.49 L885.624 1379.74 L896.144 1379.74 L896.144 1448.65 L913.332 1448.65 L913.332 1457.5 L868.54 1457.5 L868.54 1448.65 Z" fill="#000000" fill-rule="evenodd" fill-opacity="1" /><path clip-path="url(#clip630)" d="M1331.57 1386.67 Q1323.44 1386.67 1319.33 1394.69 Q1315.26 1402.66 1315.26 1418.7 Q1315.26 1434.69 1319.33 1442.71 Q1323.44 1450.68 1331.57 1450.68 Q1339.74 1450.68 1343.81 1442.71 Q1347.92 1434.69 1347.92 1418.7 Q1347.92 1402.66 1343.81 1394.69 Q1339.74 1386.67 1331.57 1386.67 M1331.57 1378.33 Q1344.64 1378.33 1351.51 1388.7 Q1358.44 1399.01 1358.44 1418.7 Q1358.44 1438.33 1351.51 1448.7 Q1344.64 1459.01 1331.57 1459.01 Q1318.49 1459.01 1311.57 1448.7 Q1304.69 1438.33 1304.69 1418.7 Q1304.69 1399.01 1311.57 1388.7 Q1318.49 1378.33 1331.57 1378.33 Z" fill="#000000" fill-rule="evenodd" fill-opacity="1" /><path clip-path="url(#clip630)" d="M1796.21 1448.65 L1813.39 1448.65 L1813.39 1389.32 L1794.7 1393.07 L1794.7 1383.49 L1813.29 1379.74 L1823.81 1379.74 L1823.81 1448.65 L1841 1448.65 L1841 1457.5 L1796.21 1457.5 L1796.21 1448.65 Z" fill="#000000" fill-rule="evenodd" fill-opacity="1" /><path clip-path="url(#clip630)" d="M2292.1 1448.65 L2328.82 1448.65 L2328.82 1457.5 L2279.44 1457.5 L2279.44 1448.65 Q2285.43 1442.45 2295.74 1432.03 Q2306.11 1421.56 2308.76 1418.54 Q2313.82 1412.86 2315.79 1408.96 Q2317.83 1405 2317.83 1401.2 Q2317.83 1395 2313.45 1391.09 Q2309.13 1387.19 2302.15 1387.19 Q2297.2 1387.19 2291.68 1388.91 Q2286.21 1390.63 2279.96 1394.11 L2279.96 1383.49 Q2286.32 1380.94 2291.84 1379.64 Q2297.36 1378.33 2301.94 1378.33 Q2314.02 1378.33 2321.21 1384.38 Q2328.4 1390.42 2328.4 1400.52 Q2328.4 1405.31 2326.58 1409.64 Q2324.8 1413.91 2320.07 1419.74 Q2318.76 1421.25 2311.78 1428.49 Q2304.8 1435.68 2292.1 1448.65 Z" fill="#000000" fill-rule="evenodd" fill-opacity="1" /><path clip-path="url(#clip630)" d="M1276.99 1532.61 L1253.56 1564.14 L1278.21 1597.42 L1265.65 1597.42 L1246.79 1571.96 L1227.92 1597.42 L1215.36 1597.42 L1240.54 1563.51 L1217.5 1532.61 L1230.06 1532.61 L1247.25 1555.7 L1264.44 1532.61 L1276.99 1532.61 Z" fill="#000000" fill-rule="evenodd" fill-opacity="1" /><path clip-path="url(#clip630)" d="M1312.18 1511.02 L1322.02 1511.02 L1291.93 1608.42 L1282.09 1608.42 L1312.18 1511.02 Z" fill="#000000" fill-rule="evenodd" fill-opacity="1" /><path clip-path="url(#clip630)" d="M1374.62 1556.91 Q1378.38 1558.18 1381.91 1562.35 Q1385.5 1566.52 1389.09 1573.81 L1400.95 1597.42 L1388.39 1597.42 L1377.34 1575.26 Q1373.06 1566.58 1369.01 1563.74 Q1365.02 1560.9 1358.07 1560.9 L1345.34 1560.9 L1345.34 1597.42 L1333.65 1597.42 L1333.65 1511.02 L1360.04 1511.02 Q1374.85 1511.02 1382.14 1517.21 Q1389.44 1523.4 1389.44 1535.9 Q1389.44 1544.06 1385.62 1549.45 Q1381.86 1554.83 1374.62 1556.91 M1345.34 1520.63 L1345.34 1551.3 L1360.04 1551.3 Q1368.49 1551.3 1372.77 1547.42 Q1377.11 1543.48 1377.11 1535.9 Q1377.11 1528.32 1372.77 1524.5 Q1368.49 1520.63 1360.04 1520.63 L1345.34 1520.63 Z" fill="#000000" fill-rule="evenodd" fill-opacity="1" /><path clip-path="url(#clip630)" d="M1437.35 1558.24 Q1434.46 1553.26 1428.61 1553.26 Q1422.77 1553.26 1419.88 1558.24 Q1416.92 1563.22 1416.92 1573.17 Q1416.92 1583.18 1419.88 1588.16 Q1422.77 1593.14 1428.61 1593.14 Q1434.46 1593.14 1437.35 1588.16 Q1440.3 1583.18 1440.3 1573.17 Q1440.3 1563.22 1437.35 1558.24 M1428.61 1548.11 Q1437.93 1548.11 1442.85 1554.54 Q1447.77 1560.96 1447.77 1573.17 Q1447.77 1585.44 1442.85 1591.86 Q1437.93 1598.29 1428.61 1598.29 Q1419.24 1598.29 1414.32 1591.86 Q1409.4 1585.44 1409.4 1573.17 Q1409.4 1560.96 1414.32 1554.54 Q1419.24 1548.11 1428.61 1548.11 Z" fill="#000000" fill-rule="evenodd" fill-opacity="1" /><polyline clip-path="url(#clip630)" style="stroke:#000000; stroke-linecap:butt; stroke-linejoin:round; stroke-width:4; stroke-opacity:1; fill:none" points="
  310.376,1341.1 310.376,47.2441 
  "/>
<polyline clip-path="url(#clip630)" style="stroke:#000000; stroke-linecap:butt; stroke-linejoin:round; stroke-width:4; stroke-opacity:1; fill:none" points="
  310.376,1341.1 329.274,1341.1 
  "/>
<polyline clip-path="url(#clip630)" style="stroke:#000000; stroke-linecap:butt; stroke-linejoin:round; stroke-width:4; stroke-opacity:1; fill:none" points="
  310.376,1082.33 329.274,1082.33 
  "/>
<polyline clip-path="url(#clip630)" style="stroke:#000000; stroke-linecap:butt; stroke-linejoin:round; stroke-width:4; stroke-opacity:1; fill:none" points="
  310.376,823.558 329.274,823.558 
  "/>
<polyline clip-path="url(#clip630)" style="stroke:#000000; stroke-linecap:butt; stroke-linejoin:round; stroke-width:4; stroke-opacity:1; fill:none" points="
  310.376,564.786 329.274,564.786 
  "/>
<polyline clip-path="url(#clip630)" style="stroke:#000000; stroke-linecap:butt; stroke-linejoin:round; stroke-width:4; stroke-opacity:1; fill:none" points="
  310.376,306.015 329.274,306.015 
  "/>
<polyline clip-path="url(#clip630)" style="stroke:#000000; stroke-linecap:butt; stroke-linejoin:round; stroke-width:4; stroke-opacity:1; fill:none" points="
  310.376,47.2441 329.274,47.2441 
  "/>
<path clip-path="url(#clip630)" d="M77.867 1309.15 Q69.742 1309.15 65.6275 1317.17 Q61.565 1325.14 61.565 1341.18 Q61.565 1357.17 65.6275 1365.19 Q69.742 1373.16 77.867 1373.16 Q86.044 1373.16 90.1065 1365.19 Q94.2211 1357.17 94.2211 1341.18 Q94.2211 1325.14 90.1065 1317.17 Q86.044 1309.15 77.867 1309.15 M77.867 1300.81 Q90.9398 1300.81 97.8148 1311.18 Q104.742 1321.49 104.742 1341.18 Q104.742 1360.81 97.8148 1371.18 Q90.9398 1381.49 77.867 1381.49 Q64.7941 1381.49 57.8671 1371.18 Q50.9921 1360.81 50.9921 1341.18 Q50.9921 1321.49 57.8671 1311.18 Q64.7941 1300.81 77.867 1300.81 Z" fill="#000000" fill-rule="evenodd" fill-opacity="1" /><path clip-path="url(#clip630)" d="M123.231 1366.75 L134.221 1366.75 L134.221 1379.98 L123.231 1379.98 L123.231 1366.75 Z" fill="#000000" fill-rule="evenodd" fill-opacity="1" /><path clip-path="url(#clip630)" d="M179.637 1309.15 Q171.512 1309.15 167.398 1317.17 Q163.335 1325.14 163.335 1341.18 Q163.335 1357.17 167.398 1365.19 Q171.512 1373.16 179.637 1373.16 Q187.814 1373.16 191.877 1365.19 Q195.991 1357.17 195.991 1341.18 Q195.991 1325.14 191.877 1317.17 Q187.814 1309.15 179.637 1309.15 M179.637 1300.81 Q192.71 1300.81 199.585 1311.18 Q206.512 1321.49 206.512 1341.18 Q206.512 1360.81 199.585 1371.18 Q192.71 1381.49 179.637 1381.49 Q166.564 1381.49 159.637 1371.18 Q152.762 1360.81 152.762 1341.18 Q152.762 1321.49 159.637 1311.18 Q166.564 1300.81 179.637 1300.81 Z" fill="#000000" fill-rule="evenodd" fill-opacity="1" /><path clip-path="url(#clip630)" d="M247.501 1309.15 Q239.377 1309.15 235.262 1317.17 Q231.199 1325.14 231.199 1341.18 Q231.199 1357.17 235.262 1365.19 Q239.377 1373.16 247.501 1373.16 Q255.679 1373.16 259.741 1365.19 Q263.856 1357.17 263.856 1341.18 Q263.856 1325.14 259.741 1317.17 Q255.679 1309.15 247.501 1309.15 M247.501 1300.81 Q260.574 1300.81 267.449 1311.18 Q274.376 1321.49 274.376 1341.18 Q274.376 1360.81 267.449 1371.18 Q260.574 1381.49 247.501 1381.49 Q234.429 1381.49 227.502 1371.18 Q220.627 1360.81 220.627 1341.18 Q220.627 1321.49 227.502 1311.18 Q234.429 1300.81 247.501 1300.81 Z" fill="#000000" fill-rule="evenodd" fill-opacity="1" /><path clip-path="url(#clip630)" d="M80.1066 1050.38 Q71.9816 1050.38 67.867 1058.4 Q63.8046 1066.37 63.8046 1082.41 Q63.8046 1098.4 67.867 1106.42 Q71.9816 1114.39 80.1066 1114.39 Q88.2836 1114.39 92.3461 1106.42 Q96.4606 1098.4 96.4606 1082.41 Q96.4606 1066.37 92.3461 1058.4 Q88.2836 1050.38 80.1066 1050.38 M80.1066 1042.04 Q93.1794 1042.04 100.054 1052.41 Q106.981 1062.72 106.981 1082.41 Q106.981 1102.04 100.054 1112.41 Q93.1794 1122.72 80.1066 1122.72 Q67.0337 1122.72 60.1067 1112.41 Q53.2317 1102.04 53.2317 1082.41 Q53.2317 1062.72 60.1067 1052.41 Q67.0337 1042.04 80.1066 1042.04 Z" fill="#000000" fill-rule="evenodd" fill-opacity="1" /><path clip-path="url(#clip630)" d="M125.471 1107.98 L136.46 1107.98 L136.46 1121.21 L125.471 1121.21 L125.471 1107.98 Z" fill="#000000" fill-rule="evenodd" fill-opacity="1" /><path clip-path="url(#clip630)" d="M181.877 1050.38 Q173.752 1050.38 169.637 1058.4 Q165.575 1066.37 165.575 1082.41 Q165.575 1098.4 169.637 1106.42 Q173.752 1114.39 181.877 1114.39 Q190.054 1114.39 194.116 1106.42 Q198.231 1098.4 198.231 1082.41 Q198.231 1066.37 194.116 1058.4 Q190.054 1050.38 181.877 1050.38 M181.877 1042.04 Q194.95 1042.04 201.825 1052.41 Q208.752 1062.72 208.752 1082.41 Q208.752 1102.04 201.825 1112.41 Q194.95 1122.72 181.877 1122.72 Q168.804 1122.72 161.877 1112.41 Q155.002 1102.04 155.002 1082.41 Q155.002 1062.72 161.877 1052.41 Q168.804 1042.04 181.877 1042.04 Z" fill="#000000" fill-rule="evenodd" fill-opacity="1" /><path clip-path="url(#clip630)" d="M227.345 1043.45 L268.647 1043.45 L268.647 1052.3 L236.981 1052.3 L236.981 1071.37 Q239.272 1070.58 241.564 1070.22 Q243.856 1069.8 246.147 1069.8 Q259.168 1069.8 266.772 1076.94 Q274.376 1084.07 274.376 1096.26 Q274.376 1108.81 266.564 1115.79 Q258.751 1122.72 244.533 1122.72 Q239.637 1122.72 234.533 1121.89 Q229.481 1121.05 224.064 1119.39 L224.064 1108.81 Q228.752 1111.36 233.752 1112.61 Q238.752 1113.86 244.324 1113.86 Q253.335 1113.86 258.595 1109.13 Q263.856 1104.39 263.856 1096.26 Q263.856 1088.14 258.595 1083.4 Q253.335 1078.66 244.324 1078.66 Q240.106 1078.66 235.887 1079.59 Q231.72 1080.53 227.345 1082.51 L227.345 1043.45 Z" fill="#000000" fill-rule="evenodd" fill-opacity="1" /><path clip-path="url(#clip630)" d="M77.867 791.605 Q69.742 791.605 65.6275 799.625 Q61.565 807.594 61.565 823.636 Q61.565 839.625 65.6275 847.646 Q69.742 855.615 77.867 855.615 Q86.044 855.615 90.1065 847.646 Q94.2211 839.625 94.2211 823.636 Q94.2211 807.594 90.1065 799.625 Q86.044 791.605 77.867 791.605 M77.867 783.271 Q90.9398 783.271 97.8148 793.636 Q104.742 803.948 104.742 823.636 Q104.742 843.271 97.8148 853.636 Q90.9398 863.948 77.867 863.948 Q64.7941 863.948 57.8671 853.636 Q50.9921 843.271 50.9921 823.636 Q50.9921 803.948 57.8671 793.636 Q64.7941 783.271 77.867 783.271 Z" fill="#000000" fill-rule="evenodd" fill-opacity="1" /><path clip-path="url(#clip630)" d="M123.231 849.208 L134.221 849.208 L134.221 862.438 L123.231 862.438 L123.231 849.208 Z" fill="#000000" fill-rule="evenodd" fill-opacity="1" /><path clip-path="url(#clip630)" d="M158.96 853.583 L176.148 853.583 L176.148 794.261 L157.45 798.011 L157.45 788.428 L176.044 784.678 L186.564 784.678 L186.564 853.583 L203.752 853.583 L203.752 862.438 L158.96 862.438 L158.96 853.583 Z" fill="#000000" fill-rule="evenodd" fill-opacity="1" /><path clip-path="url(#clip630)" d="M247.501 791.605 Q239.377 791.605 235.262 799.625 Q231.199 807.594 231.199 823.636 Q231.199 839.625 235.262 847.646 Q239.377 855.615 247.501 855.615 Q255.679 855.615 259.741 847.646 Q263.856 839.625 263.856 823.636 Q263.856 807.594 259.741 799.625 Q255.679 791.605 247.501 791.605 M247.501 783.271 Q260.574 783.271 267.449 793.636 Q274.376 803.948 274.376 823.636 Q274.376 843.271 267.449 853.636 Q260.574 863.948 247.501 863.948 Q234.429 863.948 227.502 853.636 Q220.627 843.271 220.627 823.636 Q220.627 803.948 227.502 793.636 Q234.429 783.271 247.501 783.271 Z" fill="#000000" fill-rule="evenodd" fill-opacity="1" /><path clip-path="url(#clip630)" d="M80.1066 532.833 Q71.9816 532.833 67.867 540.854 Q63.8046 548.823 63.8046 564.865 Q63.8046 580.854 67.867 588.875 Q71.9816 596.844 80.1066 596.844 Q88.2836 596.844 92.3461 588.875 Q96.4606 580.854 96.4606 564.865 Q96.4606 548.823 92.3461 540.854 Q88.2836 532.833 80.1066 532.833 M80.1066 524.5 Q93.1794 524.5 100.054 534.865 Q106.981 545.177 106.981 564.865 Q106.981 584.5 100.054 594.864 Q93.1794 605.177 80.1066 605.177 Q67.0337 605.177 60.1067 594.864 Q53.2317 584.5 53.2317 564.865 Q53.2317 545.177 60.1067 534.865 Q67.0337 524.5 80.1066 524.5 Z" fill="#000000" fill-rule="evenodd" fill-opacity="1" /><path clip-path="url(#clip630)" d="M125.471 590.437 L136.46 590.437 L136.46 603.666 L125.471 603.666 L125.471 590.437 Z" fill="#000000" fill-rule="evenodd" fill-opacity="1" /><path clip-path="url(#clip630)" d="M161.2 594.812 L178.387 594.812 L178.387 535.49 L159.689 539.24 L159.689 529.656 L178.283 525.906 L188.804 525.906 L188.804 594.812 L205.991 594.812 L205.991 603.666 L161.2 603.666 L161.2 594.812 Z" fill="#000000" fill-rule="evenodd" fill-opacity="1" /><path clip-path="url(#clip630)" d="M227.345 525.906 L268.647 525.906 L268.647 534.761 L236.981 534.761 L236.981 553.823 Q239.272 553.042 241.564 552.677 Q243.856 552.26 246.147 552.26 Q259.168 552.26 266.772 559.396 Q274.376 566.531 274.376 578.719 Q274.376 591.271 266.564 598.25 Q258.751 605.177 244.533 605.177 Q239.637 605.177 234.533 604.343 Q229.481 603.51 224.064 601.843 L224.064 591.271 Q228.752 593.823 233.752 595.073 Q238.752 596.323 244.324 596.323 Q253.335 596.323 258.595 591.583 Q263.856 586.844 263.856 578.719 Q263.856 570.594 258.595 565.854 Q253.335 561.115 244.324 561.115 Q240.106 561.115 235.887 562.052 Q231.72 562.99 227.345 564.969 L227.345 525.906 Z" fill="#000000" fill-rule="evenodd" fill-opacity="1" /><path clip-path="url(#clip630)" d="M77.867 274.062 Q69.742 274.062 65.6275 282.083 Q61.565 290.052 61.565 306.093 Q61.565 322.083 65.6275 330.104 Q69.742 338.072 77.867 338.072 Q86.044 338.072 90.1065 330.104 Q94.2211 322.083 94.2211 306.093 Q94.2211 290.052 90.1065 282.083 Q86.044 274.062 77.867 274.062 M77.867 265.729 Q90.9398 265.729 97.8148 276.094 Q104.742 286.406 104.742 306.093 Q104.742 325.729 97.8148 336.093 Q90.9398 346.406 77.867 346.406 Q64.7941 346.406 57.8671 336.093 Q50.9921 325.729 50.9921 306.093 Q50.9921 286.406 57.8671 276.094 Q64.7941 265.729 77.867 265.729 Z" fill="#000000" fill-rule="evenodd" fill-opacity="1" /><path clip-path="url(#clip630)" d="M123.231 331.666 L134.221 331.666 L134.221 344.895 L123.231 344.895 L123.231 331.666 Z" fill="#000000" fill-rule="evenodd" fill-opacity="1" /><path clip-path="url(#clip630)" d="M166.2 336.041 L202.918 336.041 L202.918 344.895 L153.544 344.895 L153.544 336.041 Q159.533 329.843 169.846 319.427 Q180.21 308.958 182.866 305.937 Q187.918 300.26 189.898 296.354 Q191.929 292.396 191.929 288.593 Q191.929 282.396 187.554 278.489 Q183.231 274.583 176.252 274.583 Q171.304 274.583 165.783 276.302 Q160.314 278.021 154.064 281.51 L154.064 270.885 Q160.419 268.333 165.939 267.031 Q171.46 265.729 176.044 265.729 Q188.127 265.729 195.314 271.771 Q202.502 277.812 202.502 287.916 Q202.502 292.708 200.679 297.031 Q198.908 301.302 194.168 307.135 Q192.866 308.645 185.887 315.885 Q178.908 323.072 166.2 336.041 Z" fill="#000000" fill-rule="evenodd" fill-opacity="1" /><path clip-path="url(#clip630)" d="M247.501 274.062 Q239.377 274.062 235.262 282.083 Q231.199 290.052 231.199 306.093 Q231.199 322.083 235.262 330.104 Q239.377 338.072 247.501 338.072 Q255.679 338.072 259.741 330.104 Q263.856 322.083 263.856 306.093 Q263.856 290.052 259.741 282.083 Q255.679 274.062 247.501 274.062 M247.501 265.729 Q260.574 265.729 267.449 276.094 Q274.376 286.406 274.376 306.093 Q274.376 325.729 267.449 336.093 Q260.574 346.406 247.501 346.406 Q234.429 346.406 227.502 336.093 Q220.627 325.729 220.627 306.093 Q220.627 286.406 227.502 276.094 Q234.429 265.729 247.501 265.729 Z" fill="#000000" fill-rule="evenodd" fill-opacity="1" /><path clip-path="url(#clip630)" d="M80.1066 15.2911 Q71.9816 15.2911 67.867 23.3119 Q63.8046 31.2806 63.8046 47.3222 Q63.8046 63.3117 67.867 71.3325 Q71.9816 79.3012 80.1066 79.3012 Q88.2836 79.3012 92.3461 71.3325 Q96.4606 63.3117 96.4606 47.3222 Q96.4606 31.2806 92.3461 23.3119 Q88.2836 15.2911 80.1066 15.2911 M80.1066 6.95785 Q93.1794 6.95785 100.054 17.3224 Q106.981 27.6348 106.981 47.3222 Q106.981 66.9575 100.054 77.3221 Q93.1794 87.6345 80.1066 87.6345 Q67.0337 87.6345 60.1067 77.3221 Q53.2317 66.9575 53.2317 47.3222 Q53.2317 27.6348 60.1067 17.3224 Q67.0337 6.95785 80.1066 6.95785 Z" fill="#000000" fill-rule="evenodd" fill-opacity="1" /><path clip-path="url(#clip630)" d="M125.471 72.895 L136.46 72.895 L136.46 86.1241 L125.471 86.1241 L125.471 72.895 Z" fill="#000000" fill-rule="evenodd" fill-opacity="1" /><path clip-path="url(#clip630)" d="M168.439 77.27 L205.158 77.27 L205.158 86.1241 L155.783 86.1241 L155.783 77.27 Q161.773 71.0721 172.085 60.6555 Q182.45 50.1868 185.106 47.166 Q190.158 41.4889 192.137 37.5827 Q194.168 33.6244 194.168 29.8223 Q194.168 23.6244 189.793 19.7182 Q185.471 15.812 178.491 15.812 Q173.544 15.812 168.023 17.5307 Q162.554 19.2495 156.304 22.739 L156.304 12.1141 Q162.658 9.562 168.179 8.25993 Q173.7 6.95785 178.283 6.95785 Q190.366 6.95785 197.554 12.9995 Q204.741 19.0411 204.741 29.1452 Q204.741 33.9369 202.918 38.2598 Q201.148 42.5306 196.408 48.3639 Q195.106 49.8743 188.127 57.1138 Q181.148 64.3013 168.439 77.27 Z" fill="#000000" fill-rule="evenodd" fill-opacity="1" /><path clip-path="url(#clip630)" d="M227.345 8.36409 L268.647 8.36409 L268.647 17.2182 L236.981 17.2182 L236.981 36.2806 Q239.272 35.4994 241.564 35.1348 Q243.856 34.7181 246.147 34.7181 Q259.168 34.7181 266.772 41.8535 Q274.376 48.9889 274.376 61.1763 Q274.376 73.7283 266.564 80.7075 Q258.751 87.6345 244.533 87.6345 Q239.637 87.6345 234.533 86.8012 Q229.481 85.9678 224.064 84.3012 L224.064 73.7283 Q228.752 76.2804 233.752 77.5304 Q238.752 78.7804 244.324 78.7804 Q253.335 78.7804 258.595 74.0408 Q263.856 69.3013 263.856 61.1763 Q263.856 53.0514 258.595 48.3118 Q253.335 43.5722 244.324 43.5722 Q240.106 43.5722 235.887 44.5097 Q231.72 45.4472 227.345 47.4264 L227.345 8.36409 Z" fill="#000000" fill-rule="evenodd" fill-opacity="1" /><polyline clip-path="url(#clip632)" style="stroke:#3da44d; stroke-linecap:butt; stroke-linejoin:round; stroke-width:12; stroke-opacity:1; fill:none" points="
  -121.589,1339.44 -118.745,1339.44 -115.901,1339.44 -113.058,1339.44 -110.214,1339.44 -107.37,1339.44 -104.526,1339.44 -101.683,1339.44 -98.8389,1339.44 -95.9952,1339.44 
  -93.1514,1339.44 -90.3077,1339.44 -87.464,1339.44 -84.6202,1339.44 -81.7765,1339.44 -78.9327,1339.44 -76.089,1339.44 -73.2452,1339.44 -70.4015,1339.44 -67.5577,1339.44 
  -64.714,1339.43 -61.8702,1339.43 -59.0265,1339.43 -56.1827,1339.43 -53.339,1339.43 -50.4952,1339.43 -47.6515,1339.43 -44.8077,1339.43 -41.964,1339.43 -39.1202,1339.43 
  -36.2765,1339.43 -33.4327,1339.43 -30.589,1339.43 -27.7452,1339.43 -24.9015,1339.43 -22.0578,1339.43 -19.214,1339.43 -16.3703,1339.43 -13.5265,1339.42 -10.6828,1339.42 
  -7.83902,1339.42 -4.99527,1339.42 -2.15152,1339.42 0.692227,1339.42 3.53597,1339.42 6.37972,1339.42 9.22347,1339.42 12.0672,1339.42 14.911,1339.42 17.7547,1339.41 
  20.5985,1339.41 23.4422,1339.41 26.286,1339.41 29.1297,1339.41 31.9735,1339.41 34.8172,1339.41 37.6609,1339.41 40.5047,1339.41 43.3484,1339.4 46.1922,1339.4 
  49.0359,1339.4 51.8797,1339.4 54.7234,1339.4 57.5672,1339.4 60.4109,1339.4 63.2547,1339.39 66.0984,1339.39 68.9422,1339.39 71.7859,1339.39 74.6297,1339.39 
  77.4734,1339.39 80.3172,1339.39 83.1609,1339.38 86.0047,1339.38 88.8484,1339.38 91.6922,1339.38 94.5359,1339.38 97.3796,1339.38 100.223,1339.37 103.067,1339.37 
  105.911,1339.37 108.755,1339.37 111.598,1339.37 114.442,1339.36 117.286,1339.36 120.13,1339.36 122.973,1339.36 125.817,1339.36 128.661,1339.35 131.505,1339.35 
  134.348,1339.35 137.192,1339.35 140.036,1339.34 142.88,1339.34 145.723,1339.34 148.567,1339.34 151.411,1339.33 154.255,1339.33 157.098,1339.33 159.942,1339.32 
  162.786,1339.32 165.63,1339.32 168.473,1339.32 171.317,1339.31 174.161,1339.31 177.005,1339.31 179.848,1339.3 182.692,1339.3 185.536,1339.3 188.38,1339.29 
  191.223,1339.29 194.067,1339.29 196.911,1339.28 199.755,1339.28 202.598,1339.28 205.442,1339.27 208.286,1339.27 211.13,1339.26 213.973,1339.26 216.817,1339.26 
  219.661,1339.25 222.505,1339.25 225.348,1339.24 228.192,1339.24 231.036,1339.23 233.88,1339.23 236.723,1339.22 239.567,1339.22 242.411,1339.21 245.255,1339.21 
  248.098,1339.2 250.942,1339.2 253.786,1339.19 256.63,1339.18 259.473,1339.18 262.317,1339.17 265.161,1339.17 268.005,1339.16 270.848,1339.15 273.692,1339.15 
  276.536,1339.14 279.379,1339.13 282.223,1339.12 285.067,1339.11 287.911,1339.11 290.754,1339.1 293.598,1339.09 296.442,1339.08 299.286,1339.07 302.129,1339.06 
  304.973,1339.05 307.817,1339.04 310.661,1339.03 313.504,1339.02 316.348,1339.01 319.192,1338.99 322.036,1338.98 324.879,1338.97 327.723,1338.95 330.567,1338.94 
  333.411,1338.92 336.254,1338.9 339.098,1338.88 341.942,1338.86 344.786,1338.84 347.629,1338.82 350.473,1338.79 353.317,1338.79 356.161,1338.67 359.004,1338.79 
  361.848,1334.56 364.692,1325.2 367.536,1314.21 370.379,1303.28 373.223,1292.41 376.067,1281.62 378.911,1270.93 381.754,1260.31 384.598,1249.78 387.442,1239.33 
  390.286,1228.96 393.129,1218.67 395.973,1208.45 398.817,1198.32 401.661,1188.25 404.504,1178.27 407.348,1168.36 410.192,1158.52 413.036,1148.76 415.879,1139.07 
  418.723,1129.45 421.567,1119.9 424.411,1110.43 427.254,1101.03 430.098,1091.7 432.942,1082.44 435.786,1073.26 438.629,1064.14 441.473,1055.09 444.317,1046.12 
  447.161,1037.21 450.004,1028.37 452.848,1019.61 455.692,1010.91 458.536,1002.28 461.379,993.719 464.223,985.228 467.067,976.805 469.911,968.45 472.754,960.164 
  475.598,951.946 478.442,943.796 481.286,935.713 484.129,927.698 486.973,919.751 489.817,911.871 492.661,904.058 495.504,896.312 498.348,888.633 501.192,881.02 
  504.036,873.475 506.879,865.996 509.723,858.583 512.567,851.237 515.411,843.957 518.254,836.743 521.098,829.595 523.942,822.512 526.786,815.496 529.629,808.545 
  532.473,801.66 535.317,794.84 538.161,788.085 541.004,781.396 543.848,774.772 546.692,768.213 549.536,761.718 552.379,755.289 555.223,748.925 558.067,742.625 
  560.911,736.39 563.754,730.219 566.598,724.112 569.442,718.07 572.286,712.093 575.129,706.179 577.973,700.33 580.817,694.544 583.66,688.823 586.504,683.165 
  589.348,677.571 592.192,672.041 595.035,666.574 597.879,661.171 600.723,655.832 603.567,650.555 606.41,645.343 609.254,640.193 612.098,635.107 614.942,630.084 
  617.785,625.123 620.629,620.226 623.473,615.392 626.317,610.621 629.16,605.912 632.004,601.267 634.848,596.684 637.692,592.163 640.535,587.705 643.379,583.31 
  646.223,578.977 649.067,574.707 651.91,570.499 654.754,566.353 657.598,562.27 660.442,558.248 663.285,554.289 666.129,550.392 668.973,546.557 671.817,542.784 
  674.66,539.073 677.504,535.424 680.348,531.837 683.192,528.311 686.035,524.847 688.879,521.445 691.723,518.105 694.567,514.826 697.41,511.609 700.254,508.454 
  703.098,505.36 705.942,502.327 708.785,499.356 711.629,496.446 714.473,493.598 717.317,490.811 720.16,488.086 723.004,485.421 725.848,482.818 728.692,480.276 
  731.535,477.795 734.379,475.376 737.223,473.017 740.067,470.72 742.91,468.483 745.754,466.308 748.598,464.193 751.442,462.14 754.285,460.148 757.129,458.216 
  759.973,456.346 762.817,454.536 765.66,452.787 768.504,451.099 771.348,449.472 774.192,447.905 777.035,446.399 779.879,444.955 782.723,443.57 785.567,442.247 
  788.41,440.984 791.254,439.782 794.098,438.641 796.942,437.56 799.785,436.54 802.629,435.58 805.473,434.682 808.317,433.843 811.16,433.066 814.004,432.349 
  816.848,431.692 819.692,431.097 822.535,430.561 825.379,430.087 828.223,429.672 831.067,429.319 833.91,429.026 836.754,428.793 839.598,428.621 842.442,428.51 
  845.285,428.459 848.129,428.469 850.973,428.539 853.817,428.67 856.66,428.861 859.504,429.113 862.348,429.425 865.192,429.798 868.035,430.232 870.879,430.726 
  873.723,431.28 876.567,431.895 879.41,432.571 882.254,433.307 885.098,434.104 887.941,434.962 890.785,435.88 893.629,436.859 896.473,437.898 899.316,438.998 
  902.16,440.159 905.004,441.381 907.848,442.663 910.691,444.006 913.535,445.409 916.379,446.873 919.223,448.398 922.066,449.984 924.91,451.631 927.754,453.338 
  930.598,455.107 933.441,456.936 936.285,458.826 939.129,460.777 941.973,462.789 944.816,464.862 947.66,466.996 950.504,469.19 953.348,471.446 956.191,473.763 
  959.035,476.141 961.879,478.58 964.723,481.081 967.566,483.642 970.41,486.265 973.254,488.949 976.098,491.694 978.941,494.501 981.785,497.369 984.629,500.298 
  987.473,503.288 990.316,506.341 993.16,509.454 996.004,512.629 998.848,515.866 1001.69,519.164 1004.54,522.524 1007.38,525.946 1010.22,529.429 1013.07,532.974 
  1015.91,536.581 1018.75,540.25 1021.6,543.981 1024.44,547.774 1027.29,551.628 1030.13,555.545 1032.97,559.524 1035.82,563.565 1038.66,567.668 1041.5,571.834 
  1044.35,576.062 1047.19,580.352 1050.04,584.704 1052.88,589.119 1055.72,593.597 1058.57,598.137 1061.41,602.74 1064.25,607.405 1067.1,612.133 1069.94,616.924 
  1072.79,621.778 1075.63,626.695 1078.47,631.675 1081.32,636.718 1084.16,641.824 1087,646.993 1089.85,652.225 1092.69,657.521 1095.54,662.88 1098.38,668.303 
  1101.22,673.789 1104.07,679.338 1106.91,684.952 1109.75,690.629 1112.6,696.37 1115.44,702.175 1118.29,708.043 1121.13,713.976 1123.97,719.973 1126.82,726.034 
  1129.66,732.16 1132.5,738.349 1135.35,744.603 1138.19,750.922 1141.04,757.305 1143.88,763.753 1146.72,770.266 1149.57,776.844 1152.41,783.486 1155.25,790.194 
  1158.1,796.966 1160.94,803.804 1163.79,810.707 1166.63,817.675 1169.47,824.709 1172.32,831.809 1175.16,838.974 1178,846.205 1180.85,853.502 1183.69,860.864 
  1186.53,868.293 1189.38,875.788 1192.22,883.349 1195.07,890.976 1197.91,898.67 1200.75,906.431 1203.6,914.258 1206.44,922.152 1209.28,930.112 1212.13,938.14 
  1214.97,946.235 1217.82,954.397 1220.66,962.626 1223.5,970.923 1226.35,979.287 1229.19,987.719 1232.03,996.218 1234.88,1004.79 1237.72,1013.42 1240.57,1022.13 
  1243.41,1030.9 1246.25,1039.74 1249.1,1048.65 1251.94,1057.62 1254.78,1066.67 1257.63,1075.78 1260.47,1084.97 1263.32,1094.22 1266.16,1103.54 1269,1112.93 
  1271.85,1122.4 1274.69,1131.93 1277.53,1141.53 1280.38,1151.2 1283.22,1160.94 1286.07,1170.75 1288.91,1180.63 1291.75,1190.58 1294.6,1200.6 1297.44,1210.69 
  1300.28,1220.86 1303.13,1231.09 1305.97,1241.4 1308.82,1251.78 1311.66,1262.22 1314.5,1272.75 1317.35,1283.34 1320.19,1294 1323.03,1304.73 1325.88,1315.47 
  1328.72,1326.02 1331.57,1334.43 1334.41,1326 1337.25,1315.45 1340.1,1304.7 1342.94,1293.96 1345.78,1283.29 1348.63,1272.69 1351.47,1262.17 1354.32,1251.71 
  1357.16,1241.33 1360,1231.02 1362.85,1220.79 1365.69,1210.62 1368.53,1200.53 1371.38,1190.5 1374.22,1180.55 1377.07,1170.67 1379.91,1160.86 1382.75,1151.12 
  1385.6,1141.45 1388.44,1131.85 1391.28,1122.32 1394.13,1112.86 1396.97,1103.47 1399.82,1094.14 1402.66,1084.89 1405.5,1075.71 1408.35,1066.6 1411.19,1057.55 
  1414.03,1048.58 1416.88,1039.67 1419.72,1030.83 1422.57,1022.06 1425.41,1013.36 1428.25,1004.73 1431.1,996.161 1433.94,987.664 1436.78,979.234 1439.63,970.872 
  1442.47,962.578 1445.32,954.351 1448.16,946.191 1451,938.099 1453.85,930.074 1456.69,922.115 1459.53,914.224 1462.38,906.399 1465.22,898.641 1468.07,890.95 
  1470.91,883.325 1473.75,875.766 1476.6,868.274 1479.44,860.847 1482.28,853.487 1485.13,846.193 1487.97,838.964 1490.82,831.801 1493.66,824.704 1496.5,817.672 
  1499.35,810.706 1502.19,803.805 1505.03,796.97 1507.88,790.199 1510.72,783.494 1513.57,776.854 1516.41,770.278 1519.25,763.767 1522.1,757.322 1524.94,750.94 
  1527.78,744.623 1530.63,738.371 1533.47,732.183 1536.32,726.06 1539.16,720 1542,714.005 1544.85,708.074 1547.69,702.207 1550.53,696.404 1553.38,690.665 
  1556.22,684.989 1559.07,679.377 1561.91,673.829 1564.75,668.344 1567.6,662.923 1570.44,657.565 1573.28,652.271 1576.13,647.04 1578.97,641.872 1581.82,636.767 
  1584.66,631.725 1587.5,626.746 1590.35,621.831 1593.19,616.978 1596.03,612.188 1598.88,607.46 1601.72,602.796 1604.57,598.194 1607.41,593.655 1610.25,589.178 
  1613.1,584.764 1615.94,580.412 1618.78,576.122 1621.63,571.895 1624.47,567.731 1627.32,563.628 1630.16,559.587 1633,555.609 1635.85,551.693 1638.69,547.839 
  1641.53,544.046 1644.38,540.316 1647.22,536.647 1650.07,533.041 1652.91,529.496 1655.75,526.013 1658.6,522.591 1661.44,519.232 1664.28,515.933 1667.13,512.697 
  1669.97,509.522 1672.82,506.408 1675.66,503.356 1678.5,500.366 1681.35,497.437 1684.19,494.569 1687.03,491.762 1689.88,489.017 1692.72,486.333 1695.57,483.71 
  1698.41,481.149 1701.25,478.648 1704.1,476.209 1706.94,473.831 1709.78,471.514 1712.63,469.258 1715.47,467.063 1718.32,464.929 1721.16,462.856 1724,460.843 
  1726.85,458.892 1729.69,457.002 1732.53,455.172 1735.38,453.404 1738.22,451.696 1741.07,450.049 1743.91,448.463 1746.75,446.937 1749.6,445.473 1752.44,444.069 
  1755.28,442.726 1758.13,441.443 1760.97,440.221 1763.82,439.06 1766.66,437.96 1769.5,436.92 1772.35,435.94 1775.19,435.022 1778.03,434.164 1780.88,433.366 
  1783.72,432.63 1786.57,431.953 1789.41,431.338 1792.25,430.783 1795.1,430.288 1797.94,429.854 1800.78,429.481 1803.63,429.168 1806.47,428.916 1809.32,428.724 
  1812.16,428.593 1815,428.522 1817.85,428.512 1820.69,428.562 1823.53,428.673 1826.38,428.844 1829.22,429.076 1832.07,429.369 1834.91,429.722 1837.75,430.136 
  1840.6,430.61 1843.44,431.145 1846.28,431.74 1849.13,432.396 1851.97,433.112 1854.82,433.889 1857.66,434.727 1860.5,435.625 1863.35,436.584 1866.19,437.604 
  1869.03,438.684 1871.88,439.825 1874.72,441.026 1877.57,442.288 1880.41,443.611 1883.25,444.995 1886.1,446.439 1888.94,447.944 1891.78,449.51 1894.63,451.137 
  1897.47,452.825 1900.32,454.573 1903.16,456.382 1906,458.252 1908.85,460.183 1911.69,462.175 1914.53,464.228 1917.38,466.342 1920.22,468.517 1923.07,470.753 
  1925.91,473.05 1928.75,475.408 1931.6,477.827 1934.44,480.307 1937.28,482.848 1940.13,485.451 1942.97,488.115 1945.82,490.84 1948.66,493.627 1951.5,496.474 
  1954.35,499.384 1957.19,502.354 1960.03,505.386 1962.88,508.48 1965.72,511.635 1968.57,514.851 1971.41,518.129 1974.25,521.469 1977.1,524.871 1979.94,528.334 
  1982.78,531.859 1985.63,535.446 1988.47,539.095 1991.32,542.805 1994.16,546.578 1997,550.412 1999.85,554.309 2002.69,558.268 2005.53,562.288 2008.38,566.371 
  2011.22,570.517 2014.07,574.724 2016.91,578.994 2019.75,583.327 2022.6,587.721 2025.44,592.179 2028.28,596.699 2031.13,601.281 2033.97,605.926 2036.82,610.634 
  2039.66,615.405 2042.5,620.239 2045.35,625.135 2048.19,630.095 2051.03,635.118 2053.88,640.204 2056.72,645.353 2059.57,650.565 2062.41,655.841 2065.25,661.18 
  2068.1,666.582 2070.94,672.048 2073.78,677.578 2076.63,683.171 2079.47,688.829 2082.32,694.55 2085.16,700.335 2088,706.184 2090.85,712.097 2093.69,718.074 
  2096.53,724.115 2099.38,730.221 2102.22,736.391 2105.07,742.626 2107.91,748.925 2110.75,755.289 2113.6,761.718 2116.44,768.211 2119.28,774.77 2122.13,781.393 
  2124.97,788.082 2127.82,794.836 2130.66,801.655 2133.5,808.539 2136.35,815.489 2139.19,822.505 2142.03,829.587 2144.88,836.734 2147.72,843.947 2150.57,851.227 
  2153.41,858.572 2156.25,865.984 2159.1,873.462 2161.94,881.007 2164.78,888.618 2167.63,896.296 2170.47,904.041 2173.32,911.853 2176.16,919.732 2179,927.678 
  2181.85,935.692 2184.69,943.773 2187.53,951.922 2190.38,960.138 2193.22,968.423 2196.07,976.776 2198.91,985.197 2201.75,993.687 2204.6,1002.25 2207.44,1010.87 
  2210.28,1019.57 2213.13,1028.33 2215.97,1037.17 2218.82,1046.07 2221.66,1055.05 2224.5,1064.09 2227.35,1073.2 2230.19,1082.39 2233.03,1091.64 2235.88,1100.97 
  2238.72,1110.37 2241.57,1119.84 2244.41,1129.38 2247.25,1138.99 2250.1,1148.68 2252.94,1158.43 2255.78,1168.27 2258.63,1178.17 2261.47,1188.15 2264.32,1198.21 
  2267.16,1208.34 2270,1218.55 2272.85,1228.83 2275.69,1239.19 2278.53,1249.63 2281.38,1260.15 2284.22,1270.75 2287.07,1281.44 2289.91,1292.21 2292.75,1303.06 
  2295.6,1313.98 2298.44,1324.96 2301.28,1334.47 2304.13,1338.82 2306.97,1338.72 2309.82,1338.83 2312.66,1338.83 2315.5,1338.86 2318.35,1338.88 2321.19,1338.91 
  2324.03,1338.93 2326.88,1338.95 2329.72,1338.96 2332.57,1338.98 2335.41,1339 2338.25,1339.01 2341.1,1339.03 2343.94,1339.04 2346.78,1339.05 2349.63,1339.07 
  2352.47,1339.08 2355.32,1339.09 2358.16,1339.1 2361,1339.11 2363.85,1339.12 2366.69,1339.13 2369.53,1339.14 2372.38,1339.15 2375.22,1339.16 2378.07,1339.17 
  2380.91,1339.17 2383.75,1339.18 2386.6,1339.19 2389.44,1339.2 2392.28,1339.2 2395.13,1339.21 2397.97,1339.22 2400.82,1339.22 2403.66,1339.23 2406.5,1339.24 
  2409.35,1339.24 2412.19,1339.25 2415.03,1339.25 2417.88,1339.26 2420.72,1339.26 2423.57,1339.27 2426.41,1339.28 2429.25,1339.28 2432.1,1339.29 2434.94,1339.29 
  2437.78,1339.29 2440.63,1339.3 2443.47,1339.3 2446.32,1339.31 2449.16,1339.31 2452,1339.32 2454.85,1339.32 2457.69,1339.32 2460.53,1339.33 2463.38,1339.33 
  2466.22,1339.34 2469.07,1339.34 2471.91,1339.34 2474.75,1339.35 2477.6,1339.35 2480.44,1339.35 2483.28,1339.36 2486.13,1339.36 2488.97,1339.36 2491.82,1339.37 
  2494.66,1339.37 2497.5,1339.37 2500.35,1339.38 2503.19,1339.38 2506.03,1339.38 2508.88,1339.38 2511.72,1339.39 2514.57,1339.39 2517.41,1339.39 2520.25,1339.39 
  2523.1,1339.4 2525.94,1339.4 2528.78,1339.4 2531.63,1339.4 2534.47,1339.41 2537.32,1339.41 2540.16,1339.41 2543,1339.41 2545.85,1339.42 2548.69,1339.42 
  2551.53,1339.42 2554.38,1339.42 2557.22,1339.42 2560.07,1339.43 2562.91,1339.43 2565.75,1339.43 2568.6,1339.43 2571.44,1339.43 2574.28,1339.44 2577.13,1339.44 
  2579.97,1339.44 2582.82,1339.44 2585.66,1339.44 2588.5,1339.44 2591.35,1339.45 2594.19,1339.45 2597.03,1339.45 2599.88,1339.45 2602.72,1339.45 2605.57,1339.45 
  2608.41,1339.45 2611.25,1339.46 2614.1,1339.46 2616.94,1339.46 2619.78,1339.46 2622.63,1339.46 2625.47,1339.46 2628.32,1339.46 2631.16,1339.46 2634,1339.47 
  2636.85,1339.47 2639.69,1339.47 2642.53,1339.47 2645.38,1339.47 2648.22,1339.47 2651.07,1339.47 2653.91,1339.47 2656.75,1339.47 2659.6,1339.48 2662.44,1339.48 
  2665.28,1339.48 2668.13,1339.48 2670.97,1339.48 2673.82,1339.48 2676.66,1339.48 2679.5,1339.48 2682.35,1339.48 2685.19,1339.48 2688.03,1339.48 2690.88,1339.48 
  2693.72,1339.49 2696.56,1339.49 2699.41,1339.49 2702.25,1339.49 2705.1,1339.49 2707.94,1339.49 2710.78,1339.49 2713.63,1339.49 2716.47,1339.49 2719.31,1339.49 
  2722.16,1339.49 2725,1339.49 2727.85,1339.49 2730.69,1339.49 2733.53,1339.49 2736.38,1339.49 2739.22,1339.49 2742.06,1339.49 2744.91,1339.49 2747.75,1339.49 
  2750.6,1339.49 2753.44,1339.49 2756.28,1339.5 2759.13,1339.5 2761.97,1339.5 2764.81,1339.5 2767.66,1339.5 2770.5,1339.49 2773.35,1339.5 2776.19,1339.49 
  2779.03,1339.5 2781.88,1339.49 2784.72,1339.5 2787.56,1339.49 
  "/>
<circle clip-path="url(#clip632)" cx="333.411" cy="1338.92" r="28" fill="#3da44d" fill-rule="evenodd" fill-opacity="0.6" stroke="#808080" stroke-opacity="0.6" stroke-width="0"/>
<circle clip-path="url(#clip632)" cx="447.161" cy="1037.21" r="28" fill="#3da44d" fill-rule="evenodd" fill-opacity="0.6" stroke="#808080" stroke-opacity="0.6" stroke-width="0"/>
<circle clip-path="url(#clip632)" cx="560.911" cy="736.39" r="28" fill="#3da44d" fill-rule="evenodd" fill-opacity="0.6" stroke="#808080" stroke-opacity="0.6" stroke-width="0"/>
<circle clip-path="url(#clip632)" cx="674.66" cy="539.073" r="28" fill="#3da44d" fill-rule="evenodd" fill-opacity="0.6" stroke="#808080" stroke-opacity="0.6" stroke-width="0"/>
<circle clip-path="url(#clip632)" cx="788.41" cy="440.984" r="28" fill="#3da44d" fill-rule="evenodd" fill-opacity="0.6" stroke="#808080" stroke-opacity="0.6" stroke-width="0"/>
<circle clip-path="url(#clip632)" cx="902.16" cy="440.159" r="28" fill="#3da44d" fill-rule="evenodd" fill-opacity="0.6" stroke="#808080" stroke-opacity="0.6" stroke-width="0"/>
<circle clip-path="url(#clip632)" cx="1015.91" cy="536.581" r="28" fill="#3da44d" fill-rule="evenodd" fill-opacity="0.6" stroke="#808080" stroke-opacity="0.6" stroke-width="0"/>
<circle clip-path="url(#clip632)" cx="1129.66" cy="732.16" r="28" fill="#3da44d" fill-rule="evenodd" fill-opacity="0.6" stroke="#808080" stroke-opacity="0.6" stroke-width="0"/>
<circle clip-path="url(#clip632)" cx="1243.41" cy="1030.9" r="28" fill="#3da44d" fill-rule="evenodd" fill-opacity="0.6" stroke="#808080" stroke-opacity="0.6" stroke-width="0"/>
<circle clip-path="url(#clip632)" cx="1357.16" cy="1241.33" r="28" fill="#3da44d" fill-rule="evenodd" fill-opacity="0.6" stroke="#808080" stroke-opacity="0.6" stroke-width="0"/>
<circle clip-path="url(#clip632)" cx="1470.91" cy="883.325" r="28" fill="#3da44d" fill-rule="evenodd" fill-opacity="0.6" stroke="#808080" stroke-opacity="0.6" stroke-width="0"/>
<circle clip-path="url(#clip632)" cx="1584.66" cy="631.725" r="28" fill="#3da44d" fill-rule="evenodd" fill-opacity="0.6" stroke="#808080" stroke-opacity="0.6" stroke-width="0"/>
<circle clip-path="url(#clip632)" cx="1698.41" cy="481.149" r="28" fill="#3da44d" fill-rule="evenodd" fill-opacity="0.6" stroke="#808080" stroke-opacity="0.6" stroke-width="0"/>
<circle clip-path="url(#clip632)" cx="1812.16" cy="428.593" r="28" fill="#3da44d" fill-rule="evenodd" fill-opacity="0.6" stroke="#808080" stroke-opacity="0.6" stroke-width="0"/>
<circle clip-path="url(#clip632)" cx="1925.91" cy="473.05" r="28" fill="#3da44d" fill-rule="evenodd" fill-opacity="0.6" stroke="#808080" stroke-opacity="0.6" stroke-width="0"/>
<circle clip-path="url(#clip632)" cx="2039.66" cy="615.405" r="28" fill="#3da44d" fill-rule="evenodd" fill-opacity="0.6" stroke="#808080" stroke-opacity="0.6" stroke-width="0"/>
<circle clip-path="url(#clip632)" cx="2153.41" cy="858.572" r="28" fill="#3da44d" fill-rule="evenodd" fill-opacity="0.6" stroke="#808080" stroke-opacity="0.6" stroke-width="0"/>
<circle clip-path="url(#clip632)" cx="2267.16" cy="1208.34" r="28" fill="#3da44d" fill-rule="evenodd" fill-opacity="0.6" stroke="#808080" stroke-opacity="0.6" stroke-width="0"/>
<polyline clip-path="url(#clip632)" style="stroke:#3da44d; stroke-linecap:butt; stroke-linejoin:round; stroke-width:12; stroke-opacity:1; fill:none" points="
  -121.589,1338.38 -118.745,1338.38 -115.901,1338.38 -113.058,1338.38 -110.214,1338.38 -107.37,1338.38 -104.526,1338.37 -101.683,1338.38 -98.8389,1338.37 -95.9952,1338.38 
  -93.1514,1338.37 -90.3077,1338.38 -87.464,1338.37 -84.6202,1338.37 -81.7765,1338.37 -78.9327,1338.37 -76.089,1338.37 -73.2452,1338.37 -70.4015,1338.37 -67.5577,1338.37 
  -64.714,1338.37 -61.8702,1338.37 -59.0265,1338.37 -56.1827,1338.37 -53.339,1338.37 -50.4952,1338.37 -47.6515,1338.37 -44.8077,1338.37 -41.964,1338.37 -39.1202,1338.37 
  -36.2765,1338.37 -33.4327,1338.37 -30.589,1338.37 -27.7452,1338.37 -24.9015,1338.37 -22.0578,1338.37 -19.214,1338.37 -16.3703,1338.37 -13.5265,1338.37 -10.6828,1338.37 
  -7.83902,1338.37 -4.99527,1338.37 -2.15152,1338.37 0.692227,1338.37 3.53597,1338.37 6.37972,1338.37 9.22347,1338.37 12.0672,1338.37 14.911,1338.37 17.7547,1338.37 
  20.5985,1338.37 23.4422,1338.37 26.286,1338.37 29.1297,1338.37 31.9735,1338.37 34.8172,1338.37 37.6609,1338.37 40.5047,1338.37 43.3484,1338.37 46.1922,1338.37 
  49.0359,1338.37 51.8797,1338.37 54.7234,1338.37 57.5672,1338.37 60.4109,1338.37 63.2547,1338.37 66.0984,1338.37 68.9422,1338.37 71.7859,1338.37 74.6297,1338.37 
  77.4734,1338.37 80.3172,1338.37 83.1609,1338.37 86.0047,1338.37 88.8484,1338.37 91.6922,1338.37 94.5359,1338.37 97.3796,1338.37 100.223,1338.37 103.067,1338.37 
  105.911,1338.37 108.755,1338.37 111.598,1338.37 114.442,1338.37 117.286,1338.37 120.13,1338.37 122.973,1338.37 125.817,1338.37 128.661,1338.37 131.505,1338.37 
  134.348,1338.37 137.192,1338.37 140.036,1338.37 142.88,1338.37 145.723,1338.37 148.567,1338.37 151.411,1338.37 154.255,1338.37 157.098,1338.37 159.942,1338.37 
  162.786,1338.37 165.63,1338.37 168.473,1338.37 171.317,1338.37 174.161,1338.37 177.005,1338.37 179.848,1338.37 182.692,1338.37 185.536,1338.37 188.38,1338.37 
  191.223,1338.37 194.067,1338.37 196.911,1338.37 199.755,1338.37 202.598,1338.37 205.442,1338.38 208.286,1338.37 211.13,1338.38 213.973,1338.37 216.817,1338.38 
  219.661,1338.37 222.505,1338.38 225.348,1338.37 228.192,1338.38 231.036,1338.37 233.88,1338.38 236.723,1338.37 239.567,1338.38 242.411,1338.37 245.255,1338.38 
  248.098,1338.37 250.942,1338.38 253.786,1338.37 256.63,1338.38 259.473,1338.37 262.317,1338.38 265.161,1338.37 268.005,1338.38 270.848,1338.37 273.692,1338.38 
  276.536,1338.37 279.379,1338.38 282.223,1338.37 285.067,1338.38 287.911,1338.37 290.754,1338.38 293.598,1338.37 296.442,1338.38 299.286,1338.37 302.129,1338.38 
  304.973,1338.37 307.817,1338.38 310.661,1338.37 313.504,1338.38 316.348,1338.37 319.192,1338.38 322.036,1338.37 324.879,1338.38 327.723,1338.37 330.567,1338.38 
  333.411,1338.37 336.254,1338.38 339.098,1338.37 341.942,1338.38 344.786,1338.37 347.629,1338.38 350.473,1338.37 353.317,1338.38 356.161,1338.37 359.004,1338.37 
  361.848,1338.16 364.692,1328.06 367.536,1317.16 370.379,1306.37 373.223,1295.45 376.067,1284.73 378.911,1273.93 381.754,1263.33 384.598,1252.66 387.442,1242.19 
  390.286,1231.66 393.129,1221.33 395.973,1210.92 398.817,1200.72 401.661,1190.46 404.504,1180.39 407.348,1170.26 410.192,1160.32 413.036,1150.33 415.879,1140.52 
  418.723,1130.66 421.567,1120.98 424.411,1111.25 427.254,1101.7 430.098,1092.11 432.942,1082.69 435.786,1073.23 438.629,1063.95 441.473,1054.62 444.317,1045.46 
  447.161,1036.26 450.004,1027.23 452.848,1018.17 455.692,1009.27 458.536,1000.34 461.379,991.565 464.223,982.765 467.067,974.121 469.911,965.452 472.754,956.937 
  475.598,948.399 478.442,940.012 481.286,931.605 484.129,923.346 486.973,915.07 489.817,906.94 492.661,898.794 495.504,890.792 498.348,882.777 501.192,874.904 
  504.036,867.019 506.879,859.274 509.723,851.52 512.567,843.903 515.411,836.279 518.254,828.79 521.098,821.297 523.942,813.936 526.786,806.574 529.629,799.342 
  532.473,792.109 535.317,785.006 538.161,777.904 541.004,770.929 543.848,763.957 546.692,757.111 549.536,750.27 552.379,743.553 555.223,736.843 558.067,730.254 
  560.911,723.675 563.754,717.215 566.598,710.766 569.442,704.436 572.286,698.118 575.129,691.917 577.973,685.73 580.817,679.659 583.66,673.603 586.504,667.662 
  589.348,661.738 592.192,655.926 595.035,650.133 597.879,644.451 600.723,638.79 603.567,633.239 606.41,627.71 609.254,622.289 612.098,616.892 614.942,611.602 
  617.785,606.336 620.629,601.178 623.473,596.045 626.317,591.018 629.16,586.017 632.004,581.121 634.848,576.254 637.692,571.49 640.535,566.756 643.379,562.124 
  646.223,557.523 649.067,553.024 651.91,548.556 654.754,544.19 657.598,539.856 660.442,535.622 663.285,531.423 666.129,527.323 668.973,523.258 671.817,519.291 
  674.66,515.361 677.504,511.528 680.348,507.733 683.192,504.034 686.035,500.374 688.879,496.81 691.723,493.286 694.567,489.857 697.41,486.469 700.254,483.175 
  703.098,479.923 705.942,476.765 708.785,473.649 711.629,470.627 714.473,467.648 717.317,464.763 720.16,461.921 723.004,459.172 725.848,456.468 728.692,453.856 
  731.535,451.29 734.379,448.816 737.223,446.388 740.067,444.051 742.91,441.762 745.754,439.563 748.598,437.412 751.442,435.352 754.285,433.341 757.129,431.42 
  759.973,429.548 762.817,427.766 765.66,426.034 768.504,424.391 771.348,422.799 774.192,421.297 777.035,419.845 779.879,418.483 782.723,417.172 785.567,415.95 
  788.41,414.781 791.254,413.7 794.098,412.672 796.942,411.732 799.785,410.846 802.629,410.047 805.473,409.303 808.317,408.646 811.16,408.044 814.004,407.529 
  816.848,407.069 819.692,406.697 822.535,406.38 825.379,406.15 828.223,405.976 831.067,405.889 833.91,405.857 836.754,405.913 839.598,406.025 842.442,406.225 
  845.285,406.48 848.129,406.822 850.973,407.221 853.817,407.707 856.66,408.25 859.504,408.879 862.348,409.566 865.192,410.339 868.035,411.169 870.879,412.086 
  873.723,413.059 876.567,414.12 879.41,415.237 882.254,416.442 885.098,417.703 887.941,419.051 890.785,420.455 893.629,421.947 896.473,423.495 899.316,425.129 
  902.16,426.821 905.004,428.599 907.848,430.433 910.691,432.354 913.535,434.331 916.379,436.394 919.223,438.513 922.066,440.719 924.91,442.98 927.754,445.327 
  930.598,447.73 933.441,450.219 936.285,452.762 939.129,455.392 941.973,458.075 944.816,460.845 947.66,463.668 950.504,466.577 953.348,469.539 956.191,472.587 
  959.035,475.687 961.879,478.872 964.723,482.109 967.566,485.43 970.41,488.803 973.254,492.261 976.098,495.768 978.941,499.36 981.785,503.001 984.629,506.726 
  987.473,510.499 990.316,514.356 993.16,518.259 996.004,522.246 998.848,526.279 1001.69,530.394 1004.54,534.554 1007.38,538.796 1010.22,543.08 1013.07,547.447 
  1015.91,551.855 1018.75,556.344 1021.6,560.873 1024.44,565.482 1027.29,570.13 1030.13,574.857 1032.97,579.62 1035.82,584.462 1038.66,589.339 1041.5,594.293 
  1044.35,599.28 1047.19,604.343 1050.04,609.437 1052.88,614.607 1055.72,619.804 1058.57,625.076 1061.41,630.373 1064.25,635.744 1067.1,641.137 1069.94,646.603 
  1072.79,652.088 1075.63,657.645 1078.47,663.217 1081.32,668.859 1084.16,674.515 1087,680.239 1089.85,685.972 1092.69,691.772 1095.54,697.577 1098.38,703.448 
  1101.22,709.321 1104.07,715.256 1106.91,721.19 1109.75,727.184 1112.6,733.172 1115.44,739.219 1118.29,745.255 1121.13,751.348 1123.97,757.425 1126.82,763.556 
  1129.66,769.666 1132.5,775.828 1135.35,781.964 1138.19,788.148 1141.04,794.302 1143.88,800.5 1146.72,806.662 1149.57,812.865 1152.41,819.027 1155.25,825.226 
  1158.1,831.377 1160.94,837.562 1163.79,843.693 1166.63,849.854 1169.47,855.953 1172.32,862.079 1175.16,868.136 1178,874.215 1180.85,880.219 1183.69,886.24 
  1186.53,892.178 1189.38,898.129 1192.22,903.988 1195.07,909.855 1197.91,915.623 1200.75,921.394 1203.6,927.058 1206.44,932.719 1209.28,938.264 1212.13,943.8 
  1214.97,949.212 1217.82,954.611 1220.66,959.876 1223.5,965.121 1226.35,970.224 1229.19,975.301 1232.03,980.226 1234.88,985.121 1237.72,989.854 1240.57,994.55 
  1243.41,999.076 1246.25,1003.56 1249.1,1007.86 1251.94,1012.12 1254.78,1016.18 1257.63,1020.19 1260.47,1024.01 1263.32,1027.76 1266.16,1031.31 1269,1034.79 
  1271.85,1038.06 1274.69,1041.26 1277.53,1044.23 1280.38,1047.13 1283.22,1049.8 1286.07,1052.39 1288.91,1054.75 1291.75,1057.02 1294.6,1059.06 1297.44,1061 
  1300.28,1062.7 1303.13,1064.31 1305.97,1065.67 1308.82,1066.94 1311.66,1067.96 1314.5,1068.89 1317.35,1069.56 1320.19,1070.14 1323.03,1070.46 1325.88,1070.69 
  1328.72,1070.66 1331.57,1070.55 1334.41,1070.18 1337.25,1069.72 1340.1,1069.01 1342.94,1068.21 1345.78,1067.16 1348.63,1066.03 1351.47,1064.65 1354.32,1063.2 
  1357.16,1061.5 1360,1059.74 1362.85,1057.73 1365.69,1055.66 1368.53,1053.35 1371.38,1050.99 1374.22,1048.4 1377.07,1045.75 1379.91,1042.89 1382.75,1039.97 
  1385.6,1036.85 1388.44,1033.68 1391.28,1030.32 1394.13,1026.91 1396.97,1023.31 1399.82,1019.68 1402.66,1015.87 1405.5,1012.03 1408.35,1008.01 1411.19,1003.98 
  1414.03,999.777 1416.88,995.561 1419.72,991.189 1422.57,986.806 1425.41,982.277 1428.25,977.743 1431.1,973.071 1433.94,968.399 1436.78,963.597 1439.63,958.8 
  1442.47,953.882 1445.32,948.974 1448.16,943.953 1451,938.946 1453.85,933.834 1456.69,928.741 1459.53,923.549 1462.38,918.381 1465.22,913.122 1468.07,907.89 
  1470.91,902.574 1473.75,897.289 1476.6,891.927 1479.44,886.599 1482.28,881.2 1485.13,875.839 1487.97,870.413 1490.82,865.028 1493.66,859.584 1496.5,854.184 
  1499.35,848.731 1502.19,843.324 1505.03,837.869 1507.88,832.462 1510.72,827.014 1513.57,821.616 1516.41,816.18 1519.25,810.798 1522.1,805.382 1524.94,800.022 
  1527.78,794.633 1530.63,789.301 1533.47,783.945 1536.32,778.646 1539.16,773.329 1542,768.07 1544.85,762.796 1547.69,757.583 1550.53,752.357 1553.38,747.194 
  1556.22,742.022 1559.07,736.914 1561.91,731.8 1564.75,726.75 1567.6,721.699 1570.44,716.713 1573.28,711.728 1576.13,706.808 1578.97,701.893 1581.82,697.045 
  1584.66,692.203 1587.5,687.429 1590.35,682.664 1593.19,677.967 1596.03,673.283 1598.88,668.666 1601.72,664.064 1604.57,659.531 1607.41,655.015 1610.25,650.568 
  1613.1,646.14 1615.94,641.782 1618.78,637.445 1621.63,633.177 1624.47,628.933 1627.32,624.758 1630.16,620.609 1633,616.53 1635.85,612.478 1638.69,608.496 
  1641.53,604.543 1644.38,600.66 1647.22,596.808 1650.07,593.026 1652.91,589.276 1655.75,585.596 1658.6,581.95 1661.44,578.375 1664.28,574.834 1667.13,571.364 
  1669.97,567.93 1672.82,564.567 1675.66,561.241 1678.5,557.986 1681.35,554.769 1684.19,551.623 1687.03,548.516 1689.88,545.481 1692.72,542.486 1695.57,539.562 
  1698.41,536.679 1701.25,533.868 1704.1,531.098 1706.94,528.4 1709.78,525.745 1712.63,523.161 1715.47,520.621 1718.32,518.152 1721.16,515.727 1724,513.374 
  1726.85,511.066 1729.69,508.829 1732.53,506.639 1735.38,504.519 1738.22,502.447 1741.07,500.445 1743.91,498.491 1746.75,496.607 1749.6,494.772 1752.44,493.008 
  1755.28,491.292 1758.13,489.647 1760.97,488.051 1763.82,486.526 1766.66,485.051 1769.5,483.647 1772.35,482.292 1775.19,481.009 1778.03,479.776 1780.88,478.614 
  1783.72,477.502 1786.57,476.462 1789.41,475.473 1792.25,474.555 1795.1,473.688 1797.94,472.892 1800.78,472.148 1803.63,471.475 1806.47,470.854 1809.32,470.305 
  1812.16,469.807 1815,469.381 1817.85,469.007 1820.69,468.704 1823.53,468.454 1826.38,468.276 1829.22,468.15 1832.07,468.096 1834.91,468.094 1837.75,468.165 
  1840.6,468.288 1843.44,468.483 1846.28,468.731 1849.13,469.051 1851.97,469.424 1854.82,469.87 1857.66,470.368 1860.5,470.939 1863.35,471.563 1866.19,472.26 
  1869.03,473.009 1871.88,473.832 1874.72,474.707 1877.57,475.656 1880.41,476.656 1883.25,477.732 1886.1,478.859 1888.94,480.061 1891.78,481.314 1894.63,482.643 
  1897.47,484.023 1900.32,485.479 1903.16,486.985 1906,488.568 1908.85,490.201 1911.69,491.911 1914.53,493.671 1917.38,495.509 1920.22,497.396 1923.07,499.361 
  1925.91,501.376 1928.75,503.469 1931.6,505.611 1934.44,507.832 1937.28,510.101 1940.13,512.45 1942.97,514.848 1945.82,517.325 1948.66,519.85 1951.5,522.456 
  1954.35,525.109 1957.19,527.844 1960.03,530.625 1962.88,533.489 1965.72,536.398 1968.57,539.391 1971.41,542.428 1974.25,545.55 1977.1,548.717 1979.94,551.968 
  1982.78,555.263 1985.63,558.644 1988.47,562.067 1991.32,565.578 1994.16,569.131 1997,572.771 1999.85,576.453 2002.69,580.224 2005.53,584.035 2008.38,587.935 
  2011.22,591.876 2014.07,595.907 2016.91,599.977 2019.75,604.139 2022.6,608.338 2025.44,612.631 2028.28,616.96 2031.13,621.384 2033.97,625.843 2036.82,630.397 
  2039.66,634.987 2042.5,639.673 2045.35,644.392 2048.19,649.209 2051.03,654.059 2053.88,659.008 2056.72,663.988 2059.57,669.068 2062.41,674.179 2065.25,679.392 
  2068.1,684.633 2070.94,689.977 2073.78,695.349 2076.63,700.826 2079.47,706.329 2082.32,711.938 2085.16,717.572 2088,723.314 2090.85,729.078 2093.69,734.953 
  2096.53,740.849 2099.38,746.857 2102.22,752.883 2105.07,759.024 2107.91,765.182 2110.75,771.456 2113.6,777.745 2116.44,784.152 2119.28,790.573 2122.13,797.114 
  2124.97,803.666 2127.82,810.34 2130.66,817.024 2133.5,823.832 2136.35,830.646 2139.19,837.588 2142.03,844.535 2144.88,851.61 2147.72,858.688 2150.57,865.897 
  2153.41,873.107 2156.25,880.45 2159.1,887.791 2161.94,895.268 2164.78,902.741 2167.63,910.352 2170.47,917.956 2173.32,925.701 2176.16,933.436 2179,941.315 
  2181.85,949.181 2184.69,957.195 2187.53,965.192 2190.38,973.339 2193.22,981.467 2196.07,989.748 2198.91,998.006 2201.75,1006.42 2204.6,1014.81 2207.44,1023.36 
  2210.28,1031.88 2213.13,1040.56 2215.97,1049.21 2218.82,1058.02 2221.66,1066.8 2224.5,1075.75 2227.35,1084.65 2230.19,1093.73 2233.03,1102.77 2235.88,1111.98 
  2238.72,1121.14 2241.57,1130.49 2244.41,1139.78 2247.25,1149.25 2250.1,1158.67 2252.94,1168.27 2255.78,1177.81 2258.63,1187.54 2261.47,1197.21 2264.32,1207.07 
  2267.16,1216.85 2270,1226.84 2272.85,1236.74 2275.69,1246.85 2278.53,1256.87 2281.38,1267.1 2284.22,1277.23 2287.07,1287.57 2289.91,1297.79 2292.75,1308.21 
  2295.6,1318.48 2298.44,1328.81 2301.28,1338.18 2304.13,1338.38 2306.97,1338.37 2309.82,1338.38 2312.66,1338.37 2315.5,1338.38 2318.35,1338.37 2321.19,1338.38 
  2324.03,1338.37 2326.88,1338.38 2329.72,1338.37 2332.57,1338.38 2335.41,1338.37 2338.25,1338.38 2341.1,1338.37 2343.94,1338.38 2346.78,1338.37 2349.63,1338.38 
  2352.47,1338.37 2355.32,1338.38 2358.16,1338.37 2361,1338.38 2363.85,1338.37 2366.69,1338.38 2369.53,1338.37 2372.38,1338.38 2375.22,1338.37 2378.07,1338.38 
  2380.91,1338.37 2383.75,1338.38 2386.6,1338.37 2389.44,1338.38 2392.28,1338.37 2395.13,1338.38 2397.97,1338.37 2400.82,1338.38 2403.66,1338.37 2406.5,1338.38 
  2409.35,1338.37 2412.19,1338.38 2415.03,1338.37 2417.88,1338.38 2420.72,1338.37 2423.57,1338.38 2426.41,1338.37 2429.25,1338.38 2432.1,1338.37 2434.94,1338.38 
  2437.78,1338.37 2440.63,1338.38 2443.47,1338.38 2446.32,1338.38 2449.16,1338.38 2452,1338.38 2454.85,1338.38 2457.69,1338.38 2460.53,1338.38 2463.38,1338.38 
  2466.22,1338.38 2469.07,1338.38 2471.91,1338.38 2474.75,1338.38 2477.6,1338.38 2480.44,1338.38 2483.28,1338.38 2486.13,1338.38 2488.97,1338.38 2491.82,1338.38 
  2494.66,1338.38 2497.5,1338.38 2500.35,1338.38 2503.19,1338.38 2506.03,1338.38 2508.88,1338.38 2511.72,1338.38 2514.57,1338.38 2517.41,1338.38 2520.25,1338.38 
  2523.1,1338.38 2525.94,1338.38 2528.78,1338.38 2531.63,1338.38 2534.47,1338.38 2537.32,1338.38 2540.16,1338.38 2543,1338.38 2545.85,1338.38 2548.69,1338.38 
  2551.53,1338.38 2554.38,1338.38 2557.22,1338.38 2560.07,1338.38 2562.91,1338.38 2565.75,1338.38 2568.6,1338.38 2571.44,1338.38 2574.28,1338.38 2577.13,1338.38 
  2579.97,1338.38 2582.82,1338.38 2585.66,1338.38 2588.5,1338.38 2591.35,1338.38 2594.19,1338.38 2597.03,1338.38 2599.88,1338.38 2602.72,1338.38 2605.57,1338.38 
  2608.41,1338.38 2611.25,1338.38 2614.1,1338.38 2616.94,1338.38 2619.78,1338.38 2622.63,1338.38 2625.47,1338.38 2628.32,1338.38 2631.16,1338.38 2634,1338.38 
  2636.85,1338.38 2639.69,1338.38 2642.53,1338.38 2645.38,1338.38 2648.22,1338.38 2651.07,1338.38 2653.91,1338.38 2656.75,1338.38 2659.6,1338.38 2662.44,1338.38 
  2665.28,1338.38 2668.13,1338.38 2670.97,1338.38 2673.82,1338.38 2676.66,1338.38 2679.5,1338.38 2682.35,1338.38 2685.19,1338.38 2688.03,1338.38 2690.88,1338.38 
  2693.72,1338.38 2696.56,1338.38 2699.41,1338.38 2702.25,1338.38 2705.1,1338.38 2707.94,1338.38 2710.78,1338.38 2713.63,1338.38 2716.47,1338.38 2719.31,1338.38 
  2722.16,1338.38 2725,1338.38 2727.85,1338.38 2730.69,1338.38 2733.53,1338.38 2736.38,1338.38 2739.22,1338.38 2742.06,1338.38 2744.91,1338.38 2747.75,1338.38 
  2750.6,1338.38 2753.44,1338.38 2756.28,1338.38 2759.13,1338.38 2761.97,1338.37 2764.81,1338.38 2767.66,1338.37 2770.5,1338.38 2773.35,1338.37 2776.19,1338.38 
  2779.03,1338.37 2781.88,1338.38 2784.72,1338.37 2787.56,1338.37 
  "/>
<path clip-path="url(#clip632)" d="M333.411 1306.37 L325.891 1328 L302.979 1328.48 L321.251 1342.34 L314.595 1364.26 L333.411 1351.17 L352.227 1364.26 L345.571 1342.34 L363.843 1328.48 L340.931 1328 L333.411 1306.37 Z" fill="#3da44d" fill-rule="evenodd" fill-opacity="0.6" stroke="#808080" stroke-opacity="0.6" stroke-width="0"/>
<path clip-path="url(#clip632)" d="M447.161 1004.26 L439.641 1025.9 L416.729 1026.38 L435.001 1040.23 L428.345 1062.15 L447.161 1049.06 L465.977 1062.15 L459.321 1040.23 L477.593 1026.38 L454.681 1025.9 L447.161 1004.26 Z" fill="#3da44d" fill-rule="evenodd" fill-opacity="0.6" stroke="#808080" stroke-opacity="0.6" stroke-width="0"/>
<path clip-path="url(#clip632)" d="M560.911 691.675 L553.391 713.307 L530.479 713.787 L548.751 727.643 L542.095 749.563 L560.911 736.475 L579.727 749.563 L573.071 727.643 L591.343 713.787 L568.431 713.307 L560.911 691.675 Z" fill="#3da44d" fill-rule="evenodd" fill-opacity="0.6" stroke="#808080" stroke-opacity="0.6" stroke-width="0"/>
<path clip-path="url(#clip632)" d="M674.66 483.361 L667.14 504.993 L644.228 505.473 L662.5 519.329 L655.844 541.249 L674.66 528.161 L693.476 541.249 L686.82 519.329 L705.092 505.473 L682.18 504.993 L674.66 483.361 Z" fill="#3da44d" fill-rule="evenodd" fill-opacity="0.6" stroke="#808080" stroke-opacity="0.6" stroke-width="0"/>
<path clip-path="url(#clip632)" d="M788.41 382.781 L780.89 404.413 L757.978 404.893 L776.25 418.749 L769.594 440.669 L788.41 427.581 L807.226 440.669 L800.57 418.749 L818.842 404.893 L795.93 404.413 L788.41 382.781 Z" fill="#3da44d" fill-rule="evenodd" fill-opacity="0.6" stroke="#808080" stroke-opacity="0.6" stroke-width="0"/>
<path clip-path="url(#clip632)" d="M902.16 394.821 L894.64 416.453 L871.728 416.933 L890 430.789 L883.344 452.709 L902.16 439.621 L920.976 452.709 L914.32 430.789 L932.592 416.933 L909.68 416.453 L902.16 394.821 Z" fill="#3da44d" fill-rule="evenodd" fill-opacity="0.6" stroke="#808080" stroke-opacity="0.6" stroke-width="0"/>
<path clip-path="url(#clip632)" d="M1015.91 519.855 L1008.39 541.487 L985.478 541.967 L1003.75 555.823 L997.094 577.743 L1015.91 564.655 L1034.73 577.743 L1028.07 555.823 L1046.34 541.967 L1023.43 541.487 L1015.91 519.855 Z" fill="#3da44d" fill-rule="evenodd" fill-opacity="0.6" stroke="#808080" stroke-opacity="0.6" stroke-width="0"/>
<path clip-path="url(#clip632)" d="M1129.66 737.666 L1122.14 759.298 L1099.23 759.778 L1117.5 773.634 L1110.84 795.554 L1129.66 782.466 L1148.48 795.554 L1141.82 773.634 L1160.09 759.778 L1137.18 759.298 L1129.66 737.666 Z" fill="#3da44d" fill-rule="evenodd" fill-opacity="0.6" stroke="#808080" stroke-opacity="0.6" stroke-width="0"/>
<path clip-path="url(#clip632)" d="M1243.41 967.076 L1235.89 988.708 L1212.98 989.188 L1231.25 1003.04 L1224.59 1024.96 L1243.41 1011.88 L1262.23 1024.96 L1255.57 1003.04 L1273.84 989.188 L1250.93 988.708 L1243.41 967.076 Z" fill="#3da44d" fill-rule="evenodd" fill-opacity="0.6" stroke="#808080" stroke-opacity="0.6" stroke-width="0"/>
<path clip-path="url(#clip632)" d="M1357.16 1029.5 L1349.64 1051.14 L1326.73 1051.62 L1345 1065.47 L1338.34 1087.39 L1357.16 1074.3 L1375.98 1087.39 L1369.32 1065.47 L1387.59 1051.62 L1364.68 1051.14 L1357.16 1029.5 Z" fill="#3da44d" fill-rule="evenodd" fill-opacity="0.6" stroke="#808080" stroke-opacity="0.6" stroke-width="0"/>
<path clip-path="url(#clip632)" d="M1470.91 870.574 L1463.39 892.206 L1440.48 892.686 L1458.75 906.542 L1452.09 928.462 L1470.91 915.374 L1489.73 928.462 L1483.07 906.542 L1501.34 892.686 L1478.43 892.206 L1470.91 870.574 Z" fill="#3da44d" fill-rule="evenodd" fill-opacity="0.6" stroke="#808080" stroke-opacity="0.6" stroke-width="0"/>
<path clip-path="url(#clip632)" d="M1584.66 660.203 L1577.14 681.835 L1554.23 682.315 L1572.5 696.171 L1565.84 718.091 L1584.66 705.003 L1603.48 718.091 L1596.82 696.171 L1615.09 682.315 L1592.18 681.835 L1584.66 660.203 Z" fill="#3da44d" fill-rule="evenodd" fill-opacity="0.6" stroke="#808080" stroke-opacity="0.6" stroke-width="0"/>
<path clip-path="url(#clip632)" d="M1698.41 504.679 L1690.89 526.311 L1667.98 526.791 L1686.25 540.647 L1679.59 562.567 L1698.41 549.479 L1717.23 562.567 L1710.57 540.647 L1728.84 526.791 L1705.93 526.311 L1698.41 504.679 Z" fill="#3da44d" fill-rule="evenodd" fill-opacity="0.6" stroke="#808080" stroke-opacity="0.6" stroke-width="0"/>
<path clip-path="url(#clip632)" d="M1812.16 437.807 L1804.64 459.439 L1781.73 459.919 L1800 473.775 L1793.34 495.695 L1812.16 482.607 L1830.98 495.695 L1824.32 473.775 L1842.59 459.919 L1819.68 459.439 L1812.16 437.807 Z" fill="#3da44d" fill-rule="evenodd" fill-opacity="0.6" stroke="#808080" stroke-opacity="0.6" stroke-width="0"/>
<path clip-path="url(#clip632)" d="M1925.91 469.376 L1918.39 491.008 L1895.48 491.488 L1913.75 505.344 L1907.09 527.264 L1925.91 514.176 L1944.73 527.264 L1938.07 505.344 L1956.34 491.488 L1933.43 491.008 L1925.91 469.376 Z" fill="#3da44d" fill-rule="evenodd" fill-opacity="0.6" stroke="#808080" stroke-opacity="0.6" stroke-width="0"/>
<path clip-path="url(#clip632)" d="M2039.66 602.987 L2032.14 624.619 L2009.23 625.099 L2027.5 638.955 L2020.84 660.875 L2039.66 647.787 L2058.48 660.875 L2051.82 638.955 L2070.09 625.099 L2047.18 624.619 L2039.66 602.987 Z" fill="#3da44d" fill-rule="evenodd" fill-opacity="0.6" stroke="#808080" stroke-opacity="0.6" stroke-width="0"/>
<path clip-path="url(#clip632)" d="M2153.41 841.107 L2145.89 862.739 L2122.98 863.219 L2141.25 877.075 L2134.59 898.995 L2153.41 885.907 L2172.23 898.995 L2165.57 877.075 L2183.84 863.219 L2160.93 862.739 L2153.41 841.107 Z" fill="#3da44d" fill-rule="evenodd" fill-opacity="0.6" stroke="#808080" stroke-opacity="0.6" stroke-width="0"/>
<path clip-path="url(#clip632)" d="M2267.16 1184.85 L2259.64 1206.48 L2236.73 1206.96 L2255 1220.82 L2248.34 1242.74 L2267.16 1229.65 L2285.98 1242.74 L2279.32 1220.82 L2297.59 1206.96 L2274.68 1206.48 L2267.16 1184.85 Z" fill="#3da44d" fill-rule="evenodd" fill-opacity="0.6" stroke="#808080" stroke-opacity="0.6" stroke-width="0"/>
<polyline clip-path="url(#clip632)" style="stroke:#3da44d; stroke-linecap:butt; stroke-linejoin:round; stroke-width:12; stroke-opacity:1; fill:none" points="
  -121.589,1338.38 -118.745,1338.38 -115.901,1338.38 -113.058,1338.38 -110.214,1338.38 -107.37,1338.38 -104.526,1338.38 -101.683,1338.38 -98.8389,1338.38 -95.9952,1338.38 
  -93.1514,1338.38 -90.3077,1338.38 -87.464,1338.38 -84.6202,1338.38 -81.7765,1338.38 -78.9327,1338.38 -76.089,1338.38 -73.2452,1338.38 -70.4015,1338.38 -67.5577,1338.38 
  -64.714,1338.38 -61.8702,1338.38 -59.0265,1338.38 -56.1827,1338.38 -53.339,1338.38 -50.4952,1338.38 -47.6515,1338.38 -44.8077,1338.38 -41.964,1338.38 -39.1202,1338.38 
  -36.2765,1338.38 -33.4327,1338.38 -30.589,1338.38 -27.7452,1338.38 -24.9015,1338.38 -22.0578,1338.38 -19.214,1338.38 -16.3703,1338.38 -13.5265,1338.38 -10.6828,1338.38 
  -7.83902,1338.38 -4.99527,1338.38 -2.15152,1338.38 0.692227,1338.38 3.53597,1338.38 6.37972,1338.38 9.22347,1338.38 12.0672,1338.38 14.911,1338.38 17.7547,1338.38 
  20.5985,1338.38 23.4422,1338.38 26.286,1338.38 29.1297,1338.38 31.9735,1338.38 34.8172,1338.38 37.6609,1338.38 40.5047,1338.38 43.3484,1338.38 46.1922,1338.38 
  49.0359,1338.38 51.8797,1338.38 54.7234,1338.38 57.5672,1338.38 60.4109,1338.38 63.2547,1338.38 66.0984,1338.38 68.9422,1338.38 71.7859,1338.38 74.6297,1338.38 
  77.4734,1338.38 80.3172,1338.38 83.1609,1338.38 86.0047,1338.38 88.8484,1338.38 91.6922,1338.38 94.5359,1338.38 97.3796,1338.38 100.223,1338.38 103.067,1338.38 
  105.911,1338.38 108.755,1338.38 111.598,1338.38 114.442,1338.38 117.286,1338.38 120.13,1338.38 122.973,1338.38 125.817,1338.38 128.661,1338.38 131.505,1338.38 
  134.348,1338.38 137.192,1338.38 140.036,1338.38 142.88,1338.38 145.723,1338.38 148.567,1338.38 151.411,1338.38 154.255,1338.38 157.098,1338.38 159.942,1338.38 
  162.786,1338.38 165.63,1338.38 168.473,1338.38 171.317,1338.38 174.161,1338.38 177.005,1338.38 179.848,1338.38 182.692,1338.38 185.536,1338.38 188.38,1338.38 
  191.223,1338.38 194.067,1338.38 196.911,1338.38 199.755,1338.38 202.598,1338.38 205.442,1338.38 208.286,1338.38 211.13,1338.38 213.973,1338.38 216.817,1338.38 
  219.661,1338.38 222.505,1338.38 225.348,1338.38 228.192,1338.38 231.036,1338.38 233.88,1338.38 236.723,1338.38 239.567,1338.38 242.411,1338.38 245.255,1338.38 
  248.098,1338.38 250.942,1338.38 253.786,1338.38 256.63,1338.38 259.473,1338.38 262.317,1338.38 265.161,1338.38 268.005,1338.38 270.848,1338.38 273.692,1338.38 
  276.536,1338.38 279.379,1338.38 282.223,1338.38 285.067,1338.38 287.911,1338.38 290.754,1338.38 293.598,1338.38 296.442,1338.38 299.286,1338.38 302.129,1338.38 
  304.973,1338.37 307.817,1338.38 310.661,1338.37 313.504,1338.38 316.348,1338.37 319.192,1338.38 322.036,1338.37 324.879,1338.38 327.723,1338.37 330.567,1338.38 
  333.411,1338.37 336.254,1338.38 339.098,1338.37 341.942,1338.38 344.786,1338.37 347.629,1338.38 350.473,1338.37 353.317,1338.38 356.161,1338.37 359.004,1338.37 
  361.848,1338.15 364.692,1327.66 367.536,1316.52 370.379,1305.38 373.223,1294.21 376.067,1283.15 378.911,1272.08 381.754,1261.12 384.598,1250.17 387.442,1239.33 
  390.286,1228.49 393.129,1217.77 395.973,1207.06 398.817,1196.46 401.661,1185.87 404.504,1175.39 407.348,1164.92 410.192,1154.56 413.036,1144.21 415.879,1133.97 
  418.723,1123.74 421.567,1113.62 424.411,1103.51 427.254,1093.51 430.098,1083.52 432.942,1073.64 435.786,1063.77 438.629,1054.01 441.473,1044.26 444.317,1034.61 
  447.161,1024.98 450.004,1015.46 452.848,1005.94 455.692,996.535 458.536,987.139 461.379,977.851 464.223,968.573 467.067,959.403 469.911,950.244 472.754,941.192 
  475.598,932.15 478.442,923.215 481.286,914.291 484.129,905.474 486.973,896.668 489.817,887.968 492.661,879.279 495.504,870.697 498.348,862.125 501.192,853.66 
  504.036,845.206 506.879,836.858 509.723,828.521 512.567,820.291 515.411,812.071 518.254,803.957 521.098,795.855 523.942,787.858 526.786,779.872 529.629,771.993 
  532.473,764.124 535.317,756.362 538.161,748.61 541.004,740.964 543.848,733.33 546.692,725.801 549.536,718.283 552.379,710.871 555.223,703.471 558.067,696.176 
  560.911,688.892 563.754,681.714 566.598,674.547 569.442,667.486 572.286,660.436 575.129,653.492 577.973,646.559 580.817,639.731 583.66,632.916 586.504,626.205 
  589.348,619.506 592.192,612.912 595.035,606.331 597.879,599.854 600.723,593.389 603.567,587.029 606.41,580.681 609.254,574.439 612.098,568.208 614.942,562.082 
  617.785,555.969 620.629,549.96 623.473,543.963 626.317,538.072 629.16,532.192 632.004,526.418 634.848,520.655 637.692,514.998 640.535,509.353 643.379,503.813 
  646.223,498.285 649.067,492.862 651.91,487.451 654.754,482.146 657.598,476.852 660.442,471.664 663.285,466.488 666.129,461.417 668.973,456.358 671.817,451.404 
  674.66,446.463 677.504,441.627 680.348,436.803 683.192,432.084 686.035,427.378 688.879,422.776 691.723,418.188 694.567,413.703 697.41,409.232 700.254,404.866 
  703.098,400.512 705.942,396.263 708.785,392.027 711.629,387.896 714.473,383.777 717.317,379.763 720.16,375.763 723.004,371.866 725.848,367.983 728.692,364.205 
  731.535,360.439 734.379,356.778 737.223,353.131 740.067,349.587 742.91,346.057 745.754,342.632 748.598,339.22 751.442,335.912 754.285,332.617 757.129,329.427 
  759.973,326.251 762.817,323.178 765.66,320.119 768.504,317.164 771.348,314.223 774.192,311.386 777.035,308.563 779.879,305.843 782.723,303.138 785.567,300.536 
  788.41,297.948 791.254,295.464 794.098,292.994 796.942,290.627 799.785,288.274 802.629,286.026 805.473,283.791 808.317,281.659 811.16,279.542 814.004,277.528 
  816.848,275.528 819.692,273.632 822.535,271.749 825.379,269.97 828.223,268.205 831.067,266.543 833.91,264.895 836.754,263.351 839.598,261.82 842.442,260.393 
  845.285,258.979 848.129,257.669 850.973,256.372 853.817,255.179 856.66,253.999 859.504,252.922 862.348,251.859 865.192,250.899 868.035,249.952 870.879,249.109 
  873.723,248.279 876.567,247.552 879.41,246.838 882.254,246.227 885.098,245.629 887.941,245.134 890.785,244.652 893.629,244.272 896.473,243.906 899.316,243.642 
  902.16,243.391 905.004,243.242 907.848,243.107 910.691,243.073 913.535,243.052 916.379,243.133 919.223,243.226 922.066,243.422 924.91,243.63 927.754,243.939 
  930.598,244.261 933.441,244.684 936.285,245.12 939.129,245.656 941.973,246.205 944.816,246.854 947.66,247.516 950.504,248.278 953.348,249.052 956.191,249.926 
  959.035,250.811 961.879,251.797 964.723,252.794 967.566,253.891 970.41,254.999 973.254,256.207 976.098,257.425 978.941,258.743 981.785,260.071 984.629,261.498 
  987.473,262.935 990.316,264.471 993.16,266.017 996.004,267.661 998.848,269.314 1001.69,271.066 1004.54,272.827 1007.38,274.685 1010.22,276.552 1013.07,278.516 
  1015.91,280.489 1018.75,282.558 1021.6,284.636 1024.44,286.809 1027.29,288.991 1030.13,291.268 1032.97,293.552 1035.82,295.931 1038.66,298.317 1041.5,300.798 
  1044.35,303.285 1047.19,305.867 1050.04,308.454 1052.88,311.134 1055.72,313.82 1058.57,316.599 1061.41,319.382 1064.25,322.258 1067.1,325.137 1069.94,328.108 
  1072.79,331.083 1075.63,334.149 1078.47,337.217 1081.32,340.376 1084.16,343.536 1087,346.786 1089.85,350.037 1092.69,353.378 1095.54,356.718 1098.38,360.147 
  1101.22,363.574 1104.07,367.09 1106.91,370.604 1109.75,374.204 1112.6,377.802 1115.44,381.486 1118.29,385.167 1121.13,388.932 1123.97,392.693 1126.82,396.537 
  1129.66,400.377 1132.5,404.299 1135.35,408.214 1138.19,412.212 1141.04,416.202 1143.88,420.273 1146.72,424.335 1149.57,428.476 1152.41,432.608 1155.25,436.818 
  1158.1,441.017 1160.94,445.294 1163.79,449.557 1166.63,453.898 1169.47,458.224 1172.32,462.625 1175.16,467.01 1178,471.47 1180.85,475.912 1183.69,480.427 
  1186.53,484.924 1189.38,489.491 1192.22,494.039 1195.07,498.656 1197.91,503.252 1200.75,507.916 1203.6,512.556 1206.44,517.264 1209.28,521.946 1212.13,526.693 
  1214.97,531.414 1217.82,536.198 1220.66,540.954 1223.5,545.771 1226.35,550.559 1229.19,555.406 1232.03,560.222 1234.88,565.095 1237.72,569.935 1240.57,574.83 
  1243.41,579.691 1246.25,584.605 1249.1,589.482 1251.94,594.411 1254.78,599.301 1257.63,604.24 1260.47,609.139 1263.32,614.085 1266.16,618.988 1269,623.937 
  1271.85,628.841 1274.69,633.788 1277.53,638.688 1280.38,643.63 1283.22,648.521 1286.07,653.452 1288.91,658.332 1291.75,663.248 1294.6,668.11 1297.44,673.008 
  1300.28,677.849 1303.13,682.723 1305.97,687.538 1308.82,692.384 1311.66,697.168 1314.5,701.981 1317.35,706.731 1320.19,711.507 1323.03,716.217 1325.88,720.951 
  1328.72,725.617 1331.57,730.304 1334.41,734.922 1337.25,739.558 1340.1,744.122 1342.94,748.703 1345.78,753.208 1348.63,757.729 1351.47,762.172 1354.32,766.628 
  1357.16,771.004 1360,775.391 1362.85,779.696 1365.69,784.009 1368.53,788.238 1371.38,792.473 1374.22,796.621 1377.07,800.774 1379.91,804.838 1382.75,808.905 
  1385.6,812.881 1388.44,816.856 1391.28,820.74 1394.13,824.621 1396.97,828.408 1399.82,832.191 1402.66,835.878 1405.5,839.56 1408.35,843.143 1411.19,846.719 
  1414.03,850.195 1416.88,853.662 1419.72,857.028 1422.57,860.383 1425.41,863.635 1428.25,866.876 1431.1,870.012 1433.94,873.135 1436.78,876.152 1439.63,879.155 
  1442.47,882.051 1445.32,884.931 1448.16,887.704 1451,890.46 1453.85,893.107 1456.69,895.736 1459.53,898.257 1462.38,900.758 1465.22,903.15 1468.07,905.522 
  1470.91,907.784 1473.75,910.026 1476.6,912.157 1479.44,914.268 1482.28,916.268 1485.13,918.248 1487.97,920.116 1490.82,921.963 1493.66,923.7 1496.5,925.415 
  1499.35,927.02 1502.19,928.604 1505.03,930.077 1507.88,931.53 1510.72,932.872 1513.57,934.195 1516.41,935.408 1519.25,936.601 1522.1,937.685 1524.94,938.751 
  1527.78,939.708 1530.63,940.647 1533.47,941.478 1536.32,942.292 1539.16,943 1542,943.691 1544.85,944.278 1547.69,944.848 1550.53,945.315 1553.38,945.768 
  1556.22,946.118 1559.07,946.455 1561.91,946.691 1564.75,946.915 1567.6,947.04 1570.44,947.154 1573.28,947.171 1576.13,947.178 1578.97,947.089 1581.82,946.993 
  1584.66,946.802 1587.5,946.606 1590.35,946.317 1593.19,946.023 1596.03,945.64 1598.88,945.253 1601.72,944.778 1604.57,944.301 1607.41,943.739 1610.25,943.177 
  1613.1,942.53 1615.94,941.886 1618.78,941.16 1621.63,940.437 1624.47,939.635 1627.32,938.838 1630.16,937.964 1633,937.097 1635.85,936.154 1638.69,935.221 
  1641.53,934.214 1644.38,933.218 1647.22,932.151 1650.07,931.097 1652.91,929.974 1655.75,928.866 1658.6,927.691 1661.44,926.532 1664.28,925.309 1667.13,924.104 
  1669.97,922.837 1672.82,921.59 1675.66,920.283 1678.5,918.997 1681.35,917.654 1684.19,916.334 1687.03,914.958 1689.88,913.607 1692.72,912.203 1695.57,910.826 
  1698.41,909.397 1701.25,907.997 1704.1,906.548 1706.94,905.129 1709.78,903.662 1712.63,902.228 1715.47,900.748 1718.32,899.302 1721.16,897.813 1724,896.358 
  1726.85,894.863 1729.69,893.404 1732.53,891.906 1735.38,890.446 1738.22,888.95 1741.07,887.492 1743.91,886 1746.75,884.548 1749.6,883.064 1752.44,881.621 
  1755.28,880.147 1758.13,878.717 1760.97,877.258 1763.82,875.843 1766.66,874.402 1769.5,873.006 1772.35,871.585 1775.19,870.211 1778.03,868.814 1780.88,867.465 
  1783.72,866.095 1786.57,864.774 1789.41,863.433 1792.25,862.143 1795.1,860.835 1797.94,859.578 1800.78,858.305 1803.63,857.085 1806.47,855.851 1809.32,854.67 
  1812.16,853.476 1815,852.337 1817.85,851.187 1820.69,850.092 1823.53,848.989 1826.38,847.941 1829.22,846.886 1832.07,845.888 1834.91,844.885 1837.75,843.939 
  1840.6,842.989 1843.44,842.098 1846.28,841.204 1849.13,840.37 1851.97,839.535 1854.82,838.76 1857.66,837.985 1860.5,837.272 1863.35,836.56 1866.19,835.91 
  1869.03,835.264 1871.88,834.68 1874.72,834.101 1877.57,833.586 1880.41,833.076 1883.25,832.631 1886.1,832.193 1888.94,831.82 1891.78,831.456 1894.63,831.157 
  1897.47,830.869 1900.32,830.646 1903.16,830.435 1906,830.291 1908.85,830.16 1911.69,830.095 1914.53,830.045 1917.38,830.063 1920.22,830.096 1923.07,830.198 
  1925.91,830.316 1928.75,830.503 1931.6,830.709 1934.44,830.983 1937.28,831.277 1940.13,831.641 1942.97,832.025 1945.82,832.48 1948.66,832.956 1951.5,833.503 
  1954.35,834.073 1957.19,834.714 1960.03,835.379 1962.88,836.116 1965.72,836.878 1968.57,837.712 1971.41,838.573 1974.25,839.506 1977.1,840.467 1979.94,841.501 
  1982.78,842.563 1985.63,843.698 1988.47,844.864 1991.32,846.103 1994.16,847.373 1997,848.717 1999.85,850.093 2002.69,851.543 2005.53,853.026 2008.38,854.585 
  2011.22,856.177 2014.07,857.845 2016.91,859.547 2019.75,861.326 2022.6,863.139 2025.44,865.03 2028.28,866.957 2031.13,868.961 2033.97,871.002 2036.82,873.121 
  2039.66,875.277 2042.5,877.512 2045.35,879.786 2048.19,882.138 2051.03,884.53 2053.88,887.001 2056.72,889.512 2059.57,892.104 2062.41,894.736 2065.25,897.448 
  2068.1,900.202 2070.94,903.037 2073.78,905.914 2076.63,908.873 2079.47,911.874 2082.32,914.958 2085.16,918.085 2088,921.295 2090.85,924.548 2093.69,927.886 
  2096.53,931.267 2099.38,934.733 2102.22,938.244 2105.07,941.839 2107.91,945.48 2110.75,949.206 2113.6,952.979 2116.44,956.837 2119.28,960.742 2122.13,964.733 
  2124.97,968.772 2127.82,972.897 2130.66,977.07 2133.5,981.33 2136.35,985.639 2139.19,990.036 2142.03,994.482 2144.88,999.016 2147.72,1003.6 2150.57,1008.27 
  2153.41,1012.99 2156.25,1017.81 2159.1,1022.67 2161.94,1027.62 2164.78,1032.62 2167.63,1037.72 2170.47,1042.86 2173.32,1048.1 2176.16,1053.39 2179,1058.77 
  2181.85,1064.2 2184.69,1069.72 2187.53,1075.31 2190.38,1080.97 2193.22,1086.7 2196.07,1092.52 2198.91,1098.4 2201.75,1104.36 2204.6,1110.39 2207.44,1116.51 
  2210.28,1122.69 2213.13,1128.96 2215.97,1135.3 2218.82,1141.72 2221.66,1148.23 2224.5,1154.8 2227.35,1161.48 2230.19,1168.21 2233.03,1175.06 2235.88,1181.96 
  2238.72,1189 2241.57,1196.07 2244.41,1203.29 2247.25,1210.54 2250.1,1217.97 2252.94,1225.4 2255.78,1233.05 2258.63,1240.68 2261.47,1248.57 2264.32,1256.39 
  2267.16,1264.53 2270,1272.56 2272.85,1280.96 2275.69,1289.18 2278.53,1297.85 2281.38,1306.23 2284.22,1315.09 2287.07,1323.49 2289.91,1332.11 2292.75,1338.26 
  2295.6,1338.39 2298.44,1338.37 2301.28,1338.39 2304.13,1338.36 2306.97,1338.4 2309.82,1338.36 2312.66,1338.4 2315.5,1338.36 2318.35,1338.4 2321.19,1338.37 
  2324.03,1338.39 2326.88,1338.37 2329.72,1338.39 2332.57,1338.37 2335.41,1338.39 2338.25,1338.38 2341.1,1338.39 2343.94,1338.38 2346.78,1338.38 2349.63,1338.38 
  2352.47,1338.38 2355.32,1338.38 2358.16,1338.38 2361,1338.38 2363.85,1338.38 2366.69,1338.38 2369.53,1338.38 2372.38,1338.38 2375.22,1338.38 2378.07,1338.38 
  2380.91,1338.38 2383.75,1338.38 2386.6,1338.38 2389.44,1338.38 2392.28,1338.38 2395.13,1338.38 2397.97,1338.38 2400.82,1338.38 2403.66,1338.38 2406.5,1338.38 
  2409.35,1338.38 2412.19,1338.38 2415.03,1338.38 2417.88,1338.38 2420.72,1338.38 2423.57,1338.38 2426.41,1338.38 2429.25,1338.38 2432.1,1338.38 2434.94,1338.38 
  2437.78,1338.38 2440.63,1338.38 2443.47,1338.38 2446.32,1338.38 2449.16,1338.38 2452,1338.38 2454.85,1338.38 2457.69,1338.38 2460.53,1338.38 2463.38,1338.38 
  2466.22,1338.38 2469.07,1338.38 2471.91,1338.38 2474.75,1338.38 2477.6,1338.38 2480.44,1338.38 2483.28,1338.38 2486.13,1338.38 2488.97,1338.38 2491.82,1338.38 
  2494.66,1338.38 2497.5,1338.38 2500.35,1338.38 2503.19,1338.38 2506.03,1338.38 2508.88,1338.38 2511.72,1338.38 2514.57,1338.39 2517.41,1338.38 2520.25,1338.39 
  2523.1,1338.38 2525.94,1338.39 2528.78,1338.38 2531.63,1338.39 2534.47,1338.38 2537.32,1338.39 2540.16,1338.38 2543,1338.39 2545.85,1338.38 2548.69,1338.39 
  2551.53,1338.38 2554.38,1338.39 2557.22,1338.38 2560.07,1338.39 2562.91,1338.38 2565.75,1338.39 2568.6,1338.39 2571.44,1338.39 2574.28,1338.39 2577.13,1338.39 
  2579.97,1338.39 2582.82,1338.39 2585.66,1338.39 2588.5,1338.39 2591.35,1338.39 2594.19,1338.39 2597.03,1338.39 2599.88,1338.39 2602.72,1338.39 2605.57,1338.39 
  2608.41,1338.39 2611.25,1338.39 2614.1,1338.39 2616.94,1338.39 2619.78,1338.39 2622.63,1338.39 2625.47,1338.39 2628.32,1338.39 2631.16,1338.39 2634,1338.39 
  2636.85,1338.39 2639.69,1338.39 2642.53,1338.39 2645.38,1338.39 2648.22,1338.39 2651.07,1338.39 2653.91,1338.39 2656.75,1338.39 2659.6,1338.39 2662.44,1338.39 
  2665.28,1338.39 2668.13,1338.39 2670.97,1338.39 2673.82,1338.39 2676.66,1338.39 2679.5,1338.39 2682.35,1338.39 2685.19,1338.39 2688.03,1338.39 2690.88,1338.39 
  2693.72,1338.39 2696.56,1338.39 2699.41,1338.39 2702.25,1338.39 2705.1,1338.38 2707.94,1338.39 2710.78,1338.38 2713.63,1338.39 2716.47,1338.38 2719.31,1338.39 
  2722.16,1338.38 2725,1338.39 2727.85,1338.38 2730.69,1338.39 2733.53,1338.38 2736.38,1338.39 2739.22,1338.38 2742.06,1338.39 2744.91,1338.38 2747.75,1338.39 
  2750.6,1338.38 2753.44,1338.39 2756.28,1338.38 2759.13,1338.38 2761.97,1338.38 2764.81,1338.38 2767.66,1338.38 2770.5,1338.38 2773.35,1338.38 2776.19,1338.38 
  2779.03,1338.38 2781.88,1338.38 2784.72,1338.38 2787.56,1338.38 
  "/>
<path clip-path="url(#clip632)" d="M333.411 1306.37 L301.411 1370.37 L365.411 1370.37 L333.411 1306.37 Z" fill="#3da44d" fill-rule="evenodd" fill-opacity="0.6" stroke="#808080" stroke-opacity="0.6" stroke-width="0"/>
<path clip-path="url(#clip632)" d="M447.161 992.98 L415.161 1056.98 L479.161 1056.98 L447.161 992.98 Z" fill="#3da44d" fill-rule="evenodd" fill-opacity="0.6" stroke="#808080" stroke-opacity="0.6" stroke-width="0"/>
<path clip-path="url(#clip632)" d="M560.911 656.892 L528.911 720.892 L592.911 720.892 L560.911 656.892 Z" fill="#3da44d" fill-rule="evenodd" fill-opacity="0.6" stroke="#808080" stroke-opacity="0.6" stroke-width="0"/>
<path clip-path="url(#clip632)" d="M674.66 414.463 L642.66 478.463 L706.66 478.463 L674.66 414.463 Z" fill="#3da44d" fill-rule="evenodd" fill-opacity="0.6" stroke="#808080" stroke-opacity="0.6" stroke-width="0"/>
<path clip-path="url(#clip632)" d="M788.41 265.948 L756.41 329.948 L820.41 329.948 L788.41 265.948 Z" fill="#3da44d" fill-rule="evenodd" fill-opacity="0.6" stroke="#808080" stroke-opacity="0.6" stroke-width="0"/>
<path clip-path="url(#clip632)" d="M902.16 211.391 L870.16 275.391 L934.16 275.391 L902.16 211.391 Z" fill="#3da44d" fill-rule="evenodd" fill-opacity="0.6" stroke="#808080" stroke-opacity="0.6" stroke-width="0"/>
<path clip-path="url(#clip632)" d="M1015.91 248.489 L983.91 312.489 L1047.91 312.489 L1015.91 248.489 Z" fill="#3da44d" fill-rule="evenodd" fill-opacity="0.6" stroke="#808080" stroke-opacity="0.6" stroke-width="0"/>
<path clip-path="url(#clip632)" d="M1129.66 368.377 L1097.66 432.377 L1161.66 432.377 L1129.66 368.377 Z" fill="#3da44d" fill-rule="evenodd" fill-opacity="0.6" stroke="#808080" stroke-opacity="0.6" stroke-width="0"/>
<path clip-path="url(#clip632)" d="M1243.41 547.691 L1211.41 611.691 L1275.41 611.691 L1243.41 547.691 Z" fill="#3da44d" fill-rule="evenodd" fill-opacity="0.6" stroke="#808080" stroke-opacity="0.6" stroke-width="0"/>
<path clip-path="url(#clip632)" d="M1357.16 739.004 L1325.16 803.004 L1389.16 803.004 L1357.16 739.004 Z" fill="#3da44d" fill-rule="evenodd" fill-opacity="0.6" stroke="#808080" stroke-opacity="0.6" stroke-width="0"/>
<path clip-path="url(#clip632)" d="M1470.91 875.784 L1438.91 939.784 L1502.91 939.784 L1470.91 875.784 Z" fill="#3da44d" fill-rule="evenodd" fill-opacity="0.6" stroke="#808080" stroke-opacity="0.6" stroke-width="0"/>
<path clip-path="url(#clip632)" d="M1584.66 914.802 L1552.66 978.802 L1616.66 978.802 L1584.66 914.802 Z" fill="#3da44d" fill-rule="evenodd" fill-opacity="0.6" stroke="#808080" stroke-opacity="0.6" stroke-width="0"/>
<path clip-path="url(#clip632)" d="M1698.41 877.397 L1666.41 941.397 L1730.41 941.397 L1698.41 877.397 Z" fill="#3da44d" fill-rule="evenodd" fill-opacity="0.6" stroke="#808080" stroke-opacity="0.6" stroke-width="0"/>
<path clip-path="url(#clip632)" d="M1812.16 821.476 L1780.16 885.476 L1844.16 885.476 L1812.16 821.476 Z" fill="#3da44d" fill-rule="evenodd" fill-opacity="0.6" stroke="#808080" stroke-opacity="0.6" stroke-width="0"/>
<path clip-path="url(#clip632)" d="M1925.91 798.316 L1893.91 862.316 L1957.91 862.316 L1925.91 798.316 Z" fill="#3da44d" fill-rule="evenodd" fill-opacity="0.6" stroke="#808080" stroke-opacity="0.6" stroke-width="0"/>
<path clip-path="url(#clip632)" d="M2039.66 843.277 L2007.66 907.277 L2071.66 907.277 L2039.66 843.277 Z" fill="#3da44d" fill-rule="evenodd" fill-opacity="0.6" stroke="#808080" stroke-opacity="0.6" stroke-width="0"/>
<path clip-path="url(#clip632)" d="M2153.41 980.994 L2121.41 1044.99 L2185.41 1044.99 L2153.41 980.994 Z" fill="#3da44d" fill-rule="evenodd" fill-opacity="0.6" stroke="#808080" stroke-opacity="0.6" stroke-width="0"/>
<path clip-path="url(#clip632)" d="M2267.16 1232.53 L2235.16 1296.53 L2299.16 1296.53 L2267.16 1232.53 Z" fill="#3da44d" fill-rule="evenodd" fill-opacity="0.6" stroke="#808080" stroke-opacity="0.6" stroke-width="0"/>
<path clip-path="url(#clip630)" d="M2238.75 94.6765 Q2229.44 110.649 2224.93 126.274 Q2220.41 141.898 2220.41 157.94 Q2220.41 173.982 2224.93 189.745 Q2229.51 205.44 2238.75 221.342 L2227.64 221.342 Q2217.22 205.023 2212.01 189.259 Q2206.87 173.495 2206.87 157.94 Q2206.87 142.454 2212.01 126.76 Q2217.15 111.065 2227.64 94.6765 L2238.75 94.6765 Z" fill="#000000" fill-rule="evenodd" fill-opacity="1" /><path clip-path="url(#clip630)" d="M2319.51 127.801 L2319.51 139.746 Q2314.09 136.76 2308.61 135.301 Q2303.19 133.773 2297.64 133.773 Q2285.2 133.773 2278.33 141.69 Q2271.45 149.537 2271.45 163.773 Q2271.45 178.009 2278.33 185.926 Q2285.2 193.773 2297.64 193.773 Q2303.19 193.773 2308.61 192.315 Q2314.09 190.787 2319.51 187.801 L2319.51 199.606 Q2314.16 202.106 2308.4 203.356 Q2302.7 204.606 2296.25 204.606 Q2278.68 204.606 2268.33 193.565 Q2257.98 182.523 2257.98 163.773 Q2257.98 144.746 2268.4 133.843 Q2278.89 122.94 2297.08 122.94 Q2302.98 122.94 2308.61 124.19 Q2314.23 125.371 2319.51 127.801 Z" fill="#000000" fill-rule="evenodd" fill-opacity="1" /><path clip-path="url(#clip630)" d="M2339.72 94.6765 L2350.83 94.6765 Q2361.25 111.065 2366.38 126.76 Q2371.59 142.454 2371.59 157.94 Q2371.59 173.495 2366.38 189.259 Q2361.25 205.023 2350.83 221.342 L2339.72 221.342 Q2348.95 205.44 2353.47 189.745 Q2358.05 173.982 2358.05 157.94 Q2358.05 141.898 2353.47 126.274 Q2348.95 110.649 2339.72 94.6765 Z" fill="#000000" fill-rule="evenodd" fill-opacity="1" /></svg>
