<?xml version="1.0" encoding="utf-8"?>
<svg xmlns="http://www.w3.org/2000/svg" xmlns:xlink="http://www.w3.org/1999/xlink" width="600" height="400" viewBox="0 0 2400 1600">
<defs>
  <clipPath id="clip070">
    <rect x="0" y="0" width="2400" height="1600"/>
  </clipPath>
</defs>
<path clip-path="url(#clip070)" d="
M0 1600 L2400 1600 L2400 0 L0 0  Z
  " fill="#ffffff" fill-rule="evenodd" fill-opacity="1"/>
<defs>
  <clipPath id="clip071">
    <rect x="480" y="0" width="1681" height="1600"/>
  </clipPath>
</defs>
<path clip-path="url(#clip070)" d="
M312.577 1341.1 L2352.76 1341.1 L2352.76 47.2441 L312.577 47.2441  Z
  " fill="#ffffff" fill-rule="evenodd" fill-opacity="1"/>
<defs>
  <clipPath id="clip072">
    <rect x="312" y="47" width="2041" height="1295"/>
  </clipPath>
</defs>
<polyline clip-path="url(#clip070)" style="stroke:#000000; stroke-linecap:butt; stroke-linejoin:round; stroke-width:4; stroke-opacity:1; fill:none" points="
  312.577,1341.1 2352.76,1341.1 
  "/>
<polyline clip-path="url(#clip070)" style="stroke:#000000; stroke-linecap:butt; stroke-linejoin:round; stroke-width:4; stroke-opacity:1; fill:none" points="
  312.577,1341.1 312.577,1322.2 
  "/>
<polyline clip-path="url(#clip070)" style="stroke:#000000; stroke-linecap:butt; stroke-linejoin:round; stroke-width:4; stroke-opacity:1; fill:none" points="
  940.324,1341.1 940.324,1322.2 
  "/>
<polyline clip-path="url(#clip070)" style="stroke:#000000; stroke-linecap:butt; stroke-linejoin:round; stroke-width:4; stroke-opacity:1; fill:none" points="
  1568.07,1341.1 1568.07,1322.2 
  "/>
<polyline clip-path="url(#clip070)" style="stroke:#000000; stroke-linecap:butt; stroke-linejoin:round; stroke-width:4; stroke-opacity:1; fill:none" points="
  2195.82,1341.1 2195.82,1322.2 
  "/>
<path clip-path="url(#clip070)" d="M227.76 1386.67 Q219.635 1386.67 215.52 1394.69 Q211.458 1402.66 211.458 1418.7 Q211.458 1434.69 215.52 1442.71 Q219.635 1450.68 227.76 1450.68 Q235.937 1450.68 239.999 1442.71 Q244.114 1434.69 244.114 1418.7 Q244.114 1402.66 239.999 1394.69 Q235.937 1386.67 227.76 1386.67 M227.76 1378.33 Q240.833 1378.33 247.708 1388.7 Q254.635 1399.01 254.635 1418.7 Q254.635 1438.33 247.708 1448.7 Q240.833 1459.01 227.76 1459.01 Q214.687 1459.01 207.76 1448.7 Q200.885 1438.33 200.885 1418.7 Q200.885 1399.01 207.76 1388.7 Q214.687 1378.33 227.76 1378.33 Z" fill="#000000" fill-rule="evenodd" fill-opacity="1" /><path clip-path="url(#clip070)" d="M273.124 1444.27 L284.114 1444.27 L284.114 1457.5 L273.124 1457.5 L273.124 1444.27 Z" fill="#000000" fill-rule="evenodd" fill-opacity="1" /><path clip-path="url(#clip070)" d="M329.53 1386.67 Q321.405 1386.67 317.291 1394.69 Q313.228 1402.66 313.228 1418.7 Q313.228 1434.69 317.291 1442.71 Q321.405 1450.68 329.53 1450.68 Q337.707 1450.68 341.77 1442.71 Q345.884 1434.69 345.884 1418.7 Q345.884 1402.66 341.77 1394.69 Q337.707 1386.67 329.53 1386.67 M329.53 1378.33 Q342.603 1378.33 349.478 1388.7 Q356.405 1399.01 356.405 1418.7 Q356.405 1438.33 349.478 1448.7 Q342.603 1459.01 329.53 1459.01 Q316.457 1459.01 309.53 1448.7 Q302.655 1438.33 302.655 1418.7 Q302.655 1399.01 309.53 1388.7 Q316.457 1378.33 329.53 1378.33 Z" fill="#000000" fill-rule="evenodd" fill-opacity="1" /><path clip-path="url(#clip070)" d="M397.394 1386.67 Q389.269 1386.67 385.155 1394.69 Q381.092 1402.66 381.092 1418.7 Q381.092 1434.69 385.155 1442.71 Q389.269 1450.68 397.394 1450.68 Q405.571 1450.68 409.634 1442.71 Q413.748 1434.69 413.748 1418.7 Q413.748 1402.66 409.634 1394.69 Q405.571 1386.67 397.394 1386.67 M397.394 1378.33 Q410.467 1378.33 417.342 1388.7 Q424.269 1399.01 424.269 1418.7 Q424.269 1438.33 417.342 1448.7 Q410.467 1459.01 397.394 1459.01 Q384.321 1459.01 377.394 1448.7 Q370.519 1438.33 370.519 1418.7 Q370.519 1399.01 377.394 1388.7 Q384.321 1378.33 397.394 1378.33 Z" fill="#000000" fill-rule="evenodd" fill-opacity="1" /><path clip-path="url(#clip070)" d="M854.96 1386.67 Q846.835 1386.67 842.721 1394.69 Q838.658 1402.66 838.658 1418.7 Q838.658 1434.69 842.721 1442.71 Q846.835 1450.68 854.96 1450.68 Q863.137 1450.68 867.2 1442.71 Q871.314 1434.69 871.314 1418.7 Q871.314 1402.66 867.2 1394.69 Q863.137 1386.67 854.96 1386.67 M854.96 1378.33 Q868.033 1378.33 874.908 1388.7 Q881.835 1399.01 881.835 1418.7 Q881.835 1438.33 874.908 1448.7 Q868.033 1459.01 854.96 1459.01 Q841.887 1459.01 834.96 1448.7 Q828.085 1438.33 828.085 1418.7 Q828.085 1399.01 834.96 1388.7 Q841.887 1378.33 854.96 1378.33 Z" fill="#000000" fill-rule="evenodd" fill-opacity="1" /><path clip-path="url(#clip070)" d="M900.325 1444.27 L911.314 1444.27 L911.314 1457.5 L900.325 1457.5 L900.325 1444.27 Z" fill="#000000" fill-rule="evenodd" fill-opacity="1" /><path clip-path="url(#clip070)" d="M956.731 1386.67 Q948.606 1386.67 944.491 1394.69 Q940.429 1402.66 940.429 1418.7 Q940.429 1434.69 944.491 1442.71 Q948.606 1450.68 956.731 1450.68 Q964.908 1450.68 968.97 1442.71 Q973.085 1434.69 973.085 1418.7 Q973.085 1402.66 968.97 1394.69 Q964.908 1386.67 956.731 1386.67 M956.731 1378.33 Q969.803 1378.33 976.678 1388.7 Q983.605 1399.01 983.605 1418.7 Q983.605 1438.33 976.678 1448.7 Q969.803 1459.01 956.731 1459.01 Q943.658 1459.01 936.731 1448.7 Q929.856 1438.33 929.856 1418.7 Q929.856 1399.01 936.731 1388.7 Q943.658 1378.33 956.731 1378.33 Z" fill="#000000" fill-rule="evenodd" fill-opacity="1" /><path clip-path="url(#clip070)" d="M1031 1388.91 L1004.44 1430.42 L1031 1430.42 L1031 1388.91 M1028.24 1379.74 L1041.47 1379.74 L1041.47 1430.42 L1052.56 1430.42 L1052.56 1439.17 L1041.47 1439.17 L1041.47 1457.5 L1031 1457.5 L1031 1439.17 L995.897 1439.17 L995.897 1429.01 L1028.24 1379.74 Z" fill="#000000" fill-rule="evenodd" fill-opacity="1" /><path clip-path="url(#clip070)" d="M1483.36 1386.67 Q1475.23 1386.67 1471.12 1394.69 Q1467.06 1402.66 1467.06 1418.7 Q1467.06 1434.69 1471.12 1442.71 Q1475.23 1450.68 1483.36 1450.68 Q1491.54 1450.68 1495.6 1442.71 Q1499.71 1434.69 1499.71 1418.7 Q1499.71 1402.66 1495.6 1394.69 Q1491.54 1386.67 1483.36 1386.67 M1483.36 1378.33 Q1496.43 1378.33 1503.31 1388.7 Q1510.23 1399.01 1510.23 1418.7 Q1510.23 1438.33 1503.31 1448.7 Q1496.43 1459.01 1483.36 1459.01 Q1470.29 1459.01 1463.36 1448.7 Q1456.48 1438.33 1456.48 1418.7 Q1456.48 1399.01 1463.36 1388.7 Q1470.29 1378.33 1483.36 1378.33 Z" fill="#000000" fill-rule="evenodd" fill-opacity="1" /><path clip-path="url(#clip070)" d="M1528.72 1444.27 L1539.71 1444.27 L1539.71 1457.5 L1528.72 1457.5 L1528.72 1444.27 Z" fill="#000000" fill-rule="evenodd" fill-opacity="1" /><path clip-path="url(#clip070)" d="M1585.13 1386.67 Q1577 1386.67 1572.89 1394.69 Q1568.83 1402.66 1568.83 1418.7 Q1568.83 1434.69 1572.89 1442.71 Q1577 1450.68 1585.13 1450.68 Q1593.31 1450.68 1597.37 1442.71 Q1601.48 1434.69 1601.48 1418.7 Q1601.48 1402.66 1597.37 1394.69 Q1593.31 1386.67 1585.13 1386.67 M1585.13 1378.33 Q1598.2 1378.33 1605.08 1388.7 Q1612 1399.01 1612 1418.7 Q1612 1438.33 1605.08 1448.7 Q1598.2 1459.01 1585.13 1459.01 Q1572.06 1459.01 1565.13 1448.7 Q1558.25 1438.33 1558.25 1418.7 Q1558.25 1399.01 1565.13 1388.7 Q1572.06 1378.33 1585.13 1378.33 Z" fill="#000000" fill-rule="evenodd" fill-opacity="1" /><path clip-path="url(#clip070)" d="M1652.99 1420.57 Q1645.49 1420.57 1641.17 1424.58 Q1636.9 1428.59 1636.9 1435.62 Q1636.9 1442.66 1641.17 1446.67 Q1645.49 1450.68 1652.99 1450.68 Q1660.49 1450.68 1664.82 1446.67 Q1669.14 1442.6 1669.14 1435.62 Q1669.14 1428.59 1664.82 1424.58 Q1660.55 1420.57 1652.99 1420.57 M1642.47 1416.09 Q1635.7 1414.43 1631.9 1409.79 Q1628.15 1405.16 1628.15 1398.49 Q1628.15 1389.17 1634.76 1383.75 Q1641.43 1378.33 1652.99 1378.33 Q1664.61 1378.33 1671.22 1383.75 Q1677.84 1389.17 1677.84 1398.49 Q1677.84 1405.16 1674.03 1409.79 Q1670.28 1414.43 1663.57 1416.09 Q1671.17 1417.86 1675.39 1423.02 Q1679.66 1428.18 1679.66 1435.62 Q1679.66 1446.93 1672.73 1452.97 Q1665.86 1459.01 1652.99 1459.01 Q1640.13 1459.01 1633.2 1452.97 Q1626.33 1446.93 1626.33 1435.62 Q1626.33 1428.18 1630.6 1423.02 Q1634.87 1417.86 1642.47 1416.09 M1638.62 1399.48 Q1638.62 1405.52 1642.37 1408.91 Q1646.17 1412.29 1652.99 1412.29 Q1659.76 1412.29 1663.57 1408.91 Q1667.42 1405.52 1667.42 1399.48 Q1667.42 1393.44 1663.57 1390.05 Q1659.76 1386.67 1652.99 1386.67 Q1646.17 1386.67 1642.37 1390.05 Q1638.62 1393.44 1638.62 1399.48 Z" fill="#000000" fill-rule="evenodd" fill-opacity="1" /><path clip-path="url(#clip070)" d="M2112.8 1386.67 Q2104.67 1386.67 2100.56 1394.69 Q2096.5 1402.66 2096.5 1418.7 Q2096.5 1434.69 2100.56 1442.71 Q2104.67 1450.68 2112.8 1450.68 Q2120.98 1450.68 2125.04 1442.71 Q2129.15 1434.69 2129.15 1418.7 Q2129.15 1402.66 2125.04 1394.69 Q2120.98 1386.67 2112.8 1386.67 M2112.8 1378.33 Q2125.87 1378.33 2132.75 1388.7 Q2139.67 1399.01 2139.67 1418.7 Q2139.67 1438.33 2132.75 1448.7 Q2125.87 1459.01 2112.8 1459.01 Q2099.73 1459.01 2092.8 1448.7 Q2085.92 1438.33 2085.92 1418.7 Q2085.92 1399.01 2092.8 1388.7 Q2099.73 1378.33 2112.8 1378.33 Z" fill="#000000" fill-rule="evenodd" fill-opacity="1" /><path clip-path="url(#clip070)" d="M2158.16 1444.27 L2169.15 1444.27 L2169.15 1457.5 L2158.16 1457.5 L2158.16 1444.27 Z" fill="#000000" fill-rule="evenodd" fill-opacity="1" /><path clip-path="url(#clip070)" d="M2193.89 1448.65 L2211.08 1448.65 L2211.08 1389.32 L2192.38 1393.07 L2192.38 1383.49 L2210.98 1379.74 L2221.5 1379.74 L2221.5 1448.65 L2238.68 1448.65 L2238.68 1457.5 L2193.89 1457.5 L2193.89 1448.65 Z" fill="#000000" fill-rule="evenodd" fill-opacity="1" /><path clip-path="url(#clip070)" d="M2269 1448.65 L2305.71 1448.65 L2305.71 1457.5 L2256.34 1457.5 L2256.34 1448.65 Q2262.33 1442.45 2272.64 1432.03 Q2283.01 1421.56 2285.66 1418.54 Q2290.71 1412.86 2292.69 1408.96 Q2294.72 1405 2294.72 1401.2 Q2294.72 1395 2290.35 1391.09 Q2286.03 1387.19 2279.05 1387.19 Q2274.1 1387.19 2268.58 1388.91 Q2263.11 1390.63 2256.86 1394.11 L2256.86 1383.49 Q2263.21 1380.94 2268.74 1379.64 Q2274.26 1378.33 2278.84 1378.33 Q2290.92 1378.33 2298.11 1384.38 Q2305.3 1390.42 2305.3 1400.52 Q2305.3 1405.31 2303.47 1409.64 Q2301.7 1413.91 2296.96 1419.74 Q2295.66 1421.25 2288.68 1428.49 Q2281.7 1435.68 2269 1448.65 Z" fill="#000000" fill-rule="evenodd" fill-opacity="1" /><path clip-path="url(#clip070)" d="M1203.85 1532.61 L1214.5 1532.61 L1227.81 1583.18 L1241.06 1532.61 L1253.62 1532.61 L1266.93 1583.18 L1280.18 1532.61 L1290.83 1532.61 L1273.87 1597.42 L1261.31 1597.42 L1247.37 1544.3 L1233.36 1597.42 L1220.8 1597.42 L1203.85 1532.61 Z" fill="#000000" fill-rule="evenodd" fill-opacity="1" /><path clip-path="url(#clip070)" d="M1325.9 1511.02 L1335.73 1511.02 L1305.64 1608.42 L1295.8 1608.42 L1325.9 1511.02 Z" fill="#000000" fill-rule="evenodd" fill-opacity="1" /><path clip-path="url(#clip070)" d="M1388.34 1556.91 Q1392.1 1558.18 1395.63 1562.35 Q1399.22 1566.52 1402.8 1573.81 L1414.67 1597.42 L1402.11 1597.42 L1391.06 1575.26 Q1386.77 1566.58 1382.72 1563.74 Q1378.73 1560.9 1371.79 1560.9 L1359.06 1560.9 L1359.06 1597.42 L1347.37 1597.42 L1347.37 1511.02 L1373.75 1511.02 Q1388.57 1511.02 1395.86 1517.21 Q1403.15 1523.4 1403.15 1535.9 Q1403.15 1544.06 1399.33 1549.45 Q1395.57 1554.83 1388.34 1556.91 M1359.06 1520.63 L1359.06 1551.3 L1373.75 1551.3 Q1382.2 1551.3 1386.49 1547.42 Q1390.83 1543.48 1390.83 1535.9 Q1390.83 1528.32 1386.49 1524.5 Q1382.2 1520.63 1373.75 1520.63 L1359.06 1520.63 Z" fill="#000000" fill-rule="evenodd" fill-opacity="1" /><path clip-path="url(#clip070)" d="M1451.07 1558.24 Q1448.18 1553.26 1442.33 1553.26 Q1436.49 1553.26 1433.59 1558.24 Q1430.64 1563.22 1430.64 1573.17 Q1430.64 1583.18 1433.59 1588.16 Q1436.49 1593.14 1442.33 1593.14 Q1448.18 1593.14 1451.07 1588.16 Q1454.02 1583.18 1454.02 1573.17 Q1454.02 1563.22 1451.07 1558.24 M1442.33 1548.11 Q1451.65 1548.11 1456.57 1554.54 Q1461.49 1560.96 1461.49 1573.17 Q1461.49 1585.44 1456.57 1591.86 Q1451.65 1598.29 1442.33 1598.29 Q1432.96 1598.29 1428.04 1591.86 Q1423.12 1585.44 1423.12 1573.17 Q1423.12 1560.96 1428.04 1554.54 Q1432.96 1548.11 1442.33 1548.11 Z" fill="#000000" fill-rule="evenodd" fill-opacity="1" /><polyline clip-path="url(#clip070)" style="stroke:#000000; stroke-linecap:butt; stroke-linejoin:round; stroke-width:4; stroke-opacity:1; fill:none" points="
  312.577,1341.1 312.577,47.2441 
  "/>
<polyline clip-path="url(#clip070)" style="stroke:#000000; stroke-linecap:butt; stroke-linejoin:round; stroke-width:4; stroke-opacity:1; fill:none" points="
  312.577,1341.1 331.475,1341.1 
  "/>
<polyline clip-path="url(#clip070)" style="stroke:#000000; stroke-linecap:butt; stroke-linejoin:round; stroke-width:4; stroke-opacity:1; fill:none" points="
  312.577,1017.64 331.475,1017.64 
  "/>
<polyline clip-path="url(#clip070)" style="stroke:#000000; stroke-linecap:butt; stroke-linejoin:round; stroke-width:4; stroke-opacity:1; fill:none" points="
  312.577,694.172 331.475,694.172 
  "/>
<polyline clip-path="url(#clip070)" style="stroke:#000000; stroke-linecap:butt; stroke-linejoin:round; stroke-width:4; stroke-opacity:1; fill:none" points="
  312.577,370.708 331.475,370.708 
  "/>
<polyline clip-path="url(#clip070)" style="stroke:#000000; stroke-linecap:butt; stroke-linejoin:round; stroke-width:4; stroke-opacity:1; fill:none" points="
  312.577,47.2441 331.475,47.2441 
  "/>
<path clip-path="url(#clip070)" d="M249.702 1309.15 Q241.577 1309.15 237.463 1317.17 Q233.4 1325.14 233.4 1341.18 Q233.4 1357.17 237.463 1365.19 Q241.577 1373.16 249.702 1373.16 Q257.879 1373.16 261.942 1365.19 Q266.056 1357.17 266.056 1341.18 Q266.056 1325.14 261.942 1317.17 Q257.879 1309.15 249.702 1309.15 M249.702 1300.81 Q262.775 1300.81 269.65 1311.18 Q276.577 1321.49 276.577 1341.18 Q276.577 1360.81 269.65 1371.18 Q262.775 1381.49 249.702 1381.49 Q236.629 1381.49 229.702 1371.18 Q222.827 1360.81 222.827 1341.18 Q222.827 1321.49 229.702 1311.18 Q236.629 1300.81 249.702 1300.81 Z" fill="#000000" fill-rule="evenodd" fill-opacity="1" /><path clip-path="url(#clip070)" d="M168.4 1047.66 L205.119 1047.66 L205.119 1056.52 L155.744 1056.52 L155.744 1047.66 Q161.734 1041.46 172.046 1031.05 Q182.411 1020.58 185.067 1017.56 Q190.119 1011.88 192.098 1007.97 Q194.13 1004.02 194.13 1000.21 Q194.13 994.016 189.755 990.11 Q185.432 986.204 178.453 986.204 Q173.505 986.204 167.984 987.923 Q162.515 989.641 156.265 993.131 L156.265 982.506 Q162.619 979.954 168.14 978.652 Q173.661 977.35 178.244 977.35 Q190.327 977.35 197.515 983.391 Q204.702 989.433 204.702 999.537 Q204.702 1004.33 202.879 1008.65 Q201.109 1012.92 196.369 1018.76 Q195.067 1020.27 188.088 1027.51 Q181.109 1034.69 168.4 1047.66 Z" fill="#000000" fill-rule="evenodd" fill-opacity="1" /><path clip-path="url(#clip070)" d="M249.702 985.683 Q241.577 985.683 237.463 993.704 Q233.4 1001.67 233.4 1017.71 Q233.4 1033.7 237.463 1041.72 Q241.577 1049.69 249.702 1049.69 Q257.879 1049.69 261.942 1041.72 Q266.056 1033.7 266.056 1017.71 Q266.056 1001.67 261.942 993.704 Q257.879 985.683 249.702 985.683 M249.702 977.35 Q262.775 977.35 269.65 987.714 Q276.577 998.027 276.577 1017.71 Q276.577 1037.35 269.65 1047.71 Q262.775 1058.03 249.702 1058.03 Q236.629 1058.03 229.702 1047.71 Q222.827 1037.35 222.827 1017.71 Q222.827 998.027 229.702 987.714 Q236.629 977.35 249.702 977.35 Z" fill="#000000" fill-rule="evenodd" fill-opacity="1" /><path clip-path="url(#clip070)" d="M188.244 664.459 L161.682 705.969 L188.244 705.969 L188.244 664.459 M185.484 655.292 L198.713 655.292 L198.713 705.969 L209.807 705.969 L209.807 714.719 L198.713 714.719 L198.713 733.052 L188.244 733.052 L188.244 714.719 L153.14 714.719 L153.14 704.563 L185.484 655.292 Z" fill="#000000" fill-rule="evenodd" fill-opacity="1" /><path clip-path="url(#clip070)" d="M249.702 662.219 Q241.577 662.219 237.463 670.24 Q233.4 678.209 233.4 694.25 Q233.4 710.24 237.463 718.26 Q241.577 726.229 249.702 726.229 Q257.879 726.229 261.942 718.26 Q266.056 710.24 266.056 694.25 Q266.056 678.209 261.942 670.24 Q257.879 662.219 249.702 662.219 M249.702 653.886 Q262.775 653.886 269.65 664.25 Q276.577 674.563 276.577 694.25 Q276.577 713.885 269.65 724.25 Q262.775 734.562 249.702 734.562 Q236.629 734.562 229.702 724.25 Q222.827 713.885 222.827 694.25 Q222.827 674.563 229.702 664.25 Q236.629 653.886 249.702 653.886 Z" fill="#000000" fill-rule="evenodd" fill-opacity="1" /><path clip-path="url(#clip070)" d="M183.14 366.515 Q176.057 366.515 171.89 371.359 Q167.775 376.203 167.775 384.64 Q167.775 393.026 171.89 397.921 Q176.057 402.765 183.14 402.765 Q190.223 402.765 194.338 397.921 Q198.504 393.026 198.504 384.64 Q198.504 376.203 194.338 371.359 Q190.223 366.515 183.14 366.515 M204.025 333.547 L204.025 343.13 Q200.067 341.255 196.005 340.265 Q191.994 339.276 188.036 339.276 Q177.619 339.276 172.098 346.307 Q166.63 353.338 165.848 367.557 Q168.921 363.026 173.557 360.63 Q178.192 358.182 183.765 358.182 Q195.484 358.182 202.254 365.317 Q209.077 372.401 209.077 384.64 Q209.077 396.619 201.994 403.859 Q194.911 411.098 183.14 411.098 Q169.65 411.098 162.515 400.786 Q155.38 390.421 155.38 370.786 Q155.38 352.349 164.13 341.411 Q172.88 330.422 187.619 330.422 Q191.577 330.422 195.588 331.203 Q199.65 331.984 204.025 333.547 Z" fill="#000000" fill-rule="evenodd" fill-opacity="1" /><path clip-path="url(#clip070)" d="M249.702 338.755 Q241.577 338.755 237.463 346.776 Q233.4 354.745 233.4 370.786 Q233.4 386.776 237.463 394.796 Q241.577 402.765 249.702 402.765 Q257.879 402.765 261.942 394.796 Q266.056 386.776 266.056 370.786 Q266.056 354.745 261.942 346.776 Q257.879 338.755 249.702 338.755 M249.702 330.422 Q262.775 330.422 269.65 340.786 Q276.577 351.099 276.577 370.786 Q276.577 390.421 269.65 400.786 Q262.775 411.098 249.702 411.098 Q236.629 411.098 229.702 400.786 Q222.827 390.421 222.827 370.786 Q222.827 351.099 229.702 340.786 Q236.629 330.422 249.702 330.422 Z" fill="#000000" fill-rule="evenodd" fill-opacity="1" /><path clip-path="url(#clip070)" d="M181.838 49.1972 Q174.338 49.1972 170.015 53.2076 Q165.744 57.218 165.744 64.2492 Q165.744 71.2804 170.015 75.2908 Q174.338 79.3012 181.838 79.3012 Q189.338 79.3012 193.661 75.2908 Q197.984 71.2283 197.984 64.2492 Q197.984 57.218 193.661 53.2076 Q189.39 49.1972 181.838 49.1972 M171.317 44.7181 Q164.546 43.0514 160.744 38.416 Q156.994 33.7806 156.994 27.114 Q156.994 17.7911 163.609 12.3745 Q170.275 6.95785 181.838 6.95785 Q193.452 6.95785 200.067 12.3745 Q206.682 17.7911 206.682 27.114 Q206.682 33.7806 202.879 38.416 Q199.129 43.0514 192.411 44.7181 Q200.015 46.4889 204.234 51.6451 Q208.504 56.8013 208.504 64.2492 Q208.504 75.5512 201.577 81.5929 Q194.702 87.6345 181.838 87.6345 Q168.973 87.6345 162.046 81.5929 Q155.171 75.5512 155.171 64.2492 Q155.171 56.8013 159.442 51.6451 Q163.713 46.4889 171.317 44.7181 M167.463 28.1036 Q167.463 34.1452 171.213 37.5306 Q175.015 40.916 181.838 40.916 Q188.609 40.916 192.411 37.5306 Q196.265 34.1452 196.265 28.1036 Q196.265 22.0619 192.411 18.6765 Q188.609 15.2911 181.838 15.2911 Q175.015 15.2911 171.213 18.6765 Q167.463 22.0619 167.463 28.1036 Z" fill="#000000" fill-rule="evenodd" fill-opacity="1" /><path clip-path="url(#clip070)" d="M249.702 15.2911 Q241.577 15.2911 237.463 23.3119 Q233.4 31.2806 233.4 47.3222 Q233.4 63.3117 237.463 71.3325 Q241.577 79.3012 249.702 79.3012 Q257.879 79.3012 261.942 71.3325 Q266.056 63.3117 266.056 47.3222 Q266.056 31.2806 261.942 23.3119 Q257.879 15.2911 249.702 15.2911 M249.702 6.95785 Q262.775 6.95785 269.65 17.3224 Q276.577 27.6348 276.577 47.3222 Q276.577 66.9575 269.65 77.3221 Q262.775 87.6345 249.702 87.6345 Q236.629 87.6345 229.702 77.3221 Q222.827 66.9575 222.827 47.3222 Q222.827 27.6348 229.702 17.3224 Q236.629 6.95785 249.702 6.95785 Z" fill="#000000" fill-rule="evenodd" fill-opacity="1" /><path clip-path="url(#clip070)" d="M8.00301 750.046 L26.4057 750.046 L26.4057 728.113 L34.6811 728.113 L34.6811 750.046 L69.8661 750.046 Q77.7943 750.046 80.0512 747.904 Q82.3082 745.705 82.3082 739.05 L82.3082 728.113 L91.2202 728.113 L91.2202 739.05 Q91.2202 751.377 86.6484 756.064 Q82.0188 760.751 69.8661 760.751 L34.6811 760.751 L34.6811 768.564 L26.4057 768.564 L26.4057 760.751 L8.00301 760.751 L8.00301 750.046 Z" fill="#000000" fill-rule="evenodd" fill-opacity="1" /><path clip-path="url(#clip070)" d="M4.82016 695.185 L4.82016 685.347 L102.215 715.439 L102.215 725.277 L4.82016 695.185 Z" fill="#000000" fill-rule="evenodd" fill-opacity="1" /><path clip-path="url(#clip070)" d="M79.4147 642.407 Q82.1924 640.324 82.1924 634.074 L82.1924 628.923 L91.2202 628.923 L91.2202 635.347 Q91.2202 645.764 85.6646 650.509 Q79.9934 655.254 67.7249 655.254 L37.0538 655.254 L37.0538 679.56 L26.4057 679.56 L26.4057 619.78 L37.0538 619.78 L37.0538 644.375 L68.3615 644.375 Q76.7526 644.375 79.4147 642.407 Z" fill="#000000" fill-rule="evenodd" fill-opacity="1" /><circle clip-path="url(#clip072)" cx="404.353" cy="1316.63" r="108" fill="#009af9" fill-rule="evenodd" fill-opacity="0.6" stroke="#808080" stroke-opacity="0.6" stroke-width="0"/>
<circle clip-path="url(#clip072)" cx="496.129" cy="1296.96" r="108" fill="#009af9" fill-rule="evenodd" fill-opacity="0.6" stroke="#808080" stroke-opacity="0.6" stroke-width="0"/>
<circle clip-path="url(#clip072)" cx="771.457" cy="1200.21" r="108" fill="#009af9" fill-rule="evenodd" fill-opacity="0.6" stroke="#808080" stroke-opacity="0.6" stroke-width="0"/>
<circle clip-path="url(#clip072)" cx="1230.34" cy="947.017" r="108" fill="#009af9" fill-rule="evenodd" fill-opacity="0.6" stroke="#808080" stroke-opacity="0.6" stroke-width="0"/>
<circle clip-path="url(#clip072)" cx="2148.1" cy="248.739" r="108" fill="#009af9" fill-rule="evenodd" fill-opacity="0.6" stroke="#808080" stroke-opacity="0.6" stroke-width="0"/>
<polyline clip-path="url(#clip072)" style="stroke:#000000; stroke-linecap:butt; stroke-linejoin:round; stroke-width:20; stroke-opacity:1; fill:none" stroke-dasharray="80, 50" points="
  312.577,1341.1 328.271,1340.23 343.964,1338.64 359.658,1336.58 375.352,1334.14 391.045,1331.38 406.739,1328.32 422.433,1325 438.126,1321.43 453.82,1317.62 
  469.514,1313.61 485.208,1309.38 500.901,1304.96 516.595,1300.35 532.289,1295.56 547.982,1290.59 563.676,1285.46 579.37,1280.16 595.063,1274.7 610.757,1269.09 
  626.451,1263.33 642.144,1257.43 657.838,1251.38 673.532,1245.2 689.225,1238.87 704.919,1232.42 720.613,1225.83 736.306,1219.12 752,1212.28 767.694,1205.32 
  783.388,1198.23 799.081,1191.03 814.775,1183.71 830.469,1176.28 846.162,1168.73 861.856,1161.07 877.55,1153.3 893.243,1145.42 908.937,1137.43 924.631,1129.34 
  940.324,1121.14 956.018,1112.84 971.712,1104.44 987.405,1095.94 1003.1,1087.34 1018.79,1078.64 1034.49,1069.84 1050.18,1060.95 1065.87,1051.96 1081.57,1042.88 
  1097.26,1033.7 1112.95,1024.43 1128.65,1015.08 1144.34,1005.63 1160.04,996.087 1175.73,986.459 1191.42,976.743 1207.12,966.94 1222.81,957.051 1238.5,947.076 
  1254.2,937.016 1269.89,926.872 1285.59,916.644 1301.28,906.334 1316.97,895.941 1332.67,885.467 1348.36,874.912 1364.05,864.277 1379.75,853.562 1395.44,842.768 
  1411.13,831.896 1426.83,820.945 1442.52,809.918 1458.22,798.813 1473.91,787.632 1489.6,776.375 1505.3,765.043 1520.99,753.636 1536.68,742.155 1552.38,730.6 
  1568.07,718.972 1583.77,707.271 1599.46,695.497 1615.15,683.651 1630.85,671.734 1646.54,659.745 1662.23,647.686 1677.93,635.557 1693.62,623.357 1709.31,611.088 
  1725.01,598.75 1740.7,586.343 1756.4,573.868 1772.09,561.325 1787.78,548.714 1803.48,536.036 1819.17,523.291 1834.86,510.48 1850.56,497.602 1866.25,484.659 
  1881.95,471.649 1897.64,458.575 1913.33,445.436 1929.03,432.232 1944.72,418.964 1960.41,405.632 1976.11,392.237 1991.8,378.778 2007.49,365.256 2023.19,351.671 
  2038.88,338.024 2054.58,324.315 2070.27,310.543 2085.96,296.71 2101.66,282.816 2117.35,268.861 2133.04,254.845 2148.74,240.768 2164.43,226.631 2180.13,212.434 
  2195.82,198.178 2211.51,183.861 2227.21,169.486 2242.9,155.051 2258.59,140.558 2274.29,126.006 2289.98,111.396 2305.67,96.7274 2321.37,82.0012 2337.06,67.2174 
  2352.76,52.3761 2368.45,37.4777 2384.14,22.5223 2399.84,7.51007 2415.53,-7.55865 2431.22,-22.6837 2446.92,-37.8649 2462.61,-53.102 2478.31,-68.3948 2494,-83.7431 
  2509.69,-99.1467 2525.39,-114.605 2541.08,-130.119 2556.77,-145.687 2572.47,-161.31 2588.16,-176.988 2603.85,-192.719 2619.55,-208.504 2635.24,-224.344 2650.94,-240.236 
  2666.63,-256.182 2682.32,-272.182 2698.02,-288.234 2713.71,-304.34 2729.4,-320.498 2745.1,-336.708 2760.79,-352.971 2776.49,-369.287 2792.18,-385.654 2807.87,-402.073 
  2823.57,-418.544 2839.26,-435.066 2854.95,-451.64 2870.65,-468.265 2886.34,-484.941 2902.03,-501.668 2917.73,-518.446 2933.42,-535.275 2949.12,-552.153 2964.81,-569.083 
  2980.5,-586.062 2996.2,-603.091 3011.89,-620.171 3027.58,-637.299 3043.28,-654.478 3058.97,-671.706 3074.67,-688.983 3090.36,-706.31 3106.05,-723.685 3121.75,-741.109 
  3137.44,-758.582 3153.13,-776.104 3168.83,-793.674 3184.52,-811.292 3200.21,-828.959 3215.91,-846.674 3231.6,-864.436 3247.3,-882.247 3262.99,-900.105 3278.68,-918.011 
  3294.38,-935.964 3310.07,-953.964 3325.76,-972.012 3341.46,-990.107 3357.15,-1008.25 3372.85,-1026.44 3388.54,-1044.67 3404.23,-1062.95 3419.93,-1081.28 3435.62,-1099.66 
  3451.31,-1118.08 3467.01,-1136.54 3482.7,-1155.06 3498.39,-1173.62 3514.09,-1192.22 3529.78,-1210.87 3545.48,-1229.57 3561.17,-1248.31 3576.86,-1267.09 3592.56,-1285.93 
  3608.25,-1304.8 3623.94,-1323.72 3639.64,-1342.69 3655.33,-1361.7 3671.03,-1380.76 3686.72,-1399.86 3702.41,-1419 3718.11,-1438.19 3733.8,-1457.43 3749.49,-1476.71 
  3765.19,-1496.03 3780.88,-1515.39 3796.57,-1534.8 3812.27,-1554.26 3827.96,-1573.75 3843.66,-1593.3 3859.35,-1612.88 3875.04,-1632.51 3890.74,-1652.18 3906.43,-1671.89 
  3922.12,-1691.65 3937.82,-1711.45 3953.51,-1731.29 3969.21,-1751.18 3984.9,-1771.11 4000.59,-1791.08 4016.29,-1811.09 4031.98,-1831.15 4047.67,-1851.25 4063.37,-1871.39 
  4079.06,-1891.57 4094.75,-1911.8 4110.45,-1932.06 4126.14,-1952.37 4141.84,-1972.72 4157.53,-1993.12 4173.22,-2013.55 4188.92,-2034.03 4204.61,-2054.55 4220.3,-2075.1 
  4236,-2095.7 4251.69,-2116.35 4267.39,-2137.03 4283.08,-2157.75 4298.77,-2178.52 4314.47,-2199.32 4330.16,-2220.17 4345.85,-2241.06 4361.55,-2261.98 4377.24,-2282.95 
  4392.93,-2303.96 4408.63,-2325.01 4424.32,-2346.1 4440.02,-2367.23 4455.71,-2388.4 4471.4,-2409.61 4487.1,-2430.86 4502.79,-2452.15 4518.48,-2473.48 4534.18,-2494.85 
  4549.87,-2516.26 4565.57,-2537.71 4581.26,-2559.2 4596.95,-2580.73 4612.65,-2602.3 4628.34,-2623.91 4644.03,-2645.55 4659.73,-2667.24 4675.42,-2688.96 4691.11,-2710.73 
  4706.81,-2732.53 4722.5,-2754.38 4738.2,-2776.26 4753.89,-2798.18 4769.58,-2820.14 4785.28,-2842.13 4800.97,-2864.17 4816.66,-2886.24 4832.36,-2908.36 4848.05,-2930.51 
  4863.75,-2952.7 4879.44,-2974.93 4895.13,-2997.2 4910.83,-3019.5 4926.52,-3041.84 4942.21,-3064.22 4957.91,-3086.64 4973.6,-3109.1 4989.29,-3131.59 5004.99,-3154.13 
  5020.68,-3176.7 5036.38,-3199.3 5052.07,-3221.95 5067.76,-3244.63 5083.46,-3267.35 5099.15,-3290.11 5114.84,-3312.91 5130.54,-3335.74 5146.23,-3358.61 5161.93,-3381.51 
  5177.62,-3404.46 5193.31,-3427.44 5209.01,-3450.46 5224.7,-3473.51 5240.39,-3496.6 5256.09,-3519.73 5271.78,-3542.9 5287.47,-3566.1 5303.17,-3589.34 5318.86,-3612.61 
  5334.56,-3635.92 5350.25,-3659.27 5365.94,-3682.66 5381.64,-3706.08 5397.33,-3729.53 5413.02,-3753.03 5428.72,-3776.56 5444.41,-3800.12 5460.11,-3823.72 5475.8,-3847.36 
  5491.49,-3871.04 5507.19,-3894.75 5522.88,-3918.49 5538.57,-3942.27 5554.27,-3966.09 5569.96,-3989.94 5585.65,-4013.83 5601.35,-4037.75 5617.04,-4061.71 5632.74,-4085.71 
  5648.43,-4109.74 5664.12,-4133.8 5679.82,-4157.9 5695.51,-4182.04 5711.2,-4206.21 5726.9,-4230.42 5742.59,-4254.66 5758.29,-4278.93 5773.98,-4303.25 5789.67,-4327.59 
  5805.37,-4351.97 5821.06,-4376.39 5836.75,-4400.84 5852.45,-4425.33 5868.14,-4449.85 5883.83,-4474.4 5899.53,-4498.99 5915.22,-4523.62 5930.92,-4548.28 5946.61,-4572.97 
  5962.3,-4597.7 5978,-4622.46 5993.69,-4647.26 6009.38,-4672.09 6025.08,-4696.95 6040.77,-4721.85 6056.47,-4746.78 6072.16,-4771.75 6087.85,-4796.75 6103.55,-4821.79 
  6119.24,-4846.86 6134.93,-4871.96 6150.63,-4897.1 6166.32,-4922.27 6182.01,-4947.47 6197.71,-4972.71 6213.4,-4997.98 6229.1,-5023.29 6244.79,-5048.63 6260.48,-5074 
  6276.18,-5099.41 6291.87,-5124.85 6307.56,-5150.32 6323.26,-5175.83 6338.95,-5201.37 6354.65,-5226.94 6370.34,-5252.55 6386.03,-5278.19 6401.73,-5303.86 6417.42,-5329.57 
  6433.11,-5355.31 6448.81,-5381.08 6464.5,-5406.88 6480.19,-5432.72 6495.89,-5458.59 6511.58,-5484.49 6527.28,-5510.43 6542.97,-5536.4 6558.66,-5562.4 6574.36,-5588.44 
  6590.05,-5614.5 6605.74,-5640.6 6621.44,-5666.74 6637.13,-5692.9 6652.83,-5719.1 6668.52,-5745.33 6684.21,-5771.59 6699.91,-5797.88 6715.6,-5824.21 6731.29,-5850.57 
  6746.99,-5876.96 6762.68,-5903.39 6778.37,-5929.84 6794.07,-5956.33 6809.76,-5982.85 6825.46,-6009.4 6841.15,-6035.99 6856.84,-6062.6 6872.54,-6089.25 6888.23,-6115.93 
  6903.92,-6142.64 6919.62,-6169.38 6935.31,-6196.16 6951.01,-6222.97 6966.7,-6249.81 6982.39,-6276.68 6998.09,-6303.58 7013.78,-6330.51 7029.47,-6357.48 7045.17,-6384.47 
  7060.86,-6411.5 7076.55,-6438.56 7092.25,-6465.65 7107.94,-6492.78 7123.64,-6519.93 7139.33,-6547.11 7155.02,-6574.33 7170.72,-6601.58 7186.41,-6628.86 7202.1,-6656.17 
  7217.8,-6683.51 7233.49,-6710.88 7249.19,-6738.28 7264.88,-6765.72 7280.57,-6793.18 7296.27,-6820.68 7311.96,-6848.21 7327.65,-6875.76 7343.35,-6903.35 7359.04,-6930.97 
  7374.73,-6958.62 7390.43,-6986.3 7406.12,-7014.02 7421.82,-7041.76 7437.51,-7069.53 7453.2,-7097.33 7468.9,-7125.17 7484.59,-7153.03 7500.28,-7180.93 7515.98,-7208.86 
  7531.67,-7236.81 7547.37,-7264.8 7563.06,-7292.81 7578.75,-7320.86 7594.45,-7348.94 7610.14,-7377.05 7625.83,-7405.19 7641.53,-7433.35 7657.22,-7461.55 7672.91,-7489.78 
  7688.61,-7518.04 7704.3,-7546.33 7720,-7574.65 7735.69,-7603 7751.38,-7631.38 7767.08,-7659.79 7782.77,-7688.22 7798.46,-7716.69 7814.16,-7745.19 7829.85,-7773.72 
  7845.55,-7802.28 7861.24,-7830.87 7876.93,-7859.48 7892.63,-7888.13 7908.32,-7916.81 7924.01,-7945.51 7939.71,-7974.25 7955.4,-8003.02 7971.09,-8031.81 7986.79,-8060.64 
  8002.48,-8089.49 8018.18,-8118.38 8033.87,-8147.29 8049.56,-8176.23 8065.26,-8205.2 8080.95,-8234.2 8096.64,-8263.24 8112.34,-8292.3 8128.03,-8321.38 8143.73,-8350.5 
  8159.42,-8379.65 8175.11,-8408.83 8190.81,-8438.03 8206.5,-8467.27 8222.19,-8496.53 8237.89,-8525.83 8253.58,-8555.15 8269.27,-8584.5 8284.97,-8613.88 8300.66,-8643.29 
  8316.36,-8672.73 8332.05,-8702.19 8347.74,-8731.69 8363.44,-8761.21 8379.13,-8790.77 8394.82,-8820.35 8410.52,-8849.96 8426.21,-8879.6 8441.91,-8909.27 8457.6,-8938.96 
  8473.29,-8968.69 8488.99,-8998.44 8504.68,-9028.23 8520.37,-9058.04 8536.07,-9087.88 8551.76,-9117.75 8567.45,-9147.64 8583.15,-9177.57 8598.84,-9207.52 8614.54,-9237.5 
  8630.23,-9267.51 8645.92,-9297.55 8661.62,-9327.62 8677.31,-9357.71 8693,-9387.84 8708.7,-9417.99 8724.39,-9448.17 8740.09,-9478.38 8755.78,-9508.61 8771.47,-9538.88 
  8787.17,-9569.17 8802.86,-9599.49 8818.55,-9629.84 8834.25,-9660.21 8849.94,-9690.62 8865.63,-9721.05 8881.33,-9751.51 8897.02,-9782 8912.72,-9812.51 8928.41,-9843.06 
  8944.1,-9873.63 8959.8,-9904.23 8975.49,-9934.86 8991.18,-9965.51 9006.88,-9996.19 9022.57,-10026.9 9038.27,-10057.6 9053.96,-10088.4 9069.65,-10119.2 9085.35,-10150 
  9101.04,-10180.9 9116.73,-10211.7 9132.43,-10242.7 9148.12,-10273.6 9163.81,-10304.5 9179.51,-10335.5 9195.2,-10366.5 9210.9,-10397.6 9226.59,-10428.7 9242.28,-10459.7 
  9257.98,-10490.9 9273.67,-10522 9289.36,-10553.2 9305.06,-10584.4 9320.75,-10615.6 9336.45,-10646.9 9352.14,-10678.2 9367.83,-10709.5 9383.53,-10740.8 9399.22,-10772.2 
  9414.91,-10803.6 9430.61,-10835 9446.3,-10866.5 9461.99,-10897.9 9477.69,-10929.5 9493.38,-10961 9509.08,-10992.5 9524.77,-11024.1 9540.46,-11055.7 9556.16,-11087.4 
  9571.85,-11119 9587.54,-11150.7 9603.24,-11182.4 9618.93,-11214.2 9634.63,-11246 9650.32,-11277.8 9666.01,-11309.6 9681.71,-11341.4 9697.4,-11373.3 9713.09,-11405.2 
  9728.79,-11437.2 9744.48,-11469.1 9760.17,-11501.1 9775.87,-11533.1 9791.56,-11565.2 9807.26,-11597.2 9822.95,-11629.3 9838.64,-11661.4 9854.34,-11693.6 9870.03,-11725.7 
  9885.72,-11757.9 9901.42,-11790.2 9917.11,-11822.4 9932.81,-11854.7 9948.5,-11887 9964.19,-11919.3 9979.89,-11951.7 9995.58,-11984.1 10011.3,-12016.5 10027,-12048.9 
  10042.7,-12081.4 10058.4,-12113.9 10074,-12146.4 10089.7,-12178.9 10105.4,-12211.5 10121.1,-12244.1 10136.8,-12276.7 10152.5,-12309.3 10168.2,-12342 10183.9,-12374.7 
  10199.6,-12407.4 10215.3,-12440.2 10231,-12472.9 10246.7,-12505.7 10262.4,-12538.6 10278.1,-12571.4 10293.8,-12604.3 10309.5,-12637.2 10325.1,-12670.1 10340.8,-12703.1 
  10356.5,-12736.1 10372.2,-12769.1 10387.9,-12802.1 10403.6,-12835.1 10419.3,-12868.2 10435,-12901.3 10450.7,-12934.5 10466.4,-12967.6 10482.1,-13000.8 10497.8,-13034 
  10513.5,-13067.3 10529.2,-13100.5 10544.9,-13133.8 10560.6,-13167.1 10576.2,-13200.5 10591.9,-13233.8 10607.6,-13267.2 10623.3,-13300.6 10639,-13334.1 10654.7,-13367.6 
  10670.4,-13401 10686.1,-13434.6 10701.8,-13468.1 10717.5,-13501.7 10733.2,-13535.3 10748.9,-13568.9 10764.6,-13602.5 10780.3,-13636.2 10796,-13669.9 10811.7,-13703.6 
  10827.3,-13737.4 10843,-13771.1 10858.7,-13804.9 10874.4,-13838.7 10890.1,-13872.6 10905.8,-13906.5 10921.5,-13940.4 10937.2,-13974.3 10952.9,-14008.2 10968.6,-14042.2 
  10984.3,-14076.2 11000,-14110.2 11015.7,-14144.3 11031.4,-14178.3 11047.1,-14212.4 11062.8,-14246.6 11078.4,-14280.7 11094.1,-14314.9 11109.8,-14349.1 11125.5,-14383.3 
  11141.2,-14417.5 11156.9,-14451.8 11172.6,-14486.1 11188.3,-14520.4 11204,-14554.8 11219.7,-14589.1 11235.4,-14623.5 11251.1,-14657.9 11266.8,-14692.4 11282.5,-14726.9 
  11298.2,-14761.3 11313.8,-14795.9 11329.5,-14830.4 11345.2,-14865 11360.9,-14899.6 11376.6,-14934.2 11392.3,-14968.8 11408,-15003.5 11423.7,-15038.2 11439.4,-15072.9 
  11455.1,-15107.6 11470.8,-15142.4 11486.5,-15177.2 11502.2,-15212 11517.9,-15246.8 11533.6,-15281.7 11549.3,-15316.6 11564.9,-15351.5 11580.6,-15386.4 11596.3,-15421.4 
  11612,-15456.4 11627.7,-15491.4 11643.4,-15526.4 11659.1,-15561.5 11674.8,-15596.5 11690.5,-15631.6 11706.2,-15666.8 11721.9,-15701.9 11737.6,-15737.1 11753.3,-15772.3 
  11769,-15807.5 11784.7,-15842.8 11800.4,-15878 11816,-15913.3 11831.7,-15948.7 11847.4,-15984 11863.1,-16019.4 11878.8,-16054.8 11894.5,-16090.2 11910.2,-16125.6 
  11925.9,-16161.1 11941.6,-16196.6 11957.3,-16232.1 11973,-16267.6 11988.7,-16303.2 12004.4,-16338.8 12020.1,-16374.4 12035.8,-16410 12051.5,-16445.7 12067.1,-16481.4 
  12082.8,-16517.1 12098.5,-16552.8 12114.2,-16588.5 12129.9,-16624.3 12145.6,-16660.1 12161.3,-16695.9 12177,-16731.8 12192.7,-16767.7 12208.4,-16803.6 12224.1,-16839.5 
  12239.8,-16875.4 12255.5,-16911.4 12271.2,-16947.4 12286.9,-16983.4 12302.6,-17019.4 12318.2,-17055.5 12333.9,-17091.6 12349.6,-17127.7 12365.3,-17163.8 12381,-17199.9 
  12396.7,-17236.1 12412.4,-17272.3 12428.1,-17308.6 12443.8,-17344.8 12459.5,-17381.1 12475.2,-17417.4 12490.9,-17453.7 12506.6,-17490 12522.3,-17526.4 12538,-17562.8 
  12553.7,-17599.2 12569.3,-17635.6 12585,-17672.1 12600.7,-17708.6 12616.4,-17745.1 12632.1,-17781.6 12647.8,-17818.2 12663.5,-17854.7 12679.2,-17891.3 12694.9,-17927.9 
  12710.6,-17964.6 12726.3,-18001.3 12742,-18038 12757.7,-18074.7 12773.4,-18111.4 12789.1,-18148.2 12804.7,-18185 12820.4,-18221.8 12836.1,-18258.6 12851.8,-18295.4 
  12867.5,-18332.3 12883.2,-18369.2 12898.9,-18406.1 12914.6,-18443.1 12930.3,-18480.1 12946,-18517 12961.7,-18554.1 12977.4,-18591.1 12993.1,-18628.2 13008.8,-18665.2 
  13024.5,-18702.3 13040.2,-18739.5 13055.8,-18776.6 13071.5,-18813.8 13087.2,-18851 13102.9,-18888.2 13118.6,-18925.5 13134.3,-18962.7 13150,-19000 13165.7,-19037.3 
  13181.4,-19074.7 13197.1,-19112 13212.8,-19149.4 13228.5,-19186.8 13244.2,-19224.2 13259.9,-19261.7 13275.6,-19299.1 13291.3,-19336.6 13306.9,-19374.2 13322.6,-19411.7 
  13338.3,-19449.3 13354,-19486.8 13369.7,-19524.4 13385.4,-19562.1 13401.1,-19599.7 13416.8,-19637.4 13432.5,-19675.1 13448.2,-19712.8 13463.9,-19750.6 13479.6,-19788.3 
  13495.3,-19826.1 13511,-19863.9 13526.7,-19901.8 13542.4,-19939.6 13558,-19977.5 13573.7,-20015.4 13589.4,-20053.3 13605.1,-20091.3 13620.8,-20129.2 13636.5,-20167.2 
  13652.2,-20205.2 13667.9,-20243.3 13683.6,-20281.3 13699.3,-20319.4 13715,-20357.5 13730.7,-20395.6 13746.4,-20433.8 13762.1,-20471.9 13777.8,-20510.1 13793.5,-20548.3 
  13809.1,-20586.6 13824.8,-20624.8 13840.5,-20663.1 13856.2,-20701.4 13871.9,-20739.7 13887.6,-20778.1 13903.3,-20816.4 13919,-20854.8 13934.7,-20893.2 13950.4,-20931.7 
  13966.1,-20970.1 13981.8,-21008.6 13997.5,-21047.1 14013.2,-21085.6 14028.9,-21124.2 14044.6,-21162.8 14060.2,-21201.3 14075.9,-21240 14091.6,-21278.6 14107.3,-21317.2 
  14123,-21355.9 14138.7,-21394.6 14154.4,-21433.3 14170.1,-21472.1 14185.8,-21510.8 14201.5,-21549.6 14217.2,-21588.4 14232.9,-21627.3 14248.6,-21666.1 14264.3,-21705 
  14280,-21743.9 14295.6,-21782.8 14311.3,-21821.8 14327,-21860.7 14342.7,-21899.7 14358.4,-21938.7 14374.1,-21977.7 14389.8,-22016.8 14405.5,-22055.9 14421.2,-22094.9 
  14436.9,-22134.1 14452.6,-22173.2 14468.3,-22212.4 14484,-22251.5 14499.7,-22290.7 14515.4,-22330 14531.1,-22369.2 14546.7,-22408.5 14562.4,-22447.8 14578.1,-22487.1 
  14593.8,-22526.4 14609.5,-22565.8 14625.2,-22605.1 14640.9,-22644.5 14656.6,-22683.9 14672.3,-22723.4 14688,-22762.8 14703.7,-22802.3 14719.4,-22841.8 14735.1,-22881.3 
  14750.8,-22920.9 14766.5,-22960.5 14782.2,-23000.1 14797.8,-23039.7 14813.5,-23079.3 14829.2,-23119 14844.9,-23158.6 14860.6,-23198.3 14876.3,-23238 14892,-23277.8 
  14907.7,-23317.5 14923.4,-23357.3 14939.1,-23397.1 14954.8,-23437 14970.5,-23476.8 14986.2,-23516.7 15001.9,-23556.6 15017.6,-23596.5 15033.3,-23636.4 15048.9,-23676.4 
  15064.6,-23716.3 15080.3,-23756.3 15096,-23796.3 15111.7,-23836.4 15127.4,-23876.4 15143.1,-23916.5 15158.8,-23956.6 15174.5,-23996.8 15190.2,-24036.9 15205.9,-24077.1 
  15221.6,-24117.2 15237.3,-24157.5 15253,-24197.7 15268.7,-24237.9 15284.4,-24278.2 15300,-24318.5 15315.7,-24358.8 15331.4,-24399.1 15347.1,-24439.5 15362.8,-24479.9 
  15378.5,-24520.3 15394.2,-24560.7 15409.9,-24601.1 15425.6,-24641.6 15441.3,-24682.1 15457,-24722.6 15472.7,-24763.1 15488.4,-24803.7 15504.1,-24844.2 15519.8,-24884.8 
  15535.5,-24925.4 15551.1,-24966 15566.8,-25006.7 15582.5,-25047.4 15598.2,-25088.1 15613.9,-25128.8 15629.6,-25169.5 15645.3,-25210.3 15661,-25251 15676.7,-25291.8 
  15692.4,-25332.6 15708.1,-25373.5 15723.8,-25414.3 15739.5,-25455.2 15755.2,-25496.1 15770.9,-25537 15786.5,-25578 15802.2,-25618.9 15817.9,-25659.9 15833.6,-25700.9 
  15849.3,-25742 15865,-25783 15880.7,-25824.1 15896.4,-25865.1 15912.1,-25906.3 15927.8,-25947.4 15943.5,-25988.5 15959.2,-26029.7 15974.9,-26070.9 15990.6,-26112.1 
  16006.3,-26153.3 
  "/>
</svg>
